%
M48
M72
T01C0.0150
T02C0.0236
T03C0.0335
T04C0.0400
T05C0.0453
T06C0.0520
T07C0.0720
T08C0.1180
T09C0.1260
T10C0.1339
%
T01
X25680Y19430
X28680Y19430
X28680Y18930
X28680Y18430
X35380Y18355
X35380Y18705
X33230Y50130
X33230Y52980
X32930Y57430
X32930Y58430
X21480Y58630
X47430Y56555
T02
X13230Y8805
X6230Y16955
X2580Y26830
X2455Y36930
X5955Y46930
X6055Y49305
X12580Y54980
X21755Y60355
X30430Y58430
X32930Y57930
X31805Y62205
X32180Y63555
X42305Y60430
X35555Y52305
X31930Y50805
X30805Y50680
X29930Y50555
X31055Y47430
X31355Y47105
X31680Y46780
X51305Y55305
X57930Y47555
X61630Y37905
X61805Y27430
X58480Y17705
X56055Y16055
X51830Y9480
X42680Y4030
X32505Y2130
X30680Y5055
X27205Y4705
X25180Y5055
X22430Y3730
X32180Y14055
X31680Y15930
X32680Y15930
X30155Y16655
X29930Y18305
X26180Y17555
X34820Y19445
X34820Y20445
X36680Y20555
X36680Y20055
X37180Y20055
X37180Y20555
X36555Y17680
X36930Y17305
X37305Y16930
X36680Y16305
X36305Y16680
X35930Y17055
X40430Y16955
T03
X27720Y2881
X27720Y2881
X25754Y3245
X25754Y3245
T04
X19930Y16430
X19930Y17430
X44430Y17430
X44430Y16430
X36430Y46930
X35430Y46930
X35530Y47930
X35430Y48930
X36430Y48930
X36530Y47930
X33430Y54330
X32430Y54430
X31430Y54330
X30430Y54430
X29430Y54330
X28430Y54430
X46314Y58680
X47180Y58180
X48046Y57680
T05
X25203Y2331
X25203Y2331
X27907Y1829
X27907Y1829
T06
X32205Y20530
X32155Y44080
T07
X17926Y41332
X15926Y41332
X16926Y43988
X15934Y22528
X17934Y22528
X16934Y19872
X46434Y22528
X48434Y22528
X47434Y19872
X48426Y41332
X46426Y41332
X47426Y43988
T08
X37511Y14420
X39143Y12949
T09
X40394Y14430
T10
X47430Y13180
X16930Y13180
X16930Y51430
X47430Y51430
M30
