G75*
%MOIN*%
%OFA0B0*%
%FSLAX24Y24*%
%IPPOS*%
%LPD*%
%AMOC8*
5,1,8,0,0,1.08239X$1,22.5*
%
%ADD10C,0.0160*%
%ADD11C,0.0000*%
%ADD12C,0.0060*%
%ADD13C,0.0040*%
%ADD14C,0.0030*%
%ADD15C,0.0100*%
%ADD16C,0.0240*%
%ADD17C,0.0250*%
%ADD18C,0.0080*%
%ADD19R,0.1500X0.1500*%
%ADD20C,0.0050*%
%ADD21C,0.0098*%
%ADD22C,0.0059*%
%ADD23C,0.0150*%
%ADD24R,0.0180X0.0300*%
%ADD25C,0.0120*%
%ADD26C,0.0220*%
%ADD27R,0.0150X0.0300*%
%ADD28R,0.0300X0.0150*%
%ADD29C,0.0028*%
%ADD30R,0.0709X0.0236*%
%ADD31R,0.0433X0.0236*%
%ADD32R,0.0300X0.0180*%
%ADD33R,0.0079X0.0020*%
%ADD34R,0.0098X0.0020*%
%ADD35R,0.0059X0.0020*%
%ADD36R,0.0118X0.0020*%
%ADD37R,0.0157X0.0020*%
%ADD38R,0.0197X0.0020*%
%ADD39R,0.0138X0.0020*%
%ADD40R,0.0217X0.0020*%
%ADD41R,0.0020X0.0020*%
%ADD42R,0.0354X0.0020*%
%ADD43R,0.0571X0.0020*%
%ADD44R,0.0531X0.0020*%
%ADD45R,0.0492X0.0020*%
%ADD46R,0.0039X0.0020*%
%ADD47R,0.0630X0.0020*%
%ADD48R,0.0768X0.0020*%
%ADD49R,0.0886X0.0020*%
%ADD50R,0.0394X0.0020*%
%ADD51R,0.0256X0.0020*%
%ADD52R,0.0177X0.0020*%
%ADD53R,0.0236X0.0020*%
%ADD54R,0.0295X0.0020*%
%ADD55R,0.0374X0.0020*%
%ADD56R,0.0413X0.0020*%
%ADD57R,0.0276X0.0020*%
%ADD58R,0.0472X0.0020*%
%ADD59R,0.0728X0.0020*%
%ADD60R,0.0610X0.0020*%
%ADD61R,0.0335X0.0020*%
D10*
X022180Y032180D02*
X022183Y032425D01*
X022192Y032671D01*
X022207Y032916D01*
X022228Y033160D01*
X022255Y033404D01*
X022288Y033647D01*
X022327Y033890D01*
X022372Y034131D01*
X022423Y034371D01*
X022480Y034610D01*
X022542Y034847D01*
X022611Y035083D01*
X022685Y035317D01*
X022765Y035549D01*
X022850Y035779D01*
X022941Y036007D01*
X023038Y036232D01*
X023140Y036456D01*
X023248Y036676D01*
X023361Y036894D01*
X023479Y037109D01*
X023603Y037321D01*
X023731Y037530D01*
X023865Y037736D01*
X024004Y037938D01*
X024148Y038137D01*
X024297Y038332D01*
X024450Y038524D01*
X024608Y038712D01*
X024770Y038896D01*
X024938Y039075D01*
X025109Y039251D01*
X025285Y039422D01*
X025464Y039590D01*
X025648Y039752D01*
X025836Y039910D01*
X026028Y040063D01*
X026223Y040212D01*
X026422Y040356D01*
X026624Y040495D01*
X026830Y040629D01*
X027039Y040757D01*
X027251Y040881D01*
X027466Y040999D01*
X027684Y041112D01*
X027904Y041220D01*
X028128Y041322D01*
X028353Y041419D01*
X028581Y041510D01*
X028811Y041595D01*
X029043Y041675D01*
X029277Y041749D01*
X029513Y041818D01*
X029750Y041880D01*
X029989Y041937D01*
X030229Y041988D01*
X030470Y042033D01*
X030713Y042072D01*
X030956Y042105D01*
X031200Y042132D01*
X031444Y042153D01*
X031689Y042168D01*
X031935Y042177D01*
X032180Y042180D01*
X032425Y042177D01*
X032671Y042168D01*
X032916Y042153D01*
X033160Y042132D01*
X033404Y042105D01*
X033647Y042072D01*
X033890Y042033D01*
X034131Y041988D01*
X034371Y041937D01*
X034610Y041880D01*
X034847Y041818D01*
X035083Y041749D01*
X035317Y041675D01*
X035549Y041595D01*
X035779Y041510D01*
X036007Y041419D01*
X036232Y041322D01*
X036456Y041220D01*
X036676Y041112D01*
X036894Y040999D01*
X037109Y040881D01*
X037321Y040757D01*
X037530Y040629D01*
X037736Y040495D01*
X037938Y040356D01*
X038137Y040212D01*
X038332Y040063D01*
X038524Y039910D01*
X038712Y039752D01*
X038896Y039590D01*
X039075Y039422D01*
X039251Y039251D01*
X039422Y039075D01*
X039590Y038896D01*
X039752Y038712D01*
X039910Y038524D01*
X040063Y038332D01*
X040212Y038137D01*
X040356Y037938D01*
X040495Y037736D01*
X040629Y037530D01*
X040757Y037321D01*
X040881Y037109D01*
X040999Y036894D01*
X041112Y036676D01*
X041220Y036456D01*
X041322Y036232D01*
X041419Y036007D01*
X041510Y035779D01*
X041595Y035549D01*
X041675Y035317D01*
X041749Y035083D01*
X041818Y034847D01*
X041880Y034610D01*
X041937Y034371D01*
X041988Y034131D01*
X042033Y033890D01*
X042072Y033647D01*
X042105Y033404D01*
X042132Y033160D01*
X042153Y032916D01*
X042168Y032671D01*
X042177Y032425D01*
X042180Y032180D01*
X042177Y031935D01*
X042168Y031689D01*
X042153Y031444D01*
X042132Y031200D01*
X042105Y030956D01*
X042072Y030713D01*
X042033Y030470D01*
X041988Y030229D01*
X041937Y029989D01*
X041880Y029750D01*
X041818Y029513D01*
X041749Y029277D01*
X041675Y029043D01*
X041595Y028811D01*
X041510Y028581D01*
X041419Y028353D01*
X041322Y028128D01*
X041220Y027904D01*
X041112Y027684D01*
X040999Y027466D01*
X040881Y027251D01*
X040757Y027039D01*
X040629Y026830D01*
X040495Y026624D01*
X040356Y026422D01*
X040212Y026223D01*
X040063Y026028D01*
X039910Y025836D01*
X039752Y025648D01*
X039590Y025464D01*
X039422Y025285D01*
X039251Y025109D01*
X039075Y024938D01*
X038896Y024770D01*
X038712Y024608D01*
X038524Y024450D01*
X038332Y024297D01*
X038137Y024148D01*
X037938Y024004D01*
X037736Y023865D01*
X037530Y023731D01*
X037321Y023603D01*
X037109Y023479D01*
X036894Y023361D01*
X036676Y023248D01*
X036456Y023140D01*
X036232Y023038D01*
X036007Y022941D01*
X035779Y022850D01*
X035549Y022765D01*
X035317Y022685D01*
X035083Y022611D01*
X034847Y022542D01*
X034610Y022480D01*
X034371Y022423D01*
X034131Y022372D01*
X033890Y022327D01*
X033647Y022288D01*
X033404Y022255D01*
X033160Y022228D01*
X032916Y022207D01*
X032671Y022192D01*
X032425Y022183D01*
X032180Y022180D01*
X031935Y022183D01*
X031689Y022192D01*
X031444Y022207D01*
X031200Y022228D01*
X030956Y022255D01*
X030713Y022288D01*
X030470Y022327D01*
X030229Y022372D01*
X029989Y022423D01*
X029750Y022480D01*
X029513Y022542D01*
X029277Y022611D01*
X029043Y022685D01*
X028811Y022765D01*
X028581Y022850D01*
X028353Y022941D01*
X028128Y023038D01*
X027904Y023140D01*
X027684Y023248D01*
X027466Y023361D01*
X027251Y023479D01*
X027039Y023603D01*
X026830Y023731D01*
X026624Y023865D01*
X026422Y024004D01*
X026223Y024148D01*
X026028Y024297D01*
X025836Y024450D01*
X025648Y024608D01*
X025464Y024770D01*
X025285Y024938D01*
X025109Y025109D01*
X024938Y025285D01*
X024770Y025464D01*
X024608Y025648D01*
X024450Y025836D01*
X024297Y026028D01*
X024148Y026223D01*
X024004Y026422D01*
X023865Y026624D01*
X023731Y026830D01*
X023603Y027039D01*
X023479Y027251D01*
X023361Y027466D01*
X023248Y027684D01*
X023140Y027904D01*
X023038Y028128D01*
X022941Y028353D01*
X022850Y028581D01*
X022765Y028811D01*
X022685Y029043D01*
X022611Y029277D01*
X022542Y029513D01*
X022480Y029750D01*
X022423Y029989D01*
X022372Y030229D01*
X022327Y030470D01*
X022288Y030713D01*
X022255Y030956D01*
X022228Y031200D01*
X022207Y031444D01*
X022192Y031689D01*
X022183Y031935D01*
X022180Y032180D01*
X000180Y032180D02*
X000190Y032965D01*
X000219Y033750D01*
X000267Y034534D01*
X000334Y035317D01*
X000421Y036097D01*
X000526Y036875D01*
X000651Y037651D01*
X000795Y038423D01*
X000958Y039191D01*
X001139Y039955D01*
X001339Y040715D01*
X001558Y041469D01*
X001795Y042218D01*
X002051Y042960D01*
X002324Y043697D01*
X002616Y044426D01*
X002925Y045148D01*
X003252Y045862D01*
X003597Y046568D01*
X003959Y047265D01*
X004337Y047953D01*
X004733Y048631D01*
X005145Y049300D01*
X005573Y049958D01*
X006017Y050606D01*
X006477Y051242D01*
X006953Y051867D01*
X007444Y052481D01*
X007949Y053082D01*
X008470Y053670D01*
X009004Y054245D01*
X009553Y054807D01*
X010115Y055356D01*
X010690Y055890D01*
X011278Y056411D01*
X011879Y056916D01*
X012493Y057407D01*
X013118Y057883D01*
X013754Y058343D01*
X014402Y058787D01*
X015060Y059215D01*
X015729Y059627D01*
X016407Y060023D01*
X017095Y060401D01*
X017792Y060763D01*
X018498Y061108D01*
X019212Y061435D01*
X019934Y061744D01*
X020663Y062036D01*
X021400Y062309D01*
X022142Y062565D01*
X022891Y062802D01*
X023645Y063021D01*
X024405Y063221D01*
X025169Y063402D01*
X025937Y063565D01*
X026709Y063709D01*
X027485Y063834D01*
X028263Y063939D01*
X029043Y064026D01*
X029826Y064093D01*
X030610Y064141D01*
X031395Y064170D01*
X032180Y064180D01*
X032965Y064170D01*
X033750Y064141D01*
X034534Y064093D01*
X035317Y064026D01*
X036097Y063939D01*
X036875Y063834D01*
X037651Y063709D01*
X038423Y063565D01*
X039191Y063402D01*
X039955Y063221D01*
X040715Y063021D01*
X041469Y062802D01*
X042218Y062565D01*
X042960Y062309D01*
X043697Y062036D01*
X044426Y061744D01*
X045148Y061435D01*
X045862Y061108D01*
X046568Y060763D01*
X047265Y060401D01*
X047953Y060023D01*
X048631Y059627D01*
X049300Y059215D01*
X049958Y058787D01*
X050606Y058343D01*
X051242Y057883D01*
X051867Y057407D01*
X052481Y056916D01*
X053082Y056411D01*
X053670Y055890D01*
X054245Y055356D01*
X054807Y054807D01*
X055356Y054245D01*
X055890Y053670D01*
X056411Y053082D01*
X056916Y052481D01*
X057407Y051867D01*
X057883Y051242D01*
X058343Y050606D01*
X058787Y049958D01*
X059215Y049300D01*
X059627Y048631D01*
X060023Y047953D01*
X060401Y047265D01*
X060763Y046568D01*
X061108Y045862D01*
X061435Y045148D01*
X061744Y044426D01*
X062036Y043697D01*
X062309Y042960D01*
X062565Y042218D01*
X062802Y041469D01*
X063021Y040715D01*
X063221Y039955D01*
X063402Y039191D01*
X063565Y038423D01*
X063709Y037651D01*
X063834Y036875D01*
X063939Y036097D01*
X064026Y035317D01*
X064093Y034534D01*
X064141Y033750D01*
X064170Y032965D01*
X064180Y032180D01*
X064170Y031395D01*
X064141Y030610D01*
X064093Y029826D01*
X064026Y029043D01*
X063939Y028263D01*
X063834Y027485D01*
X063709Y026709D01*
X063565Y025937D01*
X063402Y025169D01*
X063221Y024405D01*
X063021Y023645D01*
X062802Y022891D01*
X062565Y022142D01*
X062309Y021400D01*
X062036Y020663D01*
X061744Y019934D01*
X061435Y019212D01*
X061108Y018498D01*
X060763Y017792D01*
X060401Y017095D01*
X060023Y016407D01*
X059627Y015729D01*
X059215Y015060D01*
X058787Y014402D01*
X058343Y013754D01*
X057883Y013118D01*
X057407Y012493D01*
X056916Y011879D01*
X056411Y011278D01*
X055890Y010690D01*
X055356Y010115D01*
X054807Y009553D01*
X054245Y009004D01*
X053670Y008470D01*
X053082Y007949D01*
X052481Y007444D01*
X051867Y006953D01*
X051242Y006477D01*
X050606Y006017D01*
X049958Y005573D01*
X049300Y005145D01*
X048631Y004733D01*
X047953Y004337D01*
X047265Y003959D01*
X046568Y003597D01*
X045862Y003252D01*
X045148Y002925D01*
X044426Y002616D01*
X043697Y002324D01*
X042960Y002051D01*
X042218Y001795D01*
X041469Y001558D01*
X040715Y001339D01*
X039955Y001139D01*
X039191Y000958D01*
X038423Y000795D01*
X037651Y000651D01*
X036875Y000526D01*
X036097Y000421D01*
X035317Y000334D01*
X034534Y000267D01*
X033750Y000219D01*
X032965Y000190D01*
X032180Y000180D01*
X031395Y000190D01*
X030610Y000219D01*
X029826Y000267D01*
X029043Y000334D01*
X028263Y000421D01*
X027485Y000526D01*
X026709Y000651D01*
X025937Y000795D01*
X025169Y000958D01*
X024405Y001139D01*
X023645Y001339D01*
X022891Y001558D01*
X022142Y001795D01*
X021400Y002051D01*
X020663Y002324D01*
X019934Y002616D01*
X019212Y002925D01*
X018498Y003252D01*
X017792Y003597D01*
X017095Y003959D01*
X016407Y004337D01*
X015729Y004733D01*
X015060Y005145D01*
X014402Y005573D01*
X013754Y006017D01*
X013118Y006477D01*
X012493Y006953D01*
X011879Y007444D01*
X011278Y007949D01*
X010690Y008470D01*
X010115Y009004D01*
X009553Y009553D01*
X009004Y010115D01*
X008470Y010690D01*
X007949Y011278D01*
X007444Y011879D01*
X006953Y012493D01*
X006477Y013118D01*
X006017Y013754D01*
X005573Y014402D01*
X005145Y015060D01*
X004733Y015729D01*
X004337Y016407D01*
X003959Y017095D01*
X003597Y017792D01*
X003252Y018498D01*
X002925Y019212D01*
X002616Y019934D01*
X002324Y020663D01*
X002051Y021400D01*
X001795Y022142D01*
X001558Y022891D01*
X001339Y023645D01*
X001139Y024405D01*
X000958Y025169D01*
X000795Y025937D01*
X000651Y026709D01*
X000526Y027485D01*
X000421Y028263D01*
X000334Y029043D01*
X000267Y029826D01*
X000219Y030610D01*
X000190Y031395D01*
X000180Y032180D01*
X038293Y019455D02*
X038317Y019455D01*
X048297Y058113D02*
X048290Y058181D01*
X048280Y058247D01*
X048267Y058313D01*
X048249Y058379D01*
X048228Y058443D01*
X048203Y058506D01*
X048175Y058567D01*
X048144Y058627D01*
X048109Y058684D01*
X048071Y058740D01*
X048030Y058794D01*
X047986Y058845D01*
X047939Y058894D01*
X047890Y058940D01*
X047838Y058983D01*
X047783Y059023D01*
X047727Y059060D01*
X047669Y059093D01*
X047608Y059124D01*
X047546Y059151D01*
X047483Y059174D01*
X047419Y059194D01*
X047353Y059210D01*
X047287Y059223D01*
X047220Y059232D01*
X047153Y059237D01*
X047085Y059238D01*
X047018Y059235D01*
X046950Y059229D01*
X046884Y059219D01*
X046818Y059205D01*
X046752Y059188D01*
X046688Y059166D01*
X046626Y059142D01*
X046564Y059113D01*
X048296Y058113D01*
D11*
X046761Y051430D02*
X046763Y051481D01*
X046769Y051532D01*
X046779Y051582D01*
X046792Y051632D01*
X046810Y051680D01*
X046830Y051727D01*
X046855Y051772D01*
X046883Y051815D01*
X046914Y051856D01*
X046948Y051894D01*
X046985Y051929D01*
X047024Y051962D01*
X047066Y051992D01*
X047110Y052018D01*
X047156Y052040D01*
X047204Y052060D01*
X047253Y052075D01*
X047303Y052087D01*
X047353Y052095D01*
X047404Y052099D01*
X047456Y052099D01*
X047507Y052095D01*
X047557Y052087D01*
X047607Y052075D01*
X047656Y052060D01*
X047704Y052040D01*
X047750Y052018D01*
X047794Y051992D01*
X047836Y051962D01*
X047875Y051929D01*
X047912Y051894D01*
X047946Y051856D01*
X047977Y051815D01*
X048005Y051772D01*
X048030Y051727D01*
X048050Y051680D01*
X048068Y051632D01*
X048081Y051582D01*
X048091Y051532D01*
X048097Y051481D01*
X048099Y051430D01*
X048097Y051379D01*
X048091Y051328D01*
X048081Y051278D01*
X048068Y051228D01*
X048050Y051180D01*
X048030Y051133D01*
X048005Y051088D01*
X047977Y051045D01*
X047946Y051004D01*
X047912Y050966D01*
X047875Y050931D01*
X047836Y050898D01*
X047794Y050868D01*
X047750Y050842D01*
X047704Y050820D01*
X047656Y050800D01*
X047607Y050785D01*
X047557Y050773D01*
X047507Y050765D01*
X047456Y050761D01*
X047404Y050761D01*
X047353Y050765D01*
X047303Y050773D01*
X047253Y050785D01*
X047204Y050800D01*
X047156Y050820D01*
X047110Y050842D01*
X047066Y050868D01*
X047024Y050898D01*
X046985Y050931D01*
X046948Y050966D01*
X046914Y051004D01*
X046883Y051045D01*
X046855Y051088D01*
X046830Y051133D01*
X046810Y051180D01*
X046792Y051228D01*
X046779Y051278D01*
X046769Y051328D01*
X046763Y051379D01*
X046761Y051430D01*
X016261Y051430D02*
X016263Y051481D01*
X016269Y051532D01*
X016279Y051582D01*
X016292Y051632D01*
X016310Y051680D01*
X016330Y051727D01*
X016355Y051772D01*
X016383Y051815D01*
X016414Y051856D01*
X016448Y051894D01*
X016485Y051929D01*
X016524Y051962D01*
X016566Y051992D01*
X016610Y052018D01*
X016656Y052040D01*
X016704Y052060D01*
X016753Y052075D01*
X016803Y052087D01*
X016853Y052095D01*
X016904Y052099D01*
X016956Y052099D01*
X017007Y052095D01*
X017057Y052087D01*
X017107Y052075D01*
X017156Y052060D01*
X017204Y052040D01*
X017250Y052018D01*
X017294Y051992D01*
X017336Y051962D01*
X017375Y051929D01*
X017412Y051894D01*
X017446Y051856D01*
X017477Y051815D01*
X017505Y051772D01*
X017530Y051727D01*
X017550Y051680D01*
X017568Y051632D01*
X017581Y051582D01*
X017591Y051532D01*
X017597Y051481D01*
X017599Y051430D01*
X017597Y051379D01*
X017591Y051328D01*
X017581Y051278D01*
X017568Y051228D01*
X017550Y051180D01*
X017530Y051133D01*
X017505Y051088D01*
X017477Y051045D01*
X017446Y051004D01*
X017412Y050966D01*
X017375Y050931D01*
X017336Y050898D01*
X017294Y050868D01*
X017250Y050842D01*
X017204Y050820D01*
X017156Y050800D01*
X017107Y050785D01*
X017057Y050773D01*
X017007Y050765D01*
X016956Y050761D01*
X016904Y050761D01*
X016853Y050765D01*
X016803Y050773D01*
X016753Y050785D01*
X016704Y050800D01*
X016656Y050820D01*
X016610Y050842D01*
X016566Y050868D01*
X016524Y050898D01*
X016485Y050931D01*
X016448Y050966D01*
X016414Y051004D01*
X016383Y051045D01*
X016355Y051088D01*
X016330Y051133D01*
X016310Y051180D01*
X016292Y051228D01*
X016279Y051278D01*
X016269Y051328D01*
X016263Y051379D01*
X016261Y051430D01*
X016261Y013180D02*
X016263Y013231D01*
X016269Y013282D01*
X016279Y013332D01*
X016292Y013382D01*
X016310Y013430D01*
X016330Y013477D01*
X016355Y013522D01*
X016383Y013565D01*
X016414Y013606D01*
X016448Y013644D01*
X016485Y013679D01*
X016524Y013712D01*
X016566Y013742D01*
X016610Y013768D01*
X016656Y013790D01*
X016704Y013810D01*
X016753Y013825D01*
X016803Y013837D01*
X016853Y013845D01*
X016904Y013849D01*
X016956Y013849D01*
X017007Y013845D01*
X017057Y013837D01*
X017107Y013825D01*
X017156Y013810D01*
X017204Y013790D01*
X017250Y013768D01*
X017294Y013742D01*
X017336Y013712D01*
X017375Y013679D01*
X017412Y013644D01*
X017446Y013606D01*
X017477Y013565D01*
X017505Y013522D01*
X017530Y013477D01*
X017550Y013430D01*
X017568Y013382D01*
X017581Y013332D01*
X017591Y013282D01*
X017597Y013231D01*
X017599Y013180D01*
X017597Y013129D01*
X017591Y013078D01*
X017581Y013028D01*
X017568Y012978D01*
X017550Y012930D01*
X017530Y012883D01*
X017505Y012838D01*
X017477Y012795D01*
X017446Y012754D01*
X017412Y012716D01*
X017375Y012681D01*
X017336Y012648D01*
X017294Y012618D01*
X017250Y012592D01*
X017204Y012570D01*
X017156Y012550D01*
X017107Y012535D01*
X017057Y012523D01*
X017007Y012515D01*
X016956Y012511D01*
X016904Y012511D01*
X016853Y012515D01*
X016803Y012523D01*
X016753Y012535D01*
X016704Y012550D01*
X016656Y012570D01*
X016610Y012592D01*
X016566Y012618D01*
X016524Y012648D01*
X016485Y012681D01*
X016448Y012716D01*
X016414Y012754D01*
X016383Y012795D01*
X016355Y012838D01*
X016330Y012883D01*
X016310Y012930D01*
X016292Y012978D01*
X016279Y013028D01*
X016269Y013078D01*
X016263Y013129D01*
X016261Y013180D01*
X046761Y013180D02*
X046763Y013231D01*
X046769Y013282D01*
X046779Y013332D01*
X046792Y013382D01*
X046810Y013430D01*
X046830Y013477D01*
X046855Y013522D01*
X046883Y013565D01*
X046914Y013606D01*
X046948Y013644D01*
X046985Y013679D01*
X047024Y013712D01*
X047066Y013742D01*
X047110Y013768D01*
X047156Y013790D01*
X047204Y013810D01*
X047253Y013825D01*
X047303Y013837D01*
X047353Y013845D01*
X047404Y013849D01*
X047456Y013849D01*
X047507Y013845D01*
X047557Y013837D01*
X047607Y013825D01*
X047656Y013810D01*
X047704Y013790D01*
X047750Y013768D01*
X047794Y013742D01*
X047836Y013712D01*
X047875Y013679D01*
X047912Y013644D01*
X047946Y013606D01*
X047977Y013565D01*
X048005Y013522D01*
X048030Y013477D01*
X048050Y013430D01*
X048068Y013382D01*
X048081Y013332D01*
X048091Y013282D01*
X048097Y013231D01*
X048099Y013180D01*
X048097Y013129D01*
X048091Y013078D01*
X048081Y013028D01*
X048068Y012978D01*
X048050Y012930D01*
X048030Y012883D01*
X048005Y012838D01*
X047977Y012795D01*
X047946Y012754D01*
X047912Y012716D01*
X047875Y012681D01*
X047836Y012648D01*
X047794Y012618D01*
X047750Y012592D01*
X047704Y012570D01*
X047656Y012550D01*
X047607Y012535D01*
X047557Y012523D01*
X047507Y012515D01*
X047456Y012511D01*
X047404Y012511D01*
X047353Y012515D01*
X047303Y012523D01*
X047253Y012535D01*
X047204Y012550D01*
X047156Y012570D01*
X047110Y012592D01*
X047066Y012618D01*
X047024Y012648D01*
X046985Y012681D01*
X046948Y012716D01*
X046914Y012754D01*
X046883Y012795D01*
X046855Y012838D01*
X046830Y012883D01*
X046810Y012930D01*
X046792Y012978D01*
X046779Y013028D01*
X046769Y013078D01*
X046763Y013129D01*
X046761Y013180D01*
D12*
X041266Y017137D02*
X041266Y017373D01*
X040794Y017373D02*
X040794Y017137D01*
X035666Y019687D02*
X035666Y019923D01*
X035194Y019923D02*
X035194Y019687D01*
X032680Y017205D02*
X031680Y017205D01*
X031663Y017203D01*
X031646Y017199D01*
X031630Y017192D01*
X031616Y017182D01*
X031603Y017169D01*
X031593Y017155D01*
X031586Y017139D01*
X031582Y017122D01*
X031580Y017105D01*
X031580Y016505D01*
X031582Y016488D01*
X031586Y016471D01*
X031593Y016455D01*
X031603Y016441D01*
X031616Y016428D01*
X031630Y016418D01*
X031646Y016411D01*
X031663Y016407D01*
X031680Y016405D01*
X032680Y016405D01*
X032697Y016407D01*
X032714Y016411D01*
X032730Y016418D01*
X032744Y016428D01*
X032757Y016441D01*
X032767Y016455D01*
X032774Y016471D01*
X032778Y016488D01*
X032780Y016505D01*
X032780Y017105D01*
X032778Y017122D01*
X032774Y017139D01*
X032767Y017155D01*
X032757Y017169D01*
X032744Y017182D01*
X032730Y017192D01*
X032714Y017199D01*
X032697Y017203D01*
X032680Y017205D01*
X028366Y020062D02*
X028366Y020298D01*
X027894Y020298D02*
X027894Y020062D01*
X025916Y020062D02*
X025916Y020298D01*
X025444Y020298D02*
X025444Y020062D01*
X018675Y027295D02*
X018675Y027788D01*
X018675Y027542D02*
X017934Y027542D01*
X018181Y027295D01*
X018181Y028031D02*
X018058Y028031D01*
X017934Y028155D01*
X017934Y028402D01*
X018058Y028525D01*
X018181Y028525D01*
X018305Y028402D01*
X018305Y028155D01*
X018181Y028031D01*
X018305Y028155D02*
X018428Y028031D01*
X018552Y028031D01*
X018675Y028155D01*
X018675Y028402D01*
X018552Y028525D01*
X018428Y028525D01*
X018305Y028402D01*
X018305Y028768D02*
X018058Y029015D01*
X017934Y029262D01*
X017934Y029505D02*
X018305Y029505D01*
X018181Y029751D01*
X018181Y029875D01*
X018305Y029998D01*
X018552Y029998D01*
X018675Y029875D01*
X018675Y029628D01*
X018552Y029505D01*
X018552Y029262D02*
X018428Y029262D01*
X018305Y029138D01*
X018305Y028768D01*
X018552Y028768D01*
X018675Y028891D01*
X018675Y029138D01*
X018552Y029262D01*
X017934Y029505D02*
X017934Y029998D01*
X018058Y030241D02*
X017934Y030365D01*
X017934Y030612D01*
X018058Y030735D01*
X018552Y030241D01*
X018675Y030365D01*
X018675Y030612D01*
X018552Y030735D01*
X018058Y030735D01*
X018058Y030241D02*
X018552Y030241D01*
X018675Y031714D02*
X017934Y031714D01*
X018675Y031714D02*
X018675Y032208D01*
X018675Y032451D02*
X018675Y032698D01*
X018675Y032575D02*
X018181Y032575D01*
X018181Y032451D01*
X017934Y032575D02*
X017811Y032575D01*
X017934Y032942D02*
X017934Y033436D01*
X018181Y033802D02*
X018181Y034049D01*
X018305Y034173D01*
X018428Y034173D01*
X018428Y033679D01*
X018305Y033679D02*
X018181Y033802D01*
X018305Y033679D02*
X018552Y033679D01*
X018675Y033802D01*
X018675Y034049D01*
X018675Y034415D02*
X017934Y034415D01*
X017934Y034786D01*
X018058Y034909D01*
X018305Y034909D01*
X018428Y034786D01*
X018428Y034415D01*
X018552Y035152D02*
X018058Y035152D01*
X017934Y035275D01*
X017934Y035522D01*
X018058Y035646D01*
X018552Y035646D01*
X018675Y035522D01*
X018675Y035275D01*
X018552Y035152D01*
X018305Y035889D02*
X018305Y036382D01*
X018675Y036259D02*
X017934Y036259D01*
X018305Y035889D01*
X015925Y034725D02*
X015431Y034725D01*
X015184Y034478D01*
X015431Y034231D01*
X015925Y034231D01*
X015555Y034231D02*
X015555Y034725D01*
X015431Y033252D02*
X016048Y033252D01*
X016172Y033128D01*
X016172Y033005D01*
X015925Y032881D02*
X015925Y033252D01*
X015925Y032881D02*
X015802Y032758D01*
X015431Y032758D01*
X015431Y032514D02*
X015431Y032391D01*
X015678Y032144D01*
X015678Y031901D02*
X015678Y031408D01*
X015555Y031408D02*
X015431Y031531D01*
X015431Y031778D01*
X015555Y031901D01*
X015678Y031901D01*
X015925Y031778D02*
X015925Y031531D01*
X015802Y031408D01*
X015555Y031408D01*
X015431Y031163D02*
X015431Y030916D01*
X015308Y031040D02*
X015802Y031040D01*
X015925Y031163D01*
X015925Y030672D02*
X015802Y030549D01*
X015308Y030549D01*
X015431Y030672D02*
X015431Y030425D01*
X015555Y030182D02*
X015431Y030059D01*
X015431Y029812D01*
X015678Y029812D02*
X015802Y029689D01*
X015925Y029812D01*
X015925Y030182D01*
X015555Y030182D01*
X015678Y030182D02*
X015678Y029812D01*
X015678Y029446D02*
X015802Y029446D01*
X015925Y029322D01*
X015925Y028952D01*
X015184Y028952D01*
X015184Y029322D01*
X015308Y029446D01*
X015431Y029446D01*
X015555Y029322D01*
X015555Y028952D01*
X015555Y029322D02*
X015678Y029446D01*
X015925Y032144D02*
X015431Y032144D01*
X017934Y032942D02*
X018675Y032942D01*
X018305Y032942D02*
X018305Y033189D01*
X011675Y027774D02*
X011248Y027774D01*
X011034Y027560D01*
X011248Y027347D01*
X011675Y027347D01*
X011568Y027129D02*
X011675Y027023D01*
X011675Y026809D01*
X011568Y026702D01*
X011355Y026809D02*
X011355Y027023D01*
X011461Y027129D01*
X011568Y027129D01*
X011355Y027347D02*
X011355Y027774D01*
X011141Y027129D02*
X011034Y027023D01*
X011034Y026809D01*
X011141Y026702D01*
X011248Y026702D01*
X011355Y026809D01*
X011355Y026485D02*
X011355Y026058D01*
X011141Y025840D02*
X011034Y025840D01*
X011141Y025840D02*
X011355Y025627D01*
X011675Y025627D01*
X011355Y025627D02*
X011141Y025413D01*
X011034Y025413D01*
X011141Y025196D02*
X011248Y025196D01*
X011355Y025089D01*
X011355Y024769D01*
X011355Y025089D02*
X011461Y025196D01*
X011568Y025196D01*
X011675Y025089D01*
X011675Y024769D01*
X011034Y024769D01*
X011034Y025089D01*
X011141Y025196D01*
X010625Y025198D02*
X010198Y025198D01*
X010198Y025519D01*
X010305Y025625D01*
X010625Y025625D01*
X010625Y025843D02*
X010625Y026163D01*
X010518Y026270D01*
X010411Y026163D01*
X010411Y025950D01*
X010305Y025843D01*
X010198Y025950D01*
X010198Y026270D01*
X010305Y026487D02*
X010198Y026594D01*
X010198Y026808D01*
X010305Y026914D01*
X010411Y026914D01*
X010411Y026487D01*
X010305Y026487D02*
X010518Y026487D01*
X010625Y026594D01*
X010625Y026808D01*
X010518Y027132D02*
X010305Y027132D01*
X010198Y027239D01*
X010198Y027559D01*
X009984Y027559D02*
X010625Y027559D01*
X010625Y027239D01*
X010518Y027132D01*
X009575Y027237D02*
X009575Y027024D01*
X009468Y026917D01*
X009255Y026917D01*
X009255Y027237D01*
X009361Y027344D01*
X009468Y027344D01*
X009575Y027237D01*
X009255Y026917D02*
X009041Y027131D01*
X008934Y027344D01*
X009575Y026700D02*
X009575Y026273D01*
X009575Y026486D02*
X008934Y026486D01*
X009148Y026273D01*
X009041Y026055D02*
X009468Y026055D01*
X009575Y025948D01*
X009575Y025735D01*
X009468Y025628D01*
X009041Y026055D01*
X008934Y025948D01*
X008934Y025735D01*
X009041Y025628D01*
X009468Y025628D01*
X009575Y025411D02*
X009575Y024983D01*
X009148Y025411D01*
X009041Y025411D01*
X008934Y025304D01*
X008934Y025090D01*
X009041Y024983D01*
X009148Y024123D02*
X008934Y023909D01*
X009041Y023692D02*
X008934Y023585D01*
X008934Y023371D01*
X009041Y023265D01*
X009468Y023265D01*
X009575Y023371D01*
X009575Y023585D01*
X009468Y023692D01*
X009575Y023909D02*
X009361Y024123D01*
X009148Y024123D01*
X009878Y023586D02*
X009984Y023586D01*
X010198Y023586D02*
X010625Y023586D01*
X010625Y023480D02*
X010625Y023693D01*
X010518Y023909D02*
X010305Y023909D01*
X010198Y024016D01*
X010198Y024336D01*
X010305Y024554D02*
X010198Y024661D01*
X010198Y024874D01*
X010305Y024981D01*
X010411Y024981D01*
X010411Y024554D01*
X010305Y024554D02*
X010518Y024554D01*
X010625Y024661D01*
X010625Y024874D01*
X010625Y024336D02*
X010625Y024016D01*
X010518Y023909D01*
X010198Y023586D02*
X010198Y023480D01*
X010625Y023262D02*
X010625Y022835D01*
X009984Y022835D01*
X009575Y023049D02*
X009361Y022835D01*
X009148Y022835D01*
X008934Y023049D01*
X011034Y023155D02*
X011034Y022942D01*
X011141Y022835D01*
X011568Y022835D01*
X011675Y022942D01*
X011675Y023155D01*
X011568Y023262D01*
X011568Y023480D02*
X011675Y023586D01*
X011675Y023800D01*
X011568Y023907D01*
X011141Y023907D02*
X011034Y023800D01*
X011034Y023586D01*
X011141Y023480D01*
X011568Y023480D01*
X011141Y023262D02*
X011034Y023155D01*
X009575Y028206D02*
X009575Y028527D01*
X009468Y028633D01*
X009361Y028527D01*
X009361Y028313D01*
X009255Y028206D01*
X009148Y028313D01*
X009148Y028633D01*
X009255Y028851D02*
X009148Y028958D01*
X009148Y029171D01*
X009255Y029278D01*
X009361Y029278D01*
X009361Y028851D01*
X009255Y028851D02*
X009468Y028851D01*
X009575Y028958D01*
X009575Y029171D01*
X009575Y029495D02*
X009148Y029495D01*
X009148Y029816D01*
X009255Y029922D01*
X009575Y029922D01*
X009984Y030137D02*
X010625Y030137D01*
X010625Y029817D01*
X010518Y029710D01*
X010305Y029710D01*
X010198Y029817D01*
X010198Y030137D01*
X010305Y030355D02*
X010198Y030462D01*
X010198Y030675D01*
X010305Y030782D01*
X010411Y030782D01*
X010411Y030355D01*
X010305Y030355D02*
X010518Y030355D01*
X010625Y030462D01*
X010625Y030675D01*
X010625Y030999D02*
X010198Y030999D01*
X010411Y030999D02*
X010198Y031213D01*
X010198Y031320D01*
X010091Y032181D02*
X010518Y032181D01*
X010625Y032288D01*
X010625Y032501D01*
X010518Y032608D01*
X010411Y032826D02*
X010198Y033039D01*
X010198Y033146D01*
X010305Y033363D02*
X010198Y033469D01*
X010198Y033683D01*
X010305Y033790D01*
X010411Y033790D01*
X010411Y033363D01*
X010305Y033363D02*
X010518Y033363D01*
X010625Y033469D01*
X010625Y033683D01*
X010518Y034007D02*
X010411Y034114D01*
X010411Y034434D01*
X010305Y034434D02*
X010625Y034434D01*
X010625Y034114D01*
X010518Y034007D01*
X010198Y034114D02*
X010198Y034327D01*
X010305Y034434D01*
X010198Y034652D02*
X010198Y034865D01*
X010091Y034759D02*
X010518Y034759D01*
X010625Y034865D01*
X010625Y035081D02*
X010625Y035295D01*
X010625Y035188D02*
X010198Y035188D01*
X010198Y035081D01*
X009984Y035188D02*
X009878Y035188D01*
X010198Y035511D02*
X010625Y035725D01*
X010198Y035938D01*
X010305Y036156D02*
X010198Y036262D01*
X010198Y036476D01*
X010305Y036583D01*
X010411Y036583D01*
X010411Y036156D01*
X010305Y036156D02*
X010518Y036156D01*
X010625Y036262D01*
X010625Y036476D01*
X010518Y037445D02*
X010091Y037445D01*
X009984Y037552D01*
X009984Y037765D01*
X010091Y037872D01*
X010305Y038089D02*
X010518Y038089D01*
X010625Y038196D01*
X010625Y038410D01*
X010518Y038516D01*
X010305Y038516D01*
X010198Y038410D01*
X010198Y038196D01*
X010305Y038089D01*
X010518Y037872D02*
X010625Y037765D01*
X010625Y037552D01*
X010518Y037445D01*
X010625Y038734D02*
X010198Y038734D01*
X010198Y038841D01*
X010305Y038947D01*
X010198Y039054D01*
X010305Y039161D01*
X010625Y039161D01*
X010625Y038947D02*
X010305Y038947D01*
X010198Y039378D02*
X010198Y039485D01*
X010305Y039592D01*
X010198Y039699D01*
X010305Y039805D01*
X010625Y039805D01*
X010625Y039592D02*
X010305Y039592D01*
X010198Y039378D02*
X010625Y039378D01*
X010518Y040023D02*
X010305Y040023D01*
X010198Y040130D01*
X010198Y040343D01*
X010305Y040450D01*
X010518Y040450D01*
X010625Y040343D01*
X010625Y040130D01*
X010518Y040023D01*
X010625Y040668D02*
X010198Y040668D01*
X010198Y040988D01*
X010305Y041095D01*
X010625Y041095D01*
X010625Y041312D02*
X010625Y041632D01*
X010518Y041739D01*
X010411Y041632D01*
X010411Y041419D01*
X010305Y041312D01*
X010198Y041419D01*
X010198Y041739D01*
X010198Y032826D02*
X010625Y032826D01*
X010091Y032608D02*
X009984Y032501D01*
X009984Y032288D01*
X010091Y032181D01*
X010305Y029493D02*
X010625Y029493D01*
X010305Y029493D02*
X010198Y029386D01*
X010198Y029066D01*
X010625Y029066D01*
X010625Y028848D02*
X010198Y028848D01*
X010198Y028421D02*
X010518Y028421D01*
X010625Y028528D01*
X010625Y028848D01*
X026209Y042739D02*
X026316Y042632D01*
X026423Y042632D01*
X026530Y042739D01*
X026530Y042952D01*
X026636Y043059D01*
X026743Y043059D01*
X026850Y042952D01*
X026850Y042739D01*
X026743Y042632D01*
X027259Y042684D02*
X027900Y042684D01*
X027900Y043115D02*
X027259Y043115D01*
X027259Y042898D02*
X027259Y042471D01*
X027580Y043115D02*
X027473Y043222D01*
X027473Y043435D01*
X027580Y043542D01*
X027900Y043542D01*
X027900Y043760D02*
X027473Y043760D01*
X027686Y043760D02*
X027473Y043973D01*
X027473Y044080D01*
X027580Y044297D02*
X027473Y044404D01*
X027473Y044617D01*
X027580Y044724D01*
X027686Y044724D01*
X027686Y044297D01*
X027580Y044297D02*
X027793Y044297D01*
X027900Y044404D01*
X027900Y044617D01*
X027900Y044941D02*
X027900Y045262D01*
X027793Y045368D01*
X027686Y045262D01*
X027686Y045048D01*
X027580Y044941D01*
X027473Y045048D01*
X027473Y045368D01*
X027580Y045586D02*
X027473Y045693D01*
X027473Y045906D01*
X027580Y046013D01*
X027900Y046013D01*
X027793Y046231D02*
X027900Y046337D01*
X027900Y046551D01*
X027793Y046658D01*
X027580Y046658D01*
X027473Y046551D01*
X027473Y046337D01*
X027580Y046231D01*
X027793Y046231D01*
X027900Y046875D02*
X027900Y047089D01*
X027900Y046982D02*
X027259Y046982D01*
X027259Y046875D01*
X026850Y046714D02*
X026209Y046714D01*
X026423Y046821D02*
X026423Y047034D01*
X026530Y047141D01*
X026850Y047141D01*
X026743Y047465D02*
X026316Y047465D01*
X026423Y047358D02*
X026423Y047572D01*
X026743Y047465D02*
X026850Y047572D01*
X027259Y047732D02*
X027900Y047732D01*
X027900Y047412D01*
X027793Y047305D01*
X027580Y047305D01*
X027473Y047412D01*
X027473Y047732D01*
X026530Y046714D02*
X026423Y046821D01*
X026423Y046496D02*
X026423Y046176D01*
X026530Y046069D01*
X026743Y046069D01*
X026850Y046176D01*
X026850Y046496D01*
X026957Y046496D02*
X026423Y046496D01*
X026957Y046496D02*
X027064Y046390D01*
X027064Y046283D01*
X026850Y045853D02*
X026850Y045640D01*
X026850Y045746D02*
X026423Y045746D01*
X026423Y045640D01*
X026209Y045746D02*
X026103Y045746D01*
X026209Y044995D02*
X026850Y044995D01*
X026850Y045422D01*
X027259Y045586D02*
X027900Y045586D01*
X026850Y044134D02*
X026743Y044028D01*
X026316Y044028D01*
X026423Y044134D02*
X026423Y043921D01*
X026530Y043703D02*
X026423Y043597D01*
X026423Y043383D01*
X026530Y043276D01*
X026743Y043276D01*
X026850Y043383D01*
X026850Y043597D01*
X026636Y043703D02*
X026636Y043276D01*
X026316Y043059D02*
X026209Y042952D01*
X026209Y042739D01*
X026530Y043703D02*
X026636Y043703D01*
X029550Y048550D02*
X029550Y051170D01*
X029690Y051310D01*
X032310Y051310D01*
X032310Y048550D01*
X029550Y048550D01*
X029709Y051010D02*
X029711Y051033D01*
X029717Y051056D01*
X029726Y051077D01*
X029739Y051097D01*
X029755Y051114D01*
X029773Y051128D01*
X029793Y051139D01*
X029815Y051147D01*
X029838Y051151D01*
X029862Y051151D01*
X029885Y051147D01*
X029907Y051139D01*
X029927Y051128D01*
X029945Y051114D01*
X029961Y051097D01*
X029974Y051077D01*
X029983Y051056D01*
X029989Y051033D01*
X029991Y051010D01*
X029989Y050987D01*
X029983Y050964D01*
X029974Y050943D01*
X029961Y050923D01*
X029945Y050906D01*
X029927Y050892D01*
X029907Y050881D01*
X029885Y050873D01*
X029862Y050869D01*
X029838Y050869D01*
X029815Y050873D01*
X029793Y050881D01*
X029773Y050892D01*
X029755Y050906D01*
X029739Y050923D01*
X029726Y050943D01*
X029717Y050964D01*
X029711Y050987D01*
X029709Y051010D01*
X029587Y052910D02*
X029340Y053157D01*
X029464Y053157D02*
X029093Y053157D01*
X029093Y052910D02*
X029093Y053651D01*
X029464Y053651D01*
X029587Y053527D01*
X029587Y053280D01*
X029464Y053157D01*
X029830Y053033D02*
X029953Y052910D01*
X030200Y052910D01*
X030324Y053033D01*
X030324Y053157D01*
X030200Y053280D01*
X029953Y053280D01*
X029830Y053404D01*
X029830Y053527D01*
X029953Y053651D01*
X030200Y053651D01*
X030324Y053527D01*
X030567Y053527D02*
X030690Y053651D01*
X030937Y053651D01*
X031060Y053527D01*
X031060Y053404D01*
X030567Y052910D01*
X031060Y052910D01*
X031303Y053033D02*
X031427Y052910D01*
X031674Y052910D01*
X031797Y053033D01*
X031797Y053157D01*
X031674Y053280D01*
X031550Y053280D01*
X031674Y053280D02*
X031797Y053404D01*
X031797Y053527D01*
X031674Y053651D01*
X031427Y053651D01*
X031303Y053527D01*
X032040Y053527D02*
X032163Y053651D01*
X032410Y053651D01*
X032534Y053527D01*
X032534Y053404D01*
X032040Y052910D01*
X032534Y052910D01*
X034083Y048874D02*
X034330Y048874D01*
X034453Y048751D01*
X034453Y048381D01*
X034453Y048138D02*
X034577Y048138D01*
X034700Y048014D01*
X034700Y047767D01*
X034577Y047644D01*
X034700Y047400D02*
X034700Y047153D01*
X034700Y047276D02*
X033959Y047276D01*
X033959Y047153D02*
X033959Y047400D01*
X034083Y047644D02*
X034206Y047644D01*
X034330Y047767D01*
X034330Y048014D01*
X034453Y048138D01*
X034700Y048381D02*
X033959Y048381D01*
X033959Y048751D01*
X034083Y048874D01*
X034083Y048138D02*
X033959Y048014D01*
X033959Y047767D01*
X034083Y047644D01*
X040241Y046520D02*
X040668Y046520D01*
X040775Y046627D01*
X040348Y046627D02*
X040348Y046413D01*
X040455Y046196D02*
X040561Y046196D01*
X040561Y045769D01*
X040455Y045769D02*
X040348Y045875D01*
X040348Y046089D01*
X040455Y046196D01*
X040775Y046089D02*
X040775Y045875D01*
X040668Y045769D01*
X040455Y045769D01*
X040348Y045551D02*
X040348Y045231D01*
X040455Y045124D01*
X040561Y045231D01*
X040561Y045444D01*
X040668Y045551D01*
X040775Y045444D01*
X040775Y045124D01*
X040561Y044907D02*
X040561Y044480D01*
X040455Y044480D02*
X040348Y044586D01*
X040348Y044800D01*
X040455Y044907D01*
X040561Y044907D01*
X040775Y044800D02*
X040775Y044586D01*
X040668Y044480D01*
X040455Y044480D01*
X040455Y044262D02*
X040561Y044155D01*
X040561Y043835D01*
X040561Y044049D02*
X040775Y044262D01*
X040455Y044262D02*
X040241Y044262D01*
X040134Y044155D01*
X040134Y043835D01*
X040775Y043835D01*
X048434Y036259D02*
X048805Y035889D01*
X048805Y036382D01*
X049175Y036259D02*
X048434Y036259D01*
X048558Y035646D02*
X048434Y035522D01*
X048434Y035275D01*
X048558Y035152D01*
X049052Y035152D01*
X049175Y035275D01*
X049175Y035522D01*
X049052Y035646D01*
X048558Y035646D01*
X048558Y034909D02*
X048805Y034909D01*
X048928Y034786D01*
X048928Y034415D01*
X048928Y034173D02*
X048928Y033679D01*
X048805Y033679D02*
X048681Y033802D01*
X048681Y034049D01*
X048805Y034173D01*
X048928Y034173D01*
X049175Y034049D02*
X049175Y033802D01*
X049052Y033679D01*
X048805Y033679D01*
X048434Y033436D02*
X048434Y032942D01*
X049175Y032942D01*
X049175Y032698D02*
X049175Y032451D01*
X049175Y032575D02*
X048681Y032575D01*
X048681Y032451D01*
X048434Y032575D02*
X048311Y032575D01*
X048805Y032942D02*
X048805Y033189D01*
X049175Y032208D02*
X049175Y031714D01*
X048434Y031714D01*
X048558Y030735D02*
X048434Y030612D01*
X048434Y030365D01*
X048558Y030241D01*
X049052Y030241D01*
X048558Y030735D01*
X049052Y030735D01*
X049175Y030612D01*
X049175Y030365D01*
X049052Y030241D01*
X049052Y029998D02*
X049175Y029875D01*
X049175Y029628D01*
X049052Y029505D01*
X049052Y029262D02*
X048928Y029262D01*
X048805Y029138D01*
X048805Y028768D01*
X049052Y028768D01*
X049175Y028891D01*
X049175Y029138D01*
X049052Y029262D01*
X048805Y029505D02*
X048681Y029751D01*
X048681Y029875D01*
X048805Y029998D01*
X049052Y029998D01*
X048805Y029505D02*
X048434Y029505D01*
X048434Y029998D01*
X048434Y029262D02*
X048558Y029015D01*
X048805Y028768D01*
X048928Y028525D02*
X049052Y028525D01*
X049175Y028402D01*
X049175Y028155D01*
X049052Y028031D01*
X048928Y028031D01*
X048805Y028155D01*
X048805Y028402D01*
X048928Y028525D01*
X048805Y028402D02*
X048681Y028525D01*
X048558Y028525D01*
X048434Y028402D01*
X048434Y028155D01*
X048558Y028031D01*
X048681Y028031D01*
X048805Y028155D01*
X049175Y027788D02*
X049175Y027295D01*
X049175Y027542D02*
X048434Y027542D01*
X048681Y027295D01*
X046425Y028952D02*
X046425Y029322D01*
X046302Y029446D01*
X046178Y029446D01*
X046055Y029322D01*
X046055Y028952D01*
X046425Y028952D02*
X045684Y028952D01*
X045684Y029322D01*
X045808Y029446D01*
X045931Y029446D01*
X046055Y029322D01*
X046302Y029689D02*
X046178Y029812D01*
X046178Y030182D01*
X046055Y030182D02*
X046425Y030182D01*
X046425Y029812D01*
X046302Y029689D01*
X045931Y029812D02*
X045931Y030059D01*
X046055Y030182D01*
X045931Y030425D02*
X045931Y030672D01*
X045808Y030549D02*
X046302Y030549D01*
X046425Y030672D01*
X046302Y031040D02*
X045808Y031040D01*
X045931Y031163D02*
X045931Y030916D01*
X046302Y031040D02*
X046425Y031163D01*
X046302Y031408D02*
X046055Y031408D01*
X045931Y031531D01*
X045931Y031778D01*
X046055Y031901D01*
X046178Y031901D01*
X046178Y031408D01*
X046302Y031408D02*
X046425Y031531D01*
X046425Y031778D01*
X046425Y032144D02*
X045931Y032144D01*
X046178Y032144D02*
X045931Y032391D01*
X045931Y032514D01*
X045931Y032758D02*
X046302Y032758D01*
X046425Y032881D01*
X046425Y033252D01*
X046548Y033252D02*
X045931Y033252D01*
X046548Y033252D02*
X046672Y033128D01*
X046672Y033005D01*
X046425Y034231D02*
X046425Y034602D01*
X046302Y034725D01*
X046178Y034725D01*
X046055Y034602D01*
X046055Y034231D01*
X046425Y034231D02*
X045684Y034231D01*
X045684Y034602D01*
X045808Y034725D01*
X045931Y034725D01*
X046055Y034602D01*
X048434Y034786D02*
X048558Y034909D01*
X048434Y034786D02*
X048434Y034415D01*
X049175Y034415D01*
X032490Y057611D02*
X032453Y057611D01*
X032490Y057611D02*
X032490Y058249D01*
X032453Y058249D01*
X032136Y058249D02*
X032099Y058249D01*
X031761Y058249D02*
X031724Y058249D01*
X031407Y058249D02*
X031370Y058249D01*
X031370Y057611D01*
X031407Y057611D01*
X031497Y057753D02*
X031499Y057765D01*
X031504Y057776D01*
X031513Y057785D01*
X031524Y057790D01*
X031536Y057792D01*
X031548Y057790D01*
X031559Y057785D01*
X031568Y057776D01*
X031573Y057765D01*
X031575Y057753D01*
X031573Y057741D01*
X031568Y057730D01*
X031559Y057721D01*
X031548Y057716D01*
X031536Y057714D01*
X031524Y057716D01*
X031513Y057721D01*
X031504Y057730D01*
X031499Y057741D01*
X031497Y057753D01*
X031724Y057611D02*
X031761Y057611D01*
X032099Y057611D02*
X032136Y057611D01*
X025088Y007501D02*
X025088Y006860D01*
X025301Y006860D02*
X024874Y006860D01*
X024657Y006967D02*
X024550Y006860D01*
X024336Y006860D01*
X024230Y006967D01*
X024657Y007394D01*
X024657Y006967D01*
X024874Y007287D02*
X025088Y007501D01*
X024657Y007394D02*
X024550Y007501D01*
X024336Y007501D01*
X024230Y007394D01*
X024230Y006967D01*
X024012Y006967D02*
X023905Y006860D01*
X023692Y006860D01*
X023585Y006967D01*
X024012Y007394D01*
X024012Y006967D01*
X024012Y007394D02*
X023905Y007501D01*
X023692Y007501D01*
X023585Y007394D01*
X023585Y006967D01*
X023367Y007287D02*
X023154Y006860D01*
X022940Y007287D01*
X022723Y007180D02*
X022723Y007074D01*
X022296Y007074D01*
X022296Y007180D02*
X022296Y006967D01*
X022403Y006860D01*
X022616Y006860D01*
X022723Y007180D02*
X022616Y007287D01*
X022403Y007287D01*
X022296Y007180D01*
X022078Y007180D02*
X021972Y007074D01*
X021651Y007074D01*
X021865Y007074D02*
X022078Y006860D01*
X022078Y007180D02*
X022078Y007394D01*
X021972Y007501D01*
X021651Y007501D01*
X021651Y006860D01*
D13*
X030700Y008241D02*
X030776Y008164D01*
X030853Y008164D01*
X030930Y008241D01*
X030930Y008394D01*
X031007Y008471D01*
X031083Y008471D01*
X031160Y008394D01*
X031160Y008241D01*
X031083Y008164D01*
X030700Y008241D02*
X030700Y008394D01*
X030776Y008471D01*
X030930Y008625D02*
X031083Y008625D01*
X031160Y008701D01*
X031160Y008855D01*
X031083Y008931D01*
X030930Y008931D01*
X030853Y008855D01*
X030853Y008701D01*
X030930Y008625D01*
X031160Y009085D02*
X031160Y009238D01*
X031160Y009162D02*
X030700Y009162D01*
X030700Y009085D01*
X030853Y009469D02*
X030853Y009622D01*
X030930Y009699D01*
X031160Y009699D01*
X031160Y009469D01*
X031083Y009392D01*
X031007Y009469D01*
X031007Y009699D01*
X031007Y009852D02*
X030853Y010006D01*
X030853Y010082D01*
X030853Y009852D02*
X031160Y009852D01*
X032700Y009737D02*
X033007Y009737D01*
X033160Y009584D01*
X033007Y009430D01*
X032700Y009430D01*
X032700Y009277D02*
X032700Y008970D01*
X032930Y008970D01*
X032853Y009123D01*
X032853Y009200D01*
X032930Y009277D01*
X033083Y009277D01*
X033160Y009200D01*
X033160Y009047D01*
X033083Y008970D01*
X032930Y008816D02*
X032930Y008509D01*
X032776Y008663D02*
X033083Y008663D01*
X034700Y008663D02*
X034776Y008740D01*
X034853Y008740D01*
X034930Y008663D01*
X034930Y008433D01*
X034930Y008663D02*
X035007Y008740D01*
X035083Y008740D01*
X035160Y008663D01*
X035160Y008433D01*
X034700Y008433D01*
X034700Y008663D01*
X034853Y008970D02*
X034853Y009123D01*
X034930Y009200D01*
X035160Y009200D01*
X035160Y008970D01*
X035083Y008893D01*
X035007Y008970D01*
X035007Y009200D01*
X034853Y009353D02*
X034853Y009507D01*
X034776Y009430D02*
X035083Y009430D01*
X035160Y009507D01*
X035083Y009737D02*
X034776Y009737D01*
X034853Y009660D02*
X034853Y009814D01*
X035083Y009737D02*
X035160Y009814D01*
X033092Y006132D02*
X032862Y006132D01*
X032785Y006055D01*
X032862Y005978D01*
X033016Y005978D01*
X033092Y005902D01*
X033016Y005825D01*
X032785Y005825D01*
X032632Y005902D02*
X032632Y006209D01*
X032555Y006285D01*
X032325Y006285D01*
X032325Y005825D01*
X032555Y005825D01*
X032632Y005902D01*
X032402Y005612D02*
X032402Y005535D01*
X032402Y005382D02*
X032402Y005075D01*
X032478Y005075D02*
X032325Y005075D01*
X032172Y005075D02*
X032095Y005152D01*
X032095Y005459D01*
X032018Y005382D02*
X032172Y005382D01*
X032325Y005382D02*
X032402Y005382D01*
X032632Y005382D02*
X032785Y005075D01*
X032939Y005382D01*
X033092Y005305D02*
X033092Y005152D01*
X033169Y005075D01*
X033323Y005075D01*
X033399Y005228D02*
X033092Y005228D01*
X033092Y005305D02*
X033169Y005382D01*
X033323Y005382D01*
X033399Y005305D01*
X033399Y005228D01*
X032172Y005825D02*
X031865Y005825D01*
X031865Y006285D01*
X032172Y006285D01*
X032018Y006055D02*
X031865Y006055D01*
X031711Y005825D02*
X031404Y005825D01*
X031404Y006285D01*
X031251Y005535D02*
X031404Y005382D01*
X031404Y005075D01*
X031558Y005152D02*
X031634Y005075D01*
X031865Y005075D01*
X031865Y005382D02*
X031634Y005382D01*
X031558Y005305D01*
X031558Y005152D01*
X031404Y005305D02*
X031097Y005305D01*
X031097Y005382D02*
X031251Y005535D01*
X031097Y005382D02*
X031097Y005075D01*
D14*
X021815Y015441D02*
X021815Y015626D01*
X021753Y015688D01*
X021692Y015688D01*
X021630Y015626D01*
X021630Y015441D01*
X021815Y015441D02*
X021445Y015441D01*
X021445Y015626D01*
X021506Y015688D01*
X021568Y015688D01*
X021630Y015626D01*
X021753Y015809D02*
X021692Y015871D01*
X021692Y016056D01*
X021630Y016056D02*
X021815Y016056D01*
X021815Y015871D01*
X021753Y015809D01*
X021568Y015871D02*
X021568Y015995D01*
X021630Y016056D01*
X021568Y016178D02*
X021568Y016301D01*
X021506Y016239D02*
X021753Y016239D01*
X021815Y016301D01*
X021753Y016485D02*
X021815Y016547D01*
X021753Y016485D02*
X021506Y016485D01*
X021568Y016423D02*
X021568Y016547D01*
X021630Y016669D02*
X021568Y016730D01*
X021568Y016854D01*
X021630Y016916D01*
X021692Y016916D01*
X021692Y016669D01*
X021753Y016669D02*
X021630Y016669D01*
X021753Y016669D02*
X021815Y016730D01*
X021815Y016854D01*
X021815Y017037D02*
X021568Y017037D01*
X021568Y017161D02*
X021568Y017222D01*
X021568Y017161D02*
X021692Y017037D01*
X021983Y017007D02*
X022045Y017007D01*
X022168Y017007D02*
X022415Y017007D01*
X022415Y017068D02*
X022415Y016945D01*
X022415Y016823D02*
X022353Y016761D01*
X022106Y016761D01*
X022168Y016699D02*
X022168Y016823D01*
X022168Y016945D02*
X022168Y017007D01*
X022168Y017191D02*
X022415Y017314D01*
X022168Y017437D01*
X022230Y017559D02*
X022168Y017621D01*
X022168Y017744D01*
X022230Y017806D01*
X022292Y017806D01*
X022292Y017559D01*
X022353Y017559D02*
X022230Y017559D01*
X022353Y017559D02*
X022415Y017621D01*
X022415Y017744D01*
X021938Y017529D02*
X021938Y017467D01*
X021938Y017529D02*
X021877Y017591D01*
X021568Y017591D01*
X021568Y017344D02*
X021753Y017344D01*
X021815Y017406D01*
X021815Y017591D01*
X021815Y018081D02*
X021568Y018081D01*
X021445Y018204D01*
X021568Y018328D01*
X021815Y018328D01*
X021630Y018328D02*
X021630Y018081D01*
X022168Y016578D02*
X022168Y016393D01*
X022230Y016331D01*
X022353Y016331D01*
X022415Y016393D01*
X022415Y016578D01*
X022415Y016210D02*
X022168Y016210D01*
X022045Y016086D01*
X022168Y015963D01*
X022415Y015963D01*
X022230Y015963D02*
X022230Y016210D01*
X024463Y019307D02*
X024463Y019554D01*
X024340Y019430D02*
X024587Y019430D01*
X024708Y019430D02*
X024832Y019492D01*
X024894Y019492D01*
X024955Y019430D01*
X024955Y019307D01*
X024894Y019245D01*
X024770Y019245D01*
X024708Y019307D01*
X024708Y019430D02*
X024708Y019615D01*
X024955Y019615D01*
X025077Y019615D02*
X025077Y019368D01*
X025200Y019245D01*
X025324Y019368D01*
X025324Y019615D01*
X025441Y017415D02*
X025626Y017415D01*
X025688Y017354D01*
X025688Y017230D01*
X025626Y017168D01*
X025441Y017168D01*
X025441Y017045D02*
X025441Y017415D01*
X025564Y017168D02*
X025688Y017045D01*
X025809Y017107D02*
X025809Y017230D01*
X025871Y017292D01*
X025995Y017292D01*
X026056Y017230D01*
X026056Y017168D01*
X025809Y017168D01*
X025809Y017107D02*
X025871Y017045D01*
X025995Y017045D01*
X026178Y017107D02*
X026239Y017045D01*
X026425Y017045D01*
X026425Y016983D02*
X026425Y017292D01*
X026239Y017292D01*
X026178Y017230D01*
X026178Y017107D01*
X026301Y016922D02*
X026363Y016922D01*
X026425Y016983D01*
X026546Y017107D02*
X026608Y017045D01*
X026793Y017045D01*
X026793Y017292D01*
X026914Y017415D02*
X026976Y017415D01*
X026976Y017045D01*
X026914Y017045D02*
X027038Y017045D01*
X027160Y017107D02*
X027222Y017168D01*
X027407Y017168D01*
X027407Y017230D02*
X027407Y017045D01*
X027222Y017045D01*
X027160Y017107D01*
X027222Y017292D02*
X027345Y017292D01*
X027407Y017230D01*
X027528Y017292D02*
X027652Y017292D01*
X027590Y017354D02*
X027590Y017107D01*
X027652Y017045D01*
X027774Y017107D02*
X027835Y017045D01*
X027959Y017045D01*
X028021Y017107D01*
X028021Y017230D01*
X027959Y017292D01*
X027835Y017292D01*
X027774Y017230D01*
X027774Y017107D01*
X028142Y017168D02*
X028265Y017292D01*
X028327Y017292D01*
X028142Y017292D02*
X028142Y017045D01*
X027929Y016692D02*
X027743Y016692D01*
X027682Y016630D01*
X027743Y016568D01*
X027867Y016568D01*
X027929Y016507D01*
X027867Y016445D01*
X027682Y016445D01*
X027560Y016507D02*
X027498Y016568D01*
X027375Y016568D01*
X027313Y016630D01*
X027375Y016692D01*
X027560Y016692D01*
X027560Y016507D02*
X027498Y016445D01*
X027313Y016445D01*
X027192Y016445D02*
X027007Y016445D01*
X026945Y016507D01*
X027007Y016568D01*
X027192Y016568D01*
X027192Y016630D02*
X027192Y016445D01*
X027192Y016630D02*
X027130Y016692D01*
X027007Y016692D01*
X026824Y016630D02*
X026824Y016507D01*
X026762Y016445D01*
X026577Y016445D01*
X026455Y016445D02*
X026270Y016445D01*
X026208Y016507D01*
X026208Y016692D01*
X026087Y016692D02*
X026025Y016630D01*
X025840Y016630D01*
X025840Y016445D02*
X026025Y016445D01*
X026087Y016507D01*
X026087Y016568D01*
X026025Y016630D01*
X026087Y016692D02*
X026087Y016754D01*
X026025Y016815D01*
X025840Y016815D01*
X025840Y016445D01*
X026332Y016322D02*
X026394Y016322D01*
X026455Y016383D01*
X026455Y016692D01*
X026577Y016692D02*
X026762Y016692D01*
X026824Y016630D01*
X026577Y016692D02*
X026577Y016322D01*
X026546Y017107D02*
X026546Y017292D01*
X028945Y018307D02*
X029007Y018245D01*
X029130Y018245D01*
X029192Y018307D01*
X029192Y018430D01*
X029130Y018492D01*
X029068Y018492D01*
X028945Y018430D01*
X028945Y018615D01*
X029192Y018615D01*
X029313Y018615D02*
X029313Y018368D01*
X029437Y018245D01*
X029560Y018368D01*
X029560Y018615D01*
X029437Y018745D02*
X029560Y018868D01*
X029560Y019115D01*
X029498Y019245D02*
X029313Y019245D01*
X029313Y019615D01*
X029498Y019615D01*
X029560Y019554D01*
X029560Y019492D01*
X029498Y019430D01*
X029313Y019430D01*
X029192Y019368D02*
X029192Y019615D01*
X029192Y019368D02*
X029068Y019245D01*
X028945Y019368D01*
X028945Y019615D01*
X028945Y019115D02*
X028945Y018930D01*
X029068Y018992D01*
X029130Y018992D01*
X029192Y018930D01*
X029192Y018807D01*
X029130Y018745D01*
X029007Y018745D01*
X028945Y018807D01*
X028945Y019115D02*
X029192Y019115D01*
X029313Y019115D02*
X029313Y018868D01*
X029437Y018745D01*
X029498Y019245D02*
X029560Y019307D01*
X029560Y019368D01*
X029498Y019430D01*
X029682Y019307D02*
X029743Y019368D01*
X029929Y019368D01*
X029929Y019430D02*
X029929Y019245D01*
X029743Y019245D01*
X029682Y019307D01*
X029743Y019492D02*
X029867Y019492D01*
X029929Y019430D01*
X030050Y019492D02*
X030173Y019492D01*
X030112Y019554D02*
X030112Y019307D01*
X030173Y019245D01*
X030050Y019115D02*
X030050Y018745D01*
X030297Y018745D01*
X030418Y018745D02*
X030418Y019115D01*
X030665Y018745D01*
X030665Y019115D01*
X030419Y019245D02*
X030357Y019307D01*
X030357Y019554D01*
X030295Y019492D02*
X030419Y019492D01*
X030297Y019115D02*
X030050Y019115D01*
X030050Y018930D02*
X030173Y018930D01*
X030235Y018615D02*
X030297Y018554D01*
X030297Y018430D01*
X030235Y018368D01*
X030050Y018368D01*
X030050Y018245D02*
X030050Y018615D01*
X030235Y018615D01*
X030418Y018554D02*
X030418Y018307D01*
X030480Y018245D01*
X030603Y018245D01*
X030665Y018307D01*
X030665Y018430D01*
X030542Y018430D01*
X030665Y018554D02*
X030603Y018615D01*
X030480Y018615D01*
X030418Y018554D01*
X031230Y017773D02*
X031292Y017773D01*
X031292Y017526D01*
X031353Y017526D02*
X031230Y017526D01*
X031168Y017588D01*
X031168Y017711D01*
X031230Y017773D01*
X031415Y017711D02*
X031415Y017588D01*
X031353Y017526D01*
X031415Y017404D02*
X031415Y017219D01*
X031353Y017158D01*
X031230Y017158D01*
X031168Y017219D01*
X031168Y017404D01*
X031477Y017404D01*
X031538Y017343D01*
X031538Y017281D01*
X031168Y017036D02*
X031168Y016974D01*
X031292Y016851D01*
X031292Y016729D02*
X031292Y016544D01*
X031353Y016482D01*
X031415Y016544D01*
X031415Y016729D01*
X031230Y016729D01*
X031168Y016668D01*
X031168Y016544D01*
X031230Y016361D02*
X031415Y016361D01*
X031230Y016361D02*
X031168Y016299D01*
X031168Y016176D01*
X031230Y016114D01*
X031353Y015993D02*
X031415Y015931D01*
X031415Y015807D01*
X031353Y015746D01*
X031106Y015746D01*
X031045Y015807D01*
X031045Y015931D01*
X031106Y015993D01*
X031045Y016114D02*
X031415Y016114D01*
X030815Y016329D02*
X030815Y016453D01*
X030753Y016514D01*
X030445Y016514D01*
X030506Y016636D02*
X030568Y016636D01*
X030630Y016698D01*
X030630Y016821D01*
X030692Y016883D01*
X030753Y016883D01*
X030815Y016821D01*
X030815Y016698D01*
X030753Y016636D01*
X030506Y016636D02*
X030445Y016698D01*
X030445Y016821D01*
X030506Y016883D01*
X030445Y017004D02*
X030445Y017189D01*
X030506Y017251D01*
X030568Y017251D01*
X030630Y017189D01*
X030630Y017004D01*
X030815Y017004D02*
X030815Y017189D01*
X030753Y017251D01*
X030692Y017251D01*
X030630Y017189D01*
X030815Y017004D02*
X030445Y017004D01*
X030445Y016268D02*
X030753Y016268D01*
X030815Y016329D01*
X031168Y016851D02*
X031415Y016851D01*
X032945Y016821D02*
X032945Y016698D01*
X033006Y016636D01*
X033068Y016636D01*
X033130Y016698D01*
X033130Y016821D01*
X033192Y016883D01*
X033253Y016883D01*
X033315Y016821D01*
X033315Y016698D01*
X033253Y016636D01*
X033253Y016514D02*
X032945Y016514D01*
X032945Y016268D02*
X033253Y016268D01*
X033315Y016329D01*
X033315Y016453D01*
X033253Y016514D01*
X033668Y016483D02*
X033668Y016360D01*
X033730Y016298D01*
X033853Y016298D01*
X033915Y016360D01*
X033915Y016483D01*
X033853Y016545D01*
X033730Y016545D01*
X033668Y016483D01*
X033668Y016667D02*
X033853Y016667D01*
X033915Y016728D01*
X033853Y016790D01*
X033915Y016852D01*
X033853Y016913D01*
X033668Y016913D01*
X033730Y017035D02*
X033668Y017097D01*
X033668Y017220D01*
X033730Y017282D01*
X033792Y017282D01*
X033792Y017035D01*
X033853Y017035D02*
X033730Y017035D01*
X033853Y017035D02*
X033915Y017097D01*
X033915Y017220D01*
X033915Y017403D02*
X033668Y017403D01*
X033792Y017403D02*
X033668Y017527D01*
X033668Y017588D01*
X033672Y018045D02*
X033672Y018292D01*
X033795Y018415D01*
X033919Y018292D01*
X033919Y018045D01*
X034040Y018107D02*
X034102Y018045D01*
X034225Y018045D01*
X034287Y018107D01*
X034287Y018415D01*
X034408Y018415D02*
X034408Y018045D01*
X034655Y018045D01*
X034900Y018045D02*
X034900Y018415D01*
X034777Y018415D02*
X035024Y018415D01*
X035130Y018475D02*
X033288Y018475D01*
X033303Y018415D02*
X033550Y018415D01*
X033525Y018620D02*
X033525Y018990D01*
X033647Y018867D02*
X033647Y018620D01*
X033647Y018805D02*
X033894Y018805D01*
X033894Y018867D02*
X033894Y018620D01*
X034015Y018620D02*
X034015Y018990D01*
X034200Y018990D01*
X034262Y018929D01*
X034262Y018805D01*
X034200Y018743D01*
X034015Y018743D01*
X034138Y018743D02*
X034262Y018620D01*
X034383Y018682D02*
X034445Y018620D01*
X034569Y018620D01*
X034630Y018682D01*
X034630Y018805D01*
X034507Y018805D01*
X034630Y018929D02*
X034569Y018990D01*
X034445Y018990D01*
X034383Y018929D01*
X034383Y018682D01*
X034752Y018620D02*
X034999Y018620D01*
X034875Y018805D02*
X034752Y018805D01*
X034752Y018990D02*
X034752Y018620D01*
X034752Y018990D02*
X034999Y018990D01*
X035105Y019050D02*
X032895Y019050D01*
X032972Y018990D02*
X032910Y018929D01*
X032910Y018682D01*
X032972Y018620D01*
X033095Y018620D01*
X033157Y018682D01*
X033278Y018620D02*
X033278Y018990D01*
X033157Y018929D02*
X033095Y018990D01*
X032972Y018990D01*
X033278Y018805D02*
X033525Y018805D01*
X033647Y018867D02*
X033770Y018990D01*
X033894Y018867D01*
X034040Y018415D02*
X034040Y018107D01*
X033919Y018230D02*
X033672Y018230D01*
X033427Y018230D02*
X033303Y018230D01*
X033303Y018045D02*
X033303Y018415D01*
X033253Y017251D02*
X033315Y017189D01*
X033315Y017004D01*
X032945Y017004D01*
X032945Y017189D01*
X033006Y017251D01*
X033068Y017251D01*
X033130Y017189D01*
X033130Y017004D01*
X033006Y016883D02*
X032945Y016821D01*
X033130Y017189D02*
X033192Y017251D01*
X033253Y017251D01*
X033606Y016177D02*
X033730Y016177D01*
X033792Y016115D01*
X033792Y015930D01*
X033915Y015930D02*
X033545Y015930D01*
X033545Y016115D01*
X033606Y016177D01*
X032614Y019495D02*
X032676Y019557D01*
X032676Y019804D01*
X032614Y019865D01*
X032429Y019865D01*
X032429Y019495D01*
X032614Y019495D01*
X032308Y019495D02*
X032308Y019865D01*
X032061Y019865D02*
X032308Y019495D01*
X032061Y019495D02*
X032061Y019865D01*
X031939Y019804D02*
X031878Y019865D01*
X031754Y019865D01*
X031693Y019804D01*
X031693Y019557D01*
X031754Y019495D01*
X031878Y019495D01*
X031939Y019557D01*
X031939Y019680D01*
X031816Y019680D01*
X041870Y018266D02*
X041870Y018081D01*
X042240Y018081D01*
X042240Y018266D01*
X042178Y018328D01*
X042117Y018328D01*
X042055Y018266D01*
X042055Y018081D01*
X042055Y018266D02*
X041993Y018328D01*
X041931Y018328D01*
X041870Y018266D01*
X041993Y017591D02*
X042302Y017591D01*
X042363Y017529D01*
X042363Y017467D01*
X042240Y017406D02*
X042240Y017591D01*
X042240Y017406D02*
X042178Y017344D01*
X041993Y017344D01*
X041993Y017222D02*
X041993Y017161D01*
X042117Y017037D01*
X042117Y016916D02*
X042117Y016669D01*
X042178Y016669D02*
X042055Y016669D01*
X041993Y016730D01*
X041993Y016854D01*
X042055Y016916D01*
X042117Y016916D01*
X042240Y016854D02*
X042240Y016730D01*
X042178Y016669D01*
X042240Y016547D02*
X042178Y016485D01*
X041931Y016485D01*
X041993Y016423D02*
X041993Y016547D01*
X041993Y016301D02*
X041993Y016178D01*
X041931Y016239D02*
X042178Y016239D01*
X042240Y016301D01*
X042240Y016056D02*
X042240Y015871D01*
X042178Y015809D01*
X042117Y015871D01*
X042117Y016056D01*
X042055Y016056D02*
X042240Y016056D01*
X042055Y016056D02*
X041993Y015995D01*
X041993Y015871D01*
X041993Y015688D02*
X042055Y015626D01*
X042055Y015441D01*
X042240Y015441D02*
X042240Y015626D01*
X042178Y015688D01*
X042117Y015688D01*
X042055Y015626D01*
X041993Y015688D02*
X041931Y015688D01*
X041870Y015626D01*
X041870Y015441D01*
X042240Y015441D01*
X042593Y015963D02*
X042470Y016086D01*
X042593Y016210D01*
X042840Y016210D01*
X042778Y016331D02*
X042840Y016393D01*
X042840Y016578D01*
X042778Y016761D02*
X042840Y016823D01*
X042778Y016761D02*
X042531Y016761D01*
X042593Y016699D02*
X042593Y016823D01*
X042593Y016945D02*
X042593Y017007D01*
X042840Y017007D01*
X042840Y017068D02*
X042840Y016945D01*
X042593Y017191D02*
X042840Y017314D01*
X042593Y017437D01*
X042655Y017559D02*
X042593Y017621D01*
X042593Y017744D01*
X042655Y017806D01*
X042717Y017806D01*
X042717Y017559D01*
X042778Y017559D02*
X042655Y017559D01*
X042778Y017559D02*
X042840Y017621D01*
X042840Y017744D01*
X042470Y017007D02*
X042408Y017007D01*
X042240Y017037D02*
X041993Y017037D01*
X042593Y016578D02*
X042593Y016393D01*
X042655Y016331D01*
X042778Y016331D01*
X042655Y016210D02*
X042655Y015963D01*
X042593Y015963D02*
X042840Y015963D01*
X032589Y044745D02*
X032651Y044807D01*
X032651Y045054D01*
X032589Y045115D01*
X032404Y045115D01*
X032404Y044745D01*
X032589Y044745D01*
X032283Y044745D02*
X032283Y045115D01*
X032036Y045115D02*
X032283Y044745D01*
X032036Y044745D02*
X032036Y045115D01*
X031914Y045054D02*
X031853Y045115D01*
X031729Y045115D01*
X031668Y045054D01*
X031668Y044807D01*
X031729Y044745D01*
X031853Y044745D01*
X031914Y044807D01*
X031914Y044930D01*
X031791Y044930D01*
X033545Y049945D02*
X033730Y049945D01*
X033792Y050007D01*
X033792Y050068D01*
X033730Y050130D01*
X033545Y050130D01*
X033545Y049945D02*
X033545Y050315D01*
X033730Y050315D01*
X033792Y050254D01*
X033792Y050192D01*
X033730Y050130D01*
X033913Y050007D02*
X033975Y050068D01*
X034160Y050068D01*
X034160Y050130D02*
X034160Y049945D01*
X033975Y049945D01*
X033913Y050007D01*
X033975Y050192D02*
X034098Y050192D01*
X034160Y050130D01*
X034282Y050192D02*
X034405Y050192D01*
X034343Y050254D02*
X034343Y050007D01*
X034405Y049945D01*
X034589Y050007D02*
X034651Y049945D01*
X034589Y050007D02*
X034589Y050254D01*
X034527Y050192D02*
X034651Y050192D01*
X035141Y050315D02*
X035141Y049945D01*
X035388Y049945D01*
X035633Y049945D02*
X035509Y050192D01*
X035756Y050192D02*
X035633Y049945D01*
X035878Y049945D02*
X036001Y049945D01*
X035939Y049945D02*
X035939Y050315D01*
X035878Y050315D01*
X035818Y052795D02*
X035571Y052795D01*
X035571Y053165D01*
X035939Y053042D02*
X036062Y052795D01*
X036186Y053042D01*
X036307Y053165D02*
X036369Y053165D01*
X036369Y052795D01*
X036307Y052795D02*
X036431Y052795D01*
X035081Y053042D02*
X035019Y053042D01*
X034895Y052918D01*
X034774Y052918D02*
X034589Y052918D01*
X034527Y052857D01*
X034589Y052795D01*
X034774Y052795D01*
X034774Y052980D01*
X034712Y053042D01*
X034589Y053042D01*
X034343Y053165D02*
X034343Y052795D01*
X034282Y052795D02*
X034405Y052795D01*
X034160Y052857D02*
X034160Y052980D01*
X034098Y053042D01*
X033975Y053042D01*
X033913Y052980D01*
X033913Y052857D01*
X033975Y052795D01*
X034098Y052795D01*
X034160Y052857D01*
X034282Y053165D02*
X034343Y053165D01*
X033792Y053104D02*
X033730Y053165D01*
X033607Y053165D01*
X033545Y053104D01*
X033545Y053042D01*
X033607Y052980D01*
X033730Y052980D01*
X033792Y052918D01*
X033792Y052857D01*
X033730Y052795D01*
X033607Y052795D01*
X033545Y052857D01*
X034070Y053843D02*
X034070Y054028D01*
X034131Y054089D01*
X034193Y054089D01*
X034255Y054028D01*
X034255Y053843D01*
X034255Y054028D02*
X034317Y054089D01*
X034378Y054089D01*
X034440Y054028D01*
X034440Y053843D01*
X034070Y053843D01*
X034070Y054211D02*
X034440Y054211D01*
X034440Y054458D01*
X034440Y054579D02*
X034070Y054579D01*
X034255Y054641D02*
X034440Y054826D01*
X034317Y054579D02*
X034070Y054826D01*
X034184Y056070D02*
X034369Y056070D01*
X034431Y056132D01*
X034431Y056193D01*
X034369Y056255D01*
X034184Y056255D01*
X034062Y056193D02*
X034062Y056440D01*
X034184Y056440D02*
X034369Y056440D01*
X034431Y056379D01*
X034431Y056317D01*
X034369Y056255D01*
X034552Y056132D02*
X034614Y056193D01*
X034799Y056193D01*
X034799Y056255D02*
X034799Y056070D01*
X034614Y056070D01*
X034552Y056132D01*
X034614Y056317D02*
X034737Y056317D01*
X034799Y056255D01*
X034920Y056317D02*
X035044Y056317D01*
X034982Y056379D02*
X034982Y056132D01*
X035044Y056070D01*
X035228Y056132D02*
X035289Y056070D01*
X035228Y056132D02*
X035228Y056379D01*
X035289Y056317D02*
X035166Y056317D01*
X035412Y056440D02*
X035535Y056317D01*
X035535Y056193D01*
X035412Y056070D01*
X035473Y056670D02*
X035412Y056732D01*
X035473Y056793D01*
X035658Y056793D01*
X035658Y056855D02*
X035658Y056670D01*
X035473Y056670D01*
X035290Y056732D02*
X035290Y056979D01*
X035228Y057040D01*
X035043Y057040D01*
X035043Y056670D01*
X035228Y056670D01*
X035290Y056732D01*
X035473Y056917D02*
X035597Y056917D01*
X035658Y056855D01*
X035780Y056917D02*
X035903Y056917D01*
X035842Y056979D02*
X035842Y056732D01*
X035903Y056670D01*
X036025Y056732D02*
X036087Y056793D01*
X036272Y056793D01*
X036272Y056855D02*
X036272Y056670D01*
X036087Y056670D01*
X036025Y056732D01*
X036087Y056917D02*
X036211Y056917D01*
X036272Y056855D01*
X036762Y056670D02*
X036885Y056670D01*
X036824Y056670D02*
X036824Y057040D01*
X036885Y057040D02*
X036762Y057040D01*
X037008Y056917D02*
X037008Y056670D01*
X037254Y056670D02*
X037254Y056855D01*
X037193Y056917D01*
X037008Y056917D01*
X035290Y057393D02*
X035290Y057578D01*
X035228Y057639D01*
X035167Y057639D01*
X035105Y057578D01*
X035105Y057393D01*
X035105Y057578D02*
X035043Y057639D01*
X034981Y057639D01*
X034920Y057578D01*
X034920Y057393D01*
X035290Y057393D01*
X035228Y057761D02*
X035290Y057823D01*
X035290Y058008D01*
X035352Y058008D02*
X035413Y057946D01*
X035413Y057884D01*
X035352Y058008D02*
X035043Y058008D01*
X035043Y058129D02*
X035043Y058314D01*
X035105Y058376D01*
X035228Y058376D01*
X035290Y058314D01*
X035290Y058129D01*
X035413Y058129D02*
X035043Y058129D01*
X034690Y058068D02*
X034690Y057945D01*
X034690Y058007D02*
X034443Y058007D01*
X034443Y057945D01*
X034505Y057824D02*
X034690Y057824D01*
X034505Y057824D02*
X034443Y057762D01*
X034443Y057638D01*
X034505Y057577D01*
X034567Y057455D02*
X034628Y057455D01*
X034690Y057394D01*
X034690Y057270D01*
X034628Y057208D01*
X034505Y057270D02*
X034505Y057394D01*
X034567Y057455D01*
X034690Y057577D02*
X034320Y057577D01*
X034381Y057455D02*
X034320Y057394D01*
X034320Y057270D01*
X034381Y057208D01*
X034443Y057208D01*
X034505Y057270D01*
X034492Y057040D02*
X034307Y057040D01*
X034307Y056670D01*
X034492Y056670D01*
X034554Y056732D01*
X034554Y056979D01*
X034492Y057040D01*
X034185Y057040D02*
X033938Y057040D01*
X033938Y056670D01*
X034185Y056670D01*
X034062Y056855D02*
X033938Y056855D01*
X033817Y056670D02*
X033570Y056670D01*
X033570Y057040D01*
X033693Y056440D02*
X033570Y056317D01*
X033570Y056193D01*
X033693Y056070D01*
X033816Y056193D02*
X033939Y056070D01*
X034062Y056193D01*
X034184Y056070D02*
X034184Y056440D01*
X033816Y056440D02*
X033816Y056193D01*
X034258Y058007D02*
X034320Y058007D01*
X034381Y058252D02*
X034320Y058314D01*
X034381Y058252D02*
X034690Y058252D01*
X034505Y058191D02*
X034505Y058314D01*
X034443Y058436D02*
X034443Y058560D01*
X034381Y058498D02*
X034628Y058498D01*
X034690Y058560D01*
X034552Y058945D02*
X034676Y059068D01*
X034676Y059192D01*
X034552Y059315D01*
X034431Y059315D02*
X034431Y059068D01*
X034307Y058945D01*
X034184Y059068D01*
X034184Y059315D01*
X034062Y059315D02*
X033816Y059315D01*
X033816Y059130D01*
X033939Y059192D01*
X034001Y059192D01*
X034062Y059130D01*
X034062Y059007D01*
X034001Y058945D01*
X033877Y058945D01*
X033816Y059007D01*
X033693Y058945D02*
X033570Y059068D01*
X033570Y059192D01*
X033693Y059315D01*
X033570Y059545D02*
X033817Y059545D01*
X033938Y059545D02*
X034185Y059545D01*
X034307Y059545D02*
X034492Y059545D01*
X034554Y059607D01*
X034554Y059854D01*
X034492Y059915D01*
X034307Y059915D01*
X034307Y059545D01*
X034062Y059730D02*
X033938Y059730D01*
X033938Y059915D02*
X033938Y059545D01*
X033570Y059545D02*
X033570Y059915D01*
X033938Y059915D02*
X034185Y059915D01*
X035043Y059915D02*
X035228Y059915D01*
X035290Y059854D01*
X035290Y059607D01*
X035228Y059545D01*
X035043Y059545D01*
X035043Y059915D01*
X035473Y059792D02*
X035597Y059792D01*
X035658Y059730D01*
X035658Y059545D01*
X035473Y059545D01*
X035412Y059607D01*
X035473Y059668D01*
X035658Y059668D01*
X035780Y059792D02*
X035903Y059792D01*
X035842Y059854D02*
X035842Y059607D01*
X035903Y059545D01*
X036025Y059607D02*
X036087Y059668D01*
X036272Y059668D01*
X036272Y059730D02*
X036272Y059545D01*
X036087Y059545D01*
X036025Y059607D01*
X036087Y059792D02*
X036211Y059792D01*
X036272Y059730D01*
X036762Y059545D02*
X036885Y059545D01*
X036824Y059545D02*
X036824Y059915D01*
X036885Y059915D02*
X036762Y059915D01*
X037008Y059792D02*
X037193Y059792D01*
X037254Y059730D01*
X037254Y059545D01*
X037008Y059545D02*
X037008Y059792D01*
X035228Y057761D02*
X035043Y057761D01*
X034115Y061274D02*
X034115Y061521D01*
X034115Y061643D02*
X034115Y061889D01*
X034115Y062011D02*
X034115Y062196D01*
X034053Y062258D01*
X033806Y062258D01*
X033745Y062196D01*
X033745Y062011D01*
X034115Y062011D01*
X033930Y061766D02*
X033930Y061643D01*
X033745Y061643D02*
X034115Y061643D01*
X034115Y061274D02*
X033745Y061274D01*
X033745Y061643D02*
X033745Y061889D01*
X033868Y062747D02*
X033745Y062871D01*
X034115Y062871D01*
X034115Y062994D02*
X034115Y062747D01*
X027790Y054826D02*
X027420Y054826D01*
X027420Y054579D02*
X027790Y054826D01*
X027790Y054579D02*
X027420Y054579D01*
X027481Y054458D02*
X027605Y054458D01*
X027667Y054396D01*
X027667Y054211D01*
X027790Y054211D02*
X027420Y054211D01*
X027420Y054396D01*
X027481Y054458D01*
X027667Y054334D02*
X027790Y054458D01*
X027728Y054089D02*
X027605Y054089D01*
X027605Y053966D01*
X027728Y054089D02*
X027790Y054028D01*
X027790Y053904D01*
X027728Y053843D01*
X027481Y053843D01*
X027420Y053904D01*
X027420Y054028D01*
X027481Y054089D01*
X028143Y052602D02*
X028143Y052540D01*
X028267Y052417D01*
X028267Y052295D02*
X028267Y052110D01*
X028328Y052048D01*
X028390Y052110D01*
X028390Y052295D01*
X028205Y052295D01*
X028143Y052234D01*
X028143Y052110D01*
X028020Y051865D02*
X028390Y051865D01*
X028390Y051926D02*
X028390Y051803D01*
X028328Y051681D02*
X028205Y051681D01*
X028143Y051620D01*
X028143Y051496D01*
X028205Y051435D01*
X028328Y051435D01*
X028390Y051496D01*
X028390Y051620D01*
X028328Y051681D01*
X028020Y051803D02*
X028020Y051865D01*
X027790Y051896D02*
X027728Y051958D01*
X027605Y051958D01*
X027543Y051896D01*
X027543Y051773D01*
X027605Y051711D01*
X027728Y051711D01*
X027790Y051773D01*
X027790Y051896D01*
X027790Y052079D02*
X027543Y052079D01*
X027543Y052264D01*
X027605Y052326D01*
X027790Y052326D01*
X028143Y052417D02*
X028390Y052417D01*
X027790Y051589D02*
X027420Y051589D01*
X027420Y051343D02*
X027790Y051589D01*
X027790Y051343D02*
X027420Y051343D01*
X028020Y051251D02*
X028020Y051128D01*
X028081Y051066D01*
X028143Y051066D01*
X028205Y051128D01*
X028205Y051251D01*
X028267Y051313D01*
X028328Y051313D01*
X028390Y051251D01*
X028390Y051128D01*
X028328Y051066D01*
X028081Y051313D02*
X028020Y051251D01*
X023460Y058045D02*
X023398Y058107D01*
X023398Y058354D01*
X023337Y058292D02*
X023460Y058292D01*
X023215Y058292D02*
X023215Y058045D01*
X023030Y058045D01*
X022968Y058107D01*
X022968Y058292D01*
X022847Y058354D02*
X022785Y058415D01*
X022662Y058415D01*
X022600Y058354D01*
X022600Y058107D01*
X022662Y058045D01*
X022785Y058045D01*
X022847Y058107D01*
X022847Y058354D01*
X022110Y058230D02*
X022110Y058045D01*
X021925Y058045D01*
X021863Y058107D01*
X021925Y058168D01*
X022110Y058168D01*
X022110Y058230D02*
X022048Y058292D01*
X021925Y058292D01*
X021741Y058292D02*
X021618Y058292D01*
X021679Y058354D02*
X021679Y058107D01*
X021741Y058045D01*
X021496Y058045D02*
X021311Y058045D01*
X021249Y058107D01*
X021311Y058168D01*
X021496Y058168D01*
X021496Y058230D02*
X021496Y058045D01*
X021496Y058230D02*
X021435Y058292D01*
X021311Y058292D01*
X021128Y058354D02*
X021066Y058415D01*
X020881Y058415D01*
X020881Y058045D01*
X021066Y058045D01*
X021128Y058107D01*
X021128Y058354D01*
X020391Y058354D02*
X020391Y058107D01*
X020330Y058045D01*
X020145Y058045D01*
X020145Y058415D01*
X020330Y058415D01*
X020391Y058354D01*
X020023Y058415D02*
X019776Y058415D01*
X019776Y058045D01*
X020023Y058045D01*
X019900Y058230D02*
X019776Y058230D01*
X019655Y058045D02*
X019408Y058045D01*
X019408Y058415D01*
X023183Y061468D02*
X023531Y061594D01*
X023573Y061478D02*
X023488Y061710D01*
X023389Y061803D02*
X023331Y061782D01*
X023252Y061819D01*
X023209Y061935D01*
X023246Y062014D01*
X023304Y062035D01*
X023383Y061999D01*
X023426Y061883D01*
X023389Y061803D01*
X023252Y061819D02*
X023215Y061740D01*
X023157Y061719D01*
X023078Y061756D01*
X023035Y061872D01*
X023072Y061951D01*
X023130Y061972D01*
X023209Y061935D01*
X023183Y061468D02*
X023341Y061394D01*
X023450Y060913D02*
X023413Y060834D01*
X023477Y060660D01*
X023825Y060786D01*
X023761Y060960D01*
X023682Y060997D01*
X023450Y060913D01*
X023518Y060545D02*
X023603Y060314D01*
X023951Y060440D01*
X023866Y060672D01*
X023734Y060493D02*
X023777Y060377D01*
X023992Y060326D02*
X024077Y060094D01*
X023729Y059967D01*
X034895Y053042D02*
X034895Y052795D01*
X046279Y055870D02*
X046402Y055870D01*
X046340Y055870D02*
X046340Y056240D01*
X046279Y056240D02*
X046402Y056240D01*
X046524Y056240D02*
X046524Y055870D01*
X046524Y055993D02*
X046709Y055993D01*
X046771Y056055D01*
X046771Y056179D01*
X046709Y056240D01*
X046524Y056240D01*
X046648Y055993D02*
X046771Y055870D01*
X047261Y055870D02*
X047261Y056240D01*
X047446Y056240D01*
X047508Y056179D01*
X047508Y055932D01*
X047446Y055870D01*
X047261Y055870D01*
X047629Y055932D02*
X047691Y055993D01*
X047876Y055993D01*
X047876Y056055D02*
X047876Y055870D01*
X047691Y055870D01*
X047629Y055932D01*
X047691Y056117D02*
X047814Y056117D01*
X047876Y056055D01*
X047997Y056117D02*
X048121Y056117D01*
X048059Y056179D02*
X048059Y055932D01*
X048121Y055870D01*
X048243Y055932D02*
X048305Y055993D01*
X048490Y055993D01*
X048490Y056055D02*
X048490Y055870D01*
X048305Y055870D01*
X048243Y055932D01*
X048305Y056117D02*
X048428Y056117D01*
X048490Y056055D01*
D15*
X039861Y046361D02*
X037499Y046361D01*
X037499Y043999D01*
X039861Y043999D01*
X039861Y046361D01*
X037991Y045180D02*
X037993Y045232D01*
X037999Y045284D01*
X038009Y045335D01*
X038022Y045385D01*
X038040Y045435D01*
X038061Y045482D01*
X038085Y045528D01*
X038114Y045572D01*
X038145Y045614D01*
X038179Y045653D01*
X038216Y045690D01*
X038256Y045723D01*
X038299Y045754D01*
X038343Y045781D01*
X038389Y045805D01*
X038438Y045825D01*
X038487Y045841D01*
X038538Y045854D01*
X038589Y045863D01*
X038641Y045868D01*
X038693Y045869D01*
X038745Y045866D01*
X038797Y045859D01*
X038848Y045848D01*
X038898Y045834D01*
X038947Y045815D01*
X038994Y045793D01*
X039039Y045768D01*
X039083Y045739D01*
X039124Y045707D01*
X039163Y045672D01*
X039198Y045634D01*
X039231Y045593D01*
X039261Y045551D01*
X039287Y045506D01*
X039310Y045459D01*
X039329Y045410D01*
X039345Y045360D01*
X039357Y045310D01*
X039365Y045258D01*
X039369Y045206D01*
X039369Y045154D01*
X039365Y045102D01*
X039357Y045050D01*
X039345Y045000D01*
X039329Y044950D01*
X039310Y044901D01*
X039287Y044854D01*
X039261Y044809D01*
X039231Y044767D01*
X039198Y044726D01*
X039163Y044688D01*
X039124Y044653D01*
X039083Y044621D01*
X039039Y044592D01*
X038994Y044567D01*
X038947Y044545D01*
X038898Y044526D01*
X038848Y044512D01*
X038797Y044501D01*
X038745Y044494D01*
X038693Y044491D01*
X038641Y044492D01*
X038589Y044497D01*
X038538Y044506D01*
X038487Y044519D01*
X038438Y044535D01*
X038389Y044555D01*
X038343Y044579D01*
X038299Y044606D01*
X038256Y044637D01*
X038216Y044670D01*
X038179Y044707D01*
X038145Y044746D01*
X038114Y044788D01*
X038085Y044832D01*
X038061Y044878D01*
X038040Y044925D01*
X038022Y044975D01*
X038009Y045025D01*
X037999Y045076D01*
X037993Y045128D01*
X037991Y045180D01*
X030761Y043999D02*
X028399Y043999D01*
X028399Y046361D01*
X030761Y046361D01*
X030761Y043999D01*
X028891Y045180D02*
X028893Y045232D01*
X028899Y045284D01*
X028909Y045335D01*
X028922Y045385D01*
X028940Y045435D01*
X028961Y045482D01*
X028985Y045528D01*
X029014Y045572D01*
X029045Y045614D01*
X029079Y045653D01*
X029116Y045690D01*
X029156Y045723D01*
X029199Y045754D01*
X029243Y045781D01*
X029289Y045805D01*
X029338Y045825D01*
X029387Y045841D01*
X029438Y045854D01*
X029489Y045863D01*
X029541Y045868D01*
X029593Y045869D01*
X029645Y045866D01*
X029697Y045859D01*
X029748Y045848D01*
X029798Y045834D01*
X029847Y045815D01*
X029894Y045793D01*
X029939Y045768D01*
X029983Y045739D01*
X030024Y045707D01*
X030063Y045672D01*
X030098Y045634D01*
X030131Y045593D01*
X030161Y045551D01*
X030187Y045506D01*
X030210Y045459D01*
X030229Y045410D01*
X030245Y045360D01*
X030257Y045310D01*
X030265Y045258D01*
X030269Y045206D01*
X030269Y045154D01*
X030265Y045102D01*
X030257Y045050D01*
X030245Y045000D01*
X030229Y044950D01*
X030210Y044901D01*
X030187Y044854D01*
X030161Y044809D01*
X030131Y044767D01*
X030098Y044726D01*
X030063Y044688D01*
X030024Y044653D01*
X029983Y044621D01*
X029939Y044592D01*
X029894Y044567D01*
X029847Y044545D01*
X029798Y044526D01*
X029748Y044512D01*
X029697Y044501D01*
X029645Y044494D01*
X029593Y044491D01*
X029541Y044492D01*
X029489Y044497D01*
X029438Y044506D01*
X029387Y044519D01*
X029338Y044535D01*
X029289Y044555D01*
X029243Y044579D01*
X029199Y044606D01*
X029156Y044637D01*
X029116Y044670D01*
X029079Y044707D01*
X029045Y044746D01*
X029014Y044788D01*
X028985Y044832D01*
X028961Y044878D01*
X028940Y044925D01*
X028922Y044975D01*
X028909Y045025D01*
X028899Y045076D01*
X028893Y045128D01*
X028891Y045180D01*
X033130Y057005D02*
X033130Y057230D01*
X033355Y057230D01*
X033130Y057005D01*
X033130Y057230D02*
X033430Y056930D01*
X033355Y058630D02*
X033130Y058630D01*
X033130Y058855D01*
X033355Y058630D01*
X033130Y058630D02*
X033430Y058930D01*
X027055Y014430D02*
X019555Y014430D01*
X019555Y007930D01*
X027055Y007930D01*
X027055Y014430D01*
D16*
X053298Y021376D02*
X055600Y021376D01*
X056060Y021836D01*
X056060Y022757D01*
X055600Y023217D01*
X053298Y023217D01*
X053758Y024138D02*
X055600Y024138D01*
X056060Y024598D01*
X056060Y025519D01*
X055600Y025979D01*
X056060Y026900D02*
X056060Y028281D01*
X055600Y028742D01*
X055139Y028742D01*
X054679Y028281D01*
X054679Y026900D01*
X053758Y025979D02*
X053298Y025519D01*
X053298Y024598D01*
X053758Y024138D01*
X053298Y026900D02*
X053298Y028281D01*
X053758Y028742D01*
X054218Y028742D01*
X054679Y028281D01*
X054679Y029663D02*
X054218Y030123D01*
X054218Y031044D01*
X054679Y031504D01*
X055139Y031504D01*
X055139Y029663D01*
X054679Y029663D02*
X055600Y029663D01*
X056060Y030123D01*
X056060Y031044D01*
X055600Y032425D02*
X055139Y032885D01*
X055139Y034267D01*
X054679Y034267D02*
X056060Y034267D01*
X056060Y032885D01*
X055600Y032425D01*
X054218Y032885D02*
X054218Y033806D01*
X054679Y034267D01*
X054679Y035187D02*
X055600Y035187D01*
X056060Y035648D01*
X056060Y037029D01*
X055600Y037950D02*
X056060Y038410D01*
X056060Y039331D01*
X055600Y039791D01*
X054679Y039791D01*
X054218Y039331D01*
X054218Y038410D01*
X054679Y037950D01*
X055600Y037950D01*
X054218Y037029D02*
X054218Y035648D01*
X054679Y035187D01*
X054218Y040712D02*
X054218Y042093D01*
X054679Y042554D01*
X056060Y042554D01*
X056060Y040712D02*
X054218Y040712D01*
X053298Y026900D02*
X056060Y026900D01*
D17*
X039055Y061430D02*
X038361Y061586D01*
X037664Y061726D01*
X036964Y061851D01*
X036261Y061961D01*
X035555Y062055D01*
X038395Y061380D02*
X038979Y061380D01*
X039055Y061430D02*
X038305Y060930D01*
X038555Y062180D01*
X039055Y061430D01*
X038923Y061628D02*
X038445Y061628D01*
X038494Y061877D02*
X038757Y061877D01*
X038592Y062125D02*
X038544Y062125D01*
X038607Y061131D02*
X038345Y061131D01*
X029680Y060805D02*
X028055Y062430D01*
X026430Y060805D01*
X027430Y060805D01*
X027430Y058555D01*
X028680Y058555D01*
X028680Y060805D01*
X029680Y060805D01*
X029602Y060883D02*
X026508Y060883D01*
X026756Y061131D02*
X029354Y061131D01*
X029105Y061380D02*
X027005Y061380D01*
X027253Y061628D02*
X028857Y061628D01*
X028608Y061877D02*
X027502Y061877D01*
X027750Y062125D02*
X028360Y062125D01*
X028111Y062374D02*
X027999Y062374D01*
X027430Y060634D02*
X028680Y060634D01*
X028680Y060386D02*
X027430Y060386D01*
X027430Y060137D02*
X028680Y060137D01*
X028680Y059889D02*
X027430Y059889D01*
X027430Y059640D02*
X028680Y059640D01*
X028680Y059392D02*
X027430Y059392D01*
X027430Y059143D02*
X028680Y059143D01*
X028680Y058895D02*
X027430Y058895D01*
X027430Y058646D02*
X028680Y058646D01*
D18*
X028680Y054880D02*
X028180Y054880D01*
X027930Y054630D01*
X027930Y054130D01*
X028180Y053880D01*
X028680Y053880D01*
X028930Y054130D01*
X028930Y054630D01*
X029180Y054880D01*
X029680Y054880D01*
X029930Y054630D01*
X029930Y054130D01*
X029680Y053880D01*
X029180Y053880D01*
X028930Y054130D01*
X028930Y054630D02*
X028680Y054880D01*
X029930Y054630D02*
X030180Y054880D01*
X030680Y054880D01*
X030930Y054630D01*
X030930Y054130D01*
X030680Y053880D01*
X030180Y053880D01*
X029930Y054130D01*
X030930Y054130D02*
X031180Y053880D01*
X031680Y053880D01*
X031930Y054130D01*
X031930Y054630D01*
X032180Y054880D01*
X032680Y054880D01*
X032930Y054630D01*
X032930Y054130D01*
X032680Y053880D01*
X032180Y053880D01*
X031930Y054130D01*
X031930Y054630D02*
X031680Y054880D01*
X031180Y054880D01*
X030930Y054630D01*
X032930Y054630D02*
X033180Y054880D01*
X033680Y054880D01*
X033930Y054630D01*
X033930Y054130D01*
X033680Y053880D01*
X033180Y053880D01*
X032930Y054130D01*
X029245Y052199D02*
X028615Y052199D01*
X028615Y052198D02*
X028599Y052193D01*
X028583Y052185D01*
X028569Y052175D01*
X028557Y052163D01*
X028547Y052148D01*
X028540Y052132D01*
X028536Y052115D01*
X028535Y052098D01*
X028537Y052080D01*
X028537Y051530D02*
X028535Y051512D01*
X028536Y051495D01*
X028540Y051478D01*
X028547Y051462D01*
X028557Y051447D01*
X028569Y051435D01*
X028583Y051425D01*
X028599Y051417D01*
X028615Y051412D01*
X028615Y051411D02*
X029245Y051411D01*
X029245Y051412D02*
X029261Y051417D01*
X029277Y051425D01*
X029291Y051435D01*
X029303Y051447D01*
X029313Y051462D01*
X029320Y051478D01*
X029324Y051495D01*
X029325Y051512D01*
X029323Y051530D01*
X029323Y052080D02*
X029325Y052098D01*
X029324Y052115D01*
X029320Y052132D01*
X029313Y052148D01*
X029303Y052163D01*
X029291Y052175D01*
X029277Y052185D01*
X029261Y052193D01*
X029245Y052198D01*
X034930Y049180D02*
X034930Y048680D01*
X035180Y048430D01*
X036680Y048430D01*
X036930Y048680D01*
X036930Y049180D01*
X036680Y049430D01*
X035180Y049430D01*
X034930Y049180D01*
X035180Y048430D02*
X034930Y048180D01*
X034930Y047680D01*
X035180Y047430D01*
X036680Y047430D01*
X036930Y047680D01*
X036930Y048180D01*
X036680Y048430D01*
X036680Y047430D02*
X036930Y047180D01*
X036930Y046680D01*
X036680Y046430D01*
X035180Y046430D01*
X034930Y046680D01*
X034930Y047180D01*
X035180Y047430D01*
X037062Y047180D02*
X037062Y046680D01*
X045236Y044042D02*
X045236Y040288D01*
X049616Y040288D01*
X049616Y044042D01*
X049176Y044042D01*
X049176Y045412D01*
X045676Y045412D01*
X045676Y044042D01*
X045236Y044042D01*
X034074Y057615D02*
X034074Y058245D01*
X034073Y058245D02*
X034068Y058261D01*
X034060Y058277D01*
X034050Y058291D01*
X034038Y058303D01*
X034023Y058313D01*
X034007Y058320D01*
X033990Y058324D01*
X033973Y058325D01*
X033955Y058323D01*
X033405Y058323D02*
X033385Y058325D01*
X033366Y058323D01*
X033347Y058317D01*
X033330Y058308D01*
X033314Y058296D01*
X033302Y058281D01*
X033293Y058263D01*
X033287Y058245D01*
X033286Y058245D02*
X033286Y057615D01*
X033287Y057615D02*
X033293Y057597D01*
X033302Y057579D01*
X033314Y057564D01*
X033330Y057552D01*
X033347Y057543D01*
X033366Y057537D01*
X033385Y057535D01*
X033405Y057537D01*
X033955Y057537D02*
X033973Y057535D01*
X033990Y057536D01*
X034007Y057540D01*
X034023Y057547D01*
X034038Y057557D01*
X034050Y057569D01*
X034060Y057583D01*
X034068Y057599D01*
X034073Y057615D01*
X019116Y044042D02*
X019116Y040288D01*
X014736Y040288D01*
X014736Y044042D01*
X015176Y044042D01*
X015176Y045412D01*
X018676Y045412D01*
X018676Y044042D01*
X019116Y044042D01*
X019124Y023572D02*
X014744Y023572D01*
X014744Y019818D01*
X015184Y019818D01*
X015184Y018448D01*
X018684Y018448D01*
X018684Y019818D01*
X019124Y019818D01*
X019124Y023572D01*
X020536Y017245D02*
X020536Y016615D01*
X020537Y016615D02*
X020543Y016597D01*
X020552Y016579D01*
X020564Y016564D01*
X020580Y016552D01*
X020597Y016543D01*
X020616Y016537D01*
X020635Y016535D01*
X020655Y016537D01*
X021205Y016537D02*
X021223Y016535D01*
X021240Y016536D01*
X021257Y016540D01*
X021273Y016547D01*
X021288Y016557D01*
X021300Y016569D01*
X021310Y016583D01*
X021318Y016599D01*
X021323Y016615D01*
X021324Y016615D02*
X021324Y017245D01*
X021323Y017245D02*
X021318Y017261D01*
X021310Y017277D01*
X021300Y017291D01*
X021288Y017303D01*
X021273Y017313D01*
X021257Y017320D01*
X021240Y017324D01*
X021223Y017325D01*
X021205Y017323D01*
X020655Y017323D02*
X020635Y017325D01*
X020616Y017323D01*
X020597Y017317D01*
X020580Y017308D01*
X020564Y017296D01*
X020552Y017281D01*
X020543Y017263D01*
X020537Y017245D01*
X022214Y013766D02*
X022214Y012845D01*
X022828Y012845D01*
X023135Y012998D02*
X023288Y012845D01*
X023595Y012845D01*
X023748Y012998D01*
X024055Y012998D02*
X024209Y012845D01*
X024516Y012845D01*
X024669Y012998D01*
X024669Y013612D01*
X024516Y013766D01*
X024209Y013766D01*
X024055Y013612D01*
X024055Y012998D01*
X023748Y013612D02*
X023595Y013766D01*
X023288Y013766D01*
X023135Y013612D01*
X023135Y012998D01*
X022521Y013305D02*
X022214Y013305D01*
X022214Y013766D02*
X022828Y013766D01*
X022652Y011966D02*
X022345Y011659D01*
X022345Y011045D01*
X022345Y011505D02*
X022959Y011505D01*
X022959Y011659D02*
X022959Y011045D01*
X022959Y011659D02*
X022652Y011966D01*
X022805Y009966D02*
X022345Y009966D01*
X022345Y009045D01*
X022805Y009045D01*
X022959Y009198D01*
X022959Y009352D01*
X022805Y009505D01*
X022345Y009505D01*
X022805Y009505D02*
X022959Y009659D01*
X022959Y009812D01*
X022805Y009966D01*
X025720Y009966D02*
X025720Y009045D01*
X026180Y009045D01*
X026334Y009198D01*
X026334Y009812D01*
X026180Y009966D01*
X025720Y009966D01*
X025873Y011045D02*
X025720Y011198D01*
X025720Y011812D01*
X025873Y011966D01*
X026180Y011966D01*
X026334Y011812D01*
X026334Y011198D02*
X026180Y011045D01*
X025873Y011045D01*
X029786Y010125D02*
X029786Y009574D01*
X029944Y009298D02*
X030180Y009062D01*
X030416Y009298D01*
X029944Y009298D01*
X029904Y009062D02*
X030180Y009062D01*
X030456Y009062D01*
X030574Y008786D02*
X030574Y008235D01*
X029786Y008235D01*
X029786Y008786D01*
X030574Y009574D02*
X030574Y010125D01*
X029786Y010125D01*
X031786Y010125D02*
X031786Y009574D01*
X031944Y009298D02*
X032180Y009062D01*
X032416Y009298D01*
X031944Y009298D01*
X031904Y009062D02*
X032180Y009062D01*
X032456Y009062D01*
X032574Y008786D02*
X032574Y008235D01*
X031786Y008235D01*
X031786Y008786D01*
X032574Y009574D02*
X032574Y010125D01*
X031786Y010125D01*
X033786Y010125D02*
X033786Y009574D01*
X033944Y009298D02*
X034180Y009062D01*
X034416Y009298D01*
X033944Y009298D01*
X033904Y009062D02*
X034180Y009062D01*
X034456Y009062D01*
X034574Y008786D02*
X034574Y008235D01*
X033786Y008235D01*
X033786Y008786D01*
X034574Y009574D02*
X034574Y010125D01*
X033786Y010125D01*
X032574Y007245D02*
X032574Y006615D01*
X032573Y006615D02*
X032568Y006599D01*
X032560Y006583D01*
X032550Y006569D01*
X032538Y006557D01*
X032523Y006547D01*
X032507Y006540D01*
X032490Y006536D01*
X032473Y006535D01*
X032455Y006537D01*
X031905Y006537D02*
X031885Y006535D01*
X031866Y006537D01*
X031847Y006543D01*
X031830Y006552D01*
X031814Y006564D01*
X031802Y006579D01*
X031793Y006597D01*
X031787Y006615D01*
X031786Y006615D02*
X031786Y007245D01*
X031787Y007245D02*
X031793Y007263D01*
X031802Y007281D01*
X031814Y007296D01*
X031830Y007308D01*
X031847Y007317D01*
X031866Y007323D01*
X031885Y007325D01*
X031905Y007323D01*
X032455Y007323D02*
X032473Y007325D01*
X032490Y007324D01*
X032507Y007320D01*
X032523Y007313D01*
X032538Y007303D01*
X032550Y007291D01*
X032560Y007277D01*
X032568Y007261D01*
X032573Y007245D01*
X036211Y012718D02*
X036211Y016142D01*
X040544Y016142D01*
X040544Y015375D01*
X040544Y013485D02*
X040544Y012718D01*
X040048Y012718D01*
X038198Y012718D02*
X036211Y012718D01*
X043036Y016615D02*
X043036Y017245D01*
X043037Y017245D02*
X043043Y017263D01*
X043052Y017281D01*
X043064Y017296D01*
X043080Y017308D01*
X043097Y017317D01*
X043116Y017323D01*
X043135Y017325D01*
X043155Y017323D01*
X043705Y017323D02*
X043723Y017325D01*
X043740Y017324D01*
X043757Y017320D01*
X043773Y017313D01*
X043788Y017303D01*
X043800Y017291D01*
X043810Y017277D01*
X043818Y017261D01*
X043823Y017245D01*
X043824Y017245D02*
X043824Y016615D01*
X043823Y016615D02*
X043818Y016599D01*
X043810Y016583D01*
X043800Y016569D01*
X043788Y016557D01*
X043773Y016547D01*
X043757Y016540D01*
X043740Y016536D01*
X043723Y016535D01*
X043705Y016537D01*
X043155Y016537D02*
X043135Y016535D01*
X043116Y016537D01*
X043097Y016543D01*
X043080Y016552D01*
X043064Y016564D01*
X043052Y016579D01*
X043043Y016597D01*
X043037Y016615D01*
X045684Y018448D02*
X045684Y019818D01*
X045244Y019818D01*
X045244Y023572D01*
X049624Y023572D01*
X049624Y019818D01*
X049184Y019818D01*
X049184Y018448D01*
X045684Y018448D01*
X037836Y019734D02*
X036024Y019734D01*
X036024Y019911D01*
X036024Y020699D02*
X036024Y020876D01*
X037836Y020876D01*
X037836Y020699D01*
X037324Y020699D02*
X037324Y019911D01*
X037836Y019911D02*
X037836Y019734D01*
X027245Y018324D02*
X026615Y018324D01*
X026615Y018323D02*
X026599Y018318D01*
X026583Y018310D01*
X026569Y018300D01*
X026557Y018288D01*
X026547Y018273D01*
X026540Y018257D01*
X026536Y018240D01*
X026535Y018223D01*
X026537Y018205D01*
X026537Y017655D02*
X026535Y017637D01*
X026536Y017620D01*
X026540Y017603D01*
X026547Y017587D01*
X026557Y017572D01*
X026569Y017560D01*
X026583Y017550D01*
X026599Y017542D01*
X026615Y017537D01*
X026615Y017536D02*
X027245Y017536D01*
X027245Y017537D02*
X027261Y017542D01*
X027277Y017550D01*
X027291Y017560D01*
X027303Y017572D01*
X027313Y017587D01*
X027320Y017603D01*
X027324Y017620D01*
X027325Y017637D01*
X027323Y017655D01*
X027323Y018205D02*
X027325Y018223D01*
X027324Y018240D01*
X027320Y018257D01*
X027313Y018273D01*
X027303Y018288D01*
X027291Y018300D01*
X027277Y018310D01*
X027261Y018318D01*
X027245Y018323D01*
D19*
X024555Y011430D03*
X024555Y009430D03*
X021180Y009430D03*
X021180Y011430D03*
D20*
X013211Y007522D02*
X011190Y009217D01*
X012582Y010876D01*
X014603Y009180D01*
X013211Y007522D01*
X021050Y005458D02*
X020310Y003423D01*
X022788Y002521D01*
X023529Y004556D01*
X021050Y005458D01*
X025288Y003456D02*
X024914Y001433D01*
X024774Y001337D01*
X024766Y001329D01*
X024760Y001319D01*
X024757Y001308D01*
X024758Y001297D01*
X024762Y001286D01*
X024769Y001277D01*
X024778Y001270D01*
X024789Y001267D01*
X024789Y001266D02*
X024880Y001249D01*
X027822Y000704D01*
X027912Y000687D01*
X027912Y000688D02*
X027923Y000687D01*
X027934Y000690D01*
X027944Y000696D01*
X027952Y000705D01*
X027956Y000715D01*
X027958Y000727D01*
X027956Y000738D01*
X027951Y000748D01*
X027952Y000748D02*
X027856Y000888D01*
X028230Y002911D01*
X025288Y003456D01*
X030861Y003263D02*
X030861Y001097D01*
X033499Y001097D01*
X033499Y003263D01*
X030861Y003263D01*
X040831Y004556D02*
X041572Y002521D01*
X044050Y003423D01*
X043310Y005458D01*
X040831Y004556D01*
X049757Y009180D02*
X051149Y007522D01*
X053170Y009217D01*
X051778Y010876D01*
X049757Y009180D01*
X047533Y016256D02*
X045327Y016256D01*
X045327Y017604D02*
X047533Y017604D01*
X040680Y019271D02*
X038680Y019271D01*
X038680Y021201D01*
X040680Y021201D01*
X040680Y019271D01*
X039086Y018965D02*
X039086Y018295D01*
X038574Y018295D01*
X038574Y018965D01*
X039086Y018965D01*
X039066Y018787D02*
X039066Y018748D01*
X038594Y018748D01*
X038594Y018787D02*
X039066Y018787D01*
X037521Y018018D02*
X037521Y019592D01*
X036339Y019592D01*
X036339Y018018D01*
X037521Y018018D01*
X036458Y019435D02*
X036460Y019447D01*
X036465Y019458D01*
X036474Y019467D01*
X036485Y019472D01*
X036497Y019474D01*
X036509Y019472D01*
X036520Y019467D01*
X036529Y019458D01*
X036534Y019447D01*
X036536Y019435D01*
X036534Y019423D01*
X036529Y019412D01*
X036520Y019403D01*
X036509Y019398D01*
X036497Y019396D01*
X036485Y019398D01*
X036474Y019403D01*
X036465Y019412D01*
X036460Y019423D01*
X036458Y019435D01*
X027717Y020217D02*
X027717Y018643D01*
X026143Y018643D01*
X026143Y020217D01*
X027717Y020217D01*
X027068Y019745D02*
X027068Y019647D01*
X026792Y019647D01*
X026792Y019745D01*
X027068Y019745D01*
X027068Y019743D02*
X026792Y019743D01*
X026792Y019695D02*
X027068Y019695D01*
X019033Y017604D02*
X016827Y017604D01*
X016827Y016256D02*
X019033Y016256D01*
X007796Y016579D02*
X006477Y018864D01*
X004602Y017781D01*
X005921Y015496D01*
X007796Y016579D01*
X003931Y025860D02*
X001799Y025484D01*
X001341Y028081D01*
X003473Y028457D01*
X003931Y025860D01*
X003473Y035903D02*
X003931Y038500D01*
X001799Y038876D01*
X001341Y036279D01*
X003473Y035903D01*
X006477Y045496D02*
X007796Y047781D01*
X005921Y048864D01*
X004602Y046579D01*
X006477Y045496D01*
X012582Y053484D02*
X014603Y055180D01*
X013211Y056838D01*
X011190Y055143D01*
X012582Y053484D01*
X021050Y058902D02*
X020310Y060937D01*
X022788Y061839D01*
X023529Y059804D01*
X021050Y058902D01*
X030861Y061097D02*
X033499Y061097D01*
X033499Y063263D01*
X030861Y063263D01*
X030861Y061097D01*
X040831Y059804D02*
X043310Y058902D01*
X044050Y060937D01*
X041572Y061839D01*
X040831Y059804D01*
X045631Y058497D02*
X048229Y056997D01*
X048729Y057863D01*
X048296Y058113D01*
X046564Y059113D02*
X046131Y059363D01*
X045631Y058497D01*
X049757Y055180D02*
X051778Y053484D01*
X053170Y055143D01*
X051149Y056838D01*
X049757Y055180D01*
X056564Y047781D02*
X057883Y045496D01*
X059758Y046579D01*
X058439Y048864D01*
X056564Y047781D01*
X060429Y038500D02*
X062561Y038876D01*
X063019Y036279D01*
X060887Y035903D01*
X060429Y038500D01*
X060887Y028457D02*
X060429Y025860D01*
X062561Y025484D01*
X063019Y028081D01*
X060887Y028457D01*
X057883Y018864D02*
X056564Y016579D01*
X058439Y015496D01*
X059758Y017781D01*
X057883Y018864D01*
D21*
X059378Y018153D02*
X059380Y018166D01*
X059385Y018178D01*
X059394Y018189D01*
X059404Y018197D01*
X059417Y018201D01*
X059430Y018202D01*
X059443Y018199D01*
X059455Y018193D01*
X059465Y018184D01*
X059472Y018173D01*
X059476Y018160D01*
X059476Y018146D01*
X059472Y018133D01*
X059465Y018122D01*
X059455Y018113D01*
X059443Y018107D01*
X059430Y018104D01*
X059417Y018105D01*
X059404Y018109D01*
X059394Y018117D01*
X059385Y018128D01*
X059380Y018140D01*
X059378Y018153D01*
X052938Y009680D02*
X052940Y009693D01*
X052945Y009705D01*
X052954Y009716D01*
X052964Y009724D01*
X052977Y009728D01*
X052990Y009729D01*
X053003Y009726D01*
X053015Y009720D01*
X053025Y009711D01*
X053032Y009700D01*
X053036Y009687D01*
X053036Y009673D01*
X053032Y009660D01*
X053025Y009649D01*
X053015Y009640D01*
X053003Y009634D01*
X052990Y009631D01*
X052977Y009632D01*
X052964Y009636D01*
X052954Y009644D01*
X052945Y009655D01*
X052940Y009667D01*
X052938Y009680D01*
X043988Y003921D02*
X043990Y003934D01*
X043995Y003946D01*
X044004Y003957D01*
X044014Y003965D01*
X044027Y003969D01*
X044040Y003970D01*
X044053Y003967D01*
X044065Y003961D01*
X044075Y003952D01*
X044082Y003941D01*
X044086Y003928D01*
X044086Y003914D01*
X044082Y003901D01*
X044075Y003890D01*
X044065Y003881D01*
X044053Y003875D01*
X044040Y003872D01*
X044027Y003873D01*
X044014Y003877D01*
X044004Y003885D01*
X043995Y003896D01*
X043990Y003908D01*
X043988Y003921D01*
X033607Y001570D02*
X033609Y001583D01*
X033614Y001595D01*
X033623Y001606D01*
X033633Y001614D01*
X033646Y001618D01*
X033659Y001619D01*
X033672Y001616D01*
X033684Y001610D01*
X033694Y001601D01*
X033701Y001590D01*
X033705Y001577D01*
X033705Y001563D01*
X033701Y001550D01*
X033694Y001539D01*
X033684Y001530D01*
X033672Y001524D01*
X033659Y001521D01*
X033646Y001522D01*
X033633Y001526D01*
X033623Y001534D01*
X033614Y001545D01*
X033609Y001557D01*
X033607Y001570D01*
X023049Y002911D02*
X023051Y002924D01*
X023056Y002936D01*
X023065Y002947D01*
X023075Y002955D01*
X023088Y002959D01*
X023101Y002960D01*
X023114Y002957D01*
X023126Y002951D01*
X023136Y002942D01*
X023143Y002931D01*
X023147Y002918D01*
X023147Y002904D01*
X023143Y002891D01*
X023136Y002880D01*
X023126Y002871D01*
X023114Y002865D01*
X023101Y002862D01*
X023088Y002863D01*
X023075Y002867D01*
X023065Y002875D01*
X023056Y002886D01*
X023051Y002898D01*
X023049Y002911D01*
X013586Y007782D02*
X013588Y007795D01*
X013593Y007807D01*
X013602Y007818D01*
X013612Y007826D01*
X013625Y007830D01*
X013638Y007831D01*
X013651Y007828D01*
X013663Y007822D01*
X013673Y007813D01*
X013680Y007802D01*
X013684Y007789D01*
X013684Y007775D01*
X013680Y007762D01*
X013673Y007751D01*
X013663Y007742D01*
X013651Y007736D01*
X013638Y007733D01*
X013625Y007734D01*
X013612Y007738D01*
X013602Y007746D01*
X013593Y007757D01*
X013588Y007769D01*
X013586Y007782D01*
X006360Y015596D02*
X006362Y015609D01*
X006367Y015621D01*
X006376Y015632D01*
X006386Y015640D01*
X006399Y015644D01*
X006412Y015645D01*
X006425Y015642D01*
X006437Y015636D01*
X006447Y015627D01*
X006454Y015616D01*
X006458Y015603D01*
X006458Y015589D01*
X006454Y015576D01*
X006447Y015565D01*
X006437Y015556D01*
X006425Y015550D01*
X006412Y015547D01*
X006399Y015548D01*
X006386Y015552D01*
X006376Y015560D01*
X006367Y015571D01*
X006362Y015583D01*
X006360Y015596D01*
X002242Y025411D02*
X002244Y025424D01*
X002249Y025436D01*
X002258Y025447D01*
X002268Y025455D01*
X002281Y025459D01*
X002294Y025460D01*
X002307Y025457D01*
X002319Y025451D01*
X002329Y025442D01*
X002336Y025431D01*
X002340Y025418D01*
X002340Y025404D01*
X002336Y025391D01*
X002329Y025380D01*
X002319Y025371D01*
X002307Y025365D01*
X002294Y025362D01*
X002281Y025363D01*
X002268Y025367D01*
X002258Y025375D01*
X002249Y025386D01*
X002244Y025398D01*
X002242Y025411D01*
X001729Y036041D02*
X001731Y036054D01*
X001736Y036066D01*
X001745Y036077D01*
X001755Y036085D01*
X001768Y036089D01*
X001781Y036090D01*
X001794Y036087D01*
X001806Y036081D01*
X001816Y036072D01*
X001823Y036061D01*
X001827Y036048D01*
X001827Y036034D01*
X001823Y036021D01*
X001816Y036010D01*
X001806Y036001D01*
X001794Y035995D01*
X001781Y035992D01*
X001768Y035993D01*
X001755Y035997D01*
X001745Y036005D01*
X001736Y036016D01*
X001731Y036028D01*
X001729Y036041D01*
X004884Y046207D02*
X004886Y046220D01*
X004891Y046232D01*
X004900Y046243D01*
X004910Y046251D01*
X004923Y046255D01*
X004936Y046256D01*
X004949Y046253D01*
X004961Y046247D01*
X004971Y046238D01*
X004978Y046227D01*
X004982Y046214D01*
X004982Y046200D01*
X004978Y046187D01*
X004971Y046176D01*
X004961Y046167D01*
X004949Y046161D01*
X004936Y046158D01*
X004923Y046159D01*
X004910Y046163D01*
X004900Y046171D01*
X004891Y046182D01*
X004886Y046194D01*
X004884Y046207D01*
X011324Y054680D02*
X011326Y054693D01*
X011331Y054705D01*
X011340Y054716D01*
X011350Y054724D01*
X011363Y054728D01*
X011376Y054729D01*
X011389Y054726D01*
X011401Y054720D01*
X011411Y054711D01*
X011418Y054700D01*
X011422Y054687D01*
X011422Y054673D01*
X011418Y054660D01*
X011411Y054649D01*
X011401Y054640D01*
X011389Y054634D01*
X011376Y054631D01*
X011363Y054632D01*
X011350Y054636D01*
X011340Y054644D01*
X011331Y054655D01*
X011326Y054667D01*
X011324Y054680D01*
X020274Y060439D02*
X020276Y060452D01*
X020281Y060464D01*
X020290Y060475D01*
X020300Y060483D01*
X020313Y060487D01*
X020326Y060488D01*
X020339Y060485D01*
X020351Y060479D01*
X020361Y060470D01*
X020368Y060459D01*
X020372Y060446D01*
X020372Y060432D01*
X020368Y060419D01*
X020361Y060408D01*
X020351Y060399D01*
X020339Y060393D01*
X020326Y060390D01*
X020313Y060391D01*
X020300Y060395D01*
X020290Y060403D01*
X020281Y060414D01*
X020276Y060426D01*
X020274Y060439D01*
X030655Y062790D02*
X030657Y062803D01*
X030662Y062815D01*
X030671Y062826D01*
X030681Y062834D01*
X030694Y062838D01*
X030707Y062839D01*
X030720Y062836D01*
X030732Y062830D01*
X030742Y062821D01*
X030749Y062810D01*
X030753Y062797D01*
X030753Y062783D01*
X030749Y062770D01*
X030742Y062759D01*
X030732Y062750D01*
X030720Y062744D01*
X030707Y062741D01*
X030694Y062742D01*
X030681Y062746D01*
X030671Y062754D01*
X030662Y062765D01*
X030657Y062777D01*
X030655Y062790D01*
X041213Y061449D02*
X041215Y061462D01*
X041220Y061474D01*
X041229Y061485D01*
X041239Y061493D01*
X041252Y061497D01*
X041265Y061498D01*
X041278Y061495D01*
X041290Y061489D01*
X041300Y061480D01*
X041307Y061469D01*
X041311Y061456D01*
X041311Y061442D01*
X041307Y061429D01*
X041300Y061418D01*
X041290Y061409D01*
X041278Y061403D01*
X041265Y061400D01*
X041252Y061401D01*
X041239Y061405D01*
X041229Y061413D01*
X041220Y061424D01*
X041215Y061436D01*
X041213Y061449D01*
X050676Y056578D02*
X050678Y056591D01*
X050683Y056603D01*
X050692Y056614D01*
X050702Y056622D01*
X050715Y056626D01*
X050728Y056627D01*
X050741Y056624D01*
X050753Y056618D01*
X050763Y056609D01*
X050770Y056598D01*
X050774Y056585D01*
X050774Y056571D01*
X050770Y056558D01*
X050763Y056547D01*
X050753Y056538D01*
X050741Y056532D01*
X050728Y056529D01*
X050715Y056530D01*
X050702Y056534D01*
X050692Y056542D01*
X050683Y056553D01*
X050678Y056565D01*
X050676Y056578D01*
X057902Y048764D02*
X057904Y048777D01*
X057909Y048789D01*
X057918Y048800D01*
X057928Y048808D01*
X057941Y048812D01*
X057954Y048813D01*
X057967Y048810D01*
X057979Y048804D01*
X057989Y048795D01*
X057996Y048784D01*
X058000Y048771D01*
X058000Y048757D01*
X057996Y048744D01*
X057989Y048733D01*
X057979Y048724D01*
X057967Y048718D01*
X057954Y048715D01*
X057941Y048716D01*
X057928Y048720D01*
X057918Y048728D01*
X057909Y048739D01*
X057904Y048751D01*
X057902Y048764D01*
X062020Y038949D02*
X062022Y038962D01*
X062027Y038974D01*
X062036Y038985D01*
X062046Y038993D01*
X062059Y038997D01*
X062072Y038998D01*
X062085Y038995D01*
X062097Y038989D01*
X062107Y038980D01*
X062114Y038969D01*
X062118Y038956D01*
X062118Y038942D01*
X062114Y038929D01*
X062107Y038918D01*
X062097Y038909D01*
X062085Y038903D01*
X062072Y038900D01*
X062059Y038901D01*
X062046Y038905D01*
X062036Y038913D01*
X062027Y038924D01*
X062022Y038936D01*
X062020Y038949D01*
X062533Y028319D02*
X062535Y028332D01*
X062540Y028344D01*
X062549Y028355D01*
X062559Y028363D01*
X062572Y028367D01*
X062585Y028368D01*
X062598Y028365D01*
X062610Y028359D01*
X062620Y028350D01*
X062627Y028339D01*
X062631Y028326D01*
X062631Y028312D01*
X062627Y028299D01*
X062620Y028288D01*
X062610Y028279D01*
X062598Y028273D01*
X062585Y028270D01*
X062572Y028271D01*
X062559Y028275D01*
X062549Y028283D01*
X062540Y028294D01*
X062535Y028306D01*
X062533Y028319D01*
D22*
X024016Y050582D02*
X023733Y050928D01*
X023784Y051020D01*
X023824Y051116D01*
X023853Y051217D01*
X024298Y051262D01*
X024298Y051598D01*
X023853Y051643D01*
X023824Y051744D01*
X023784Y051840D01*
X023733Y051932D01*
X024016Y052278D01*
X023778Y052516D01*
X023432Y052233D01*
X023340Y052284D01*
X023244Y052324D01*
X023143Y052353D01*
X023098Y052798D01*
X022762Y052798D01*
X022717Y052353D01*
X022616Y052324D01*
X022520Y052284D01*
X022428Y052233D01*
X022082Y052516D01*
X021844Y052278D01*
X022127Y051932D01*
X022076Y051840D01*
X022036Y051744D01*
X022007Y051643D01*
X021562Y051598D01*
X021562Y051262D01*
X022007Y051217D01*
X022036Y051116D01*
X022076Y051020D01*
X022127Y050928D01*
X021844Y050582D01*
X022082Y050344D01*
X022428Y050627D01*
X022496Y050588D01*
X022567Y050555D01*
X022765Y051032D01*
X022701Y051065D01*
X022643Y051109D01*
X022593Y051162D01*
X022553Y051222D01*
X022524Y051288D01*
X022505Y051358D01*
X022499Y051430D01*
X022507Y051510D01*
X022529Y051588D01*
X022566Y051660D01*
X022615Y051724D01*
X022676Y051778D01*
X022745Y051819D01*
X022821Y051847D01*
X022901Y051860D01*
X022981Y051858D01*
X023060Y051840D01*
X023135Y051809D01*
X023202Y051764D01*
X023259Y051707D01*
X023305Y051641D01*
X023338Y051567D01*
X023357Y051489D01*
X023360Y051408D01*
X023348Y051328D01*
X023322Y051252D01*
X023282Y051182D01*
X023229Y051120D01*
X023166Y051070D01*
X023095Y051032D01*
X023293Y050555D01*
X023364Y050588D01*
X023432Y050627D01*
X023778Y050344D01*
X024016Y050582D01*
X023733Y050928D01*
X023784Y051020D01*
X023824Y051116D01*
X023853Y051217D01*
X024298Y051262D01*
X024298Y051598D01*
X023853Y051643D01*
X023824Y051744D01*
X023784Y051840D01*
X023733Y051932D01*
X024016Y052278D01*
X023778Y052516D01*
X023432Y052233D01*
X023340Y052284D01*
X023244Y052324D01*
X023143Y052353D01*
X023098Y052798D01*
X022762Y052798D01*
X022717Y052353D01*
X022616Y052324D01*
X022520Y052284D01*
X022428Y052233D01*
X022082Y052516D01*
X021844Y052278D01*
X022127Y051932D01*
X022076Y051840D01*
X022036Y051744D01*
X022007Y051643D01*
X021562Y051598D01*
X021562Y051262D01*
X022007Y051217D01*
X022036Y051116D01*
X022076Y051020D01*
X022127Y050928D01*
X021844Y050582D01*
X022082Y050344D01*
X022428Y050627D01*
X022496Y050588D01*
X022567Y050555D01*
X022765Y051032D01*
X022701Y051065D01*
X022643Y051109D01*
X022593Y051162D01*
X022553Y051222D01*
X022524Y051288D01*
X022505Y051358D01*
X022499Y051430D01*
X022507Y051510D01*
X022529Y051588D01*
X022566Y051660D01*
X022615Y051724D01*
X022676Y051778D01*
X022745Y051819D01*
X022821Y051847D01*
X022901Y051860D01*
X022981Y051858D01*
X023060Y051840D01*
X023135Y051809D01*
X023202Y051764D01*
X023259Y051707D01*
X023305Y051641D01*
X023338Y051567D01*
X023357Y051489D01*
X023360Y051408D01*
X023348Y051328D01*
X023322Y051252D01*
X023282Y051182D01*
X023229Y051120D01*
X023166Y051070D01*
X023095Y051032D01*
X023293Y050555D01*
X023364Y050588D01*
X023432Y050627D01*
X023778Y050344D01*
X024016Y050582D01*
X023995Y050608D02*
X023455Y050608D01*
X023995Y050608D01*
X023984Y050550D02*
X023526Y050550D01*
X023984Y050550D01*
X023927Y050492D02*
X023596Y050492D01*
X023927Y050492D01*
X023869Y050435D02*
X023667Y050435D01*
X023869Y050435D01*
X023812Y050377D02*
X023738Y050377D01*
X023812Y050377D01*
X023948Y050665D02*
X023247Y050665D01*
X023948Y050665D01*
X023901Y050723D02*
X023223Y050723D01*
X023901Y050723D01*
X023854Y050780D02*
X023199Y050780D01*
X023854Y050780D01*
X023807Y050838D02*
X023175Y050838D01*
X023807Y050838D01*
X023760Y050895D02*
X023151Y050895D01*
X023760Y050895D01*
X023747Y050953D02*
X023128Y050953D01*
X023747Y050953D01*
X023779Y051010D02*
X023104Y051010D01*
X023779Y051010D01*
X023804Y051068D02*
X023163Y051068D01*
X023804Y051068D01*
X023827Y051126D02*
X023234Y051126D01*
X023827Y051126D01*
X023843Y051183D02*
X023283Y051183D01*
X023843Y051183D01*
X024087Y051241D02*
X023316Y051241D01*
X024087Y051241D01*
X024298Y051298D02*
X023338Y051298D01*
X024298Y051298D01*
X024298Y051356D02*
X023352Y051356D01*
X024298Y051356D01*
X024298Y051413D02*
X023360Y051413D01*
X024298Y051413D01*
X024298Y051471D02*
X023357Y051471D01*
X024298Y051471D01*
X024298Y051528D02*
X023347Y051528D01*
X024298Y051528D01*
X024298Y051586D02*
X023330Y051586D01*
X024298Y051586D01*
X023853Y051644D02*
X023304Y051644D01*
X023853Y051644D01*
X023836Y051701D02*
X023264Y051701D01*
X023836Y051701D01*
X023818Y051759D02*
X023207Y051759D01*
X023818Y051759D01*
X023794Y051816D02*
X023117Y051816D01*
X023794Y051816D01*
X023765Y051874D02*
X022095Y051874D01*
X023765Y051874D01*
X023734Y051931D02*
X022126Y051931D01*
X023734Y051931D01*
X023780Y051989D02*
X022080Y051989D01*
X023780Y051989D01*
X023827Y052046D02*
X022033Y052046D01*
X023827Y052046D01*
X023874Y052104D02*
X021986Y052104D01*
X023874Y052104D01*
X023921Y052162D02*
X021939Y052162D01*
X023921Y052162D01*
X023968Y052219D02*
X021892Y052219D01*
X023968Y052219D01*
X024014Y052277D02*
X023485Y052277D01*
X024014Y052277D01*
X023960Y052334D02*
X023556Y052334D01*
X023960Y052334D01*
X023902Y052392D02*
X023626Y052392D01*
X023902Y052392D01*
X023845Y052449D02*
X023697Y052449D01*
X023845Y052449D01*
X023787Y052507D02*
X023767Y052507D01*
X023787Y052507D01*
X023353Y052277D02*
X022507Y052277D01*
X023353Y052277D01*
X023208Y052334D02*
X022652Y052334D01*
X023208Y052334D01*
X023139Y052392D02*
X022721Y052392D01*
X023139Y052392D01*
X023133Y052449D02*
X022727Y052449D01*
X023133Y052449D01*
X023127Y052507D02*
X022733Y052507D01*
X023127Y052507D01*
X023122Y052564D02*
X022738Y052564D01*
X023122Y052564D01*
X023116Y052622D02*
X022744Y052622D01*
X023116Y052622D01*
X023110Y052680D02*
X022750Y052680D01*
X023110Y052680D01*
X023104Y052737D02*
X022756Y052737D01*
X023104Y052737D01*
X023098Y052795D02*
X022762Y052795D01*
X023098Y052795D01*
X022375Y052277D02*
X021846Y052277D01*
X022375Y052277D01*
X022304Y052334D02*
X021900Y052334D01*
X022304Y052334D01*
X022234Y052392D02*
X021958Y052392D01*
X022234Y052392D01*
X022163Y052449D02*
X022015Y052449D01*
X022163Y052449D01*
X022093Y052507D02*
X022073Y052507D01*
X022093Y052507D01*
X022066Y051816D02*
X022741Y051816D01*
X022066Y051816D01*
X022042Y051759D02*
X022654Y051759D01*
X022042Y051759D01*
X022024Y051701D02*
X022598Y051701D01*
X022024Y051701D01*
X022007Y051644D02*
X022558Y051644D01*
X022007Y051644D01*
X021562Y051586D02*
X022529Y051586D01*
X021562Y051586D01*
X021562Y051528D02*
X022512Y051528D01*
X021562Y051528D01*
X021562Y051471D02*
X022503Y051471D01*
X021562Y051471D01*
X021562Y051413D02*
X022501Y051413D01*
X021562Y051413D01*
X021562Y051356D02*
X022506Y051356D01*
X021562Y051356D01*
X021562Y051298D02*
X022521Y051298D01*
X021562Y051298D01*
X021773Y051241D02*
X022545Y051241D01*
X021773Y051241D01*
X022017Y051183D02*
X022579Y051183D01*
X022017Y051183D01*
X022033Y051126D02*
X022627Y051126D01*
X022033Y051126D01*
X022056Y051068D02*
X022697Y051068D01*
X022056Y051068D01*
X022081Y051010D02*
X022756Y051010D01*
X022081Y051010D01*
X022113Y050953D02*
X022732Y050953D01*
X022113Y050953D01*
X022100Y050895D02*
X022709Y050895D01*
X022100Y050895D01*
X022053Y050838D02*
X022685Y050838D01*
X022053Y050838D01*
X022006Y050780D02*
X022661Y050780D01*
X022006Y050780D01*
X021959Y050723D02*
X022637Y050723D01*
X021959Y050723D01*
X021912Y050665D02*
X022613Y050665D01*
X021912Y050665D01*
X021865Y050608D02*
X022405Y050608D01*
X021865Y050608D01*
X021876Y050550D02*
X022334Y050550D01*
X021876Y050550D01*
X021933Y050492D02*
X022264Y050492D01*
X021933Y050492D01*
X021991Y050435D02*
X022193Y050435D01*
X021991Y050435D01*
X022048Y050377D02*
X022122Y050377D01*
X022048Y050377D01*
X022461Y050608D02*
X022589Y050608D01*
X022461Y050608D01*
X023271Y050608D02*
X023399Y050608D01*
X023271Y050608D01*
D23*
X028419Y050430D02*
X028441Y050430D01*
X028780Y055519D02*
X028780Y055541D01*
X031080Y059169D02*
X031080Y059191D01*
X032430Y059191D02*
X032430Y059169D01*
X031755Y060444D02*
X031755Y060466D01*
X040644Y061337D02*
X040665Y061329D01*
X046185Y057640D02*
X046174Y057620D01*
X050132Y056672D02*
X050149Y056658D01*
X057397Y049052D02*
X057408Y049033D01*
X061663Y039409D02*
X061667Y039387D01*
X062367Y028998D02*
X062363Y028976D01*
X059408Y018777D02*
X059397Y018758D01*
X053174Y010252D02*
X053157Y010238D01*
X044415Y004406D02*
X044394Y004398D01*
X034191Y001880D02*
X034169Y001880D01*
X023716Y003023D02*
X023695Y003031D01*
X014253Y007688D02*
X014236Y007702D01*
X006938Y015308D02*
X006927Y015327D01*
X002697Y024951D02*
X002693Y024973D01*
X001993Y035462D02*
X001997Y035484D01*
X004952Y045583D02*
X004963Y045602D01*
X011186Y054083D02*
X011203Y054097D01*
X019945Y059954D02*
X019966Y059962D01*
X033580Y049541D02*
X033580Y049519D01*
D24*
X033580Y050730D03*
X033580Y051530D03*
X033580Y052330D03*
X032380Y052330D03*
X029980Y055530D03*
D25*
X016930Y039077D02*
X016930Y038490D01*
X016930Y025277D02*
X016930Y024690D01*
X016636Y024984D02*
X017223Y024984D01*
X047136Y024984D02*
X047723Y024984D01*
X047430Y025277D02*
X047430Y024690D01*
X047430Y038490D02*
X047430Y039077D01*
D26*
X035442Y019805D02*
X035418Y019805D01*
X041018Y017255D02*
X041042Y017255D01*
X028142Y020180D02*
X028118Y020180D01*
D27*
X038230Y017555D03*
X039530Y017555D03*
X039530Y016955D03*
D28*
X028155Y018930D03*
D29*
X018560Y017245D02*
X017300Y017245D01*
X017300Y016615D02*
X018560Y016615D01*
X045800Y016615D02*
X047060Y016615D01*
X047060Y017245D02*
X045800Y017245D01*
D30*
X046430Y016930D03*
X017930Y016930D03*
D31*
X017910Y016930D03*
X046450Y016930D03*
D32*
X034180Y011180D03*
X032180Y011180D03*
X030180Y011180D03*
D33*
G36*
X049556Y007000D02*
X049493Y006956D01*
X049482Y006972D01*
X049545Y007016D01*
X049556Y007000D01*
G37*
G36*
X049567Y006984D02*
X049504Y006940D01*
X049493Y006956D01*
X049556Y007000D01*
X049567Y006984D01*
G37*
G36*
X049578Y006968D02*
X049515Y006924D01*
X049504Y006940D01*
X049567Y006984D01*
X049578Y006968D01*
G37*
G36*
X049617Y006947D02*
X049554Y006903D01*
X049543Y006919D01*
X049606Y006963D01*
X049617Y006947D01*
G37*
G36*
X049717Y006873D02*
X049654Y006829D01*
X049643Y006845D01*
X049706Y006889D01*
X049717Y006873D01*
G37*
G36*
X049740Y006841D02*
X049677Y006797D01*
X049666Y006813D01*
X049729Y006857D01*
X049740Y006841D01*
G37*
G36*
X049751Y006824D02*
X049688Y006780D01*
X049677Y006796D01*
X049740Y006840D01*
X049751Y006824D01*
G37*
G36*
X049728Y007097D02*
X049665Y007053D01*
X049654Y007069D01*
X049717Y007113D01*
X049728Y007097D01*
G37*
G36*
X049717Y007113D02*
X049654Y007069D01*
X049643Y007085D01*
X049706Y007129D01*
X049717Y007113D01*
G37*
G36*
X049743Y007179D02*
X049680Y007135D01*
X049669Y007151D01*
X049732Y007195D01*
X049743Y007179D01*
G37*
G36*
X049841Y007176D02*
X049778Y007132D01*
X049767Y007148D01*
X049830Y007192D01*
X049841Y007176D01*
G37*
G36*
X049746Y007278D02*
X049683Y007234D01*
X049672Y007250D01*
X049735Y007294D01*
X049746Y007278D01*
G37*
G36*
X050183Y007512D02*
X050120Y007468D01*
X050109Y007484D01*
X050172Y007528D01*
X050183Y007512D01*
G37*
G36*
X050222Y007491D02*
X050159Y007447D01*
X050148Y007463D01*
X050211Y007507D01*
X050222Y007491D01*
G37*
G36*
X050261Y007470D02*
X050198Y007426D01*
X050187Y007442D01*
X050250Y007486D01*
X050261Y007470D01*
G37*
G36*
X050272Y007453D02*
X050209Y007409D01*
X050198Y007425D01*
X050261Y007469D01*
X050272Y007453D01*
G37*
G36*
X050311Y007433D02*
X050248Y007389D01*
X050237Y007405D01*
X050300Y007449D01*
X050311Y007433D01*
G37*
G36*
X050333Y007400D02*
X050270Y007356D01*
X050259Y007372D01*
X050322Y007416D01*
X050333Y007400D01*
G37*
G36*
X050344Y007384D02*
X050281Y007340D01*
X050270Y007356D01*
X050333Y007400D01*
X050344Y007384D01*
G37*
G36*
X050356Y007368D02*
X050293Y007324D01*
X050282Y007340D01*
X050345Y007384D01*
X050356Y007368D01*
G37*
G36*
X050367Y007352D02*
X050304Y007308D01*
X050293Y007324D01*
X050356Y007368D01*
X050367Y007352D01*
G37*
G36*
X050378Y007336D02*
X050315Y007292D01*
X050304Y007308D01*
X050367Y007352D01*
X050378Y007336D01*
G37*
G36*
X050390Y007320D02*
X050327Y007276D01*
X050316Y007292D01*
X050379Y007336D01*
X050390Y007320D01*
G37*
G36*
X050412Y007287D02*
X050349Y007243D01*
X050338Y007259D01*
X050401Y007303D01*
X050412Y007287D01*
G37*
G36*
X050435Y007255D02*
X050372Y007211D01*
X050361Y007227D01*
X050424Y007271D01*
X050435Y007255D01*
G37*
G36*
X050462Y007250D02*
X050399Y007206D01*
X050388Y007222D01*
X050451Y007266D01*
X050462Y007250D01*
G37*
G36*
X050480Y007191D02*
X050417Y007147D01*
X050406Y007163D01*
X050469Y007207D01*
X050480Y007191D01*
G37*
G36*
X050507Y007186D02*
X050444Y007142D01*
X050433Y007158D01*
X050496Y007202D01*
X050507Y007186D01*
G37*
G36*
X050502Y007158D02*
X050439Y007114D01*
X050428Y007130D01*
X050491Y007174D01*
X050502Y007158D01*
G37*
G36*
X050525Y007126D02*
X050462Y007082D01*
X050451Y007098D01*
X050514Y007142D01*
X050525Y007126D01*
G37*
G36*
X050548Y007094D02*
X050485Y007050D01*
X050474Y007066D01*
X050537Y007110D01*
X050548Y007094D01*
G37*
G36*
X050581Y007045D02*
X050518Y007001D01*
X050507Y007017D01*
X050570Y007061D01*
X050581Y007045D01*
G37*
G36*
X050593Y007029D02*
X050530Y006985D01*
X050519Y007001D01*
X050582Y007045D01*
X050593Y007029D01*
G37*
G36*
X050604Y007013D02*
X050541Y006969D01*
X050530Y006985D01*
X050593Y007029D01*
X050604Y007013D01*
G37*
G36*
X050615Y006997D02*
X050552Y006953D01*
X050541Y006969D01*
X050604Y007013D01*
X050615Y006997D01*
G37*
G36*
X050627Y006981D02*
X050564Y006937D01*
X050553Y006953D01*
X050616Y006997D01*
X050627Y006981D01*
G37*
G36*
X050638Y006965D02*
X050575Y006921D01*
X050564Y006937D01*
X050627Y006981D01*
X050638Y006965D01*
G37*
G36*
X050649Y006949D02*
X050586Y006905D01*
X050575Y006921D01*
X050638Y006965D01*
X050649Y006949D01*
G37*
G36*
X050660Y006933D02*
X050597Y006889D01*
X050586Y006905D01*
X050649Y006949D01*
X050660Y006933D01*
G37*
G36*
X050672Y006917D02*
X050609Y006873D01*
X050598Y006889D01*
X050661Y006933D01*
X050672Y006917D01*
G37*
G36*
X050683Y006900D02*
X050620Y006856D01*
X050609Y006872D01*
X050672Y006916D01*
X050683Y006900D01*
G37*
G36*
X050694Y006884D02*
X050631Y006840D01*
X050620Y006856D01*
X050683Y006900D01*
X050694Y006884D01*
G37*
G36*
X050706Y006868D02*
X050643Y006824D01*
X050632Y006840D01*
X050695Y006884D01*
X050706Y006868D01*
G37*
G36*
X050717Y006852D02*
X050654Y006808D01*
X050643Y006824D01*
X050706Y006868D01*
X050717Y006852D01*
G37*
G36*
X050728Y006836D02*
X050665Y006792D01*
X050654Y006808D01*
X050717Y006852D01*
X050728Y006836D01*
G37*
G36*
X050740Y006820D02*
X050677Y006776D01*
X050666Y006792D01*
X050729Y006836D01*
X050740Y006820D01*
G37*
G36*
X050751Y006804D02*
X050688Y006760D01*
X050677Y006776D01*
X050740Y006820D01*
X050751Y006804D01*
G37*
G36*
X050762Y006788D02*
X050699Y006744D01*
X050688Y006760D01*
X050751Y006804D01*
X050762Y006788D01*
G37*
G36*
X050773Y006772D02*
X050710Y006728D01*
X050699Y006744D01*
X050762Y006788D01*
X050773Y006772D01*
G37*
G36*
X050785Y006755D02*
X050722Y006711D01*
X050711Y006727D01*
X050774Y006771D01*
X050785Y006755D01*
G37*
G36*
X050796Y006739D02*
X050733Y006695D01*
X050722Y006711D01*
X050785Y006755D01*
X050796Y006739D01*
G37*
G36*
X050807Y006723D02*
X050744Y006679D01*
X050733Y006695D01*
X050796Y006739D01*
X050807Y006723D01*
G37*
G36*
X050819Y006707D02*
X050756Y006663D01*
X050745Y006679D01*
X050808Y006723D01*
X050819Y006707D01*
G37*
G36*
X050830Y006691D02*
X050767Y006647D01*
X050756Y006663D01*
X050819Y006707D01*
X050830Y006691D01*
G37*
G36*
X050841Y006675D02*
X050778Y006631D01*
X050767Y006647D01*
X050830Y006691D01*
X050841Y006675D01*
G37*
G36*
X050852Y006659D02*
X050789Y006615D01*
X050778Y006631D01*
X050841Y006675D01*
X050852Y006659D01*
G37*
G36*
X050864Y006642D02*
X050801Y006598D01*
X050790Y006614D01*
X050853Y006658D01*
X050864Y006642D01*
G37*
G36*
X050875Y006626D02*
X050812Y006582D01*
X050801Y006598D01*
X050864Y006642D01*
X050875Y006626D01*
G37*
G36*
X050886Y006610D02*
X050823Y006566D01*
X050812Y006582D01*
X050875Y006626D01*
X050886Y006610D01*
G37*
G36*
X050898Y006594D02*
X050835Y006550D01*
X050824Y006566D01*
X050887Y006610D01*
X050898Y006594D01*
G37*
G36*
X050909Y006578D02*
X050846Y006534D01*
X050835Y006550D01*
X050898Y006594D01*
X050909Y006578D01*
G37*
G36*
X050920Y006562D02*
X050857Y006518D01*
X050846Y006534D01*
X050909Y006578D01*
X050920Y006562D01*
G37*
G36*
X050931Y006546D02*
X050868Y006502D01*
X050857Y006518D01*
X050920Y006562D01*
X050931Y006546D01*
G37*
G36*
X050943Y006529D02*
X050880Y006485D01*
X050869Y006501D01*
X050932Y006545D01*
X050943Y006529D01*
G37*
G36*
X050954Y006513D02*
X050891Y006469D01*
X050880Y006485D01*
X050943Y006529D01*
X050954Y006513D01*
G37*
G36*
X050965Y006497D02*
X050902Y006453D01*
X050891Y006469D01*
X050954Y006513D01*
X050965Y006497D01*
G37*
G36*
X050977Y006481D02*
X050914Y006437D01*
X050903Y006453D01*
X050966Y006497D01*
X050977Y006481D01*
G37*
G36*
X050988Y006465D02*
X050925Y006421D01*
X050914Y006437D01*
X050977Y006481D01*
X050988Y006465D01*
G37*
G36*
X050999Y006449D02*
X050936Y006405D01*
X050925Y006421D01*
X050988Y006465D01*
X050999Y006449D01*
G37*
G36*
X051010Y006433D02*
X050947Y006389D01*
X050936Y006405D01*
X050999Y006449D01*
X051010Y006433D01*
G37*
G36*
X051022Y006417D02*
X050959Y006373D01*
X050948Y006389D01*
X051011Y006433D01*
X051022Y006417D01*
G37*
G36*
X051033Y006401D02*
X050970Y006357D01*
X050959Y006373D01*
X051022Y006417D01*
X051033Y006401D01*
G37*
G36*
X051044Y006384D02*
X050981Y006340D01*
X050970Y006356D01*
X051033Y006400D01*
X051044Y006384D01*
G37*
G36*
X050593Y006068D02*
X050530Y006024D01*
X050519Y006040D01*
X050582Y006084D01*
X050593Y006068D01*
G37*
G36*
X050582Y006084D02*
X050519Y006040D01*
X050508Y006056D01*
X050571Y006100D01*
X050582Y006084D01*
G37*
G36*
X050570Y006101D02*
X050507Y006057D01*
X050496Y006073D01*
X050559Y006117D01*
X050570Y006101D01*
G37*
G36*
X050559Y006117D02*
X050496Y006073D01*
X050485Y006089D01*
X050548Y006133D01*
X050559Y006117D01*
G37*
G36*
X050548Y006133D02*
X050485Y006089D01*
X050474Y006105D01*
X050537Y006149D01*
X050548Y006133D01*
G37*
G36*
X050536Y006149D02*
X050473Y006105D01*
X050462Y006121D01*
X050525Y006165D01*
X050536Y006149D01*
G37*
G36*
X050514Y006181D02*
X050451Y006137D01*
X050440Y006153D01*
X050503Y006197D01*
X050514Y006181D01*
G37*
G36*
X050486Y006186D02*
X050423Y006142D01*
X050412Y006158D01*
X050475Y006202D01*
X050486Y006186D01*
G37*
G36*
X050475Y006202D02*
X050412Y006158D01*
X050401Y006174D01*
X050464Y006218D01*
X050475Y006202D01*
G37*
G36*
X050452Y006234D02*
X050389Y006190D01*
X050378Y006206D01*
X050441Y006250D01*
X050452Y006234D01*
G37*
G36*
X050441Y006250D02*
X050378Y006206D01*
X050367Y006222D01*
X050430Y006266D01*
X050441Y006250D01*
G37*
G36*
X050430Y006267D02*
X050367Y006223D01*
X050356Y006239D01*
X050419Y006283D01*
X050430Y006267D01*
G37*
G36*
X050419Y006283D02*
X050356Y006239D01*
X050345Y006255D01*
X050408Y006299D01*
X050419Y006283D01*
G37*
G36*
X050407Y006299D02*
X050344Y006255D01*
X050333Y006271D01*
X050396Y006315D01*
X050407Y006299D01*
G37*
G36*
X050346Y006352D02*
X050283Y006308D01*
X050272Y006324D01*
X050335Y006368D01*
X050346Y006352D01*
G37*
G36*
X050335Y006368D02*
X050272Y006324D01*
X050261Y006340D01*
X050324Y006384D01*
X050335Y006368D01*
G37*
G36*
X050324Y006384D02*
X050261Y006340D01*
X050250Y006356D01*
X050313Y006400D01*
X050324Y006384D01*
G37*
G36*
X050312Y006401D02*
X050249Y006357D01*
X050238Y006373D01*
X050301Y006417D01*
X050312Y006401D01*
G37*
G36*
X050301Y006417D02*
X050238Y006373D01*
X050227Y006389D01*
X050290Y006433D01*
X050301Y006417D01*
G37*
G36*
X050273Y006421D02*
X050210Y006377D01*
X050199Y006393D01*
X050262Y006437D01*
X050273Y006421D01*
G37*
G36*
X050262Y006438D02*
X050199Y006394D01*
X050188Y006410D01*
X050251Y006454D01*
X050262Y006438D01*
G37*
G36*
X050240Y006470D02*
X050177Y006426D01*
X050166Y006442D01*
X050229Y006486D01*
X050240Y006470D01*
G37*
G36*
X050228Y006486D02*
X050165Y006442D01*
X050154Y006458D01*
X050217Y006502D01*
X050228Y006486D01*
G37*
G36*
X050190Y006507D02*
X050127Y006463D01*
X050116Y006479D01*
X050179Y006523D01*
X050190Y006507D01*
G37*
G36*
X050178Y006523D02*
X050115Y006479D01*
X050104Y006495D01*
X050167Y006539D01*
X050178Y006523D01*
G37*
G36*
X050167Y006539D02*
X050104Y006495D01*
X050093Y006511D01*
X050156Y006555D01*
X050167Y006539D01*
G37*
G36*
X050145Y006571D02*
X050082Y006527D01*
X050071Y006543D01*
X050134Y006587D01*
X050145Y006571D01*
G37*
G36*
X050117Y006576D02*
X050054Y006532D01*
X050043Y006548D01*
X050106Y006592D01*
X050117Y006576D01*
G37*
G36*
X050283Y007437D02*
X050220Y007393D01*
X050209Y007409D01*
X050272Y007453D01*
X050283Y007437D01*
G37*
G36*
X050233Y007474D02*
X050170Y007430D01*
X050159Y007446D01*
X050222Y007490D01*
X050233Y007474D01*
G37*
D34*
G36*
X050210Y007506D02*
X050131Y007451D01*
X050120Y007468D01*
X050199Y007523D01*
X050210Y007506D01*
G37*
G36*
X050067Y007574D02*
X049988Y007519D01*
X049977Y007536D01*
X050056Y007591D01*
X050067Y007574D01*
G37*
G36*
X050072Y007601D02*
X049993Y007546D01*
X049982Y007563D01*
X050061Y007618D01*
X050072Y007601D01*
G37*
G36*
X050473Y007234D02*
X050394Y007179D01*
X050383Y007196D01*
X050462Y007251D01*
X050473Y007234D01*
G37*
G36*
X050575Y007088D02*
X050496Y007033D01*
X050485Y007050D01*
X050564Y007105D01*
X050575Y007088D01*
G37*
G36*
X050586Y007072D02*
X050507Y007017D01*
X050496Y007034D01*
X050575Y007089D01*
X050586Y007072D01*
G37*
G36*
X050156Y006555D02*
X050077Y006500D01*
X050066Y006517D01*
X050145Y006572D01*
X050156Y006555D01*
G37*
G36*
X050217Y006501D02*
X050138Y006446D01*
X050127Y006463D01*
X050206Y006518D01*
X050217Y006501D01*
G37*
G36*
X050267Y006464D02*
X050188Y006409D01*
X050177Y006426D01*
X050256Y006481D01*
X050267Y006464D01*
G37*
G36*
X050373Y006347D02*
X050294Y006292D01*
X050283Y006309D01*
X050362Y006364D01*
X050373Y006347D01*
G37*
G36*
X050396Y006314D02*
X050317Y006259D01*
X050306Y006276D01*
X050385Y006331D01*
X050396Y006314D01*
G37*
G36*
X050480Y006229D02*
X050401Y006174D01*
X050390Y006191D01*
X050469Y006246D01*
X050480Y006229D01*
G37*
G36*
X050525Y006165D02*
X050446Y006110D01*
X050435Y006127D01*
X050514Y006182D01*
X050525Y006165D01*
G37*
G36*
X049865Y006592D02*
X049786Y006537D01*
X049775Y006554D01*
X049854Y006609D01*
X049865Y006592D01*
G37*
G36*
X049811Y006601D02*
X049732Y006546D01*
X049721Y006563D01*
X049800Y006618D01*
X049811Y006601D01*
G37*
G36*
X049772Y006622D02*
X049693Y006567D01*
X049682Y006584D01*
X049761Y006639D01*
X049772Y006622D01*
G37*
G36*
X049745Y006627D02*
X049666Y006572D01*
X049655Y006589D01*
X049734Y006644D01*
X049745Y006627D01*
G37*
G36*
X049733Y006643D02*
X049654Y006588D01*
X049643Y006605D01*
X049722Y006660D01*
X049733Y006643D01*
G37*
G36*
X049762Y006808D02*
X049683Y006753D01*
X049672Y006770D01*
X049751Y006825D01*
X049762Y006808D01*
G37*
G36*
X049745Y006867D02*
X049666Y006812D01*
X049655Y006829D01*
X049734Y006884D01*
X049745Y006867D01*
G37*
G36*
X049706Y006888D02*
X049627Y006833D01*
X049616Y006850D01*
X049695Y006905D01*
X049706Y006888D01*
G37*
G36*
X049628Y006930D02*
X049549Y006875D01*
X049538Y006892D01*
X049617Y006947D01*
X049628Y006930D01*
G37*
G36*
X049665Y007221D02*
X049586Y007166D01*
X049575Y007183D01*
X049654Y007238D01*
X049665Y007221D01*
G37*
G36*
X049412Y007067D02*
X049333Y007012D01*
X049322Y007029D01*
X049401Y007084D01*
X049412Y007067D01*
G37*
D35*
G36*
X049590Y006951D02*
X049543Y006919D01*
X049532Y006935D01*
X049579Y006967D01*
X049590Y006951D01*
G37*
G36*
X049629Y007171D02*
X049582Y007139D01*
X049571Y007155D01*
X049618Y007187D01*
X049629Y007171D01*
G37*
G36*
X049686Y007260D02*
X049639Y007228D01*
X049628Y007244D01*
X049675Y007276D01*
X049686Y007260D01*
G37*
G36*
X049774Y007272D02*
X049727Y007240D01*
X049716Y007256D01*
X049763Y007288D01*
X049774Y007272D01*
G37*
G36*
X049817Y007279D02*
X049770Y007247D01*
X049759Y007263D01*
X049806Y007295D01*
X049817Y007279D01*
G37*
G36*
X049740Y007561D02*
X049693Y007529D01*
X049682Y007545D01*
X049729Y007577D01*
X049740Y007561D01*
G37*
G36*
X050306Y007405D02*
X050259Y007373D01*
X050248Y007389D01*
X050295Y007421D01*
X050306Y007405D01*
G37*
G36*
X050401Y007303D02*
X050354Y007271D01*
X050343Y007287D01*
X050390Y007319D01*
X050401Y007303D01*
G37*
G36*
X050423Y007271D02*
X050376Y007239D01*
X050365Y007255D01*
X050412Y007287D01*
X050423Y007271D01*
G37*
G36*
X050469Y007206D02*
X050422Y007174D01*
X050411Y007190D01*
X050458Y007222D01*
X050469Y007206D01*
G37*
G36*
X050514Y007142D02*
X050467Y007110D01*
X050456Y007126D01*
X050503Y007158D01*
X050514Y007142D01*
G37*
G36*
X050536Y007110D02*
X050489Y007078D01*
X050478Y007094D01*
X050525Y007126D01*
X050536Y007110D01*
G37*
G36*
X050369Y006320D02*
X050322Y006288D01*
X050311Y006304D01*
X050358Y006336D01*
X050369Y006320D01*
G37*
D36*
G36*
X050107Y006592D02*
X050011Y006525D01*
X049999Y006542D01*
X050095Y006609D01*
X050107Y006592D01*
G37*
G36*
X049910Y006598D02*
X049814Y006531D01*
X049802Y006548D01*
X049898Y006615D01*
X049910Y006598D01*
G37*
G36*
X049855Y006608D02*
X049759Y006541D01*
X049747Y006558D01*
X049843Y006625D01*
X049855Y006608D01*
G37*
G36*
X049800Y006618D02*
X049704Y006551D01*
X049692Y006568D01*
X049788Y006635D01*
X049800Y006618D01*
G37*
G36*
X049723Y006660D02*
X049627Y006593D01*
X049615Y006610D01*
X049711Y006677D01*
X049723Y006660D01*
G37*
G36*
X049758Y006781D02*
X049662Y006714D01*
X049650Y006731D01*
X049746Y006798D01*
X049758Y006781D01*
G37*
G36*
X049420Y007024D02*
X049324Y006957D01*
X049312Y006974D01*
X049408Y007041D01*
X049420Y007024D01*
G37*
G36*
X049425Y007051D02*
X049329Y006984D01*
X049317Y007001D01*
X049413Y007068D01*
X049425Y007051D01*
G37*
G36*
X049044Y006497D02*
X048948Y006430D01*
X048936Y006447D01*
X049032Y006514D01*
X049044Y006497D01*
G37*
G36*
X050107Y007553D02*
X050011Y007486D01*
X049999Y007503D01*
X050095Y007570D01*
X050107Y007553D01*
G37*
G36*
X050095Y007569D02*
X049999Y007502D01*
X049987Y007519D01*
X050083Y007586D01*
X050095Y007569D01*
G37*
G36*
X050077Y007629D02*
X049981Y007562D01*
X049969Y007579D01*
X050065Y007646D01*
X050077Y007629D01*
G37*
D37*
G36*
X050065Y007645D02*
X049938Y007557D01*
X049927Y007573D01*
X050054Y007661D01*
X050065Y007645D01*
G37*
G36*
X050171Y007527D02*
X050044Y007439D01*
X050033Y007455D01*
X050160Y007543D01*
X050171Y007527D01*
G37*
G36*
X049786Y007185D02*
X049659Y007097D01*
X049648Y007113D01*
X049775Y007201D01*
X049786Y007185D01*
G37*
G36*
X049470Y007156D02*
X049343Y007068D01*
X049332Y007084D01*
X049459Y007172D01*
X049470Y007156D01*
G37*
G36*
X049980Y006600D02*
X049853Y006512D01*
X049842Y006528D01*
X049969Y006616D01*
X049980Y006600D01*
G37*
G36*
X050094Y006608D02*
X049967Y006520D01*
X049956Y006536D01*
X050083Y006624D01*
X050094Y006608D01*
G37*
G36*
X049080Y006546D02*
X048953Y006458D01*
X048942Y006474D01*
X049069Y006562D01*
X049080Y006546D01*
G37*
D38*
G36*
X049118Y006597D02*
X048958Y006485D01*
X048946Y006501D01*
X049106Y006613D01*
X049118Y006597D01*
G37*
G36*
X049165Y006462D02*
X049005Y006350D01*
X048993Y006366D01*
X049153Y006478D01*
X049165Y006462D01*
G37*
G36*
X050056Y006629D02*
X049896Y006517D01*
X049884Y006533D01*
X050044Y006645D01*
X050056Y006629D01*
G37*
G36*
X050084Y006625D02*
X049924Y006513D01*
X049912Y006529D01*
X050072Y006641D01*
X050084Y006625D01*
G37*
G36*
X049927Y007020D02*
X049767Y006908D01*
X049755Y006924D01*
X049915Y007036D01*
X049927Y007020D01*
G37*
D39*
G36*
X049862Y007045D02*
X049750Y006967D01*
X049738Y006983D01*
X049850Y007061D01*
X049862Y007045D01*
G37*
G36*
X049450Y007118D02*
X049338Y007040D01*
X049326Y007056D01*
X049438Y007134D01*
X049450Y007118D01*
G37*
G36*
X049611Y007471D02*
X049499Y007393D01*
X049487Y007409D01*
X049599Y007487D01*
X049611Y007471D01*
G37*
G36*
X050134Y007548D02*
X050022Y007470D01*
X050010Y007486D01*
X050122Y007564D01*
X050134Y007548D01*
G37*
G36*
X050145Y007532D02*
X050033Y007454D01*
X050021Y007470D01*
X050133Y007548D01*
X050145Y007532D01*
G37*
G36*
X049937Y006594D02*
X049825Y006516D01*
X049813Y006532D01*
X049925Y006610D01*
X049937Y006594D01*
G37*
G36*
X049294Y006552D02*
X049182Y006474D01*
X049170Y006490D01*
X049282Y006568D01*
X049294Y006552D01*
G37*
G36*
X049071Y006492D02*
X048959Y006414D01*
X048947Y006430D01*
X049059Y006508D01*
X049071Y006492D01*
G37*
D40*
G36*
X049208Y006467D02*
X049032Y006344D01*
X049020Y006361D01*
X049196Y006484D01*
X049208Y006467D01*
G37*
G36*
X049760Y006709D02*
X049584Y006586D01*
X049572Y006603D01*
X049748Y006726D01*
X049760Y006709D01*
G37*
G36*
X049871Y007100D02*
X049695Y006977D01*
X049683Y006994D01*
X049859Y007117D01*
X049871Y007100D01*
G37*
D41*
G36*
X049928Y007190D02*
X049913Y007179D01*
X049902Y007194D01*
X049917Y007205D01*
X049928Y007190D01*
G37*
G36*
X049917Y007206D02*
X049902Y007195D01*
X049891Y007210D01*
X049906Y007221D01*
X049917Y007206D01*
G37*
G36*
X049867Y007243D02*
X049852Y007232D01*
X049841Y007247D01*
X049856Y007258D01*
X049867Y007243D01*
G37*
G36*
X049828Y007264D02*
X049813Y007253D01*
X049802Y007268D01*
X049817Y007279D01*
X049828Y007264D01*
G37*
G36*
X049622Y007216D02*
X049607Y007205D01*
X049596Y007220D01*
X049611Y007231D01*
X049622Y007216D01*
G37*
G36*
X049593Y007051D02*
X049578Y007040D01*
X049567Y007055D01*
X049582Y007066D01*
X049593Y007051D01*
G37*
G36*
X049616Y007019D02*
X049601Y007008D01*
X049590Y007023D01*
X049605Y007034D01*
X049616Y007019D01*
G37*
G36*
X049650Y006970D02*
X049635Y006959D01*
X049624Y006974D01*
X049639Y006985D01*
X049650Y006970D01*
G37*
G36*
X049661Y006954D02*
X049646Y006943D01*
X049635Y006958D01*
X049650Y006969D01*
X049661Y006954D01*
G37*
G36*
X049556Y006761D02*
X049541Y006750D01*
X049530Y006765D01*
X049545Y006776D01*
X049556Y006761D01*
G37*
G36*
X049645Y006703D02*
X049630Y006692D01*
X049619Y006707D01*
X049634Y006718D01*
X049645Y006703D01*
G37*
G36*
X049477Y006633D02*
X049462Y006622D01*
X049451Y006637D01*
X049466Y006648D01*
X049477Y006633D01*
G37*
G36*
X049422Y006643D02*
X049407Y006632D01*
X049396Y006647D01*
X049411Y006658D01*
X049422Y006643D01*
G37*
G36*
X049458Y006524D02*
X049443Y006513D01*
X049432Y006528D01*
X049447Y006539D01*
X049458Y006524D01*
G37*
G36*
X049326Y006575D02*
X049311Y006564D01*
X049300Y006579D01*
X049315Y006590D01*
X049326Y006575D01*
G37*
G36*
X049280Y006640D02*
X049265Y006629D01*
X049254Y006644D01*
X049269Y006655D01*
X049280Y006640D01*
G37*
G36*
X049216Y006595D02*
X049201Y006584D01*
X049190Y006599D01*
X049205Y006610D01*
X049216Y006595D01*
G37*
G36*
X049184Y006572D02*
X049169Y006561D01*
X049158Y006576D01*
X049173Y006587D01*
X049184Y006572D01*
G37*
G36*
X049151Y006550D02*
X049136Y006539D01*
X049125Y006554D01*
X049140Y006565D01*
X049151Y006550D01*
G37*
G36*
X049203Y006682D02*
X049188Y006671D01*
X049177Y006686D01*
X049192Y006697D01*
X049203Y006682D01*
G37*
G36*
X049195Y006796D02*
X049180Y006785D01*
X049169Y006800D01*
X049184Y006811D01*
X049195Y006796D01*
G37*
G36*
X049446Y006780D02*
X049431Y006769D01*
X049420Y006784D01*
X049435Y006795D01*
X049446Y006780D01*
G37*
G36*
X049269Y006416D02*
X049254Y006405D01*
X049243Y006420D01*
X049258Y006431D01*
X049269Y006416D01*
G37*
G36*
X049306Y007187D02*
X049291Y007176D01*
X049280Y007191D01*
X049295Y007202D01*
X049306Y007187D01*
G37*
G36*
X049477Y007354D02*
X049462Y007343D01*
X049451Y007358D01*
X049466Y007369D01*
X049477Y007354D01*
G37*
G36*
X049519Y007432D02*
X049504Y007421D01*
X049493Y007436D01*
X049508Y007447D01*
X049519Y007432D01*
G37*
G36*
X049551Y007454D02*
X049536Y007443D01*
X049525Y007458D01*
X049540Y007469D01*
X049551Y007454D01*
G37*
G36*
X049816Y007591D02*
X049801Y007580D01*
X049790Y007595D01*
X049805Y007606D01*
X049816Y007591D01*
G37*
G36*
X050087Y007445D02*
X050072Y007434D01*
X050061Y007449D01*
X050076Y007460D01*
X050087Y007445D01*
G37*
D42*
G36*
X049764Y006737D02*
X049475Y006535D01*
X049464Y006551D01*
X049753Y006753D01*
X049764Y006737D01*
G37*
D43*
G36*
X049753Y006753D02*
X049287Y006427D01*
X049275Y006443D01*
X049741Y006769D01*
X049753Y006753D01*
G37*
G36*
X049613Y006679D02*
X049147Y006353D01*
X049135Y006369D01*
X049601Y006695D01*
X049613Y006679D01*
G37*
D44*
G36*
X049520Y006638D02*
X049087Y006335D01*
X049076Y006352D01*
X049509Y006655D01*
X049520Y006638D01*
G37*
D45*
G36*
X049529Y007004D02*
X049127Y006723D01*
X049115Y006740D01*
X049517Y007021D01*
X049529Y007004D01*
G37*
G36*
X049445Y006609D02*
X049043Y006328D01*
X049031Y006345D01*
X049433Y006626D01*
X049445Y006609D01*
G37*
D46*
G36*
X049374Y006608D02*
X049344Y006587D01*
X049332Y006604D01*
X049362Y006625D01*
X049374Y006608D01*
G37*
G36*
X049329Y006672D02*
X049299Y006651D01*
X049287Y006668D01*
X049317Y006689D01*
X049329Y006672D01*
G37*
G36*
X049272Y006753D02*
X049242Y006732D01*
X049230Y006749D01*
X049260Y006770D01*
X049272Y006753D01*
G37*
G36*
X049119Y006525D02*
X049089Y006504D01*
X049077Y006521D01*
X049107Y006542D01*
X049119Y006525D01*
G37*
G36*
X049638Y006985D02*
X049608Y006964D01*
X049596Y006981D01*
X049626Y007002D01*
X049638Y006985D01*
G37*
G36*
X049627Y007001D02*
X049597Y006980D01*
X049585Y006997D01*
X049615Y007018D01*
X049627Y007001D01*
G37*
G36*
X049604Y007033D02*
X049574Y007012D01*
X049562Y007029D01*
X049592Y007050D01*
X049604Y007033D01*
G37*
G36*
X049598Y007077D02*
X049568Y007056D01*
X049556Y007073D01*
X049586Y007094D01*
X049598Y007077D01*
G37*
G36*
X049603Y007104D02*
X049573Y007083D01*
X049561Y007100D01*
X049591Y007121D01*
X049603Y007104D01*
G37*
G36*
X049608Y007132D02*
X049578Y007111D01*
X049566Y007128D01*
X049596Y007149D01*
X049608Y007132D01*
G37*
G36*
X049814Y007180D02*
X049784Y007159D01*
X049772Y007176D01*
X049802Y007197D01*
X049814Y007180D01*
G37*
G36*
X049856Y007257D02*
X049826Y007236D01*
X049814Y007253D01*
X049844Y007274D01*
X049856Y007257D01*
G37*
G36*
X049895Y007236D02*
X049865Y007215D01*
X049853Y007232D01*
X049883Y007253D01*
X049895Y007236D01*
G37*
G36*
X049906Y007221D02*
X049876Y007200D01*
X049864Y007217D01*
X049894Y007238D01*
X049906Y007221D01*
G37*
G36*
X049940Y007172D02*
X049910Y007151D01*
X049898Y007168D01*
X049928Y007189D01*
X049940Y007172D01*
G37*
G36*
X049951Y007156D02*
X049921Y007135D01*
X049909Y007152D01*
X049939Y007173D01*
X049951Y007156D01*
G37*
G36*
X049946Y007128D02*
X049916Y007107D01*
X049904Y007124D01*
X049934Y007145D01*
X049946Y007128D01*
G37*
G36*
X049941Y007101D02*
X049911Y007080D01*
X049899Y007097D01*
X049929Y007118D01*
X049941Y007101D01*
G37*
G36*
X049936Y007074D02*
X049906Y007053D01*
X049894Y007070D01*
X049924Y007091D01*
X049936Y007074D01*
G37*
G36*
X049932Y007046D02*
X049902Y007025D01*
X049890Y007042D01*
X049920Y007063D01*
X049932Y007046D01*
G37*
G36*
X049874Y006958D02*
X049844Y006937D01*
X049832Y006954D01*
X049862Y006975D01*
X049874Y006958D01*
G37*
G36*
X049770Y006933D02*
X049740Y006912D01*
X049728Y006929D01*
X049758Y006950D01*
X049770Y006933D01*
G37*
G36*
X049743Y006938D02*
X049713Y006917D01*
X049701Y006934D01*
X049731Y006955D01*
X049743Y006938D01*
G37*
G36*
X049716Y006943D02*
X049686Y006922D01*
X049674Y006939D01*
X049704Y006960D01*
X049716Y006943D01*
G37*
G36*
X049371Y007230D02*
X049341Y007209D01*
X049329Y007226D01*
X049359Y007247D01*
X049371Y007230D01*
G37*
D47*
G36*
X049524Y006737D02*
X049009Y006377D01*
X048998Y006393D01*
X049513Y006753D01*
X049524Y006737D01*
G37*
D48*
G36*
X049610Y006822D02*
X048982Y006382D01*
X048970Y006398D01*
X049598Y006838D01*
X049610Y006822D01*
G37*
D49*
G36*
X049695Y006905D02*
X048970Y006398D01*
X048959Y006415D01*
X049684Y006922D01*
X049695Y006905D01*
G37*
D50*
G36*
X049668Y006910D02*
X049346Y006685D01*
X049334Y006702D01*
X049656Y006927D01*
X049668Y006910D01*
G37*
D51*
G36*
X049689Y006949D02*
X049480Y006803D01*
X049469Y006819D01*
X049678Y006965D01*
X049689Y006949D01*
G37*
G36*
X049171Y006659D02*
X048962Y006513D01*
X048951Y006529D01*
X049160Y006675D01*
X049171Y006659D01*
G37*
D52*
G36*
X049478Y007042D02*
X049335Y006942D01*
X049324Y006958D01*
X049467Y007058D01*
X049478Y007042D01*
G37*
G36*
X049491Y007195D02*
X049348Y007095D01*
X049337Y007111D01*
X049480Y007211D01*
X049491Y007195D01*
G37*
G36*
X049464Y007200D02*
X049321Y007100D01*
X049310Y007116D01*
X049453Y007216D01*
X049464Y007200D01*
G37*
G36*
X049881Y007084D02*
X049738Y006984D01*
X049727Y007000D01*
X049870Y007100D01*
X049881Y007084D01*
G37*
D53*
G36*
X049876Y007128D02*
X049684Y006994D01*
X049672Y007010D01*
X049864Y007144D01*
X049876Y007128D01*
G37*
G36*
X049864Y007144D02*
X049672Y007010D01*
X049660Y007026D01*
X049852Y007160D01*
X049864Y007144D01*
G37*
G36*
X049853Y007160D02*
X049661Y007026D01*
X049649Y007042D01*
X049841Y007176D01*
X049853Y007160D01*
G37*
D54*
G36*
X050054Y007661D02*
X049814Y007493D01*
X049802Y007509D01*
X050042Y007677D01*
X050054Y007661D01*
G37*
G36*
X049506Y007037D02*
X049266Y006869D01*
X049254Y006885D01*
X049494Y007053D01*
X049506Y007037D01*
G37*
G36*
X049224Y006720D02*
X048984Y006552D01*
X048972Y006568D01*
X049212Y006736D01*
X049224Y006720D01*
G37*
D55*
G36*
X049325Y006815D02*
X049020Y006601D01*
X049009Y006617D01*
X049314Y006831D01*
X049325Y006815D01*
G37*
G36*
X049517Y007021D02*
X049212Y006807D01*
X049201Y006823D01*
X049506Y007037D01*
X049517Y007021D01*
G37*
G36*
X049603Y007346D02*
X049298Y007132D01*
X049287Y007148D01*
X049592Y007362D01*
X049603Y007346D01*
G37*
D56*
G36*
X049623Y007383D02*
X049286Y007148D01*
X049275Y007165D01*
X049612Y007400D01*
X049623Y007383D01*
G37*
G36*
X049411Y006898D02*
X049074Y006663D01*
X049063Y006680D01*
X049400Y006915D01*
X049411Y006898D01*
G37*
D57*
G36*
X049534Y007272D02*
X049309Y007115D01*
X049298Y007132D01*
X049523Y007289D01*
X049534Y007272D01*
G37*
D58*
G36*
X050027Y007666D02*
X049641Y007396D01*
X049629Y007412D01*
X050015Y007682D01*
X050027Y007666D01*
G37*
D59*
G36*
X049983Y007660D02*
X049388Y007244D01*
X049377Y007260D01*
X049972Y007676D01*
X049983Y007660D01*
G37*
D60*
G36*
X049940Y007653D02*
X049441Y007304D01*
X049430Y007321D01*
X049929Y007670D01*
X049940Y007653D01*
G37*
D61*
G36*
X049783Y007567D02*
X049510Y007377D01*
X049499Y007393D01*
X049772Y007583D01*
X049783Y007567D01*
G37*
M02*
