G75*
%MOIN*%
%OFA0B0*%
%FSLAX24Y24*%
%IPPOS*%
%LPD*%
%AMOC8*
5,1,8,0,0,1.08239X$1,22.5*
%
%ADD10C,0.0740*%
%ADD11R,0.0760X0.0760*%
%ADD12C,0.0760*%
%ADD13C,0.1080*%
%ADD14C,0.1660*%
%ADD15C,0.1620*%
%ADD16OC8,0.0740*%
%ADD17C,0.0700*%
%ADD18C,0.0290*%
%ADD19R,0.0748X0.0748*%
%ADD20R,0.0157X0.0531*%
%ADD21C,0.0679*%
%ADD22C,0.0502*%
%ADD23OC8,0.0850*%
%ADD24C,0.0160*%
%ADD25C,0.0376*%
%ADD26C,0.0100*%
%ADD27C,0.0300*%
%ADD28C,0.0200*%
D10*
X028430Y054430D03*
X029430Y054330D03*
X030430Y054430D03*
X031430Y054330D03*
X032430Y054430D03*
X033430Y054330D03*
D11*
G36*
X047527Y057541D02*
X047907Y058199D01*
X048565Y057819D01*
X048185Y057161D01*
X047527Y057541D01*
G37*
D12*
X047180Y058180D03*
X046314Y058680D03*
D13*
X047426Y043988D03*
X046426Y041332D03*
X048426Y041332D03*
X048434Y022528D03*
X046434Y022528D03*
X047434Y019872D03*
X017934Y022528D03*
X015934Y022528D03*
X016934Y019872D03*
X017926Y041332D03*
X015926Y041332D03*
X016926Y043988D03*
D14*
X040394Y014430D03*
D15*
X039143Y012949D03*
X037511Y014420D03*
D16*
X036430Y046930D03*
X035430Y046930D03*
X035530Y047930D03*
X035430Y048930D03*
X036430Y048930D03*
X036530Y047930D03*
D17*
X044430Y017430D03*
X044430Y016430D03*
X019930Y016430D03*
X019930Y017430D03*
D18*
X025680Y019430D03*
X028680Y019430D03*
X028680Y018930D03*
X028680Y018430D03*
X035380Y018355D03*
X035380Y018705D03*
X033230Y050130D03*
X033230Y052980D03*
X032930Y057430D03*
X032930Y058430D03*
X021480Y058630D03*
X047430Y056555D03*
D19*
G36*
X026722Y002439D02*
X027456Y002303D01*
X027320Y001569D01*
X026586Y001705D01*
X026722Y002439D01*
G37*
G36*
X025793Y002611D02*
X026527Y002475D01*
X026391Y001741D01*
X025657Y001877D01*
X025793Y002611D01*
G37*
D20*
G36*
X026216Y003483D02*
X026368Y003455D01*
X026272Y002935D01*
X026120Y002963D01*
X026216Y003483D01*
G37*
G36*
X026467Y003436D02*
X026619Y003408D01*
X026523Y002888D01*
X026371Y002916D01*
X026467Y003436D01*
G37*
G36*
X026719Y003390D02*
X026871Y003362D01*
X026775Y002842D01*
X026623Y002870D01*
X026719Y003390D01*
G37*
G36*
X026971Y003343D02*
X027123Y003315D01*
X027027Y002795D01*
X026875Y002823D01*
X026971Y003343D01*
G37*
G36*
X027222Y003296D02*
X027374Y003268D01*
X027278Y002748D01*
X027126Y002776D01*
X027222Y003296D01*
G37*
D21*
X027907Y001829D03*
X027907Y001829D03*
X025203Y002331D03*
X025203Y002331D03*
D22*
X025754Y003245D03*
X025754Y003245D03*
X027720Y002881D03*
X027720Y002881D03*
D23*
X032205Y020530D03*
X032155Y044080D03*
D24*
X008460Y011166D02*
X009966Y009579D01*
X011578Y008101D01*
X013289Y006737D01*
X015089Y005494D01*
X016971Y004378D01*
X018925Y003395D01*
X020943Y002549D01*
X023014Y001845D01*
X023939Y001600D01*
X023916Y001609D01*
X022391Y003134D01*
X022309Y003216D01*
X022265Y003322D01*
X022265Y003435D01*
X022251Y003449D01*
X022244Y003452D01*
X022152Y003544D01*
X022147Y003555D01*
X013224Y008477D01*
X013165Y008477D01*
X013044Y008527D01*
X012952Y008619D01*
X012902Y008740D01*
X012902Y008742D01*
X006110Y016650D01*
X006044Y016677D01*
X005952Y016769D01*
X005902Y016890D01*
X005902Y017006D01*
X002362Y026584D01*
X002302Y026644D01*
X002252Y026765D01*
X002252Y026895D01*
X002288Y026983D01*
X002167Y036768D01*
X002127Y036865D01*
X002127Y036995D01*
X002177Y037116D01*
X002232Y037171D01*
X005627Y046870D01*
X005627Y046995D01*
X005677Y047116D01*
X005769Y047208D01*
X005829Y047233D01*
X012252Y055038D01*
X012252Y055045D01*
X012302Y055166D01*
X012394Y055258D01*
X012515Y055308D01*
X012566Y055308D01*
X021470Y060524D01*
X021477Y060541D01*
X021569Y060633D01*
X021690Y060683D01*
X021820Y060683D01*
X021856Y060668D01*
X031598Y062462D01*
X031619Y062483D01*
X031740Y062533D01*
X031870Y062533D01*
X031991Y062483D01*
X032009Y062465D01*
X042200Y060742D01*
X042240Y060758D01*
X042370Y060758D01*
X042462Y060720D01*
X045139Y060720D01*
X045155Y060725D01*
X045196Y060720D01*
X045238Y060720D01*
X045253Y060714D01*
X045269Y060712D01*
X045306Y060692D01*
X045344Y060676D01*
X045356Y060664D01*
X050306Y057942D01*
X050344Y057926D01*
X050356Y057914D01*
X050370Y057906D01*
X050396Y057874D01*
X051469Y056801D01*
X051551Y056719D01*
X051595Y056613D01*
X051595Y055462D01*
X051633Y055370D01*
X051633Y055367D01*
X058051Y047860D01*
X058116Y047833D01*
X058208Y047741D01*
X058258Y047620D01*
X058258Y047509D01*
X061845Y038154D01*
X061908Y038091D01*
X061958Y037970D01*
X061958Y037840D01*
X061923Y037754D01*
X062092Y027594D01*
X062133Y027495D01*
X062133Y027365D01*
X062083Y027244D01*
X062030Y027191D01*
X058808Y017768D01*
X058808Y017640D01*
X058758Y017519D01*
X058666Y017427D01*
X058609Y017403D01*
X052158Y009425D01*
X052158Y009415D01*
X052108Y009294D01*
X052016Y009202D01*
X051956Y009177D01*
X051951Y009173D01*
X051926Y009165D01*
X051895Y009152D01*
X051888Y009152D01*
X051842Y009137D01*
X051823Y009138D01*
X042966Y003863D01*
X042958Y003844D01*
X042866Y003752D01*
X042745Y003702D01*
X042615Y003702D01*
X042580Y003716D01*
X032713Y001874D01*
X032691Y001852D01*
X032570Y001802D01*
X032440Y001802D01*
X032348Y001840D01*
X030500Y001840D01*
X029407Y000747D01*
X029392Y000724D01*
X029367Y000706D01*
X029344Y000684D01*
X029320Y000674D01*
X029298Y000659D01*
X029267Y000652D01*
X029238Y000640D01*
X029211Y000640D01*
X029201Y000638D01*
X029448Y000608D01*
X031633Y000495D01*
X033820Y000532D01*
X036000Y000721D01*
X038161Y001060D01*
X040294Y001546D01*
X042388Y002179D01*
X044433Y002955D01*
X046421Y003870D01*
X048340Y004920D01*
X050182Y006100D01*
X051938Y007404D01*
X053601Y008826D01*
X055161Y010359D01*
X055161Y010359D01*
X056612Y011997D01*
X057946Y013731D01*
X059157Y015552D01*
X060240Y017453D01*
X061189Y019424D01*
X062000Y021456D01*
X062669Y023539D01*
X063193Y025663D01*
X063568Y027818D01*
X063794Y029994D01*
X063794Y029994D01*
X063870Y032180D01*
X063794Y034366D01*
X063568Y036542D01*
X063193Y038697D01*
X062669Y040821D01*
X062000Y042904D01*
X061189Y044936D01*
X060240Y046907D01*
X059157Y048808D01*
X057946Y050629D01*
X056612Y052363D01*
X055161Y054001D01*
X053601Y055534D01*
X053601Y055534D01*
X051938Y056956D01*
X050182Y058260D01*
X048340Y059440D01*
X046421Y060490D01*
X044433Y061405D01*
X042388Y062181D01*
X040294Y062814D01*
X038161Y063300D01*
X036000Y063639D01*
X033820Y063828D01*
X031633Y063865D01*
X029448Y063752D01*
X027277Y063488D01*
X025128Y063075D01*
X023014Y062515D01*
X020943Y061811D01*
X018925Y060965D01*
X016971Y059982D01*
X015089Y058866D01*
X013289Y057623D01*
X011578Y056259D01*
X009966Y054781D01*
X008460Y053194D01*
X007066Y051508D01*
X005793Y049729D01*
X004645Y047867D01*
X003628Y045930D01*
X002748Y043927D01*
X002007Y041869D01*
X001411Y039764D01*
X000961Y037623D01*
X000660Y035456D01*
X000509Y033274D01*
X000509Y031086D01*
X000660Y028904D01*
X000961Y026737D01*
X001411Y024596D01*
X002007Y022491D01*
X002748Y020433D01*
X003628Y018430D01*
X004645Y016493D01*
X005793Y014631D01*
X005793Y014631D01*
X007066Y012852D01*
X008460Y011166D01*
X008411Y011224D02*
X010770Y011224D01*
X010906Y011066D02*
X008554Y011066D01*
X008705Y010907D02*
X011042Y010907D01*
X011178Y010749D02*
X008855Y010749D01*
X009006Y010590D02*
X011314Y010590D01*
X011450Y010432D02*
X009156Y010432D01*
X009307Y010273D02*
X011586Y010273D01*
X011723Y010115D02*
X009457Y010115D01*
X009608Y009956D02*
X011859Y009956D01*
X011995Y009798D02*
X009758Y009798D01*
X009909Y009639D02*
X012131Y009639D01*
X012267Y009481D02*
X010073Y009481D01*
X010246Y009322D02*
X012403Y009322D01*
X012539Y009164D02*
X010419Y009164D01*
X010592Y009005D02*
X012676Y009005D01*
X012812Y008847D02*
X010764Y008847D01*
X010937Y008688D02*
X012923Y008688D01*
X013041Y008530D02*
X011110Y008530D01*
X011283Y008371D02*
X013416Y008371D01*
X013703Y008213D02*
X011456Y008213D01*
X011636Y008054D02*
X013990Y008054D01*
X014278Y007896D02*
X011835Y007896D01*
X012033Y007737D02*
X014565Y007737D01*
X014852Y007579D02*
X012232Y007579D01*
X012431Y007420D02*
X015140Y007420D01*
X015427Y007262D02*
X012630Y007262D01*
X012828Y007103D02*
X015714Y007103D01*
X016001Y006945D02*
X013027Y006945D01*
X013226Y006786D02*
X016289Y006786D01*
X016576Y006628D02*
X013446Y006628D01*
X013675Y006469D02*
X016863Y006469D01*
X017151Y006311D02*
X013905Y006311D01*
X014135Y006152D02*
X017438Y006152D01*
X017725Y005994D02*
X014364Y005994D01*
X014594Y005835D02*
X018013Y005835D01*
X018300Y005677D02*
X014824Y005677D01*
X015053Y005518D02*
X018587Y005518D01*
X018875Y005360D02*
X015315Y005360D01*
X015582Y005201D02*
X019162Y005201D01*
X019449Y005043D02*
X015850Y005043D01*
X016117Y004884D02*
X019737Y004884D01*
X020024Y004726D02*
X016384Y004726D01*
X016652Y004567D02*
X020311Y004567D01*
X020599Y004409D02*
X016919Y004409D01*
X017225Y004250D02*
X020886Y004250D01*
X021173Y004092D02*
X017540Y004092D01*
X017855Y003933D02*
X021461Y003933D01*
X021748Y003775D02*
X018170Y003775D01*
X018485Y003616D02*
X022035Y003616D01*
X022238Y003458D02*
X018800Y003458D01*
X019153Y003299D02*
X022274Y003299D01*
X022384Y003141D02*
X019532Y003141D01*
X019910Y002982D02*
X022542Y002982D01*
X022701Y002824D02*
X020288Y002824D01*
X020666Y002665D02*
X022859Y002665D01*
X023018Y002507D02*
X021067Y002507D01*
X021533Y002348D02*
X023176Y002348D01*
X023335Y002190D02*
X021999Y002190D01*
X022465Y002031D02*
X023493Y002031D01*
X023652Y001873D02*
X022930Y001873D01*
X023505Y001714D02*
X023810Y001714D01*
X024215Y002130D02*
X022845Y003500D01*
X022845Y003613D01*
X022801Y003719D01*
X022780Y003740D01*
X025729Y006690D01*
X025738Y006690D01*
X025844Y006734D01*
X025926Y006816D01*
X025970Y006922D01*
X025970Y017301D01*
X025994Y017277D01*
X026115Y017227D01*
X026245Y017227D01*
X026366Y017277D01*
X026454Y017365D01*
X028601Y017365D01*
X031852Y014114D01*
X031852Y013990D01*
X031902Y013869D01*
X031994Y013777D01*
X032115Y013727D01*
X032245Y013727D01*
X032366Y013777D01*
X032458Y013869D01*
X032508Y013990D01*
X032508Y014120D01*
X032458Y014241D01*
X032366Y014333D01*
X032245Y014383D01*
X032121Y014383D01*
X030177Y016327D01*
X030220Y016327D01*
X030341Y016377D01*
X030433Y016469D01*
X030452Y016515D01*
X032238Y016515D01*
X032344Y016559D01*
X032426Y016641D01*
X034914Y019128D01*
X034977Y019155D01*
X035560Y019155D01*
X039653Y015061D01*
X039571Y014979D01*
X039424Y014623D01*
X039424Y014237D01*
X039571Y013881D01*
X039844Y013608D01*
X040201Y013460D01*
X040587Y013460D01*
X040943Y013608D01*
X041216Y013881D01*
X041364Y014237D01*
X041364Y014623D01*
X041216Y014979D01*
X040943Y015252D01*
X040587Y015400D01*
X040201Y015400D01*
X040154Y015381D01*
X035844Y019691D01*
X035738Y019735D01*
X034977Y019735D01*
X034885Y019773D01*
X034754Y019773D01*
X034634Y019723D01*
X034542Y019631D01*
X034503Y019539D01*
X032060Y017095D01*
X030247Y017095D01*
X030141Y017051D01*
X030061Y016971D01*
X029969Y016933D01*
X029877Y016841D01*
X029827Y016720D01*
X029827Y016677D01*
X028870Y017634D01*
X028759Y017745D01*
X026454Y017745D01*
X026366Y017833D01*
X026245Y017883D01*
X026115Y017883D01*
X025994Y017833D01*
X025970Y017809D01*
X025970Y019488D01*
X025926Y019594D01*
X025844Y019676D01*
X025738Y019720D01*
X025622Y019720D01*
X025516Y019676D01*
X025434Y019594D01*
X025390Y019488D01*
X025390Y007029D01*
X022425Y004064D01*
X013513Y008980D01*
X013508Y008991D01*
X013416Y009083D01*
X013350Y009110D01*
X006558Y017018D01*
X006558Y017020D01*
X006508Y017141D01*
X006448Y017201D01*
X002908Y026779D01*
X002908Y026895D01*
X002868Y026992D01*
X002747Y036777D01*
X002783Y036865D01*
X002783Y036990D01*
X006178Y046689D01*
X006233Y046744D01*
X006283Y046865D01*
X006283Y046872D01*
X012706Y054677D01*
X012766Y054702D01*
X012858Y054794D01*
X012865Y054811D01*
X021769Y060027D01*
X021820Y060027D01*
X021941Y060077D01*
X021962Y060098D01*
X031704Y061892D01*
X031740Y061877D01*
X031870Y061877D01*
X031910Y061893D01*
X042101Y060170D01*
X042119Y060152D01*
X042240Y060102D01*
X042370Y060102D01*
X042462Y060140D01*
X045106Y060140D01*
X050004Y057446D01*
X051015Y056435D01*
X051015Y055462D01*
X050977Y055370D01*
X050977Y055240D01*
X051027Y055119D01*
X051119Y055027D01*
X051184Y055000D01*
X057602Y047493D01*
X057602Y047490D01*
X057652Y047369D01*
X057715Y047306D01*
X061302Y037951D01*
X061302Y037840D01*
X061343Y037741D01*
X061512Y027581D01*
X061477Y027495D01*
X061477Y027367D01*
X058255Y017944D01*
X058202Y017891D01*
X058152Y017770D01*
X058152Y017760D01*
X051701Y009782D01*
X051644Y009758D01*
X051552Y009666D01*
X051544Y009647D01*
X042664Y004358D01*
X042615Y004358D01*
X042494Y004308D01*
X042472Y004286D01*
X032605Y002444D01*
X032570Y002458D01*
X032440Y002458D01*
X032348Y002420D01*
X030322Y002420D01*
X030216Y002376D01*
X029082Y001243D01*
X028153Y001412D01*
X028179Y001423D01*
X028314Y001558D01*
X028387Y001734D01*
X028387Y001925D01*
X028314Y002101D01*
X028179Y002236D01*
X028002Y002309D01*
X027812Y002309D01*
X027635Y002236D01*
X027576Y002177D01*
X027605Y002335D01*
X027540Y002430D01*
X026690Y002588D01*
X026643Y002555D01*
X026611Y002602D01*
X025761Y002760D01*
X025666Y002694D01*
X025636Y002537D01*
X025610Y002602D01*
X025475Y002737D01*
X025298Y002810D01*
X025108Y002810D01*
X024931Y002737D01*
X024796Y002602D01*
X024723Y002426D01*
X024723Y002235D01*
X024796Y002059D01*
X024839Y002016D01*
X024215Y002130D01*
X024155Y002190D02*
X024742Y002190D01*
X024754Y002031D02*
X024824Y002031D01*
X024723Y002348D02*
X023997Y002348D01*
X023838Y002507D02*
X024757Y002507D01*
X024860Y002665D02*
X023680Y002665D01*
X023521Y002824D02*
X026002Y002824D01*
X026019Y002810D02*
X026062Y002789D01*
X026162Y002771D01*
X026244Y003209D01*
X026244Y003209D01*
X026325Y003647D01*
X026426Y003628D01*
X026468Y003608D01*
X026504Y003577D01*
X026508Y003573D01*
X026686Y003539D01*
X026686Y003539D01*
X026938Y003493D01*
X026938Y003493D01*
X027100Y003463D01*
X027106Y003498D01*
X027065Y003597D01*
X027065Y004408D01*
X027019Y004427D01*
X026927Y004519D01*
X026877Y004640D01*
X026877Y004770D01*
X026916Y004865D01*
X025454Y004865D01*
X025366Y004777D01*
X025245Y004727D01*
X025115Y004727D01*
X024994Y004777D01*
X024902Y004869D01*
X024852Y004990D01*
X024852Y005120D01*
X024902Y005241D01*
X024994Y005333D01*
X025115Y005383D01*
X025245Y005383D01*
X025366Y005333D01*
X025454Y005245D01*
X030406Y005245D01*
X030494Y005333D01*
X030615Y005383D01*
X030745Y005383D01*
X030866Y005333D01*
X030958Y005241D01*
X031008Y005120D01*
X031008Y004990D01*
X030958Y004869D01*
X030866Y004777D01*
X030745Y004727D01*
X030615Y004727D01*
X030494Y004777D01*
X030406Y004865D01*
X027494Y004865D01*
X027504Y004842D01*
X027601Y004744D01*
X027645Y004638D01*
X027645Y003597D01*
X027601Y003491D01*
X027541Y003431D01*
X027520Y003306D01*
X027524Y003301D01*
X027509Y003216D01*
X027643Y003272D01*
X027798Y003272D01*
X027942Y003212D01*
X028052Y003102D01*
X028111Y002959D01*
X028111Y002803D01*
X028052Y002660D01*
X027942Y002550D01*
X027798Y002490D01*
X027643Y002490D01*
X027499Y002550D01*
X027393Y002655D01*
X027311Y002598D01*
X027059Y002645D01*
X027059Y002645D01*
X026807Y002692D01*
X026807Y002692D01*
X026556Y002738D01*
X026556Y002738D01*
X026360Y002775D01*
X026355Y002771D01*
X026310Y002756D01*
X026263Y002752D01*
X026162Y002770D01*
X026244Y003209D01*
X026325Y003647D01*
X026224Y003666D01*
X026177Y003662D01*
X026132Y003646D01*
X026093Y003619D01*
X026062Y003583D01*
X026042Y003541D01*
X026037Y003515D01*
X025975Y003577D01*
X025832Y003636D01*
X025676Y003636D01*
X025533Y003577D01*
X025423Y003467D01*
X025363Y003323D01*
X025363Y003168D01*
X025423Y003024D01*
X025533Y002914D01*
X025676Y002855D01*
X025832Y002855D01*
X025948Y002903D01*
X025956Y002879D01*
X025983Y002840D01*
X026019Y002810D01*
X026172Y002824D02*
X026172Y002824D01*
X026202Y002982D02*
X026202Y002982D01*
X026231Y003141D02*
X026231Y003141D01*
X026244Y003209D02*
X026244Y003209D01*
X026260Y003299D02*
X026260Y003299D01*
X026290Y003458D02*
X026290Y003458D01*
X026319Y003616D02*
X026319Y003616D01*
X026451Y003616D02*
X027065Y003616D01*
X027065Y003775D02*
X022814Y003775D01*
X022843Y003616D02*
X025628Y003616D01*
X025880Y003616D02*
X026091Y003616D01*
X025419Y003458D02*
X022887Y003458D01*
X023046Y003299D02*
X025363Y003299D01*
X025374Y003141D02*
X023204Y003141D01*
X023363Y002982D02*
X025464Y002982D01*
X025546Y002665D02*
X025660Y002665D01*
X026271Y002665D02*
X026949Y002665D01*
X027126Y002507D02*
X027602Y002507D01*
X027596Y002348D02*
X030188Y002348D01*
X030030Y002190D02*
X028225Y002190D01*
X028342Y002031D02*
X029871Y002031D01*
X029713Y001873D02*
X028387Y001873D01*
X028378Y001714D02*
X029554Y001714D01*
X029396Y001556D02*
X028312Y001556D01*
X028233Y001397D02*
X029237Y001397D01*
X029582Y000922D02*
X037283Y000922D01*
X036271Y000763D02*
X029424Y000763D01*
X029506Y000605D02*
X034658Y000605D01*
X034406Y002190D02*
X042417Y002190D01*
X042835Y002348D02*
X035255Y002348D01*
X035490Y002982D02*
X028102Y002982D01*
X028111Y002824D02*
X034641Y002824D01*
X033793Y002665D02*
X028054Y002665D01*
X027839Y002507D02*
X032944Y002507D01*
X032712Y001873D02*
X041375Y001873D01*
X041899Y002031D02*
X033557Y002031D01*
X036104Y002507D02*
X043252Y002507D01*
X043670Y002665D02*
X036952Y002665D01*
X037188Y003299D02*
X027524Y003299D01*
X027568Y003458D02*
X038037Y003458D01*
X037801Y002824D02*
X044088Y002824D01*
X044493Y002982D02*
X038650Y002982D01*
X038885Y003616D02*
X027645Y003616D01*
X027645Y003775D02*
X039734Y003775D01*
X039499Y003141D02*
X044838Y003141D01*
X045182Y003299D02*
X040348Y003299D01*
X040583Y003933D02*
X027645Y003933D01*
X027645Y004092D02*
X041432Y004092D01*
X041196Y003458D02*
X045526Y003458D01*
X045870Y003616D02*
X042045Y003616D01*
X042281Y004250D02*
X027645Y004250D01*
X027645Y004409D02*
X042750Y004409D01*
X043016Y004567D02*
X027645Y004567D01*
X027608Y004726D02*
X043282Y004726D01*
X043548Y004884D02*
X030965Y004884D01*
X031008Y005043D02*
X043814Y005043D01*
X044080Y005201D02*
X030974Y005201D01*
X030801Y005360D02*
X044346Y005360D01*
X044612Y005518D02*
X024558Y005518D01*
X024399Y005360D02*
X025059Y005360D01*
X024886Y005201D02*
X024241Y005201D01*
X024082Y005043D02*
X024852Y005043D01*
X024895Y004884D02*
X023924Y004884D01*
X023765Y004726D02*
X026877Y004726D01*
X026907Y004567D02*
X023607Y004567D01*
X023448Y004409D02*
X027062Y004409D01*
X027065Y004250D02*
X023290Y004250D01*
X023131Y004092D02*
X027065Y004092D01*
X027065Y003933D02*
X022973Y003933D01*
X022611Y004250D02*
X022087Y004250D01*
X022374Y004092D02*
X022453Y004092D01*
X022770Y004409D02*
X021800Y004409D01*
X021512Y004567D02*
X022928Y004567D01*
X023087Y004726D02*
X021225Y004726D01*
X020938Y004884D02*
X023245Y004884D01*
X023404Y005043D02*
X020650Y005043D01*
X020363Y005201D02*
X023562Y005201D01*
X023721Y005360D02*
X020076Y005360D01*
X019788Y005518D02*
X023879Y005518D01*
X024038Y005677D02*
X019501Y005677D01*
X019214Y005835D02*
X024196Y005835D01*
X024355Y005994D02*
X018926Y005994D01*
X018639Y006152D02*
X024513Y006152D01*
X024672Y006311D02*
X018352Y006311D01*
X018064Y006469D02*
X024830Y006469D01*
X024989Y006628D02*
X017777Y006628D01*
X017490Y006786D02*
X025147Y006786D01*
X025306Y006945D02*
X017202Y006945D01*
X016915Y007103D02*
X025390Y007103D01*
X025390Y007262D02*
X016628Y007262D01*
X016340Y007420D02*
X025390Y007420D01*
X025390Y007579D02*
X016053Y007579D01*
X015766Y007737D02*
X025390Y007737D01*
X025390Y007896D02*
X015478Y007896D01*
X015191Y008054D02*
X025390Y008054D01*
X025390Y008213D02*
X014904Y008213D01*
X014616Y008371D02*
X025390Y008371D01*
X025390Y008530D02*
X014329Y008530D01*
X014042Y008688D02*
X025390Y008688D01*
X025390Y008847D02*
X013754Y008847D01*
X013494Y009005D02*
X025390Y009005D01*
X025390Y009164D02*
X013304Y009164D01*
X013168Y009322D02*
X025390Y009322D01*
X025390Y009481D02*
X013032Y009481D01*
X012896Y009639D02*
X025390Y009639D01*
X025390Y009798D02*
X012759Y009798D01*
X012623Y009956D02*
X025390Y009956D01*
X025390Y010115D02*
X012487Y010115D01*
X012351Y010273D02*
X025390Y010273D01*
X025390Y010432D02*
X012215Y010432D01*
X012079Y010590D02*
X025390Y010590D01*
X025390Y010749D02*
X011943Y010749D01*
X011806Y010907D02*
X025390Y010907D01*
X025390Y011066D02*
X011670Y011066D01*
X011534Y011224D02*
X025390Y011224D01*
X025390Y011383D02*
X011398Y011383D01*
X011262Y011541D02*
X025390Y011541D01*
X025390Y011700D02*
X011126Y011700D01*
X010990Y011858D02*
X025390Y011858D01*
X025390Y012017D02*
X010854Y012017D01*
X010717Y012175D02*
X025390Y012175D01*
X025390Y012334D02*
X017237Y012334D01*
X017109Y012281D02*
X017439Y012418D01*
X017692Y012671D01*
X017829Y013001D01*
X017829Y013359D01*
X017692Y013689D01*
X017439Y013942D01*
X017109Y014079D01*
X016751Y014079D01*
X016421Y013942D01*
X016168Y013689D01*
X016031Y013359D01*
X016031Y013001D01*
X016168Y012671D01*
X016421Y012418D01*
X016751Y012281D01*
X017109Y012281D01*
X017514Y012492D02*
X025390Y012492D01*
X025390Y012651D02*
X017673Y012651D01*
X017750Y012809D02*
X025390Y012809D01*
X025390Y012968D02*
X017816Y012968D01*
X017829Y013126D02*
X025390Y013126D01*
X025390Y013285D02*
X017829Y013285D01*
X017794Y013443D02*
X025390Y013443D01*
X025390Y013602D02*
X017729Y013602D01*
X017621Y013760D02*
X025390Y013760D01*
X025390Y013919D02*
X017463Y013919D01*
X017113Y014077D02*
X025390Y014077D01*
X025390Y014236D02*
X008948Y014236D01*
X009084Y014077D02*
X016747Y014077D01*
X016397Y013919D02*
X009220Y013919D01*
X009356Y013760D02*
X016239Y013760D01*
X016131Y013602D02*
X009492Y013602D01*
X009628Y013443D02*
X016066Y013443D01*
X016031Y013285D02*
X009764Y013285D01*
X009901Y013126D02*
X016031Y013126D01*
X016044Y012968D02*
X010037Y012968D01*
X010173Y012809D02*
X016110Y012809D01*
X016187Y012651D02*
X010309Y012651D01*
X010445Y012492D02*
X016346Y012492D01*
X016623Y012334D02*
X010581Y012334D01*
X010089Y012017D02*
X007756Y012017D01*
X007625Y012175D02*
X009953Y012175D01*
X009817Y012334D02*
X007495Y012334D01*
X007364Y012492D02*
X009681Y012492D01*
X009544Y012651D02*
X007233Y012651D01*
X007102Y012809D02*
X009408Y012809D01*
X009272Y012968D02*
X006984Y012968D01*
X006870Y013126D02*
X009136Y013126D01*
X009000Y013285D02*
X006757Y013285D01*
X006643Y013443D02*
X008864Y013443D01*
X008728Y013602D02*
X006530Y013602D01*
X006416Y013760D02*
X008591Y013760D01*
X008455Y013919D02*
X006303Y013919D01*
X006189Y014077D02*
X008319Y014077D01*
X008183Y014236D02*
X006076Y014236D01*
X005962Y014394D02*
X008047Y014394D01*
X007911Y014553D02*
X005849Y014553D01*
X005743Y014711D02*
X007775Y014711D01*
X007639Y014870D02*
X005645Y014870D01*
X005548Y015028D02*
X007502Y015028D01*
X007366Y015187D02*
X005450Y015187D01*
X005352Y015345D02*
X007230Y015345D01*
X007094Y015504D02*
X005255Y015504D01*
X005157Y015662D02*
X006958Y015662D01*
X006822Y015821D02*
X005059Y015821D01*
X004962Y015979D02*
X006686Y015979D01*
X006549Y016138D02*
X004864Y016138D01*
X004766Y016296D02*
X006413Y016296D01*
X006277Y016455D02*
X004668Y016455D01*
X004582Y016613D02*
X006141Y016613D01*
X005951Y016772D02*
X004499Y016772D01*
X004415Y016930D02*
X005902Y016930D01*
X005871Y017089D02*
X004332Y017089D01*
X004249Y017247D02*
X005813Y017247D01*
X005754Y017406D02*
X004166Y017406D01*
X004083Y017564D02*
X005696Y017564D01*
X005637Y017723D02*
X003999Y017723D01*
X003916Y017881D02*
X005578Y017881D01*
X005520Y018040D02*
X003833Y018040D01*
X003750Y018198D02*
X005461Y018198D01*
X005403Y018357D02*
X003667Y018357D01*
X003591Y018515D02*
X005344Y018515D01*
X005285Y018674D02*
X003521Y018674D01*
X003451Y018832D02*
X005227Y018832D01*
X005168Y018991D02*
X003382Y018991D01*
X003312Y019149D02*
X005110Y019149D01*
X005051Y019308D02*
X003242Y019308D01*
X003173Y019466D02*
X004993Y019466D01*
X004934Y019625D02*
X003103Y019625D01*
X003033Y019783D02*
X004875Y019783D01*
X004817Y019942D02*
X002964Y019942D01*
X002894Y020100D02*
X004758Y020100D01*
X004700Y020259D02*
X002824Y020259D01*
X002754Y020417D02*
X004641Y020417D01*
X004582Y020576D02*
X002696Y020576D01*
X002639Y020734D02*
X004524Y020734D01*
X004465Y020893D02*
X002582Y020893D01*
X002525Y021051D02*
X004407Y021051D01*
X004348Y021210D02*
X002468Y021210D01*
X002411Y021368D02*
X004290Y021368D01*
X004231Y021527D02*
X002354Y021527D01*
X002297Y021685D02*
X004172Y021685D01*
X004114Y021844D02*
X002240Y021844D01*
X002183Y022002D02*
X004055Y022002D01*
X003997Y022161D02*
X002126Y022161D01*
X002069Y022319D02*
X003938Y022319D01*
X003879Y022478D02*
X002012Y022478D01*
X001966Y022636D02*
X003821Y022636D01*
X003762Y022795D02*
X001921Y022795D01*
X001876Y022953D02*
X003704Y022953D01*
X003645Y023112D02*
X001831Y023112D01*
X001787Y023270D02*
X003586Y023270D01*
X003528Y023429D02*
X001742Y023429D01*
X001697Y023587D02*
X003469Y023587D01*
X003411Y023746D02*
X001652Y023746D01*
X001607Y023904D02*
X003352Y023904D01*
X003294Y024063D02*
X001562Y024063D01*
X001517Y024221D02*
X003235Y024221D01*
X003176Y024380D02*
X001472Y024380D01*
X001427Y024538D02*
X003118Y024538D01*
X003059Y024697D02*
X001390Y024697D01*
X001356Y024855D02*
X003001Y024855D01*
X002942Y025014D02*
X001323Y025014D01*
X001290Y025172D02*
X002883Y025172D01*
X002825Y025331D02*
X001256Y025331D01*
X001223Y025489D02*
X002766Y025489D01*
X002708Y025648D02*
X001190Y025648D01*
X001156Y025806D02*
X002649Y025806D01*
X002591Y025965D02*
X001123Y025965D01*
X001090Y026123D02*
X002532Y026123D01*
X002473Y026282D02*
X001057Y026282D01*
X001023Y026440D02*
X002415Y026440D01*
X002347Y026599D02*
X000990Y026599D01*
X000958Y026757D02*
X002255Y026757D01*
X002260Y026916D02*
X000936Y026916D01*
X000914Y027074D02*
X002287Y027074D01*
X002285Y027233D02*
X000892Y027233D01*
X000870Y027391D02*
X002283Y027391D01*
X002281Y027550D02*
X000848Y027550D01*
X000826Y027708D02*
X002279Y027708D01*
X002277Y027867D02*
X000804Y027867D01*
X000782Y028025D02*
X002275Y028025D01*
X002273Y028184D02*
X000760Y028184D01*
X000738Y028342D02*
X002271Y028342D01*
X002269Y028501D02*
X000716Y028501D01*
X000694Y028659D02*
X002267Y028659D01*
X002265Y028818D02*
X000672Y028818D01*
X000655Y028976D02*
X002263Y028976D01*
X002261Y029135D02*
X000644Y029135D01*
X000633Y029293D02*
X002259Y029293D01*
X002258Y029452D02*
X000622Y029452D01*
X000611Y029610D02*
X002256Y029610D01*
X002254Y029769D02*
X000600Y029769D01*
X000589Y029927D02*
X002252Y029927D01*
X002250Y030086D02*
X000578Y030086D01*
X000567Y030244D02*
X002248Y030244D01*
X002246Y030403D02*
X000556Y030403D01*
X000545Y030561D02*
X002244Y030561D01*
X002242Y030720D02*
X000534Y030720D01*
X000523Y030878D02*
X002240Y030878D01*
X002238Y031037D02*
X000512Y031037D01*
X000509Y031195D02*
X002236Y031195D01*
X002234Y031354D02*
X000509Y031354D01*
X000509Y031512D02*
X002232Y031512D01*
X002230Y031671D02*
X000509Y031671D01*
X000509Y031829D02*
X002228Y031829D01*
X002226Y031988D02*
X000509Y031988D01*
X000509Y032146D02*
X002224Y032146D01*
X002222Y032305D02*
X000509Y032305D01*
X000509Y032464D02*
X002220Y032464D01*
X002218Y032622D02*
X000509Y032622D01*
X000509Y032781D02*
X002216Y032781D01*
X002214Y032939D02*
X000509Y032939D01*
X000509Y033098D02*
X002212Y033098D01*
X002210Y033256D02*
X000509Y033256D01*
X000519Y033415D02*
X002208Y033415D01*
X002207Y033573D02*
X000530Y033573D01*
X000541Y033732D02*
X002205Y033732D01*
X002203Y033890D02*
X000551Y033890D01*
X000562Y034049D02*
X002201Y034049D01*
X002199Y034207D02*
X000573Y034207D01*
X000584Y034366D02*
X002197Y034366D01*
X002195Y034524D02*
X000595Y034524D01*
X000606Y034683D02*
X002193Y034683D01*
X002191Y034841D02*
X000617Y034841D01*
X000628Y035000D02*
X002189Y035000D01*
X002187Y035158D02*
X000639Y035158D01*
X000650Y035317D02*
X002185Y035317D01*
X002183Y035475D02*
X000662Y035475D01*
X000684Y035634D02*
X002181Y035634D01*
X002179Y035792D02*
X000706Y035792D01*
X000729Y035951D02*
X002177Y035951D01*
X002175Y036109D02*
X000751Y036109D01*
X000773Y036268D02*
X002173Y036268D01*
X002171Y036426D02*
X000795Y036426D01*
X000817Y036585D02*
X002169Y036585D01*
X002167Y036743D02*
X000839Y036743D01*
X000861Y036902D02*
X002127Y036902D01*
X002154Y037060D02*
X000883Y037060D01*
X000905Y037219D02*
X002249Y037219D01*
X002304Y037377D02*
X000927Y037377D01*
X000949Y037536D02*
X002360Y037536D01*
X002415Y037694D02*
X000976Y037694D01*
X001009Y037853D02*
X002471Y037853D01*
X002526Y038011D02*
X001042Y038011D01*
X001076Y038170D02*
X002582Y038170D01*
X002637Y038328D02*
X001109Y038328D01*
X001142Y038487D02*
X002693Y038487D01*
X002748Y038645D02*
X001176Y038645D01*
X001209Y038804D02*
X002803Y038804D01*
X002859Y038962D02*
X001242Y038962D01*
X001276Y039121D02*
X002914Y039121D01*
X002970Y039279D02*
X001309Y039279D01*
X001342Y039438D02*
X003025Y039438D01*
X003081Y039596D02*
X001376Y039596D01*
X001409Y039755D02*
X003136Y039755D01*
X003192Y039913D02*
X001453Y039913D01*
X001498Y040072D02*
X003247Y040072D01*
X003303Y040230D02*
X001543Y040230D01*
X001588Y040389D02*
X003358Y040389D01*
X003414Y040547D02*
X001633Y040547D01*
X001678Y040706D02*
X003469Y040706D01*
X003525Y040864D02*
X001723Y040864D01*
X001768Y041023D02*
X003580Y041023D01*
X003636Y041181D02*
X001812Y041181D01*
X001857Y041340D02*
X003691Y041340D01*
X003747Y041498D02*
X001902Y041498D01*
X001947Y041657D02*
X003802Y041657D01*
X003858Y041815D02*
X001992Y041815D01*
X002045Y041974D02*
X003913Y041974D01*
X003968Y042132D02*
X002102Y042132D01*
X002159Y042291D02*
X004024Y042291D01*
X004079Y042449D02*
X002216Y042449D01*
X002273Y042608D02*
X004135Y042608D01*
X004190Y042766D02*
X002330Y042766D01*
X002387Y042925D02*
X004246Y042925D01*
X004301Y043083D02*
X002444Y043083D01*
X002501Y043242D02*
X004357Y043242D01*
X004412Y043400D02*
X002558Y043400D01*
X002615Y043559D02*
X004468Y043559D01*
X004523Y043717D02*
X002672Y043717D01*
X002729Y043876D02*
X004579Y043876D01*
X004634Y044034D02*
X002795Y044034D01*
X002864Y044193D02*
X004690Y044193D01*
X004745Y044351D02*
X002934Y044351D01*
X003004Y044510D02*
X004801Y044510D01*
X004856Y044668D02*
X003073Y044668D01*
X003143Y044827D02*
X004912Y044827D01*
X004967Y044985D02*
X003213Y044985D01*
X003283Y045144D02*
X005022Y045144D01*
X005078Y045302D02*
X003352Y045302D01*
X003422Y045461D02*
X005133Y045461D01*
X005189Y045619D02*
X003492Y045619D01*
X003561Y045778D02*
X005244Y045778D01*
X005300Y045936D02*
X003632Y045936D01*
X003715Y046095D02*
X005355Y046095D01*
X005411Y046253D02*
X003798Y046253D01*
X003881Y046412D02*
X005466Y046412D01*
X005522Y046570D02*
X003964Y046570D01*
X004048Y046729D02*
X005577Y046729D01*
X005627Y046887D02*
X004131Y046887D01*
X004214Y047046D02*
X005648Y047046D01*
X005765Y047204D02*
X004297Y047204D01*
X004380Y047363D02*
X005935Y047363D01*
X006066Y047521D02*
X004463Y047521D01*
X004547Y047680D02*
X006196Y047680D01*
X006327Y047838D02*
X004630Y047838D01*
X004725Y047997D02*
X006457Y047997D01*
X006588Y048155D02*
X004823Y048155D01*
X004920Y048314D02*
X006718Y048314D01*
X006848Y048472D02*
X005018Y048472D01*
X005116Y048631D02*
X006979Y048631D01*
X007109Y048789D02*
X005213Y048789D01*
X005311Y048948D02*
X007240Y048948D01*
X007370Y049106D02*
X005409Y049106D01*
X005506Y049265D02*
X007501Y049265D01*
X007631Y049423D02*
X005604Y049423D01*
X005702Y049582D02*
X007762Y049582D01*
X007892Y049740D02*
X005801Y049740D01*
X005914Y049899D02*
X008022Y049899D01*
X008153Y050057D02*
X006028Y050057D01*
X006141Y050216D02*
X008283Y050216D01*
X008414Y050374D02*
X006255Y050374D01*
X006368Y050533D02*
X008544Y050533D01*
X008675Y050691D02*
X006482Y050691D01*
X006595Y050850D02*
X008805Y050850D01*
X008936Y051008D02*
X006709Y051008D01*
X006822Y051167D02*
X009066Y051167D01*
X009196Y051325D02*
X006936Y051325D01*
X007049Y051484D02*
X009327Y051484D01*
X009457Y051642D02*
X007177Y051642D01*
X007308Y051801D02*
X009588Y051801D01*
X009718Y051959D02*
X007439Y051959D01*
X007570Y052118D02*
X009849Y052118D01*
X009979Y052276D02*
X007701Y052276D01*
X007832Y052435D02*
X010110Y052435D01*
X010240Y052593D02*
X007963Y052593D01*
X008094Y052752D02*
X010370Y052752D01*
X010501Y052910D02*
X008225Y052910D01*
X008356Y053069D02*
X010631Y053069D01*
X010762Y053227D02*
X008491Y053227D01*
X008641Y053386D02*
X010892Y053386D01*
X011023Y053544D02*
X008792Y053544D01*
X008942Y053703D02*
X011153Y053703D01*
X011284Y053861D02*
X009093Y053861D01*
X009243Y054020D02*
X011414Y054020D01*
X011544Y054178D02*
X009394Y054178D01*
X009544Y054337D02*
X011675Y054337D01*
X011805Y054495D02*
X009695Y054495D01*
X009845Y054654D02*
X011936Y054654D01*
X012066Y054812D02*
X010000Y054812D01*
X010173Y054971D02*
X012197Y054971D01*
X012287Y055129D02*
X010346Y055129D01*
X010519Y055288D02*
X012465Y055288D01*
X012802Y055446D02*
X010691Y055446D01*
X010864Y055605D02*
X013072Y055605D01*
X013343Y055763D02*
X011037Y055763D01*
X011210Y055922D02*
X013613Y055922D01*
X013884Y056080D02*
X011383Y056080D01*
X011555Y056239D02*
X014155Y056239D01*
X014425Y056397D02*
X011751Y056397D01*
X011949Y056556D02*
X014696Y056556D01*
X014966Y056714D02*
X012148Y056714D01*
X012347Y056873D02*
X015237Y056873D01*
X015507Y057031D02*
X012546Y057031D01*
X012744Y057190D02*
X015778Y057190D01*
X016048Y057348D02*
X012943Y057348D01*
X013142Y057507D02*
X016319Y057507D01*
X016590Y057665D02*
X013349Y057665D01*
X013578Y057824D02*
X016860Y057824D01*
X017131Y057982D02*
X013808Y057982D01*
X014038Y058141D02*
X017401Y058141D01*
X017672Y058299D02*
X014267Y058299D01*
X014497Y058458D02*
X017942Y058458D01*
X018213Y058616D02*
X014727Y058616D01*
X014956Y058775D02*
X018483Y058775D01*
X018754Y058933D02*
X015202Y058933D01*
X015469Y059092D02*
X019025Y059092D01*
X019295Y059250D02*
X015736Y059250D01*
X016004Y059409D02*
X019566Y059409D01*
X019836Y059567D02*
X016271Y059567D01*
X016539Y059726D02*
X020107Y059726D01*
X020377Y059884D02*
X016806Y059884D01*
X017092Y060043D02*
X020648Y060043D01*
X020918Y060201D02*
X017407Y060201D01*
X017722Y060360D02*
X021189Y060360D01*
X021460Y060518D02*
X018037Y060518D01*
X018352Y060677D02*
X021674Y060677D01*
X021836Y060677D02*
X021900Y060677D01*
X021858Y060043D02*
X045283Y060043D01*
X045571Y059884D02*
X021525Y059884D01*
X021254Y059726D02*
X045859Y059726D01*
X046147Y059567D02*
X020984Y059567D01*
X020713Y059409D02*
X046435Y059409D01*
X046417Y059200D02*
X046211Y059200D01*
X046019Y059121D01*
X045873Y058975D01*
X045794Y058783D01*
X045794Y058577D01*
X045873Y058385D01*
X046019Y058239D01*
X046211Y058160D01*
X046417Y058160D01*
X046609Y058239D01*
X046625Y058256D01*
X046620Y058224D01*
X046620Y058136D01*
X046634Y058049D01*
X046661Y057965D01*
X046701Y057886D01*
X046753Y057815D01*
X046815Y057753D01*
X046882Y057704D01*
X047153Y058173D01*
X047187Y058153D01*
X046917Y057685D01*
X046965Y057661D01*
X047049Y057634D01*
X047136Y057620D01*
X047224Y057620D01*
X047311Y057634D01*
X047395Y057661D01*
X047451Y057690D01*
X047377Y057561D01*
X047407Y057449D01*
X048165Y057011D01*
X048277Y057041D01*
X048715Y057799D01*
X048685Y057911D01*
X047927Y058349D01*
X047815Y058319D01*
X047740Y058190D01*
X047740Y058224D01*
X047726Y058311D01*
X047699Y058395D01*
X047659Y058474D01*
X047607Y058545D01*
X047545Y058607D01*
X047478Y058656D01*
X047207Y058187D01*
X047173Y058207D01*
X047443Y058675D01*
X047395Y058699D01*
X047311Y058726D01*
X047224Y058740D01*
X047136Y058740D01*
X047049Y058726D01*
X046965Y058699D01*
X046886Y058659D01*
X046834Y058621D01*
X046834Y058783D01*
X046755Y058975D01*
X046609Y059121D01*
X046417Y059200D01*
X046638Y059092D02*
X047012Y059092D01*
X046772Y058933D02*
X047300Y058933D01*
X047588Y058775D02*
X046834Y058775D01*
X046724Y059250D02*
X020443Y059250D01*
X020172Y059092D02*
X045990Y059092D01*
X045856Y058933D02*
X019901Y058933D01*
X019631Y058775D02*
X021231Y058775D01*
X021238Y058791D02*
X021195Y058687D01*
X021195Y058573D01*
X021238Y058469D01*
X021319Y058388D01*
X021423Y058345D01*
X021537Y058345D01*
X021641Y058388D01*
X021722Y058469D01*
X021765Y058573D01*
X021765Y058687D01*
X021722Y058791D01*
X021641Y058872D01*
X021537Y058915D01*
X021423Y058915D01*
X021319Y058872D01*
X021238Y058791D01*
X021195Y058616D02*
X019360Y058616D01*
X019090Y058458D02*
X021249Y058458D01*
X021711Y058458D02*
X030102Y058458D01*
X030102Y058495D02*
X030102Y058365D01*
X030152Y058244D01*
X030244Y058152D01*
X030365Y058102D01*
X030495Y058102D01*
X030616Y058152D01*
X030704Y058240D01*
X032717Y058240D01*
X032769Y058188D01*
X032873Y058145D01*
X032987Y058145D01*
X033091Y058188D01*
X033172Y058269D01*
X033215Y058373D01*
X033215Y058487D01*
X033172Y058591D01*
X033091Y058672D01*
X032987Y058715D01*
X032873Y058715D01*
X032769Y058672D01*
X032717Y058620D01*
X030704Y058620D01*
X030616Y058708D01*
X030495Y058758D01*
X030365Y058758D01*
X030244Y058708D01*
X030152Y058616D01*
X021765Y058616D01*
X021729Y058775D02*
X045794Y058775D01*
X045794Y058616D02*
X033147Y058616D01*
X033215Y058458D02*
X045843Y058458D01*
X045960Y058299D02*
X033184Y058299D01*
X032987Y057715D02*
X032873Y057715D01*
X032769Y057672D01*
X032688Y057591D01*
X032645Y057487D01*
X032645Y057373D01*
X032688Y057269D01*
X032769Y057188D01*
X032873Y057145D01*
X032987Y057145D01*
X033091Y057188D01*
X033172Y057269D01*
X033215Y057373D01*
X033215Y057487D01*
X033172Y057591D01*
X033091Y057672D01*
X032987Y057715D01*
X033098Y057665D02*
X046957Y057665D01*
X046951Y057824D02*
X046997Y057824D01*
X047043Y057982D02*
X047089Y057982D01*
X047134Y058141D02*
X047180Y058141D01*
X047226Y058299D02*
X047272Y058299D01*
X047317Y058458D02*
X047363Y058458D01*
X047409Y058616D02*
X047455Y058616D01*
X047533Y058616D02*
X047876Y058616D01*
X047667Y058458D02*
X048165Y058458D01*
X048014Y058299D02*
X048453Y058299D01*
X048288Y058141D02*
X048741Y058141D01*
X048563Y057982D02*
X049029Y057982D01*
X049317Y057824D02*
X048709Y057824D01*
X048638Y057665D02*
X049605Y057665D01*
X049894Y057507D02*
X048546Y057507D01*
X048455Y057348D02*
X050102Y057348D01*
X050260Y057190D02*
X048363Y057190D01*
X048241Y057031D02*
X050419Y057031D01*
X050577Y056873D02*
X016384Y056873D01*
X016655Y057031D02*
X048130Y057031D01*
X047856Y057190D02*
X033093Y057190D01*
X033205Y057348D02*
X047581Y057348D01*
X047391Y057507D02*
X033207Y057507D01*
X032762Y057665D02*
X017737Y057665D01*
X017466Y057507D02*
X032653Y057507D01*
X032655Y057348D02*
X017196Y057348D01*
X016925Y057190D02*
X032767Y057190D01*
X032531Y054940D02*
X032329Y054940D01*
X032141Y054862D01*
X031998Y054719D01*
X031920Y054531D01*
X031920Y054480D01*
X031862Y054619D01*
X031719Y054762D01*
X031531Y054840D01*
X031329Y054840D01*
X031141Y054762D01*
X030998Y054619D01*
X030940Y054480D01*
X030940Y054531D01*
X030862Y054719D01*
X030719Y054862D01*
X030531Y054940D01*
X030329Y054940D01*
X030141Y054862D01*
X029998Y054719D01*
X029920Y054531D01*
X029920Y054480D01*
X029862Y054619D01*
X029719Y054762D01*
X029531Y054840D01*
X029329Y054840D01*
X029141Y054762D01*
X028998Y054619D01*
X028940Y054480D01*
X028940Y054531D01*
X028862Y054719D01*
X028719Y054862D01*
X028531Y054940D01*
X028329Y054940D01*
X028141Y054862D01*
X027998Y054719D01*
X027920Y054531D01*
X027920Y054329D01*
X027998Y054141D01*
X028141Y053998D01*
X028329Y053920D01*
X028531Y053920D01*
X028719Y053998D01*
X028862Y054141D01*
X028920Y054280D01*
X028920Y054229D01*
X028998Y054041D01*
X029141Y053898D01*
X029329Y053820D01*
X029531Y053820D01*
X029719Y053898D01*
X029862Y054041D01*
X029940Y054229D01*
X029940Y054280D01*
X029998Y054141D01*
X030141Y053998D01*
X030329Y053920D01*
X030531Y053920D01*
X030719Y053998D01*
X030862Y054141D01*
X030920Y054280D01*
X030920Y054229D01*
X030998Y054041D01*
X031141Y053898D01*
X031329Y053820D01*
X031531Y053820D01*
X031719Y053898D01*
X031862Y054041D01*
X031940Y054229D01*
X031940Y054280D01*
X031998Y054141D01*
X032141Y053998D01*
X032329Y053920D01*
X032531Y053920D01*
X032719Y053998D01*
X032862Y054141D01*
X032892Y054212D01*
X032894Y054201D01*
X032920Y054119D01*
X032960Y054042D01*
X033010Y053972D01*
X033072Y053910D01*
X033142Y053860D01*
X033219Y053820D01*
X033301Y053794D01*
X033387Y053780D01*
X033410Y053780D01*
X033410Y054310D01*
X033450Y054310D01*
X033450Y054350D01*
X033980Y054350D01*
X033980Y054373D01*
X033966Y054459D01*
X033940Y054541D01*
X033900Y054618D01*
X033850Y054688D01*
X033788Y054750D01*
X033718Y054800D01*
X033641Y054840D01*
X033559Y054866D01*
X033473Y054880D01*
X033450Y054880D01*
X033450Y054350D01*
X033410Y054350D01*
X033410Y054880D01*
X033387Y054880D01*
X033301Y054866D01*
X033219Y054840D01*
X033142Y054800D01*
X033072Y054750D01*
X033010Y054688D01*
X032960Y054618D01*
X032929Y054558D01*
X032862Y054719D01*
X032719Y054862D01*
X032531Y054940D01*
X032769Y054812D02*
X033165Y054812D01*
X032985Y054654D02*
X032889Y054654D01*
X032878Y054178D02*
X032901Y054178D01*
X032976Y054020D02*
X032741Y054020D01*
X033140Y053861D02*
X031631Y053861D01*
X031841Y054020D02*
X032119Y054020D01*
X031982Y054178D02*
X031919Y054178D01*
X031914Y054495D02*
X031920Y054495D01*
X031971Y054654D02*
X031828Y054654D01*
X031599Y054812D02*
X032091Y054812D01*
X031261Y054812D02*
X030769Y054812D01*
X030889Y054654D02*
X031032Y054654D01*
X030946Y054495D02*
X030940Y054495D01*
X030941Y054178D02*
X030878Y054178D01*
X030741Y054020D02*
X031019Y054020D01*
X031229Y053861D02*
X029631Y053861D01*
X029841Y054020D02*
X030119Y054020D01*
X029982Y054178D02*
X029919Y054178D01*
X029914Y054495D02*
X029920Y054495D01*
X029971Y054654D02*
X029828Y054654D01*
X029599Y054812D02*
X030091Y054812D01*
X029261Y054812D02*
X028769Y054812D01*
X028889Y054654D02*
X029032Y054654D01*
X028946Y054495D02*
X028940Y054495D01*
X028941Y054178D02*
X028878Y054178D01*
X028741Y054020D02*
X029019Y054020D01*
X029229Y053861D02*
X012035Y053861D01*
X012165Y054020D02*
X028119Y054020D01*
X027982Y054178D02*
X012296Y054178D01*
X012426Y054337D02*
X027920Y054337D01*
X027920Y054495D02*
X012556Y054495D01*
X012687Y054654D02*
X027971Y054654D01*
X028091Y054812D02*
X012867Y054812D01*
X013138Y054971D02*
X051209Y054971D01*
X051345Y054812D02*
X033695Y054812D01*
X033875Y054654D02*
X051480Y054654D01*
X051616Y054495D02*
X033955Y054495D01*
X033980Y054310D02*
X033450Y054310D01*
X033450Y053780D01*
X033473Y053780D01*
X033559Y053794D01*
X033641Y053820D01*
X033718Y053860D01*
X033788Y053910D01*
X033850Y053972D01*
X033900Y054042D01*
X033940Y054119D01*
X033966Y054201D01*
X033980Y054287D01*
X033980Y054310D01*
X033959Y054178D02*
X051887Y054178D01*
X052022Y054020D02*
X033884Y054020D01*
X033720Y053861D02*
X052158Y053861D01*
X052293Y053703D02*
X011904Y053703D01*
X011774Y053544D02*
X052429Y053544D01*
X052564Y053386D02*
X011643Y053386D01*
X011513Y053227D02*
X033082Y053227D01*
X033077Y053225D02*
X032464Y053225D01*
X032335Y053096D01*
X031710Y052471D01*
X031710Y051049D01*
X031652Y050991D01*
X031602Y050870D01*
X031602Y050740D01*
X031651Y050620D01*
X031134Y050620D01*
X031133Y050621D01*
X031133Y050745D01*
X031083Y050866D01*
X030991Y050958D01*
X030870Y051008D01*
X030740Y051008D01*
X030619Y050958D01*
X030527Y050866D01*
X030477Y050745D01*
X030477Y050615D01*
X030527Y050494D01*
X030619Y050402D01*
X030740Y050352D01*
X030864Y050352D01*
X030976Y050240D01*
X032967Y050240D01*
X032945Y050187D01*
X032945Y050073D01*
X032988Y049969D01*
X033069Y049888D01*
X033173Y049845D01*
X033287Y049845D01*
X033391Y049888D01*
X033472Y049969D01*
X033515Y050073D01*
X033515Y050187D01*
X033493Y050240D01*
X035476Y050240D01*
X036240Y049476D01*
X036240Y049440D01*
X036219Y049440D01*
X035958Y049180D01*
X035658Y049480D01*
X035450Y049480D01*
X035450Y048950D01*
X035410Y048950D01*
X035410Y049480D01*
X035202Y049480D01*
X034880Y049158D01*
X034880Y048950D01*
X035410Y048950D01*
X035410Y048910D01*
X034880Y048910D01*
X034880Y048702D01*
X035202Y048380D01*
X035259Y048380D01*
X035020Y048141D01*
X035020Y047719D01*
X035299Y047440D01*
X035219Y047440D01*
X034920Y047141D01*
X034920Y046719D01*
X035219Y046420D01*
X035641Y046420D01*
X035930Y046709D01*
X036219Y046420D01*
X036641Y046420D01*
X036940Y046719D01*
X036940Y047141D01*
X036661Y047420D01*
X036741Y047420D01*
X037040Y047719D01*
X037040Y048141D01*
X036741Y048440D01*
X036661Y048440D01*
X036940Y048719D01*
X036940Y049141D01*
X036641Y049440D01*
X036620Y049440D01*
X036620Y049634D01*
X035745Y050509D01*
X035634Y050620D01*
X032209Y050620D01*
X032258Y050740D01*
X032258Y050870D01*
X032208Y050991D01*
X032150Y051049D01*
X032150Y052289D01*
X032646Y052785D01*
X033022Y052785D01*
X033069Y052738D01*
X033173Y052695D01*
X033287Y052695D01*
X033391Y052738D01*
X033472Y052819D01*
X033515Y052923D01*
X033515Y053037D01*
X033472Y053141D01*
X033391Y053222D01*
X033287Y053265D01*
X033173Y053265D01*
X033077Y053225D01*
X033205Y053005D02*
X033230Y052980D01*
X033205Y053005D02*
X032555Y053005D01*
X031930Y052380D01*
X031930Y050805D01*
X032238Y050691D02*
X036900Y050691D01*
X036742Y050850D02*
X032258Y050850D01*
X032191Y051008D02*
X036583Y051008D01*
X036425Y051167D02*
X032150Y051167D01*
X032150Y051325D02*
X036266Y051325D01*
X036108Y051484D02*
X032150Y051484D01*
X032150Y051642D02*
X035949Y051642D01*
X035791Y051801D02*
X032150Y051801D01*
X032150Y051959D02*
X035632Y051959D01*
X035614Y051977D02*
X042740Y044851D01*
X042740Y027634D01*
X037601Y022495D01*
X035726Y020620D01*
X035102Y020620D01*
X035098Y020631D01*
X035006Y020723D01*
X034885Y020773D01*
X034754Y020773D01*
X034634Y020723D01*
X034542Y020631D01*
X034492Y020510D01*
X034492Y020379D01*
X034542Y020259D01*
X034634Y020167D01*
X034754Y020117D01*
X034885Y020117D01*
X035006Y020167D01*
X035079Y020240D01*
X035884Y020240D01*
X035995Y020351D01*
X037870Y022226D01*
X037870Y022226D01*
X043009Y027365D01*
X043120Y027476D01*
X043120Y045009D01*
X035883Y052246D01*
X035883Y052370D01*
X035833Y052491D01*
X035741Y052583D01*
X035620Y052633D01*
X035490Y052633D01*
X035369Y052583D01*
X035277Y052491D01*
X035227Y052370D01*
X035227Y052240D01*
X035277Y052119D01*
X035369Y052027D01*
X035490Y051977D01*
X035614Y051977D01*
X035278Y052118D02*
X032150Y052118D01*
X032150Y052276D02*
X035227Y052276D01*
X035254Y052435D02*
X032296Y052435D01*
X032454Y052593D02*
X035393Y052593D01*
X035717Y052593D02*
X053242Y052593D01*
X053377Y052435D02*
X035856Y052435D01*
X035883Y052276D02*
X047123Y052276D01*
X047251Y052329D02*
X046921Y052192D01*
X046668Y051939D01*
X046531Y051609D01*
X046531Y051251D01*
X046668Y050921D01*
X046921Y050668D01*
X047251Y050531D01*
X047609Y050531D01*
X047939Y050668D01*
X048192Y050921D01*
X048329Y051251D01*
X048329Y051609D01*
X048192Y051939D01*
X047939Y052192D01*
X047609Y052329D01*
X047251Y052329D01*
X046846Y052118D02*
X036011Y052118D01*
X036170Y051959D02*
X046687Y051959D01*
X046610Y051801D02*
X036328Y051801D01*
X036487Y051642D02*
X046544Y051642D01*
X046531Y051484D02*
X036645Y051484D01*
X036804Y051325D02*
X046531Y051325D01*
X046566Y051167D02*
X036962Y051167D01*
X037121Y051008D02*
X046631Y051008D01*
X046739Y050850D02*
X037279Y050850D01*
X037438Y050691D02*
X046897Y050691D01*
X047247Y050533D02*
X037596Y050533D01*
X037755Y050374D02*
X055139Y050374D01*
X055274Y050216D02*
X037913Y050216D01*
X038072Y050057D02*
X055410Y050057D01*
X055545Y049899D02*
X038230Y049899D01*
X038389Y049740D02*
X055681Y049740D01*
X055816Y049582D02*
X038547Y049582D01*
X038706Y049423D02*
X055952Y049423D01*
X056087Y049265D02*
X038864Y049265D01*
X039023Y049106D02*
X056223Y049106D01*
X056358Y048948D02*
X039181Y048948D01*
X039340Y048789D02*
X056494Y048789D01*
X056629Y048631D02*
X039498Y048631D01*
X039657Y048472D02*
X056765Y048472D01*
X056900Y048314D02*
X039815Y048314D01*
X039974Y048155D02*
X057036Y048155D01*
X057171Y047997D02*
X040132Y047997D01*
X040291Y047838D02*
X057307Y047838D01*
X057442Y047680D02*
X040449Y047680D01*
X040608Y047521D02*
X057578Y047521D01*
X057658Y047363D02*
X040766Y047363D01*
X040925Y047204D02*
X057754Y047204D01*
X057815Y047046D02*
X041083Y047046D01*
X041242Y046887D02*
X057876Y046887D01*
X057936Y046729D02*
X041400Y046729D01*
X041559Y046570D02*
X057997Y046570D01*
X058058Y046412D02*
X041717Y046412D01*
X041876Y046253D02*
X058119Y046253D01*
X058179Y046095D02*
X042034Y046095D01*
X042193Y045936D02*
X058240Y045936D01*
X058301Y045778D02*
X042351Y045778D01*
X042510Y045619D02*
X058362Y045619D01*
X058422Y045461D02*
X042668Y045461D01*
X042827Y045302D02*
X058483Y045302D01*
X058544Y045144D02*
X042985Y045144D01*
X043120Y044985D02*
X058605Y044985D01*
X058666Y044827D02*
X043120Y044827D01*
X043120Y044668D02*
X047186Y044668D01*
X047194Y044672D02*
X047107Y044635D01*
X047025Y044588D01*
X046950Y044531D01*
X046884Y044464D01*
X046826Y044389D01*
X046779Y044307D01*
X046743Y044220D01*
X046718Y044129D01*
X046710Y044068D01*
X047346Y044068D01*
X047346Y043908D01*
X047506Y043908D01*
X047506Y043273D01*
X047567Y043281D01*
X047658Y043305D01*
X047745Y043341D01*
X047827Y043388D01*
X047902Y043446D01*
X047969Y043513D01*
X048026Y043587D01*
X048073Y043669D01*
X048109Y043756D01*
X048134Y043848D01*
X048142Y043908D01*
X047506Y043908D01*
X047506Y044068D01*
X048142Y044068D01*
X048134Y044129D01*
X048109Y044220D01*
X048073Y044307D01*
X048026Y044389D01*
X047969Y044464D01*
X047902Y044531D01*
X047827Y044588D01*
X047745Y044635D01*
X047658Y044672D01*
X047567Y044696D01*
X047506Y044704D01*
X047506Y044068D01*
X047346Y044068D01*
X047346Y044704D01*
X047285Y044696D01*
X047194Y044672D01*
X047346Y044668D02*
X047506Y044668D01*
X047506Y044510D02*
X047346Y044510D01*
X047346Y044351D02*
X047506Y044351D01*
X047506Y044193D02*
X047346Y044193D01*
X047346Y044034D02*
X043120Y044034D01*
X043120Y043876D02*
X046715Y043876D01*
X046718Y043848D02*
X046743Y043756D01*
X046779Y043669D01*
X046826Y043587D01*
X046884Y043513D01*
X046950Y043446D01*
X047025Y043388D01*
X047107Y043341D01*
X047194Y043305D01*
X047285Y043281D01*
X047346Y043273D01*
X047346Y043908D01*
X046710Y043908D01*
X046718Y043848D01*
X046759Y043717D02*
X043120Y043717D01*
X043120Y043559D02*
X046848Y043559D01*
X047010Y043400D02*
X043120Y043400D01*
X043120Y043242D02*
X059273Y043242D01*
X059213Y043400D02*
X047842Y043400D01*
X048004Y043559D02*
X059152Y043559D01*
X059091Y043717D02*
X048093Y043717D01*
X048137Y043876D02*
X059030Y043876D01*
X058969Y044034D02*
X047506Y044034D01*
X047506Y043876D02*
X047346Y043876D01*
X047346Y043717D02*
X047506Y043717D01*
X047506Y043559D02*
X047346Y043559D01*
X047346Y043400D02*
X047506Y043400D01*
X048117Y044193D02*
X058909Y044193D01*
X058848Y044351D02*
X048048Y044351D01*
X047923Y044510D02*
X058787Y044510D01*
X058726Y044668D02*
X047666Y044668D01*
X046929Y044510D02*
X043120Y044510D01*
X043120Y044351D02*
X046804Y044351D01*
X046735Y044193D02*
X043120Y044193D01*
X042740Y044193D02*
X032760Y044193D01*
X032760Y044130D02*
X032760Y044331D01*
X032406Y044685D01*
X032205Y044685D01*
X032205Y044130D01*
X032760Y044130D01*
X032760Y044030D02*
X032205Y044030D01*
X032205Y044130D01*
X032105Y044130D01*
X032105Y044685D01*
X031904Y044685D01*
X031550Y044331D01*
X031550Y044130D01*
X032105Y044130D01*
X032105Y044030D01*
X032205Y044030D01*
X032205Y043475D01*
X032406Y043475D01*
X032760Y043829D01*
X032760Y044030D01*
X032760Y043876D02*
X042740Y043876D01*
X042740Y044034D02*
X032205Y044034D01*
X032105Y044034D02*
X028553Y044034D01*
X028711Y044193D02*
X031550Y044193D01*
X031570Y044351D02*
X028870Y044351D01*
X029028Y044510D02*
X031729Y044510D01*
X031887Y044668D02*
X029187Y044668D01*
X029345Y044827D02*
X042740Y044827D01*
X042740Y044668D02*
X032423Y044668D01*
X032205Y044668D02*
X032105Y044668D01*
X032105Y044510D02*
X032205Y044510D01*
X032205Y044351D02*
X032105Y044351D01*
X032105Y044193D02*
X032205Y044193D01*
X032105Y044030D02*
X031550Y044030D01*
X031550Y043829D01*
X031904Y043475D01*
X032105Y043475D01*
X032105Y044030D01*
X032105Y043876D02*
X032205Y043876D01*
X032205Y043717D02*
X032105Y043717D01*
X032105Y043559D02*
X032205Y043559D01*
X032489Y043559D02*
X042740Y043559D01*
X042740Y043717D02*
X032648Y043717D01*
X032740Y044351D02*
X042740Y044351D01*
X042740Y044510D02*
X032581Y044510D01*
X031662Y043717D02*
X028236Y043717D01*
X028394Y043876D02*
X031550Y043876D01*
X031821Y043559D02*
X028077Y043559D01*
X027919Y043400D02*
X042740Y043400D01*
X042740Y043242D02*
X027760Y043242D01*
X027602Y043083D02*
X042740Y043083D01*
X042740Y042925D02*
X027443Y042925D01*
X027285Y042766D02*
X042740Y042766D01*
X042740Y042608D02*
X027126Y042608D01*
X026968Y042449D02*
X031473Y042449D01*
X031863Y042485D02*
X030599Y042368D01*
X030599Y042368D01*
X029359Y042096D01*
X029359Y042096D01*
X028161Y041675D01*
X027025Y041109D01*
X025967Y040408D01*
X025003Y039582D01*
X025003Y039582D01*
X025003Y039582D01*
X024148Y038644D01*
X023414Y037608D01*
X023414Y037608D01*
X022814Y036489D01*
X022355Y035306D01*
X022355Y035306D01*
X022046Y034074D01*
X021890Y032815D01*
X021890Y031545D01*
X022046Y030286D01*
X022355Y029054D01*
X022814Y027871D01*
X023414Y026752D01*
X024148Y025716D01*
X025003Y024778D01*
X025967Y023952D01*
X027025Y023251D01*
X028161Y022685D01*
X028161Y022685D01*
X029359Y022264D01*
X030599Y021992D01*
X031863Y021875D01*
X033131Y021914D01*
X033131Y021914D01*
X034386Y022109D01*
X035607Y022456D01*
X036776Y022951D01*
X037875Y023586D01*
X038888Y024351D01*
X039799Y025234D01*
X040595Y026223D01*
X040595Y026223D01*
X041263Y027302D01*
X041263Y027302D01*
X041794Y028456D01*
X042179Y029665D01*
X042412Y030913D01*
X042490Y032180D01*
X042412Y033447D01*
X042179Y034695D01*
X041794Y035904D01*
X041794Y035904D01*
X041263Y037058D01*
X040595Y038137D01*
X039799Y039126D01*
X038888Y040009D01*
X037875Y040774D01*
X036776Y041409D01*
X035607Y041904D01*
X035607Y041904D01*
X034386Y042251D01*
X034386Y042251D01*
X033131Y042446D01*
X031863Y042485D01*
X031863Y042485D01*
X033034Y042449D02*
X042740Y042449D01*
X042740Y042291D02*
X034133Y042291D01*
X034805Y042132D02*
X042740Y042132D01*
X042740Y041974D02*
X035362Y041974D01*
X035817Y041815D02*
X042740Y041815D01*
X042740Y041657D02*
X036191Y041657D01*
X036566Y041498D02*
X042740Y041498D01*
X042740Y041340D02*
X036896Y041340D01*
X036776Y041409D02*
X036776Y041409D01*
X037171Y041181D02*
X042740Y041181D01*
X042740Y041023D02*
X037445Y041023D01*
X037720Y040864D02*
X042740Y040864D01*
X042740Y040706D02*
X037966Y040706D01*
X037875Y040774D02*
X037875Y040774D01*
X038176Y040547D02*
X042740Y040547D01*
X042740Y040389D02*
X038386Y040389D01*
X038596Y040230D02*
X042740Y040230D01*
X042740Y040072D02*
X038806Y040072D01*
X038888Y040009D02*
X038888Y040009D01*
X038987Y039913D02*
X042740Y039913D01*
X042740Y039755D02*
X039151Y039755D01*
X039314Y039596D02*
X042740Y039596D01*
X042740Y039438D02*
X039478Y039438D01*
X039641Y039279D02*
X042740Y039279D01*
X042740Y039121D02*
X039803Y039121D01*
X039799Y039126D02*
X039799Y039126D01*
X039799Y039126D01*
X039931Y038962D02*
X042740Y038962D01*
X042740Y038804D02*
X040059Y038804D01*
X040186Y038645D02*
X042740Y038645D01*
X042740Y038487D02*
X040314Y038487D01*
X040441Y038328D02*
X042740Y038328D01*
X042740Y038170D02*
X040569Y038170D01*
X040595Y038137D02*
X040595Y038137D01*
X040673Y038011D02*
X042740Y038011D01*
X042740Y037853D02*
X040771Y037853D01*
X040869Y037694D02*
X042740Y037694D01*
X042740Y037536D02*
X040967Y037536D01*
X041065Y037377D02*
X042740Y037377D01*
X042740Y037219D02*
X041164Y037219D01*
X041262Y037060D02*
X042740Y037060D01*
X042740Y036902D02*
X041335Y036902D01*
X041263Y037058D02*
X041263Y037058D01*
X041408Y036743D02*
X042740Y036743D01*
X042740Y036585D02*
X041481Y036585D01*
X041554Y036426D02*
X042740Y036426D01*
X042740Y036268D02*
X041627Y036268D01*
X041700Y036109D02*
X042740Y036109D01*
X042740Y035951D02*
X041773Y035951D01*
X041830Y035792D02*
X042740Y035792D01*
X042740Y035634D02*
X041880Y035634D01*
X041930Y035475D02*
X042740Y035475D01*
X042740Y035317D02*
X041981Y035317D01*
X042031Y035158D02*
X042740Y035158D01*
X042740Y035000D02*
X042082Y035000D01*
X042132Y034841D02*
X042740Y034841D01*
X042740Y034683D02*
X042181Y034683D01*
X042179Y034695D02*
X042179Y034695D01*
X042211Y034524D02*
X042740Y034524D01*
X042740Y034366D02*
X042240Y034366D01*
X042270Y034207D02*
X042740Y034207D01*
X042740Y034049D02*
X042299Y034049D01*
X042329Y033890D02*
X042740Y033890D01*
X042740Y033732D02*
X042359Y033732D01*
X042388Y033573D02*
X042740Y033573D01*
X042740Y033415D02*
X042414Y033415D01*
X042412Y033447D02*
X042412Y033447D01*
X042424Y033256D02*
X042740Y033256D01*
X042740Y033098D02*
X042433Y033098D01*
X042443Y032939D02*
X042740Y032939D01*
X042740Y032781D02*
X042453Y032781D01*
X042463Y032622D02*
X042740Y032622D01*
X042740Y032464D02*
X042473Y032464D01*
X042482Y032305D02*
X042740Y032305D01*
X042740Y032146D02*
X042488Y032146D01*
X042478Y031988D02*
X042740Y031988D01*
X042740Y031829D02*
X042468Y031829D01*
X042459Y031671D02*
X042740Y031671D01*
X042740Y031512D02*
X042449Y031512D01*
X042439Y031354D02*
X042740Y031354D01*
X042740Y031195D02*
X042429Y031195D01*
X042420Y031037D02*
X042740Y031037D01*
X042740Y030878D02*
X042405Y030878D01*
X042412Y030913D02*
X042412Y030913D01*
X042376Y030720D02*
X042740Y030720D01*
X042740Y030561D02*
X042346Y030561D01*
X042317Y030403D02*
X042740Y030403D01*
X042740Y030244D02*
X042287Y030244D01*
X042257Y030086D02*
X042740Y030086D01*
X042740Y029927D02*
X042228Y029927D01*
X042198Y029769D02*
X042740Y029769D01*
X042740Y029610D02*
X042161Y029610D01*
X042179Y029665D02*
X042179Y029665D01*
X042111Y029452D02*
X042740Y029452D01*
X042740Y029293D02*
X042060Y029293D01*
X042010Y029135D02*
X042740Y029135D01*
X042740Y028976D02*
X041959Y028976D01*
X041909Y028818D02*
X042740Y028818D01*
X042740Y028659D02*
X041859Y028659D01*
X041808Y028501D02*
X042740Y028501D01*
X042740Y028342D02*
X041742Y028342D01*
X041794Y028456D02*
X041794Y028456D01*
X041669Y028184D02*
X042740Y028184D01*
X042740Y028025D02*
X041596Y028025D01*
X041523Y027867D02*
X042740Y027867D01*
X042740Y027708D02*
X041450Y027708D01*
X041377Y027550D02*
X042656Y027550D01*
X042498Y027391D02*
X041304Y027391D01*
X041220Y027233D02*
X042339Y027233D01*
X042181Y027074D02*
X041122Y027074D01*
X041024Y026916D02*
X042022Y026916D01*
X041864Y026757D02*
X040926Y026757D01*
X040828Y026599D02*
X041705Y026599D01*
X041547Y026440D02*
X040730Y026440D01*
X040631Y026282D02*
X041388Y026282D01*
X041230Y026123D02*
X040515Y026123D01*
X040387Y025965D02*
X041071Y025965D01*
X040913Y025806D02*
X040260Y025806D01*
X040132Y025648D02*
X040754Y025648D01*
X040596Y025489D02*
X040005Y025489D01*
X039877Y025331D02*
X040437Y025331D01*
X040279Y025172D02*
X039736Y025172D01*
X039799Y025234D02*
X039799Y025234D01*
X039572Y025014D02*
X040120Y025014D01*
X039962Y024855D02*
X039409Y024855D01*
X039245Y024697D02*
X039803Y024697D01*
X039645Y024538D02*
X039082Y024538D01*
X038918Y024380D02*
X039486Y024380D01*
X039328Y024221D02*
X038717Y024221D01*
X038888Y024351D02*
X038888Y024351D01*
X039169Y024063D02*
X038507Y024063D01*
X038297Y023904D02*
X039011Y023904D01*
X038852Y023746D02*
X038087Y023746D01*
X037877Y023587D02*
X038694Y023587D01*
X038535Y023429D02*
X037604Y023429D01*
X037875Y023586D02*
X037875Y023586D01*
X038218Y023112D02*
X037055Y023112D01*
X037329Y023270D02*
X038377Y023270D01*
X038597Y022953D02*
X045897Y022953D01*
X045857Y022914D02*
X046049Y023105D01*
X046299Y023208D01*
X046569Y023208D01*
X046819Y023105D01*
X047010Y022914D01*
X047114Y022664D01*
X047114Y022393D01*
X047010Y022143D01*
X046819Y021952D01*
X046569Y021848D01*
X046299Y021848D01*
X046049Y021952D01*
X045857Y022143D01*
X045754Y022393D01*
X045754Y022664D01*
X045857Y022914D01*
X045808Y022795D02*
X038439Y022795D01*
X038280Y022636D02*
X045754Y022636D01*
X045754Y022478D02*
X038122Y022478D01*
X037963Y022319D02*
X045784Y022319D01*
X045850Y022161D02*
X037805Y022161D01*
X037646Y022002D02*
X045998Y022002D01*
X046870Y022002D02*
X047998Y022002D01*
X048049Y021952D02*
X047857Y022143D01*
X047754Y022393D01*
X047754Y022664D01*
X047857Y022914D01*
X048049Y023105D01*
X048299Y023208D01*
X048569Y023208D01*
X048819Y023105D01*
X049010Y022914D01*
X049114Y022664D01*
X049114Y022393D01*
X049010Y022143D01*
X048819Y021952D01*
X048569Y021848D01*
X048299Y021848D01*
X048049Y021952D01*
X047850Y022161D02*
X047018Y022161D01*
X047083Y022319D02*
X047784Y022319D01*
X047754Y022478D02*
X047114Y022478D01*
X047114Y022636D02*
X047754Y022636D01*
X047808Y022795D02*
X047060Y022795D01*
X046971Y022953D02*
X047897Y022953D01*
X048066Y023112D02*
X046802Y023112D01*
X046066Y023112D02*
X038756Y023112D01*
X038914Y023270D02*
X060076Y023270D01*
X060022Y023112D02*
X048802Y023112D01*
X048971Y022953D02*
X059968Y022953D01*
X059914Y022795D02*
X049060Y022795D01*
X049114Y022636D02*
X059860Y022636D01*
X059805Y022478D02*
X049114Y022478D01*
X049083Y022319D02*
X059751Y022319D01*
X059697Y022161D02*
X049018Y022161D01*
X048870Y022002D02*
X059643Y022002D01*
X059589Y021844D02*
X037488Y021844D01*
X037329Y021685D02*
X059534Y021685D01*
X059480Y021527D02*
X037171Y021527D01*
X037012Y021368D02*
X059426Y021368D01*
X059372Y021210D02*
X036854Y021210D01*
X036695Y021051D02*
X059318Y021051D01*
X059263Y020893D02*
X036537Y020893D01*
X036378Y020734D02*
X059209Y020734D01*
X059155Y020576D02*
X036220Y020576D01*
X036061Y020417D02*
X047018Y020417D01*
X047049Y020448D02*
X046857Y020257D01*
X046754Y020007D01*
X046754Y019736D01*
X046857Y019487D01*
X047049Y019295D01*
X047299Y019192D01*
X047569Y019192D01*
X047819Y019295D01*
X048010Y019487D01*
X048114Y019736D01*
X048114Y020007D01*
X048010Y020257D01*
X047819Y020448D01*
X047569Y020552D01*
X047299Y020552D01*
X047049Y020448D01*
X046860Y020259D02*
X035903Y020259D01*
X035841Y020734D02*
X034978Y020734D01*
X034662Y020734D02*
X032810Y020734D01*
X032810Y020781D02*
X032456Y021135D01*
X032255Y021135D01*
X032255Y020580D01*
X032810Y020580D01*
X032810Y020781D01*
X032698Y020893D02*
X035999Y020893D01*
X036158Y021051D02*
X032539Y021051D01*
X032255Y021051D02*
X032155Y021051D01*
X032155Y021135D02*
X031954Y021135D01*
X031600Y020781D01*
X031600Y020580D01*
X032155Y020580D01*
X032155Y021135D01*
X032155Y020893D02*
X032255Y020893D01*
X032255Y020734D02*
X032155Y020734D01*
X032155Y020580D02*
X032255Y020580D01*
X032255Y020480D01*
X032810Y020480D01*
X032810Y020279D01*
X032456Y019925D01*
X032255Y019925D01*
X032255Y020480D01*
X032155Y020480D01*
X032155Y019925D01*
X031954Y019925D01*
X031600Y020279D01*
X031600Y020480D01*
X032155Y020480D01*
X032155Y020580D01*
X032155Y020576D02*
X028178Y020576D01*
X028336Y020417D02*
X031600Y020417D01*
X031620Y020259D02*
X028495Y020259D01*
X028370Y020384D02*
X029245Y019509D01*
X029245Y018726D01*
X029134Y018615D01*
X028965Y018446D01*
X028965Y018373D01*
X028922Y018269D01*
X028841Y018188D01*
X028737Y018145D01*
X028623Y018145D01*
X028519Y018188D01*
X028438Y018269D01*
X028395Y018373D01*
X028395Y018487D01*
X028438Y018591D01*
X028519Y018672D01*
X028539Y018680D01*
X028519Y018688D01*
X028438Y018769D01*
X028395Y018873D01*
X028395Y018946D01*
X028267Y019075D01*
X028267Y019075D01*
X020976Y026365D01*
X020865Y026476D01*
X020865Y037509D01*
X030727Y047371D01*
X030727Y047495D01*
X030777Y047616D01*
X030869Y047708D01*
X030990Y047758D01*
X031120Y047758D01*
X031241Y047708D01*
X031333Y047616D01*
X031383Y047495D01*
X031383Y047433D01*
X031420Y047433D01*
X031541Y047383D01*
X031633Y047291D01*
X031683Y047170D01*
X031683Y047040D01*
X031633Y046919D01*
X031541Y046827D01*
X031420Y046777D01*
X031296Y046777D01*
X021495Y036976D01*
X021495Y027259D01*
X028370Y020384D01*
X028653Y020100D02*
X031779Y020100D01*
X031937Y019942D02*
X028812Y019942D01*
X028970Y019783D02*
X046754Y019783D01*
X046754Y019942D02*
X032473Y019942D01*
X032255Y019942D02*
X032155Y019942D01*
X032155Y020100D02*
X032255Y020100D01*
X032255Y020259D02*
X032155Y020259D01*
X032155Y020417D02*
X032255Y020417D01*
X032255Y020576D02*
X034519Y020576D01*
X034492Y020417D02*
X032810Y020417D01*
X032790Y020259D02*
X034542Y020259D01*
X034539Y019625D02*
X029129Y019625D01*
X029245Y019466D02*
X034431Y019466D01*
X034273Y019308D02*
X029245Y019308D01*
X029245Y019149D02*
X034114Y019149D01*
X033956Y018991D02*
X029245Y018991D01*
X029245Y018832D02*
X033797Y018832D01*
X033639Y018674D02*
X029193Y018674D01*
X029034Y018515D02*
X033480Y018515D01*
X033322Y018357D02*
X028958Y018357D01*
X028852Y018198D02*
X033163Y018198D01*
X033005Y018040D02*
X025970Y018040D01*
X025970Y018198D02*
X028508Y018198D01*
X028402Y018357D02*
X025970Y018357D01*
X025970Y018515D02*
X028407Y018515D01*
X028524Y018674D02*
X025970Y018674D01*
X025970Y018832D02*
X028412Y018832D01*
X028350Y018991D02*
X025970Y018991D01*
X025970Y019149D02*
X028192Y019149D01*
X028033Y019308D02*
X025970Y019308D01*
X025970Y019466D02*
X027875Y019466D01*
X027716Y019625D02*
X025895Y019625D01*
X025465Y019625D02*
X017568Y019625D01*
X017614Y019736D02*
X017510Y019487D01*
X017319Y019295D01*
X017069Y019192D01*
X016799Y019192D01*
X016549Y019295D01*
X016357Y019487D01*
X016254Y019736D01*
X016254Y020007D01*
X016357Y020257D01*
X016549Y020448D01*
X016799Y020552D01*
X017069Y020552D01*
X017319Y020448D01*
X017510Y020257D01*
X017614Y020007D01*
X017614Y019736D01*
X017614Y019783D02*
X027558Y019783D01*
X027399Y019942D02*
X017614Y019942D01*
X017575Y020100D02*
X027241Y020100D01*
X027082Y020259D02*
X017508Y020259D01*
X017350Y020417D02*
X026924Y020417D01*
X026765Y020576D02*
X005201Y020576D01*
X005259Y020417D02*
X016518Y020417D01*
X016360Y020259D02*
X005318Y020259D01*
X005377Y020100D02*
X016293Y020100D01*
X016254Y019942D02*
X005435Y019942D01*
X005494Y019783D02*
X016254Y019783D01*
X016300Y019625D02*
X005552Y019625D01*
X005611Y019466D02*
X016378Y019466D01*
X016536Y019308D02*
X005669Y019308D01*
X005728Y019149D02*
X025390Y019149D01*
X025390Y018991D02*
X005787Y018991D01*
X005845Y018832D02*
X025390Y018832D01*
X025390Y018674D02*
X005904Y018674D01*
X005962Y018515D02*
X025390Y018515D01*
X025390Y018357D02*
X006021Y018357D01*
X006080Y018198D02*
X025390Y018198D01*
X025390Y018040D02*
X006138Y018040D01*
X006197Y017881D02*
X019740Y017881D01*
X019652Y017845D02*
X019515Y017708D01*
X019440Y017527D01*
X019440Y017333D01*
X019515Y017152D01*
X019652Y017015D01*
X019833Y016940D01*
X020027Y016940D01*
X020208Y017015D01*
X020345Y017152D01*
X020420Y017333D01*
X020420Y017527D01*
X020345Y017708D01*
X020208Y017845D01*
X020027Y017920D01*
X019833Y017920D01*
X019652Y017845D01*
X019530Y017723D02*
X006255Y017723D01*
X006314Y017564D02*
X019455Y017564D01*
X019440Y017406D02*
X006372Y017406D01*
X006431Y017247D02*
X019475Y017247D01*
X019578Y017089D02*
X006530Y017089D01*
X006633Y016930D02*
X025390Y016930D01*
X025390Y016772D02*
X020281Y016772D01*
X020345Y016708D02*
X020208Y016845D01*
X020027Y016920D01*
X019833Y016920D01*
X019652Y016845D01*
X019515Y016708D01*
X019440Y016527D01*
X019440Y016333D01*
X019515Y016152D01*
X019652Y016015D01*
X019833Y015940D01*
X020027Y015940D01*
X020208Y016015D01*
X020345Y016152D01*
X020420Y016333D01*
X020420Y016527D01*
X020345Y016708D01*
X020384Y016613D02*
X025390Y016613D01*
X025390Y016455D02*
X020420Y016455D01*
X020405Y016296D02*
X025390Y016296D01*
X025390Y016138D02*
X020331Y016138D01*
X020123Y015979D02*
X025390Y015979D01*
X025390Y015821D02*
X007586Y015821D01*
X007450Y015979D02*
X019737Y015979D01*
X019529Y016138D02*
X007314Y016138D01*
X007178Y016296D02*
X019455Y016296D01*
X019440Y016455D02*
X007042Y016455D01*
X006906Y016613D02*
X019476Y016613D01*
X019579Y016772D02*
X006769Y016772D01*
X007722Y015662D02*
X025390Y015662D01*
X025390Y015504D02*
X007859Y015504D01*
X007995Y015345D02*
X025390Y015345D01*
X025390Y015187D02*
X008131Y015187D01*
X008267Y015028D02*
X025390Y015028D01*
X025390Y014870D02*
X008403Y014870D01*
X008539Y014711D02*
X025390Y014711D01*
X025390Y014553D02*
X008675Y014553D01*
X008812Y014394D02*
X025390Y014394D01*
X025970Y014394D02*
X031572Y014394D01*
X031730Y014236D02*
X025970Y014236D01*
X025970Y014077D02*
X031852Y014077D01*
X031881Y013919D02*
X025970Y013919D01*
X025970Y013760D02*
X032034Y013760D01*
X032326Y013760D02*
X036771Y013760D01*
X036772Y013759D02*
X036851Y013681D01*
X036938Y013611D01*
X037032Y013552D01*
X037132Y013504D01*
X037237Y013467D01*
X037345Y013442D01*
X037431Y013433D01*
X037431Y014340D01*
X036524Y014340D01*
X036534Y014254D01*
X036559Y014145D01*
X036595Y014041D01*
X036644Y013940D01*
X036703Y013846D01*
X036772Y013759D01*
X036657Y013919D02*
X032479Y013919D01*
X032508Y014077D02*
X036582Y014077D01*
X036538Y014236D02*
X032460Y014236D01*
X032109Y014394D02*
X037431Y014394D01*
X037431Y014340D02*
X037431Y014500D01*
X036524Y014500D01*
X036534Y014586D01*
X036559Y014694D01*
X036595Y014799D01*
X036644Y014900D01*
X036703Y014994D01*
X036772Y015081D01*
X036851Y015159D01*
X036938Y015229D01*
X037032Y015288D01*
X037132Y015336D01*
X037237Y015373D01*
X037345Y015398D01*
X037431Y015407D01*
X037431Y014500D01*
X037591Y014500D01*
X037591Y015407D01*
X037678Y015398D01*
X037786Y015373D01*
X037891Y015336D01*
X037991Y015288D01*
X038085Y015229D01*
X038172Y015159D01*
X038251Y015081D01*
X038320Y014994D01*
X038379Y014900D01*
X038428Y014799D01*
X038464Y014694D01*
X038489Y014586D01*
X038499Y014500D01*
X037592Y014500D01*
X037592Y014340D01*
X038499Y014340D01*
X038489Y014254D01*
X038464Y014145D01*
X038428Y014041D01*
X038379Y013940D01*
X038320Y013846D01*
X038251Y013759D01*
X038172Y013681D01*
X038085Y013611D01*
X037991Y013552D01*
X037891Y013504D01*
X037786Y013467D01*
X037678Y013442D01*
X037591Y013433D01*
X037591Y014340D01*
X037431Y014340D01*
X037431Y014236D02*
X037591Y014236D01*
X037592Y014394D02*
X039424Y014394D01*
X039424Y014236D02*
X038485Y014236D01*
X038440Y014077D02*
X039490Y014077D01*
X039556Y013919D02*
X038366Y013919D01*
X038252Y013760D02*
X038619Y013760D01*
X038604Y013754D02*
X038337Y013487D01*
X038193Y013138D01*
X038193Y012760D01*
X038337Y012411D01*
X038604Y012144D01*
X038954Y011999D01*
X039332Y011999D01*
X039681Y012144D01*
X039948Y012411D01*
X040093Y012760D01*
X040093Y013138D01*
X039948Y013487D01*
X039681Y013754D01*
X039332Y013899D01*
X038954Y013899D01*
X038604Y013754D01*
X038452Y013602D02*
X038070Y013602D01*
X038319Y013443D02*
X037682Y013443D01*
X037591Y013443D02*
X037431Y013443D01*
X037341Y013443D02*
X025970Y013443D01*
X025970Y013285D02*
X038253Y013285D01*
X038193Y013126D02*
X025970Y013126D01*
X025970Y012968D02*
X038193Y012968D01*
X038193Y012809D02*
X025970Y012809D01*
X025970Y012651D02*
X038238Y012651D01*
X038303Y012492D02*
X025970Y012492D01*
X025970Y012334D02*
X038414Y012334D01*
X038573Y012175D02*
X025970Y012175D01*
X025970Y012017D02*
X038910Y012017D01*
X039375Y012017D02*
X053508Y012017D01*
X053380Y011858D02*
X025970Y011858D01*
X025970Y011700D02*
X053252Y011700D01*
X053124Y011541D02*
X025970Y011541D01*
X025970Y011383D02*
X052996Y011383D01*
X052867Y011224D02*
X025970Y011224D01*
X025970Y011066D02*
X052739Y011066D01*
X052611Y010907D02*
X025970Y010907D01*
X025970Y010749D02*
X052483Y010749D01*
X052355Y010590D02*
X025970Y010590D01*
X025970Y010432D02*
X052227Y010432D01*
X052099Y010273D02*
X025970Y010273D01*
X025970Y010115D02*
X051970Y010115D01*
X051842Y009956D02*
X025970Y009956D01*
X025970Y009798D02*
X051714Y009798D01*
X051531Y009639D02*
X025970Y009639D01*
X025970Y009481D02*
X051265Y009481D01*
X050999Y009322D02*
X025970Y009322D01*
X025970Y009164D02*
X050733Y009164D01*
X050467Y009005D02*
X025970Y009005D01*
X025970Y008847D02*
X050200Y008847D01*
X049934Y008688D02*
X025970Y008688D01*
X025970Y008530D02*
X049668Y008530D01*
X049402Y008371D02*
X025970Y008371D01*
X025970Y008213D02*
X049136Y008213D01*
X048870Y008054D02*
X025970Y008054D01*
X025970Y007896D02*
X048604Y007896D01*
X048338Y007737D02*
X025970Y007737D01*
X025970Y007579D02*
X048072Y007579D01*
X047806Y007420D02*
X025970Y007420D01*
X025970Y007262D02*
X047539Y007262D01*
X047273Y007103D02*
X025970Y007103D01*
X025970Y006945D02*
X047007Y006945D01*
X046741Y006786D02*
X025897Y006786D01*
X025667Y006628D02*
X046475Y006628D01*
X046209Y006469D02*
X025509Y006469D01*
X025350Y006311D02*
X045943Y006311D01*
X045677Y006152D02*
X025192Y006152D01*
X025033Y005994D02*
X045411Y005994D01*
X045144Y005835D02*
X024875Y005835D01*
X024716Y005677D02*
X044878Y005677D01*
X045213Y005201D02*
X048780Y005201D01*
X049027Y005360D02*
X045480Y005360D01*
X045746Y005518D02*
X049275Y005518D01*
X049522Y005677D02*
X046012Y005677D01*
X046278Y005835D02*
X049769Y005835D01*
X050017Y005994D02*
X046544Y005994D01*
X046810Y006152D02*
X050253Y006152D01*
X050467Y006311D02*
X047076Y006311D01*
X047342Y006469D02*
X050680Y006469D01*
X050894Y006628D02*
X047608Y006628D01*
X047875Y006786D02*
X051107Y006786D01*
X051320Y006945D02*
X048141Y006945D01*
X048407Y007103D02*
X051534Y007103D01*
X051747Y007262D02*
X048673Y007262D01*
X048939Y007420D02*
X051958Y007420D01*
X052143Y007579D02*
X049205Y007579D01*
X049471Y007737D02*
X052328Y007737D01*
X052514Y007896D02*
X049737Y007896D01*
X050003Y008054D02*
X052699Y008054D01*
X052884Y008213D02*
X050269Y008213D01*
X050536Y008371D02*
X053069Y008371D01*
X053255Y008530D02*
X050802Y008530D01*
X051068Y008688D02*
X053440Y008688D01*
X053622Y008847D02*
X051334Y008847D01*
X051600Y009005D02*
X053783Y009005D01*
X053945Y009164D02*
X051924Y009164D01*
X052120Y009322D02*
X054106Y009322D01*
X054267Y009481D02*
X052204Y009481D01*
X052332Y009639D02*
X054428Y009639D01*
X054590Y009798D02*
X052460Y009798D01*
X052588Y009956D02*
X054751Y009956D01*
X054912Y010115D02*
X052716Y010115D01*
X052844Y010273D02*
X055073Y010273D01*
X055225Y010432D02*
X052973Y010432D01*
X053101Y010590D02*
X055366Y010590D01*
X055506Y010749D02*
X053229Y010749D01*
X053357Y010907D02*
X055646Y010907D01*
X055787Y011066D02*
X053485Y011066D01*
X053613Y011224D02*
X055927Y011224D01*
X056068Y011383D02*
X053741Y011383D01*
X053870Y011541D02*
X056208Y011541D01*
X056348Y011700D02*
X053998Y011700D01*
X054126Y011858D02*
X056489Y011858D01*
X056627Y012017D02*
X054254Y012017D01*
X054382Y012175D02*
X056749Y012175D01*
X056871Y012334D02*
X054510Y012334D01*
X054639Y012492D02*
X056993Y012492D01*
X057115Y012651D02*
X054767Y012651D01*
X054895Y012809D02*
X057237Y012809D01*
X057359Y012968D02*
X055023Y012968D01*
X055151Y013126D02*
X057481Y013126D01*
X057603Y013285D02*
X055279Y013285D01*
X055407Y013443D02*
X057725Y013443D01*
X057847Y013602D02*
X055536Y013602D01*
X055664Y013760D02*
X057966Y013760D01*
X058071Y013919D02*
X055792Y013919D01*
X055920Y014077D02*
X058176Y014077D01*
X058282Y014236D02*
X056048Y014236D01*
X056176Y014394D02*
X058387Y014394D01*
X058493Y014553D02*
X056304Y014553D01*
X056433Y014711D02*
X058598Y014711D01*
X058704Y014870D02*
X056561Y014870D01*
X056689Y015028D02*
X058809Y015028D01*
X058914Y015187D02*
X056817Y015187D01*
X056945Y015345D02*
X059020Y015345D01*
X059125Y015504D02*
X057073Y015504D01*
X057202Y015662D02*
X059220Y015662D01*
X059310Y015821D02*
X057330Y015821D01*
X057458Y015979D02*
X059401Y015979D01*
X059491Y016138D02*
X057586Y016138D01*
X057714Y016296D02*
X059581Y016296D01*
X059672Y016455D02*
X057842Y016455D01*
X057970Y016613D02*
X059762Y016613D01*
X059852Y016772D02*
X058099Y016772D01*
X058227Y016930D02*
X059942Y016930D01*
X060033Y017089D02*
X058355Y017089D01*
X058483Y017247D02*
X060123Y017247D01*
X060213Y017406D02*
X058615Y017406D01*
X058777Y017564D02*
X060294Y017564D01*
X060370Y017723D02*
X058808Y017723D01*
X058847Y017881D02*
X060446Y017881D01*
X060523Y018040D02*
X058901Y018040D01*
X058955Y018198D02*
X060599Y018198D01*
X060675Y018357D02*
X059009Y018357D01*
X059064Y018515D02*
X060752Y018515D01*
X060828Y018674D02*
X059118Y018674D01*
X059172Y018832D02*
X060904Y018832D01*
X060981Y018991D02*
X059226Y018991D01*
X059280Y019149D02*
X061057Y019149D01*
X061133Y019308D02*
X059335Y019308D01*
X059389Y019466D02*
X061206Y019466D01*
X061270Y019625D02*
X059443Y019625D01*
X059497Y019783D02*
X061333Y019783D01*
X061396Y019942D02*
X059551Y019942D01*
X059606Y020100D02*
X061459Y020100D01*
X061523Y020259D02*
X059660Y020259D01*
X059714Y020417D02*
X061586Y020417D01*
X061649Y020576D02*
X059768Y020576D01*
X059822Y020734D02*
X061712Y020734D01*
X061776Y020893D02*
X059876Y020893D01*
X059931Y021051D02*
X061839Y021051D01*
X061902Y021210D02*
X059985Y021210D01*
X060039Y021368D02*
X061965Y021368D01*
X062023Y021527D02*
X060093Y021527D01*
X060147Y021685D02*
X062074Y021685D01*
X062125Y021844D02*
X060202Y021844D01*
X060256Y022002D02*
X062176Y022002D01*
X062227Y022161D02*
X060310Y022161D01*
X060364Y022319D02*
X062278Y022319D01*
X062328Y022478D02*
X060418Y022478D01*
X060473Y022636D02*
X062379Y022636D01*
X062430Y022795D02*
X060527Y022795D01*
X060581Y022953D02*
X062481Y022953D01*
X062532Y023112D02*
X060635Y023112D01*
X060689Y023270D02*
X062583Y023270D01*
X062634Y023429D02*
X060744Y023429D01*
X060798Y023587D02*
X062681Y023587D01*
X062720Y023746D02*
X060852Y023746D01*
X060906Y023904D02*
X062759Y023904D01*
X062798Y024063D02*
X060960Y024063D01*
X061014Y024221D02*
X062837Y024221D01*
X062876Y024380D02*
X061069Y024380D01*
X061123Y024538D02*
X062916Y024538D01*
X062955Y024697D02*
X061177Y024697D01*
X061231Y024855D02*
X062994Y024855D01*
X063033Y025014D02*
X061285Y025014D01*
X061340Y025172D02*
X063072Y025172D01*
X063111Y025331D02*
X061394Y025331D01*
X061448Y025489D02*
X063150Y025489D01*
X063189Y025648D02*
X061502Y025648D01*
X061556Y025806D02*
X063218Y025806D01*
X063245Y025965D02*
X061611Y025965D01*
X061665Y026123D02*
X063273Y026123D01*
X063301Y026282D02*
X061719Y026282D01*
X061773Y026440D02*
X063328Y026440D01*
X063356Y026599D02*
X061827Y026599D01*
X061882Y026757D02*
X063383Y026757D01*
X063411Y026916D02*
X061936Y026916D01*
X061990Y027074D02*
X063439Y027074D01*
X063466Y027233D02*
X062072Y027233D01*
X062133Y027391D02*
X063494Y027391D01*
X063522Y027550D02*
X062110Y027550D01*
X062090Y027708D02*
X063549Y027708D01*
X063573Y027867D02*
X062088Y027867D01*
X062085Y028025D02*
X063590Y028025D01*
X063606Y028184D02*
X062082Y028184D01*
X062080Y028342D02*
X063623Y028342D01*
X063639Y028501D02*
X062077Y028501D01*
X062074Y028659D02*
X063656Y028659D01*
X063672Y028818D02*
X062072Y028818D01*
X062069Y028976D02*
X063689Y028976D01*
X063705Y029135D02*
X062067Y029135D01*
X062064Y029293D02*
X063722Y029293D01*
X063738Y029452D02*
X062061Y029452D01*
X062059Y029610D02*
X063755Y029610D01*
X063771Y029769D02*
X062056Y029769D01*
X062053Y029927D02*
X063788Y029927D01*
X063798Y030086D02*
X062051Y030086D01*
X062048Y030244D02*
X063803Y030244D01*
X063809Y030403D02*
X062045Y030403D01*
X062043Y030561D02*
X063814Y030561D01*
X063820Y030720D02*
X062040Y030720D01*
X062037Y030878D02*
X063825Y030878D01*
X063831Y031037D02*
X062035Y031037D01*
X062032Y031195D02*
X063836Y031195D01*
X063841Y031354D02*
X062029Y031354D01*
X062027Y031512D02*
X063847Y031512D01*
X063852Y031671D02*
X062024Y031671D01*
X062022Y031829D02*
X063858Y031829D01*
X063863Y031988D02*
X062019Y031988D01*
X062016Y032146D02*
X063869Y032146D01*
X063866Y032305D02*
X062014Y032305D01*
X062011Y032464D02*
X063860Y032464D01*
X063855Y032622D02*
X062008Y032622D01*
X062006Y032781D02*
X063849Y032781D01*
X063844Y032939D02*
X062003Y032939D01*
X062000Y033098D02*
X063838Y033098D01*
X063833Y033256D02*
X061998Y033256D01*
X061995Y033415D02*
X063827Y033415D01*
X063822Y033573D02*
X061992Y033573D01*
X061990Y033732D02*
X063816Y033732D01*
X063811Y033890D02*
X061987Y033890D01*
X061984Y034049D02*
X063805Y034049D01*
X063800Y034207D02*
X061982Y034207D01*
X061979Y034366D02*
X063795Y034366D01*
X063778Y034524D02*
X061977Y034524D01*
X061974Y034683D02*
X063762Y034683D01*
X063745Y034841D02*
X061971Y034841D01*
X061969Y035000D02*
X063729Y035000D01*
X063712Y035158D02*
X061966Y035158D01*
X061963Y035317D02*
X063696Y035317D01*
X063679Y035475D02*
X061961Y035475D01*
X061958Y035634D02*
X063663Y035634D01*
X063646Y035792D02*
X061955Y035792D01*
X061953Y035951D02*
X063630Y035951D01*
X063613Y036109D02*
X061950Y036109D01*
X061947Y036268D02*
X063597Y036268D01*
X063580Y036426D02*
X061945Y036426D01*
X061942Y036585D02*
X063561Y036585D01*
X063533Y036743D02*
X061939Y036743D01*
X061937Y036902D02*
X063506Y036902D01*
X063478Y037060D02*
X061934Y037060D01*
X061932Y037219D02*
X063450Y037219D01*
X063423Y037377D02*
X061929Y037377D01*
X061926Y037536D02*
X063395Y037536D01*
X063368Y037694D02*
X061924Y037694D01*
X061958Y037853D02*
X063340Y037853D01*
X063312Y038011D02*
X061941Y038011D01*
X061839Y038170D02*
X063285Y038170D01*
X063257Y038328D02*
X061778Y038328D01*
X061718Y038487D02*
X063229Y038487D01*
X063202Y038645D02*
X061657Y038645D01*
X061596Y038804D02*
X063166Y038804D01*
X063127Y038962D02*
X061535Y038962D01*
X061475Y039121D02*
X063088Y039121D01*
X063049Y039279D02*
X061414Y039279D01*
X061353Y039438D02*
X063010Y039438D01*
X062971Y039596D02*
X061292Y039596D01*
X061231Y039755D02*
X062932Y039755D01*
X062893Y039913D02*
X061171Y039913D01*
X061110Y040072D02*
X062854Y040072D01*
X062815Y040230D02*
X061049Y040230D01*
X060988Y040389D02*
X062776Y040389D01*
X062737Y040547D02*
X060928Y040547D01*
X060867Y040706D02*
X062698Y040706D01*
X062655Y040864D02*
X060806Y040864D01*
X060745Y041023D02*
X062604Y041023D01*
X062554Y041181D02*
X060684Y041181D01*
X060624Y041340D02*
X062503Y041340D01*
X062452Y041498D02*
X060563Y041498D01*
X060502Y041657D02*
X062401Y041657D01*
X062350Y041815D02*
X060441Y041815D01*
X060381Y041974D02*
X062299Y041974D01*
X062248Y042132D02*
X060320Y042132D01*
X060259Y042291D02*
X062197Y042291D01*
X062146Y042449D02*
X060198Y042449D01*
X060138Y042608D02*
X062096Y042608D01*
X062045Y042766D02*
X060077Y042766D01*
X060016Y042925D02*
X061992Y042925D01*
X061929Y043083D02*
X059955Y043083D01*
X059894Y043242D02*
X061866Y043242D01*
X061802Y043400D02*
X059834Y043400D01*
X059773Y043559D02*
X061739Y043559D01*
X061676Y043717D02*
X059712Y043717D01*
X059651Y043876D02*
X061613Y043876D01*
X061549Y044034D02*
X059591Y044034D01*
X059530Y044193D02*
X061486Y044193D01*
X061423Y044351D02*
X059469Y044351D01*
X059408Y044510D02*
X061360Y044510D01*
X061296Y044668D02*
X059348Y044668D01*
X059287Y044827D02*
X061233Y044827D01*
X061166Y044985D02*
X059226Y044985D01*
X059165Y045144D02*
X061089Y045144D01*
X061013Y045302D02*
X059104Y045302D01*
X059044Y045461D02*
X060937Y045461D01*
X060860Y045619D02*
X058983Y045619D01*
X058922Y045778D02*
X060784Y045778D01*
X060708Y045936D02*
X058861Y045936D01*
X058801Y046095D02*
X060631Y046095D01*
X060555Y046253D02*
X058740Y046253D01*
X058679Y046412D02*
X060479Y046412D01*
X060402Y046570D02*
X058618Y046570D01*
X058557Y046729D02*
X060326Y046729D01*
X060250Y046887D02*
X058497Y046887D01*
X058436Y047046D02*
X060161Y047046D01*
X060071Y047204D02*
X058375Y047204D01*
X058314Y047363D02*
X059981Y047363D01*
X059890Y047521D02*
X058258Y047521D01*
X058234Y047680D02*
X059800Y047680D01*
X059710Y047838D02*
X058104Y047838D01*
X057934Y047997D02*
X059619Y047997D01*
X059529Y048155D02*
X057799Y048155D01*
X057663Y048314D02*
X059439Y048314D01*
X059349Y048472D02*
X057528Y048472D01*
X057392Y048631D02*
X059258Y048631D01*
X059168Y048789D02*
X057257Y048789D01*
X057121Y048948D02*
X059064Y048948D01*
X058959Y049106D02*
X056986Y049106D01*
X056850Y049265D02*
X058854Y049265D01*
X058748Y049423D02*
X056715Y049423D01*
X056579Y049582D02*
X058643Y049582D01*
X058537Y049740D02*
X056444Y049740D01*
X056308Y049899D02*
X058432Y049899D01*
X058326Y050057D02*
X056173Y050057D01*
X056037Y050216D02*
X058221Y050216D01*
X058116Y050374D02*
X055902Y050374D01*
X055766Y050533D02*
X058010Y050533D01*
X057898Y050691D02*
X055631Y050691D01*
X055495Y050850D02*
X057776Y050850D01*
X057654Y051008D02*
X055360Y051008D01*
X055224Y051167D02*
X057532Y051167D01*
X057410Y051325D02*
X055089Y051325D01*
X054953Y051484D02*
X057288Y051484D01*
X057166Y051642D02*
X054818Y051642D01*
X054682Y051801D02*
X057044Y051801D01*
X056922Y051959D02*
X054547Y051959D01*
X054411Y052118D02*
X056801Y052118D01*
X056679Y052276D02*
X054276Y052276D01*
X054140Y052435D02*
X056548Y052435D01*
X056408Y052593D02*
X054005Y052593D01*
X053869Y052752D02*
X056267Y052752D01*
X056127Y052910D02*
X053734Y052910D01*
X053598Y053069D02*
X055987Y053069D01*
X055846Y053227D02*
X053463Y053227D01*
X053327Y053386D02*
X055706Y053386D01*
X055565Y053544D02*
X053192Y053544D01*
X053056Y053703D02*
X055425Y053703D01*
X055284Y053861D02*
X052921Y053861D01*
X052785Y054020D02*
X055142Y054020D01*
X054980Y054178D02*
X052650Y054178D01*
X052514Y054337D02*
X054819Y054337D01*
X054658Y054495D02*
X052379Y054495D01*
X052243Y054654D02*
X054497Y054654D01*
X054335Y054812D02*
X052108Y054812D01*
X051972Y054971D02*
X054174Y054971D01*
X054013Y055129D02*
X051837Y055129D01*
X051701Y055288D02*
X053851Y055288D01*
X053690Y055446D02*
X051602Y055446D01*
X051595Y055605D02*
X053518Y055605D01*
X053333Y055763D02*
X051595Y055763D01*
X051595Y055922D02*
X053148Y055922D01*
X052963Y056080D02*
X051595Y056080D01*
X051595Y056239D02*
X052777Y056239D01*
X052592Y056397D02*
X051595Y056397D01*
X051595Y056556D02*
X052407Y056556D01*
X052221Y056714D02*
X051553Y056714D01*
X051398Y056873D02*
X052036Y056873D01*
X051838Y057031D02*
X051239Y057031D01*
X051081Y057190D02*
X051624Y057190D01*
X051411Y057348D02*
X050922Y057348D01*
X050764Y057507D02*
X051197Y057507D01*
X050984Y057665D02*
X050605Y057665D01*
X050447Y057824D02*
X050770Y057824D01*
X050557Y057982D02*
X050233Y057982D01*
X050343Y058141D02*
X049944Y058141D01*
X050122Y058299D02*
X049656Y058299D01*
X049874Y058458D02*
X049368Y058458D01*
X049627Y058616D02*
X049080Y058616D01*
X049132Y058933D02*
X048504Y058933D01*
X048792Y058775D02*
X049379Y058775D01*
X048884Y059092D02*
X048215Y059092D01*
X047927Y059250D02*
X048637Y059250D01*
X048389Y059409D02*
X047639Y059409D01*
X047351Y059567D02*
X048108Y059567D01*
X047818Y059726D02*
X047063Y059726D01*
X046774Y059884D02*
X047528Y059884D01*
X047239Y060043D02*
X046486Y060043D01*
X046198Y060201D02*
X046949Y060201D01*
X046659Y060360D02*
X045910Y060360D01*
X045622Y060518D02*
X046360Y060518D01*
X046016Y060677D02*
X045343Y060677D01*
X045327Y060994D02*
X040711Y060994D01*
X040982Y060360D02*
X023382Y060360D01*
X023622Y060994D02*
X018994Y060994D01*
X018667Y060835D02*
X022761Y060835D01*
X022521Y060201D02*
X041920Y060201D01*
X041649Y060835D02*
X045671Y060835D01*
X044983Y061152D02*
X039774Y061152D01*
X040044Y060518D02*
X024243Y060518D01*
X024483Y061152D02*
X019372Y061152D01*
X019750Y061311D02*
X025344Y061311D01*
X025104Y060677D02*
X039107Y060677D01*
X038836Y061311D02*
X044639Y061311D01*
X044265Y061469D02*
X037898Y061469D01*
X038169Y060835D02*
X025965Y060835D01*
X026205Y061469D02*
X020128Y061469D01*
X020506Y061628D02*
X027066Y061628D01*
X026826Y060994D02*
X037232Y060994D01*
X036961Y061628D02*
X043847Y061628D01*
X043429Y061786D02*
X036023Y061786D01*
X036294Y061152D02*
X027687Y061152D01*
X027927Y061786D02*
X020884Y061786D01*
X021336Y061945D02*
X028788Y061945D01*
X028548Y061311D02*
X035356Y061311D01*
X035086Y061945D02*
X043011Y061945D01*
X042593Y062103D02*
X034148Y062103D01*
X034419Y061469D02*
X029409Y061469D01*
X029649Y062103D02*
X021802Y062103D01*
X022268Y062262D02*
X030510Y062262D01*
X030270Y061628D02*
X033481Y061628D01*
X033210Y062262D02*
X042121Y062262D01*
X041597Y062420D02*
X032273Y062420D01*
X032543Y061786D02*
X031131Y061786D01*
X031371Y062420D02*
X022734Y062420D01*
X023252Y062579D02*
X041072Y062579D01*
X040547Y062737D02*
X023851Y062737D01*
X024449Y062896D02*
X039935Y062896D01*
X039241Y063054D02*
X025047Y063054D01*
X025842Y063213D02*
X038546Y063213D01*
X037710Y063371D02*
X026666Y063371D01*
X027616Y063530D02*
X036698Y063530D01*
X035432Y063688D02*
X028921Y063688D01*
X031272Y063847D02*
X032718Y063847D01*
X030152Y058616D02*
X030102Y058495D01*
X030129Y058299D02*
X018819Y058299D01*
X018549Y058141D02*
X030271Y058141D01*
X030589Y058141D02*
X046620Y058141D01*
X046656Y057982D02*
X018278Y057982D01*
X018008Y057824D02*
X046747Y057824D01*
X047403Y057665D02*
X047437Y057665D01*
X047728Y058299D02*
X047803Y058299D01*
X047487Y056840D02*
X047373Y056840D01*
X047269Y056797D01*
X047188Y056716D01*
X047145Y056612D01*
X047145Y056498D01*
X047188Y056394D01*
X047269Y056313D01*
X047373Y056270D01*
X047487Y056270D01*
X047591Y056313D01*
X047672Y056394D01*
X047715Y056498D01*
X047715Y056612D01*
X047672Y056716D01*
X047591Y056797D01*
X047487Y056840D01*
X047673Y056714D02*
X050736Y056714D01*
X050894Y056556D02*
X047715Y056556D01*
X047673Y056397D02*
X051015Y056397D01*
X051015Y056239D02*
X015302Y056239D01*
X015573Y056397D02*
X047187Y056397D01*
X047145Y056556D02*
X015843Y056556D01*
X016114Y056714D02*
X047187Y056714D01*
X051015Y056080D02*
X015031Y056080D01*
X014761Y055922D02*
X051015Y055922D01*
X051015Y055763D02*
X014490Y055763D01*
X014220Y055605D02*
X051015Y055605D01*
X051008Y055446D02*
X013949Y055446D01*
X013679Y055288D02*
X050977Y055288D01*
X051023Y055129D02*
X013408Y055129D01*
X011382Y053069D02*
X032307Y053069D01*
X032149Y052910D02*
X011252Y052910D01*
X011122Y052752D02*
X031990Y052752D01*
X031832Y052593D02*
X010991Y052593D01*
X010861Y052435D02*
X031710Y052435D01*
X031710Y052276D02*
X017237Y052276D01*
X017109Y052329D02*
X016751Y052329D01*
X016421Y052192D01*
X016168Y051939D01*
X016031Y051609D01*
X016031Y051251D01*
X016168Y050921D01*
X016421Y050668D01*
X016751Y050531D01*
X017109Y050531D01*
X017439Y050668D01*
X017692Y050921D01*
X017829Y051251D01*
X017829Y051609D01*
X017692Y051939D01*
X017439Y052192D01*
X017109Y052329D01*
X017514Y052118D02*
X031710Y052118D01*
X031710Y051959D02*
X017673Y051959D01*
X017750Y051801D02*
X031710Y051801D01*
X031710Y051642D02*
X017816Y051642D01*
X017829Y051484D02*
X031710Y051484D01*
X031710Y051325D02*
X017829Y051325D01*
X017794Y051167D02*
X031710Y051167D01*
X031669Y051008D02*
X030870Y051008D01*
X030740Y051008D02*
X017729Y051008D01*
X017621Y050850D02*
X030520Y050850D01*
X030477Y050691D02*
X017463Y050691D01*
X017113Y050533D02*
X030511Y050533D01*
X030686Y050374D02*
X009165Y050374D01*
X009295Y050533D02*
X016747Y050533D01*
X016397Y050691D02*
X009426Y050691D01*
X009556Y050850D02*
X016239Y050850D01*
X016131Y051008D02*
X009687Y051008D01*
X009817Y051167D02*
X016066Y051167D01*
X016031Y051325D02*
X009948Y051325D01*
X010078Y051484D02*
X016031Y051484D01*
X016044Y051642D02*
X010208Y051642D01*
X010339Y051801D02*
X016110Y051801D01*
X016187Y051959D02*
X010469Y051959D01*
X010600Y052118D02*
X016346Y052118D01*
X016623Y052276D02*
X010730Y052276D01*
X009035Y050216D02*
X032957Y050216D01*
X032952Y050057D02*
X008904Y050057D01*
X008774Y049899D02*
X033058Y049899D01*
X033402Y049899D02*
X035818Y049899D01*
X035659Y050057D02*
X033508Y050057D01*
X033503Y050216D02*
X035501Y050216D01*
X035721Y050533D02*
X037059Y050533D01*
X037217Y050374D02*
X035880Y050374D01*
X036038Y050216D02*
X037376Y050216D01*
X037534Y050057D02*
X036197Y050057D01*
X036355Y049899D02*
X037693Y049899D01*
X037851Y049740D02*
X036514Y049740D01*
X036620Y049582D02*
X038010Y049582D01*
X038168Y049423D02*
X036658Y049423D01*
X036817Y049265D02*
X038327Y049265D01*
X038485Y049106D02*
X036940Y049106D01*
X036940Y048948D02*
X038644Y048948D01*
X038802Y048789D02*
X036940Y048789D01*
X036852Y048631D02*
X038961Y048631D01*
X039119Y048472D02*
X036693Y048472D01*
X036868Y048314D02*
X039278Y048314D01*
X039436Y048155D02*
X037026Y048155D01*
X037040Y047997D02*
X039595Y047997D01*
X039753Y047838D02*
X037040Y047838D01*
X037001Y047680D02*
X039912Y047680D01*
X040070Y047521D02*
X036842Y047521D01*
X036719Y047363D02*
X040229Y047363D01*
X040387Y047204D02*
X036877Y047204D01*
X036940Y047046D02*
X040546Y047046D01*
X040704Y046887D02*
X036940Y046887D01*
X036940Y046729D02*
X040863Y046729D01*
X041021Y046570D02*
X036791Y046570D01*
X036069Y046570D02*
X035791Y046570D01*
X035069Y046570D02*
X031089Y046570D01*
X031247Y046729D02*
X034920Y046729D01*
X034920Y046887D02*
X031601Y046887D01*
X031683Y047046D02*
X034920Y047046D01*
X034983Y047204D02*
X031669Y047204D01*
X031561Y047363D02*
X035141Y047363D01*
X035218Y047521D02*
X031372Y047521D01*
X031269Y047680D02*
X035059Y047680D01*
X035020Y047838D02*
X007078Y047838D01*
X007208Y047997D02*
X035020Y047997D01*
X035034Y048155D02*
X007339Y048155D01*
X007469Y048314D02*
X035192Y048314D01*
X035110Y048472D02*
X007600Y048472D01*
X007730Y048631D02*
X034952Y048631D01*
X034880Y048789D02*
X007861Y048789D01*
X007991Y048948D02*
X035410Y048948D01*
X035410Y049106D02*
X035450Y049106D01*
X035450Y049265D02*
X035410Y049265D01*
X035410Y049423D02*
X035450Y049423D01*
X035715Y049423D02*
X036202Y049423D01*
X036135Y049582D02*
X008513Y049582D01*
X008643Y049740D02*
X035976Y049740D01*
X036043Y049265D02*
X035873Y049265D01*
X035145Y049423D02*
X008382Y049423D01*
X008252Y049265D02*
X034987Y049265D01*
X034880Y049106D02*
X008121Y049106D01*
X006947Y047680D02*
X030841Y047680D01*
X030738Y047521D02*
X006817Y047521D01*
X006687Y047363D02*
X030719Y047363D01*
X030560Y047204D02*
X006556Y047204D01*
X006426Y047046D02*
X030402Y047046D01*
X030243Y046887D02*
X006295Y046887D01*
X006218Y046729D02*
X030085Y046729D01*
X029926Y046570D02*
X006136Y046570D01*
X006081Y046412D02*
X029768Y046412D01*
X029609Y046253D02*
X006025Y046253D01*
X005970Y046095D02*
X029451Y046095D01*
X029292Y045936D02*
X005914Y045936D01*
X005859Y045778D02*
X029134Y045778D01*
X028975Y045619D02*
X005803Y045619D01*
X005748Y045461D02*
X028817Y045461D01*
X028658Y045302D02*
X005692Y045302D01*
X005637Y045144D02*
X028500Y045144D01*
X028341Y044985D02*
X005582Y044985D01*
X005526Y044827D02*
X028183Y044827D01*
X028024Y044668D02*
X017166Y044668D01*
X017158Y044672D02*
X017067Y044696D01*
X017006Y044704D01*
X017006Y044068D01*
X017642Y044068D01*
X017634Y044129D01*
X017609Y044220D01*
X017573Y044307D01*
X017526Y044389D01*
X017469Y044464D01*
X017402Y044531D01*
X017327Y044588D01*
X017245Y044635D01*
X017158Y044672D01*
X017006Y044668D02*
X016846Y044668D01*
X016846Y044704D02*
X016785Y044696D01*
X016694Y044672D01*
X016607Y044635D01*
X016525Y044588D01*
X016450Y044531D01*
X016384Y044464D01*
X016326Y044389D01*
X016279Y044307D01*
X016243Y044220D01*
X016218Y044129D01*
X016210Y044068D01*
X016846Y044068D01*
X016846Y043908D01*
X017006Y043908D01*
X017006Y043273D01*
X017067Y043281D01*
X017158Y043305D01*
X017245Y043341D01*
X017327Y043388D01*
X017402Y043446D01*
X017469Y043513D01*
X017526Y043587D01*
X017573Y043669D01*
X017609Y043756D01*
X017634Y043848D01*
X017642Y043908D01*
X017006Y043908D01*
X017006Y044068D01*
X016846Y044068D01*
X016846Y044704D01*
X016686Y044668D02*
X005471Y044668D01*
X005415Y044510D02*
X016429Y044510D01*
X016304Y044351D02*
X005360Y044351D01*
X005304Y044193D02*
X016235Y044193D01*
X016210Y043908D02*
X016218Y043848D01*
X016243Y043756D01*
X016279Y043669D01*
X016326Y043587D01*
X016384Y043513D01*
X016450Y043446D01*
X016525Y043388D01*
X016607Y043341D01*
X016694Y043305D01*
X016785Y043281D01*
X016846Y043273D01*
X016846Y043908D01*
X016210Y043908D01*
X016215Y043876D02*
X005193Y043876D01*
X005249Y044034D02*
X016846Y044034D01*
X016846Y043876D02*
X017006Y043876D01*
X017006Y044034D02*
X027390Y044034D01*
X027232Y043876D02*
X017637Y043876D01*
X017593Y043717D02*
X027073Y043717D01*
X026915Y043559D02*
X017504Y043559D01*
X017342Y043400D02*
X026756Y043400D01*
X026598Y043242D02*
X004971Y043242D01*
X005027Y043400D02*
X016510Y043400D01*
X016348Y043559D02*
X005082Y043559D01*
X005138Y043717D02*
X016259Y043717D01*
X016846Y043717D02*
X017006Y043717D01*
X017006Y043559D02*
X016846Y043559D01*
X016846Y043400D02*
X017006Y043400D01*
X017006Y044193D02*
X016846Y044193D01*
X016846Y044351D02*
X017006Y044351D01*
X017006Y044510D02*
X016846Y044510D01*
X017423Y044510D02*
X027866Y044510D01*
X027707Y044351D02*
X017548Y044351D01*
X017617Y044193D02*
X027549Y044193D01*
X026439Y043083D02*
X004916Y043083D01*
X004860Y042925D02*
X026281Y042925D01*
X026122Y042766D02*
X004805Y042766D01*
X004749Y042608D02*
X025964Y042608D01*
X025805Y042449D02*
X004694Y042449D01*
X004638Y042291D02*
X025647Y042291D01*
X025488Y042132D02*
X004583Y042132D01*
X004527Y041974D02*
X015699Y041974D01*
X015791Y042012D02*
X015541Y041908D01*
X015350Y041717D01*
X015246Y041467D01*
X015246Y041196D01*
X015350Y040946D01*
X015541Y040755D01*
X015791Y040652D01*
X016061Y040652D01*
X016311Y040755D01*
X016503Y040946D01*
X016606Y041196D01*
X016606Y041467D01*
X016503Y041717D01*
X016311Y041908D01*
X016061Y042012D01*
X015791Y042012D01*
X016153Y041974D02*
X017699Y041974D01*
X017791Y042012D02*
X017541Y041908D01*
X017350Y041717D01*
X017246Y041467D01*
X017246Y041196D01*
X017350Y040946D01*
X017541Y040755D01*
X017791Y040652D01*
X018061Y040652D01*
X018311Y040755D01*
X018503Y040946D01*
X018606Y041196D01*
X018606Y041467D01*
X018503Y041717D01*
X018311Y041908D01*
X018061Y042012D01*
X017791Y042012D01*
X018153Y041974D02*
X025330Y041974D01*
X025171Y041815D02*
X018404Y041815D01*
X018527Y041657D02*
X025013Y041657D01*
X024854Y041498D02*
X018593Y041498D01*
X018606Y041340D02*
X024696Y041340D01*
X024537Y041181D02*
X018600Y041181D01*
X018534Y041023D02*
X024379Y041023D01*
X024220Y040864D02*
X018420Y040864D01*
X018192Y040706D02*
X024062Y040706D01*
X023903Y040547D02*
X004028Y040547D01*
X003973Y040389D02*
X023745Y040389D01*
X023586Y040230D02*
X003917Y040230D01*
X003862Y040072D02*
X023428Y040072D01*
X023269Y039913D02*
X003806Y039913D01*
X003751Y039755D02*
X023111Y039755D01*
X022952Y039596D02*
X003695Y039596D01*
X003640Y039438D02*
X022794Y039438D01*
X022635Y039279D02*
X003584Y039279D01*
X003529Y039121D02*
X022477Y039121D01*
X022318Y038962D02*
X003473Y038962D01*
X003418Y038804D02*
X022160Y038804D01*
X022001Y038645D02*
X003363Y038645D01*
X003307Y038487D02*
X021843Y038487D01*
X021684Y038328D02*
X003252Y038328D01*
X003196Y038170D02*
X021526Y038170D01*
X021367Y038011D02*
X003141Y038011D01*
X003085Y037853D02*
X021209Y037853D01*
X021050Y037694D02*
X003030Y037694D01*
X002974Y037536D02*
X020892Y037536D01*
X020865Y037377D02*
X002919Y037377D01*
X002863Y037219D02*
X020865Y037219D01*
X020865Y037060D02*
X002808Y037060D01*
X002783Y036902D02*
X020865Y036902D01*
X020865Y036743D02*
X002747Y036743D01*
X002749Y036585D02*
X020865Y036585D01*
X020865Y036426D02*
X002751Y036426D01*
X002753Y036268D02*
X020865Y036268D01*
X020865Y036109D02*
X002755Y036109D01*
X002757Y035951D02*
X020865Y035951D01*
X020865Y035792D02*
X002759Y035792D01*
X002761Y035634D02*
X020865Y035634D01*
X020865Y035475D02*
X002763Y035475D01*
X002765Y035317D02*
X020865Y035317D01*
X020865Y035158D02*
X002767Y035158D01*
X002769Y035000D02*
X020865Y035000D01*
X020865Y034841D02*
X002771Y034841D01*
X002773Y034683D02*
X020865Y034683D01*
X020865Y034524D02*
X002775Y034524D01*
X002777Y034366D02*
X020865Y034366D01*
X020865Y034207D02*
X002779Y034207D01*
X002781Y034049D02*
X020865Y034049D01*
X020865Y033890D02*
X002783Y033890D01*
X002785Y033732D02*
X020865Y033732D01*
X020865Y033573D02*
X002787Y033573D01*
X002789Y033415D02*
X020865Y033415D01*
X020865Y033256D02*
X002790Y033256D01*
X002792Y033098D02*
X020865Y033098D01*
X020865Y032939D02*
X002794Y032939D01*
X002796Y032781D02*
X020865Y032781D01*
X020865Y032622D02*
X002798Y032622D01*
X002800Y032464D02*
X020865Y032464D01*
X020865Y032305D02*
X002802Y032305D01*
X002804Y032146D02*
X020865Y032146D01*
X020865Y031988D02*
X002806Y031988D01*
X002808Y031829D02*
X020865Y031829D01*
X020865Y031671D02*
X002810Y031671D01*
X002812Y031512D02*
X020865Y031512D01*
X020865Y031354D02*
X002814Y031354D01*
X002816Y031195D02*
X020865Y031195D01*
X020865Y031037D02*
X002818Y031037D01*
X002820Y030878D02*
X020865Y030878D01*
X020865Y030720D02*
X002822Y030720D01*
X002824Y030561D02*
X020865Y030561D01*
X020865Y030403D02*
X002826Y030403D01*
X002828Y030244D02*
X020865Y030244D01*
X020865Y030086D02*
X002830Y030086D01*
X002832Y029927D02*
X020865Y029927D01*
X020865Y029769D02*
X002834Y029769D01*
X002836Y029610D02*
X020865Y029610D01*
X020865Y029452D02*
X002838Y029452D01*
X002840Y029293D02*
X020865Y029293D01*
X020865Y029135D02*
X002841Y029135D01*
X002843Y028976D02*
X020865Y028976D01*
X020865Y028818D02*
X002845Y028818D01*
X002847Y028659D02*
X020865Y028659D01*
X020865Y028501D02*
X002849Y028501D01*
X002851Y028342D02*
X020865Y028342D01*
X020865Y028184D02*
X002853Y028184D01*
X002855Y028025D02*
X020865Y028025D01*
X020865Y027867D02*
X002857Y027867D01*
X002859Y027708D02*
X020865Y027708D01*
X020865Y027550D02*
X002861Y027550D01*
X002863Y027391D02*
X020865Y027391D01*
X020865Y027233D02*
X002865Y027233D01*
X002867Y027074D02*
X020865Y027074D01*
X020865Y026916D02*
X002900Y026916D01*
X002916Y026757D02*
X020865Y026757D01*
X020865Y026599D02*
X002975Y026599D01*
X003033Y026440D02*
X020901Y026440D01*
X021059Y026282D02*
X003092Y026282D01*
X003150Y026123D02*
X021218Y026123D01*
X021376Y025965D02*
X003209Y025965D01*
X003267Y025806D02*
X021535Y025806D01*
X021693Y025648D02*
X003326Y025648D01*
X003385Y025489D02*
X021852Y025489D01*
X022010Y025331D02*
X003443Y025331D01*
X003502Y025172D02*
X022169Y025172D01*
X022327Y025014D02*
X003560Y025014D01*
X003619Y024855D02*
X022486Y024855D01*
X022644Y024697D02*
X003678Y024697D01*
X003736Y024538D02*
X022803Y024538D01*
X022961Y024380D02*
X003795Y024380D01*
X003853Y024221D02*
X023120Y024221D01*
X023278Y024063D02*
X003912Y024063D01*
X003971Y023904D02*
X023437Y023904D01*
X023595Y023746D02*
X004029Y023746D01*
X004088Y023587D02*
X023754Y023587D01*
X023912Y023429D02*
X004146Y023429D01*
X004205Y023270D02*
X024071Y023270D01*
X024229Y023112D02*
X018302Y023112D01*
X018319Y023105D02*
X018069Y023208D01*
X017799Y023208D01*
X017549Y023105D01*
X017357Y022914D01*
X017254Y022664D01*
X017254Y022393D01*
X017357Y022143D01*
X017549Y021952D01*
X017799Y021848D01*
X018069Y021848D01*
X018319Y021952D01*
X018510Y022143D01*
X018614Y022393D01*
X018614Y022664D01*
X018510Y022914D01*
X018319Y023105D01*
X018471Y022953D02*
X024388Y022953D01*
X024546Y022795D02*
X018560Y022795D01*
X018614Y022636D02*
X024705Y022636D01*
X024863Y022478D02*
X018614Y022478D01*
X018583Y022319D02*
X025022Y022319D01*
X025180Y022161D02*
X018518Y022161D01*
X018370Y022002D02*
X025339Y022002D01*
X025497Y021844D02*
X004732Y021844D01*
X004674Y022002D02*
X015498Y022002D01*
X015549Y021952D02*
X015357Y022143D01*
X015254Y022393D01*
X015254Y022664D01*
X015357Y022914D01*
X015549Y023105D01*
X015799Y023208D01*
X016069Y023208D01*
X016319Y023105D01*
X016510Y022914D01*
X016614Y022664D01*
X016614Y022393D01*
X016510Y022143D01*
X016319Y021952D01*
X016069Y021848D01*
X015799Y021848D01*
X015549Y021952D01*
X015350Y022161D02*
X004615Y022161D01*
X004556Y022319D02*
X015284Y022319D01*
X015254Y022478D02*
X004498Y022478D01*
X004439Y022636D02*
X015254Y022636D01*
X015308Y022795D02*
X004381Y022795D01*
X004322Y022953D02*
X015397Y022953D01*
X015566Y023112D02*
X004263Y023112D01*
X004791Y021685D02*
X025656Y021685D01*
X025814Y021527D02*
X004849Y021527D01*
X004908Y021368D02*
X025973Y021368D01*
X026131Y021210D02*
X004966Y021210D01*
X005025Y021051D02*
X026290Y021051D01*
X026448Y020893D02*
X005084Y020893D01*
X005142Y020734D02*
X026607Y020734D01*
X027385Y021368D02*
X036475Y021368D01*
X036316Y021210D02*
X027544Y021210D01*
X027702Y021051D02*
X031871Y021051D01*
X031712Y020893D02*
X027861Y020893D01*
X028019Y020734D02*
X031600Y020734D01*
X031863Y021875D02*
X031863Y021875D01*
X030599Y021992D02*
X030599Y021992D01*
X030551Y022002D02*
X026751Y022002D01*
X026910Y021844D02*
X036950Y021844D01*
X036792Y021685D02*
X027068Y021685D01*
X027227Y021527D02*
X036633Y021527D01*
X037109Y022002D02*
X033701Y022002D01*
X034386Y022109D02*
X034386Y022109D01*
X034569Y022161D02*
X037267Y022161D01*
X037426Y022319D02*
X035127Y022319D01*
X035607Y022456D02*
X035607Y022456D01*
X035658Y022478D02*
X037584Y022478D01*
X037601Y022495D02*
X037601Y022495D01*
X037743Y022636D02*
X036033Y022636D01*
X036407Y022795D02*
X037901Y022795D01*
X038060Y022953D02*
X036780Y022953D01*
X036776Y022951D02*
X036776Y022951D01*
X039073Y023429D02*
X060131Y023429D01*
X060185Y023587D02*
X039231Y023587D01*
X039390Y023746D02*
X060239Y023746D01*
X060293Y023904D02*
X039548Y023904D01*
X039707Y024063D02*
X060347Y024063D01*
X060402Y024221D02*
X039865Y024221D01*
X040024Y024380D02*
X060456Y024380D01*
X060510Y024538D02*
X040182Y024538D01*
X040341Y024697D02*
X060564Y024697D01*
X060618Y024855D02*
X040499Y024855D01*
X040658Y025014D02*
X060672Y025014D01*
X060727Y025172D02*
X040816Y025172D01*
X040975Y025331D02*
X060781Y025331D01*
X060835Y025489D02*
X041133Y025489D01*
X041292Y025648D02*
X060889Y025648D01*
X060943Y025806D02*
X041450Y025806D01*
X041609Y025965D02*
X060998Y025965D01*
X061052Y026123D02*
X041767Y026123D01*
X041926Y026282D02*
X061106Y026282D01*
X061160Y026440D02*
X042084Y026440D01*
X042243Y026599D02*
X061214Y026599D01*
X061269Y026757D02*
X042401Y026757D01*
X042560Y026916D02*
X061323Y026916D01*
X061377Y027074D02*
X042718Y027074D01*
X042877Y027233D02*
X061431Y027233D01*
X061477Y027391D02*
X043035Y027391D01*
X043120Y027550D02*
X061500Y027550D01*
X061510Y027708D02*
X043120Y027708D01*
X043120Y027867D02*
X061508Y027867D01*
X061505Y028025D02*
X043120Y028025D01*
X043120Y028184D02*
X061502Y028184D01*
X061500Y028342D02*
X043120Y028342D01*
X043120Y028501D02*
X061497Y028501D01*
X061494Y028659D02*
X043120Y028659D01*
X043120Y028818D02*
X061492Y028818D01*
X061489Y028976D02*
X043120Y028976D01*
X043120Y029135D02*
X061486Y029135D01*
X061484Y029293D02*
X043120Y029293D01*
X043120Y029452D02*
X061481Y029452D01*
X061479Y029610D02*
X043120Y029610D01*
X043120Y029769D02*
X061476Y029769D01*
X061473Y029927D02*
X043120Y029927D01*
X043120Y030086D02*
X061471Y030086D01*
X061468Y030244D02*
X043120Y030244D01*
X043120Y030403D02*
X061465Y030403D01*
X061463Y030561D02*
X043120Y030561D01*
X043120Y030720D02*
X061460Y030720D01*
X061457Y030878D02*
X043120Y030878D01*
X043120Y031037D02*
X061455Y031037D01*
X061452Y031195D02*
X043120Y031195D01*
X043120Y031354D02*
X061449Y031354D01*
X061447Y031512D02*
X043120Y031512D01*
X043120Y031671D02*
X061444Y031671D01*
X061441Y031829D02*
X043120Y031829D01*
X043120Y031988D02*
X061439Y031988D01*
X061436Y032146D02*
X043120Y032146D01*
X043120Y032305D02*
X061434Y032305D01*
X061431Y032464D02*
X043120Y032464D01*
X043120Y032622D02*
X061428Y032622D01*
X061426Y032781D02*
X043120Y032781D01*
X043120Y032939D02*
X061423Y032939D01*
X061420Y033098D02*
X043120Y033098D01*
X043120Y033256D02*
X061418Y033256D01*
X061415Y033415D02*
X043120Y033415D01*
X043120Y033573D02*
X061412Y033573D01*
X061410Y033732D02*
X043120Y033732D01*
X043120Y033890D02*
X061407Y033890D01*
X061404Y034049D02*
X043120Y034049D01*
X043120Y034207D02*
X061402Y034207D01*
X061399Y034366D02*
X043120Y034366D01*
X043120Y034524D02*
X061396Y034524D01*
X061394Y034683D02*
X043120Y034683D01*
X043120Y034841D02*
X061391Y034841D01*
X061388Y035000D02*
X043120Y035000D01*
X043120Y035158D02*
X061386Y035158D01*
X061383Y035317D02*
X043120Y035317D01*
X043120Y035475D02*
X061381Y035475D01*
X061378Y035634D02*
X043120Y035634D01*
X043120Y035792D02*
X061375Y035792D01*
X061373Y035951D02*
X043120Y035951D01*
X043120Y036109D02*
X061370Y036109D01*
X061367Y036268D02*
X043120Y036268D01*
X043120Y036426D02*
X061365Y036426D01*
X061362Y036585D02*
X043120Y036585D01*
X043120Y036743D02*
X061359Y036743D01*
X061357Y036902D02*
X043120Y036902D01*
X043120Y037060D02*
X061354Y037060D01*
X061351Y037219D02*
X043120Y037219D01*
X043120Y037377D02*
X061349Y037377D01*
X061346Y037536D02*
X043120Y037536D01*
X043120Y037694D02*
X061343Y037694D01*
X061302Y037853D02*
X043120Y037853D01*
X043120Y038011D02*
X061279Y038011D01*
X061218Y038170D02*
X043120Y038170D01*
X043120Y038328D02*
X061157Y038328D01*
X061096Y038487D02*
X043120Y038487D01*
X043120Y038645D02*
X061036Y038645D01*
X060975Y038804D02*
X043120Y038804D01*
X043120Y038962D02*
X060914Y038962D01*
X060853Y039121D02*
X043120Y039121D01*
X043120Y039279D02*
X060793Y039279D01*
X060732Y039438D02*
X043120Y039438D01*
X043120Y039596D02*
X060671Y039596D01*
X060610Y039755D02*
X043120Y039755D01*
X043120Y039913D02*
X060550Y039913D01*
X060489Y040072D02*
X043120Y040072D01*
X043120Y040230D02*
X060428Y040230D01*
X060367Y040389D02*
X043120Y040389D01*
X043120Y040547D02*
X060306Y040547D01*
X060246Y040706D02*
X048692Y040706D01*
X048811Y040755D02*
X049003Y040946D01*
X049106Y041196D01*
X049106Y041467D01*
X049003Y041717D01*
X048811Y041908D01*
X048561Y042012D01*
X048291Y042012D01*
X048041Y041908D01*
X047850Y041717D01*
X047746Y041467D01*
X047746Y041196D01*
X047850Y040946D01*
X048041Y040755D01*
X048291Y040652D01*
X048561Y040652D01*
X048811Y040755D01*
X048920Y040864D02*
X060185Y040864D01*
X060124Y041023D02*
X049034Y041023D01*
X049100Y041181D02*
X060063Y041181D01*
X060003Y041340D02*
X049106Y041340D01*
X049093Y041498D02*
X059942Y041498D01*
X059881Y041657D02*
X049027Y041657D01*
X048904Y041815D02*
X059820Y041815D01*
X059759Y041974D02*
X048653Y041974D01*
X048199Y041974D02*
X046653Y041974D01*
X046561Y042012D02*
X046811Y041908D01*
X047003Y041717D01*
X047106Y041467D01*
X047106Y041196D01*
X047003Y040946D01*
X046811Y040755D01*
X046561Y040652D01*
X046291Y040652D01*
X046041Y040755D01*
X045850Y040946D01*
X045746Y041196D01*
X045746Y041467D01*
X045850Y041717D01*
X046041Y041908D01*
X046291Y042012D01*
X046561Y042012D01*
X046199Y041974D02*
X043120Y041974D01*
X043120Y042132D02*
X059699Y042132D01*
X059638Y042291D02*
X043120Y042291D01*
X043120Y042449D02*
X059577Y042449D01*
X059516Y042608D02*
X043120Y042608D01*
X043120Y042766D02*
X059456Y042766D01*
X059395Y042925D02*
X043120Y042925D01*
X043120Y043083D02*
X059334Y043083D01*
X055003Y050533D02*
X047613Y050533D01*
X047963Y050691D02*
X054868Y050691D01*
X054732Y050850D02*
X048121Y050850D01*
X048229Y051008D02*
X054597Y051008D01*
X054461Y051167D02*
X048294Y051167D01*
X048329Y051325D02*
X054326Y051325D01*
X054190Y051484D02*
X048329Y051484D01*
X048316Y051642D02*
X054055Y051642D01*
X053919Y051801D02*
X048250Y051801D01*
X048173Y051959D02*
X053784Y051959D01*
X053648Y052118D02*
X048014Y052118D01*
X047737Y052276D02*
X053513Y052276D01*
X053106Y052752D02*
X033405Y052752D01*
X033509Y052910D02*
X052971Y052910D01*
X052835Y053069D02*
X033502Y053069D01*
X033378Y053227D02*
X052700Y053227D01*
X051751Y054337D02*
X033450Y054337D01*
X033450Y054495D02*
X033410Y054495D01*
X033410Y054654D02*
X033450Y054654D01*
X033450Y054812D02*
X033410Y054812D01*
X033410Y054178D02*
X033450Y054178D01*
X033450Y054020D02*
X033410Y054020D01*
X033410Y053861D02*
X033450Y053861D01*
X033055Y052752D02*
X032613Y052752D01*
X031602Y050850D02*
X031090Y050850D01*
X031133Y050691D02*
X031622Y050691D01*
X030930Y046412D02*
X041180Y046412D01*
X041338Y046253D02*
X030772Y046253D01*
X030613Y046095D02*
X041497Y046095D01*
X041655Y045936D02*
X030455Y045936D01*
X030296Y045778D02*
X041814Y045778D01*
X041972Y045619D02*
X030138Y045619D01*
X029979Y045461D02*
X042131Y045461D01*
X042289Y045302D02*
X029821Y045302D01*
X029662Y045144D02*
X042448Y045144D01*
X042606Y044985D02*
X029504Y044985D01*
X030245Y042291D02*
X026809Y042291D01*
X026651Y042132D02*
X029521Y042132D01*
X029010Y041974D02*
X026492Y041974D01*
X026334Y041815D02*
X028560Y041815D01*
X028161Y041675D02*
X028161Y041675D01*
X028125Y041657D02*
X026175Y041657D01*
X026017Y041498D02*
X027807Y041498D01*
X027488Y041340D02*
X025858Y041340D01*
X025700Y041181D02*
X027170Y041181D01*
X027025Y041109D02*
X027025Y041109D01*
X026895Y041023D02*
X025541Y041023D01*
X025383Y040864D02*
X026656Y040864D01*
X026416Y040706D02*
X025224Y040706D01*
X025066Y040547D02*
X026177Y040547D01*
X025967Y040408D02*
X025967Y040408D01*
X025945Y040389D02*
X024907Y040389D01*
X024749Y040230D02*
X025760Y040230D01*
X025575Y040072D02*
X024590Y040072D01*
X024432Y039913D02*
X025390Y039913D01*
X025205Y039755D02*
X024273Y039755D01*
X024115Y039596D02*
X025020Y039596D01*
X024871Y039438D02*
X023956Y039438D01*
X023798Y039279D02*
X024727Y039279D01*
X024582Y039121D02*
X023639Y039121D01*
X023481Y038962D02*
X024438Y038962D01*
X024293Y038804D02*
X023322Y038804D01*
X023164Y038645D02*
X024149Y038645D01*
X024148Y038644D02*
X024148Y038644D01*
X024036Y038487D02*
X023005Y038487D01*
X022847Y038328D02*
X023924Y038328D01*
X023812Y038170D02*
X022688Y038170D01*
X022530Y038011D02*
X023700Y038011D01*
X023588Y037853D02*
X022371Y037853D01*
X022213Y037694D02*
X023475Y037694D01*
X023376Y037536D02*
X022054Y037536D01*
X021896Y037377D02*
X023290Y037377D01*
X023205Y037219D02*
X021737Y037219D01*
X021579Y037060D02*
X023120Y037060D01*
X023035Y036902D02*
X021495Y036902D01*
X021495Y036743D02*
X022950Y036743D01*
X022865Y036585D02*
X021495Y036585D01*
X021495Y036426D02*
X022789Y036426D01*
X022814Y036489D02*
X022814Y036489D01*
X022728Y036268D02*
X021495Y036268D01*
X021495Y036109D02*
X022666Y036109D01*
X022605Y035951D02*
X021495Y035951D01*
X021495Y035792D02*
X022544Y035792D01*
X022482Y035634D02*
X021495Y035634D01*
X021495Y035475D02*
X022421Y035475D01*
X022359Y035317D02*
X021495Y035317D01*
X021495Y035158D02*
X022318Y035158D01*
X022278Y035000D02*
X021495Y035000D01*
X021495Y034841D02*
X022238Y034841D01*
X022198Y034683D02*
X021495Y034683D01*
X021495Y034524D02*
X022159Y034524D01*
X022119Y034366D02*
X021495Y034366D01*
X021495Y034207D02*
X022079Y034207D01*
X022046Y034074D02*
X022046Y034074D01*
X022042Y034049D02*
X021495Y034049D01*
X021495Y033890D02*
X022023Y033890D01*
X022003Y033732D02*
X021495Y033732D01*
X021495Y033573D02*
X021983Y033573D01*
X021964Y033415D02*
X021495Y033415D01*
X021495Y033256D02*
X021944Y033256D01*
X021925Y033098D02*
X021495Y033098D01*
X021495Y032939D02*
X021905Y032939D01*
X021890Y032781D02*
X021495Y032781D01*
X021495Y032622D02*
X021890Y032622D01*
X021890Y032464D02*
X021495Y032464D01*
X021495Y032305D02*
X021890Y032305D01*
X021890Y032146D02*
X021495Y032146D01*
X021495Y031988D02*
X021890Y031988D01*
X021890Y031829D02*
X021495Y031829D01*
X021495Y031671D02*
X021890Y031671D01*
X021894Y031512D02*
X021495Y031512D01*
X021495Y031354D02*
X021913Y031354D01*
X021933Y031195D02*
X021495Y031195D01*
X021495Y031037D02*
X021952Y031037D01*
X021972Y030878D02*
X021495Y030878D01*
X021495Y030720D02*
X021992Y030720D01*
X022011Y030561D02*
X021495Y030561D01*
X021495Y030403D02*
X022031Y030403D01*
X022056Y030244D02*
X021495Y030244D01*
X021495Y030086D02*
X022096Y030086D01*
X022136Y029927D02*
X021495Y029927D01*
X021495Y029769D02*
X022175Y029769D01*
X022215Y029610D02*
X021495Y029610D01*
X021495Y029452D02*
X022255Y029452D01*
X022295Y029293D02*
X021495Y029293D01*
X021495Y029135D02*
X022335Y029135D01*
X022385Y028976D02*
X021495Y028976D01*
X021495Y028818D02*
X022447Y028818D01*
X022508Y028659D02*
X021495Y028659D01*
X021495Y028501D02*
X022570Y028501D01*
X022631Y028342D02*
X021495Y028342D01*
X021495Y028184D02*
X022692Y028184D01*
X022754Y028025D02*
X021495Y028025D01*
X021495Y027867D02*
X022816Y027867D01*
X022901Y027708D02*
X021495Y027708D01*
X021495Y027550D02*
X022986Y027550D01*
X023071Y027391D02*
X021495Y027391D01*
X021521Y027233D02*
X023156Y027233D01*
X023241Y027074D02*
X021679Y027074D01*
X021838Y026916D02*
X023326Y026916D01*
X023412Y026757D02*
X021996Y026757D01*
X022155Y026599D02*
X023523Y026599D01*
X023635Y026440D02*
X022313Y026440D01*
X022472Y026282D02*
X023747Y026282D01*
X023860Y026123D02*
X022630Y026123D01*
X022789Y025965D02*
X023972Y025965D01*
X024084Y025806D02*
X022947Y025806D01*
X023106Y025648D02*
X024210Y025648D01*
X024148Y025716D02*
X024148Y025716D01*
X024355Y025489D02*
X023264Y025489D01*
X023423Y025331D02*
X024499Y025331D01*
X024644Y025172D02*
X023581Y025172D01*
X023740Y025014D02*
X024788Y025014D01*
X024933Y024855D02*
X023898Y024855D01*
X024057Y024697D02*
X025098Y024697D01*
X025003Y024778D02*
X025003Y024778D01*
X025283Y024538D02*
X024215Y024538D01*
X024374Y024380D02*
X025468Y024380D01*
X025653Y024221D02*
X024532Y024221D01*
X024691Y024063D02*
X025838Y024063D01*
X025967Y023952D02*
X025967Y023952D01*
X026039Y023904D02*
X024849Y023904D01*
X025008Y023746D02*
X026278Y023746D01*
X026518Y023587D02*
X025166Y023587D01*
X025325Y023429D02*
X026757Y023429D01*
X026996Y023270D02*
X025483Y023270D01*
X025642Y023112D02*
X027305Y023112D01*
X027025Y023251D02*
X027025Y023251D01*
X027623Y022953D02*
X025800Y022953D01*
X025959Y022795D02*
X027941Y022795D01*
X028300Y022636D02*
X026117Y022636D01*
X026276Y022478D02*
X028750Y022478D01*
X029200Y022319D02*
X026434Y022319D01*
X026593Y022161D02*
X029827Y022161D01*
X029359Y022264D02*
X029359Y022264D01*
X032631Y020100D02*
X046793Y020100D01*
X046800Y019625D02*
X035910Y019625D01*
X036068Y019466D02*
X046878Y019466D01*
X047036Y019308D02*
X036227Y019308D01*
X036385Y019149D02*
X058667Y019149D01*
X058613Y018991D02*
X036544Y018991D01*
X036702Y018832D02*
X058559Y018832D01*
X058505Y018674D02*
X036861Y018674D01*
X037019Y018515D02*
X058451Y018515D01*
X058396Y018357D02*
X037178Y018357D01*
X037336Y018198D02*
X058342Y018198D01*
X058288Y018040D02*
X037495Y018040D01*
X037653Y017881D02*
X044240Y017881D01*
X044152Y017845D02*
X044015Y017708D01*
X043940Y017527D01*
X043940Y017333D01*
X044015Y017152D01*
X044152Y017015D01*
X044333Y016940D01*
X044527Y016940D01*
X044708Y017015D01*
X044845Y017152D01*
X044920Y017333D01*
X044920Y017527D01*
X044845Y017708D01*
X044708Y017845D01*
X044527Y017920D01*
X044333Y017920D01*
X044152Y017845D01*
X044030Y017723D02*
X037812Y017723D01*
X037970Y017564D02*
X043955Y017564D01*
X043940Y017406D02*
X038129Y017406D01*
X038287Y017247D02*
X043975Y017247D01*
X044078Y017089D02*
X038446Y017089D01*
X038604Y016930D02*
X057481Y016930D01*
X057353Y016772D02*
X044781Y016772D01*
X044845Y016708D02*
X044708Y016845D01*
X044527Y016920D01*
X044333Y016920D01*
X044152Y016845D01*
X044015Y016708D01*
X043940Y016527D01*
X043940Y016333D01*
X044015Y016152D01*
X044152Y016015D01*
X044333Y015940D01*
X044527Y015940D01*
X044708Y016015D01*
X044845Y016152D01*
X044920Y016333D01*
X044920Y016527D01*
X044845Y016708D01*
X044884Y016613D02*
X057225Y016613D01*
X057096Y016455D02*
X044920Y016455D01*
X044905Y016296D02*
X056968Y016296D01*
X056840Y016138D02*
X044831Y016138D01*
X044623Y015979D02*
X056712Y015979D01*
X056584Y015821D02*
X039714Y015821D01*
X039872Y015662D02*
X056456Y015662D01*
X056328Y015504D02*
X040031Y015504D01*
X039528Y015187D02*
X038138Y015187D01*
X038293Y015028D02*
X039620Y015028D01*
X039526Y014870D02*
X038394Y014870D01*
X038458Y014711D02*
X039460Y014711D01*
X039424Y014553D02*
X038493Y014553D01*
X037591Y014553D02*
X037431Y014553D01*
X037431Y014711D02*
X037591Y014711D01*
X037591Y014870D02*
X037431Y014870D01*
X037431Y015028D02*
X037591Y015028D01*
X037591Y015187D02*
X037431Y015187D01*
X037431Y015345D02*
X037591Y015345D01*
X037864Y015345D02*
X039369Y015345D01*
X039211Y015504D02*
X031000Y015504D01*
X031158Y015345D02*
X037159Y015345D01*
X036885Y015187D02*
X031317Y015187D01*
X031475Y015028D02*
X036730Y015028D01*
X036629Y014870D02*
X031634Y014870D01*
X031792Y014711D02*
X036565Y014711D01*
X036530Y014553D02*
X031951Y014553D01*
X031413Y014553D02*
X025970Y014553D01*
X025970Y014711D02*
X031255Y014711D01*
X031096Y014870D02*
X025970Y014870D01*
X025970Y015028D02*
X030938Y015028D01*
X030779Y015187D02*
X025970Y015187D01*
X025970Y015345D02*
X030621Y015345D01*
X030462Y015504D02*
X025970Y015504D01*
X025970Y015662D02*
X030304Y015662D01*
X030145Y015821D02*
X025970Y015821D01*
X025970Y015979D02*
X029987Y015979D01*
X029828Y016138D02*
X025970Y016138D01*
X025970Y016296D02*
X029670Y016296D01*
X029511Y016455D02*
X025970Y016455D01*
X025970Y016613D02*
X029353Y016613D01*
X029194Y016772D02*
X025970Y016772D01*
X025970Y016930D02*
X029036Y016930D01*
X028877Y017089D02*
X025970Y017089D01*
X025970Y017247D02*
X026065Y017247D01*
X026295Y017247D02*
X028719Y017247D01*
X028939Y017564D02*
X032529Y017564D01*
X032371Y017406D02*
X029098Y017406D01*
X029256Y017247D02*
X032212Y017247D01*
X032557Y016772D02*
X037943Y016772D01*
X038101Y016613D02*
X032399Y016613D01*
X032426Y016641D02*
X032426Y016641D01*
X032716Y016930D02*
X037784Y016930D01*
X037626Y017089D02*
X032874Y017089D01*
X033033Y017247D02*
X037467Y017247D01*
X037309Y017406D02*
X033191Y017406D01*
X033350Y017564D02*
X037150Y017564D01*
X036992Y017723D02*
X033508Y017723D01*
X033667Y017881D02*
X036833Y017881D01*
X036675Y018040D02*
X033825Y018040D01*
X033984Y018198D02*
X035136Y018198D01*
X035138Y018194D02*
X035219Y018113D01*
X035323Y018070D01*
X035437Y018070D01*
X035541Y018113D01*
X035622Y018194D01*
X035665Y018298D01*
X035665Y018412D01*
X035622Y018516D01*
X035622Y018515D02*
X036199Y018515D01*
X036358Y018357D02*
X035665Y018357D01*
X035624Y018198D02*
X036516Y018198D01*
X036041Y018674D02*
X035665Y018674D01*
X035665Y018648D02*
X035622Y018544D01*
X035608Y018530D01*
X035622Y018516D01*
X035665Y018648D02*
X035665Y018762D01*
X035622Y018866D01*
X035541Y018947D01*
X035437Y018990D01*
X035323Y018990D01*
X035219Y018947D01*
X035138Y018866D01*
X035095Y018762D01*
X035095Y018648D01*
X035138Y018544D01*
X035152Y018530D01*
X035138Y018516D01*
X035138Y018515D02*
X034301Y018515D01*
X034142Y018357D02*
X035095Y018357D01*
X035095Y018412D02*
X035095Y018298D01*
X035138Y018194D01*
X035095Y018412D02*
X035138Y018516D01*
X035095Y018674D02*
X034459Y018674D01*
X034618Y018832D02*
X035124Y018832D01*
X034964Y019149D02*
X035565Y019149D01*
X035724Y018991D02*
X034776Y018991D01*
X035636Y018832D02*
X035882Y018832D01*
X038260Y016455D02*
X030419Y016455D01*
X030207Y016296D02*
X038418Y016296D01*
X038577Y016138D02*
X030366Y016138D01*
X030524Y015979D02*
X038735Y015979D01*
X038894Y015821D02*
X030683Y015821D01*
X030841Y015662D02*
X039052Y015662D01*
X039397Y016138D02*
X044029Y016138D01*
X043955Y016296D02*
X039238Y016296D01*
X039080Y016455D02*
X043940Y016455D01*
X043976Y016613D02*
X038921Y016613D01*
X038763Y016772D02*
X044079Y016772D01*
X044782Y017089D02*
X057609Y017089D01*
X057737Y017247D02*
X044885Y017247D01*
X044920Y017406D02*
X057865Y017406D01*
X057993Y017564D02*
X044905Y017564D01*
X044830Y017723D02*
X058122Y017723D01*
X058198Y017881D02*
X044620Y017881D01*
X044237Y015979D02*
X039555Y015979D01*
X040718Y015345D02*
X056199Y015345D01*
X056071Y015187D02*
X041008Y015187D01*
X041167Y015028D02*
X055943Y015028D01*
X055815Y014870D02*
X041261Y014870D01*
X041327Y014711D02*
X055687Y014711D01*
X055559Y014553D02*
X041364Y014553D01*
X041364Y014394D02*
X055430Y014394D01*
X055302Y014236D02*
X041363Y014236D01*
X041298Y014077D02*
X047247Y014077D01*
X047251Y014079D02*
X046921Y013942D01*
X046668Y013689D01*
X046531Y013359D01*
X046531Y013001D01*
X046668Y012671D01*
X046921Y012418D01*
X047251Y012281D01*
X047609Y012281D01*
X047939Y012418D01*
X048192Y012671D01*
X048329Y013001D01*
X048329Y013359D01*
X048192Y013689D01*
X047939Y013942D01*
X047609Y014079D01*
X047251Y014079D01*
X047613Y014077D02*
X055174Y014077D01*
X055046Y013919D02*
X047963Y013919D01*
X048121Y013760D02*
X054918Y013760D01*
X054790Y013602D02*
X048229Y013602D01*
X048294Y013443D02*
X054662Y013443D01*
X054533Y013285D02*
X048329Y013285D01*
X048329Y013126D02*
X054405Y013126D01*
X054277Y012968D02*
X048316Y012968D01*
X048250Y012809D02*
X054149Y012809D01*
X054021Y012651D02*
X048173Y012651D01*
X048014Y012492D02*
X053893Y012492D01*
X053765Y012334D02*
X047737Y012334D01*
X047123Y012334D02*
X039871Y012334D01*
X039982Y012492D02*
X046846Y012492D01*
X046687Y012651D02*
X040047Y012651D01*
X040093Y012809D02*
X046610Y012809D01*
X046544Y012968D02*
X040093Y012968D01*
X040093Y013126D02*
X046531Y013126D01*
X046531Y013285D02*
X040032Y013285D01*
X039966Y013443D02*
X046566Y013443D01*
X046631Y013602D02*
X040929Y013602D01*
X041096Y013760D02*
X046739Y013760D01*
X046897Y013919D02*
X041232Y013919D01*
X039858Y013602D02*
X039833Y013602D01*
X039692Y013760D02*
X039666Y013760D01*
X039713Y012175D02*
X053636Y012175D01*
X058722Y019308D02*
X047832Y019308D01*
X047990Y019466D02*
X058776Y019466D01*
X058830Y019625D02*
X048068Y019625D01*
X048114Y019783D02*
X058884Y019783D01*
X058938Y019942D02*
X048114Y019942D01*
X048075Y020100D02*
X058993Y020100D01*
X059047Y020259D02*
X048008Y020259D01*
X047850Y020417D02*
X059101Y020417D01*
X048532Y005043D02*
X044947Y005043D01*
X044681Y004884D02*
X048275Y004884D01*
X047985Y004726D02*
X044415Y004726D01*
X044149Y004567D02*
X047696Y004567D01*
X047406Y004409D02*
X043883Y004409D01*
X043617Y004250D02*
X047116Y004250D01*
X046826Y004092D02*
X043351Y004092D01*
X043085Y003933D02*
X046537Y003933D01*
X046214Y003775D02*
X042889Y003775D01*
X040850Y001714D02*
X030375Y001714D01*
X030216Y001556D02*
X040326Y001556D01*
X039642Y001397D02*
X030058Y001397D01*
X029899Y001239D02*
X038947Y001239D01*
X038253Y001080D02*
X029741Y001080D01*
X028013Y003141D02*
X036339Y003141D01*
X030559Y005360D02*
X025301Y005360D01*
X027205Y004705D02*
X027218Y004718D01*
X027355Y003655D02*
X027250Y003022D01*
X027579Y002190D02*
X027589Y002190D01*
X025970Y013602D02*
X036953Y013602D01*
X037431Y013602D02*
X037591Y013602D01*
X037591Y013760D02*
X037431Y013760D01*
X037431Y013919D02*
X037591Y013919D01*
X037591Y014077D02*
X037431Y014077D01*
X032846Y017881D02*
X026249Y017881D01*
X026111Y017881D02*
X025970Y017881D01*
X025390Y017881D02*
X020120Y017881D01*
X020330Y017723D02*
X025390Y017723D01*
X025390Y017564D02*
X020405Y017564D01*
X020420Y017406D02*
X025390Y017406D01*
X025390Y017247D02*
X020385Y017247D01*
X020282Y017089D02*
X025390Y017089D01*
X025390Y019308D02*
X017332Y019308D01*
X017490Y019466D02*
X025390Y019466D01*
X028781Y017723D02*
X032688Y017723D01*
X030233Y017089D02*
X029415Y017089D01*
X029573Y016930D02*
X029966Y016930D01*
X029848Y016772D02*
X029732Y016772D01*
X017498Y022002D02*
X016370Y022002D01*
X016518Y022161D02*
X017350Y022161D01*
X017284Y022319D02*
X016583Y022319D01*
X016614Y022478D02*
X017254Y022478D01*
X017254Y022636D02*
X016614Y022636D01*
X016560Y022795D02*
X017308Y022795D01*
X017397Y022953D02*
X016471Y022953D01*
X016302Y023112D02*
X017566Y023112D01*
X010225Y011858D02*
X007887Y011858D01*
X008018Y011700D02*
X010361Y011700D01*
X010497Y011541D02*
X008149Y011541D01*
X008280Y011383D02*
X010634Y011383D01*
X015661Y040706D02*
X004084Y040706D01*
X004139Y040864D02*
X015432Y040864D01*
X015318Y041023D02*
X004195Y041023D01*
X004250Y041181D02*
X015252Y041181D01*
X015246Y041340D02*
X004306Y041340D01*
X004361Y041498D02*
X015259Y041498D01*
X015325Y041657D02*
X004417Y041657D01*
X004472Y041815D02*
X015448Y041815D01*
X016404Y041815D02*
X017448Y041815D01*
X017325Y041657D02*
X016527Y041657D01*
X016593Y041498D02*
X017259Y041498D01*
X017246Y041340D02*
X016606Y041340D01*
X016600Y041181D02*
X017252Y041181D01*
X017318Y041023D02*
X016534Y041023D01*
X016420Y040864D02*
X017432Y040864D01*
X017661Y040706D02*
X016192Y040706D01*
X033131Y042446D02*
X033131Y042446D01*
X043120Y041815D02*
X045948Y041815D01*
X045825Y041657D02*
X043120Y041657D01*
X043120Y041498D02*
X045759Y041498D01*
X045746Y041340D02*
X043120Y041340D01*
X043120Y041181D02*
X045752Y041181D01*
X045818Y041023D02*
X043120Y041023D01*
X043120Y040864D02*
X045932Y040864D01*
X046161Y040706D02*
X043120Y040706D01*
X046692Y040706D02*
X048161Y040706D01*
X047932Y040864D02*
X046920Y040864D01*
X047034Y041023D02*
X047818Y041023D01*
X047752Y041181D02*
X047100Y041181D01*
X047106Y041340D02*
X047746Y041340D01*
X047759Y041498D02*
X047093Y041498D01*
X047027Y041657D02*
X047825Y041657D01*
X047948Y041815D02*
X046904Y041815D01*
D25*
X057930Y047555D03*
X051305Y055305D03*
X042305Y060430D03*
X035555Y052305D03*
X031930Y050805D03*
X030805Y050680D03*
X029930Y050555D03*
X031055Y047430D03*
X031355Y047105D03*
X031680Y046780D03*
X032930Y057930D03*
X030430Y058430D03*
X031805Y062205D03*
X032180Y063555D03*
X021755Y060355D03*
X012580Y054980D03*
X006055Y049305D03*
X005955Y046930D03*
X002455Y036930D03*
X002580Y026830D03*
X006230Y016955D03*
X013230Y008805D03*
X022430Y003730D03*
X025180Y005055D03*
X027205Y004705D03*
X030680Y005055D03*
X032505Y002130D03*
X042680Y004030D03*
X051830Y009480D03*
X056055Y016055D03*
X058480Y017705D03*
X061805Y027430D03*
X061630Y037905D03*
X040430Y016955D03*
X037305Y016930D03*
X036930Y017305D03*
X036555Y017680D03*
X035930Y017055D03*
X036305Y016680D03*
X036680Y016305D03*
X034820Y019445D03*
X034820Y020445D03*
X036680Y020555D03*
X036680Y020055D03*
X037180Y020055D03*
X037180Y020555D03*
X032680Y015930D03*
X031680Y015930D03*
X030155Y016655D03*
X029930Y018305D03*
X026180Y017555D03*
X032180Y014055D03*
D26*
X028680Y017555D01*
X026180Y017555D01*
X028345Y019265D02*
X028680Y018930D01*
X029055Y018805D02*
X029055Y019430D01*
X028180Y020305D01*
X021305Y027180D01*
X021305Y037055D01*
X031355Y047105D01*
X031055Y047430D02*
X030930Y047305D01*
X031055Y047430D01*
X030930Y047305D02*
X021055Y037430D01*
X021055Y026555D01*
X028345Y019265D01*
X029055Y018805D02*
X028680Y018430D01*
X034820Y020445D02*
X034835Y020430D01*
X035805Y020430D01*
X037680Y022305D01*
X042930Y027555D01*
X042930Y044930D01*
X035555Y052305D01*
X035555Y050430D02*
X031055Y050430D01*
X030805Y050680D01*
X035555Y050430D02*
X036430Y049555D01*
X036430Y048930D01*
X032930Y058430D02*
X030430Y058430D01*
X030680Y005055D02*
X025180Y005055D01*
D27*
X025680Y006980D02*
X025680Y019430D01*
X030155Y016655D02*
X030305Y016805D01*
X032180Y016805D01*
X034820Y019445D01*
X035680Y019445D01*
X040394Y014731D01*
X040394Y014430D01*
X042680Y004030D02*
X032505Y002130D01*
X030380Y002130D01*
X029180Y000930D01*
X024105Y001855D01*
X024080Y001855D01*
X022555Y003380D01*
X022555Y003555D01*
X022430Y003680D01*
X022430Y003730D02*
X013230Y008805D01*
X006230Y016955D01*
X002580Y026830D01*
X002455Y036930D01*
X005955Y046930D01*
X012580Y054980D01*
X021755Y060355D01*
X031805Y062205D01*
X042305Y060430D01*
X045180Y060430D01*
X050180Y057680D01*
X051305Y056555D01*
X051305Y055305D01*
X057930Y047555D01*
X061630Y037905D01*
X061805Y027430D01*
X058480Y017705D01*
X051830Y009480D01*
X042680Y004030D01*
X051805Y009430D02*
X051830Y009480D01*
X027355Y004580D02*
X027355Y003655D01*
X027355Y004580D02*
X027218Y004718D01*
D28*
X025680Y006980D02*
X022430Y003730D01*
M02*
