G75*
%MOIN*%
%OFA0B0*%
%FSLAX24Y24*%
%IPPOS*%
%LPD*%
%AMOC8*
5,1,8,0,0,1.08239X$1,22.5*
%
%ADD10C,0.0160*%
%ADD11C,0.0000*%
D10*
X022180Y032180D02*
X022183Y032425D01*
X022192Y032671D01*
X022207Y032916D01*
X022228Y033160D01*
X022255Y033404D01*
X022288Y033647D01*
X022327Y033890D01*
X022372Y034131D01*
X022423Y034371D01*
X022480Y034610D01*
X022542Y034847D01*
X022611Y035083D01*
X022685Y035317D01*
X022765Y035549D01*
X022850Y035779D01*
X022941Y036007D01*
X023038Y036232D01*
X023140Y036456D01*
X023248Y036676D01*
X023361Y036894D01*
X023479Y037109D01*
X023603Y037321D01*
X023731Y037530D01*
X023865Y037736D01*
X024004Y037938D01*
X024148Y038137D01*
X024297Y038332D01*
X024450Y038524D01*
X024608Y038712D01*
X024770Y038896D01*
X024938Y039075D01*
X025109Y039251D01*
X025285Y039422D01*
X025464Y039590D01*
X025648Y039752D01*
X025836Y039910D01*
X026028Y040063D01*
X026223Y040212D01*
X026422Y040356D01*
X026624Y040495D01*
X026830Y040629D01*
X027039Y040757D01*
X027251Y040881D01*
X027466Y040999D01*
X027684Y041112D01*
X027904Y041220D01*
X028128Y041322D01*
X028353Y041419D01*
X028581Y041510D01*
X028811Y041595D01*
X029043Y041675D01*
X029277Y041749D01*
X029513Y041818D01*
X029750Y041880D01*
X029989Y041937D01*
X030229Y041988D01*
X030470Y042033D01*
X030713Y042072D01*
X030956Y042105D01*
X031200Y042132D01*
X031444Y042153D01*
X031689Y042168D01*
X031935Y042177D01*
X032180Y042180D01*
X032425Y042177D01*
X032671Y042168D01*
X032916Y042153D01*
X033160Y042132D01*
X033404Y042105D01*
X033647Y042072D01*
X033890Y042033D01*
X034131Y041988D01*
X034371Y041937D01*
X034610Y041880D01*
X034847Y041818D01*
X035083Y041749D01*
X035317Y041675D01*
X035549Y041595D01*
X035779Y041510D01*
X036007Y041419D01*
X036232Y041322D01*
X036456Y041220D01*
X036676Y041112D01*
X036894Y040999D01*
X037109Y040881D01*
X037321Y040757D01*
X037530Y040629D01*
X037736Y040495D01*
X037938Y040356D01*
X038137Y040212D01*
X038332Y040063D01*
X038524Y039910D01*
X038712Y039752D01*
X038896Y039590D01*
X039075Y039422D01*
X039251Y039251D01*
X039422Y039075D01*
X039590Y038896D01*
X039752Y038712D01*
X039910Y038524D01*
X040063Y038332D01*
X040212Y038137D01*
X040356Y037938D01*
X040495Y037736D01*
X040629Y037530D01*
X040757Y037321D01*
X040881Y037109D01*
X040999Y036894D01*
X041112Y036676D01*
X041220Y036456D01*
X041322Y036232D01*
X041419Y036007D01*
X041510Y035779D01*
X041595Y035549D01*
X041675Y035317D01*
X041749Y035083D01*
X041818Y034847D01*
X041880Y034610D01*
X041937Y034371D01*
X041988Y034131D01*
X042033Y033890D01*
X042072Y033647D01*
X042105Y033404D01*
X042132Y033160D01*
X042153Y032916D01*
X042168Y032671D01*
X042177Y032425D01*
X042180Y032180D01*
X042177Y031935D01*
X042168Y031689D01*
X042153Y031444D01*
X042132Y031200D01*
X042105Y030956D01*
X042072Y030713D01*
X042033Y030470D01*
X041988Y030229D01*
X041937Y029989D01*
X041880Y029750D01*
X041818Y029513D01*
X041749Y029277D01*
X041675Y029043D01*
X041595Y028811D01*
X041510Y028581D01*
X041419Y028353D01*
X041322Y028128D01*
X041220Y027904D01*
X041112Y027684D01*
X040999Y027466D01*
X040881Y027251D01*
X040757Y027039D01*
X040629Y026830D01*
X040495Y026624D01*
X040356Y026422D01*
X040212Y026223D01*
X040063Y026028D01*
X039910Y025836D01*
X039752Y025648D01*
X039590Y025464D01*
X039422Y025285D01*
X039251Y025109D01*
X039075Y024938D01*
X038896Y024770D01*
X038712Y024608D01*
X038524Y024450D01*
X038332Y024297D01*
X038137Y024148D01*
X037938Y024004D01*
X037736Y023865D01*
X037530Y023731D01*
X037321Y023603D01*
X037109Y023479D01*
X036894Y023361D01*
X036676Y023248D01*
X036456Y023140D01*
X036232Y023038D01*
X036007Y022941D01*
X035779Y022850D01*
X035549Y022765D01*
X035317Y022685D01*
X035083Y022611D01*
X034847Y022542D01*
X034610Y022480D01*
X034371Y022423D01*
X034131Y022372D01*
X033890Y022327D01*
X033647Y022288D01*
X033404Y022255D01*
X033160Y022228D01*
X032916Y022207D01*
X032671Y022192D01*
X032425Y022183D01*
X032180Y022180D01*
X031935Y022183D01*
X031689Y022192D01*
X031444Y022207D01*
X031200Y022228D01*
X030956Y022255D01*
X030713Y022288D01*
X030470Y022327D01*
X030229Y022372D01*
X029989Y022423D01*
X029750Y022480D01*
X029513Y022542D01*
X029277Y022611D01*
X029043Y022685D01*
X028811Y022765D01*
X028581Y022850D01*
X028353Y022941D01*
X028128Y023038D01*
X027904Y023140D01*
X027684Y023248D01*
X027466Y023361D01*
X027251Y023479D01*
X027039Y023603D01*
X026830Y023731D01*
X026624Y023865D01*
X026422Y024004D01*
X026223Y024148D01*
X026028Y024297D01*
X025836Y024450D01*
X025648Y024608D01*
X025464Y024770D01*
X025285Y024938D01*
X025109Y025109D01*
X024938Y025285D01*
X024770Y025464D01*
X024608Y025648D01*
X024450Y025836D01*
X024297Y026028D01*
X024148Y026223D01*
X024004Y026422D01*
X023865Y026624D01*
X023731Y026830D01*
X023603Y027039D01*
X023479Y027251D01*
X023361Y027466D01*
X023248Y027684D01*
X023140Y027904D01*
X023038Y028128D01*
X022941Y028353D01*
X022850Y028581D01*
X022765Y028811D01*
X022685Y029043D01*
X022611Y029277D01*
X022542Y029513D01*
X022480Y029750D01*
X022423Y029989D01*
X022372Y030229D01*
X022327Y030470D01*
X022288Y030713D01*
X022255Y030956D01*
X022228Y031200D01*
X022207Y031444D01*
X022192Y031689D01*
X022183Y031935D01*
X022180Y032180D01*
X000180Y032180D02*
X000190Y032965D01*
X000219Y033750D01*
X000267Y034534D01*
X000334Y035317D01*
X000421Y036097D01*
X000526Y036875D01*
X000651Y037651D01*
X000795Y038423D01*
X000958Y039191D01*
X001139Y039955D01*
X001339Y040715D01*
X001558Y041469D01*
X001795Y042218D01*
X002051Y042960D01*
X002324Y043697D01*
X002616Y044426D01*
X002925Y045148D01*
X003252Y045862D01*
X003597Y046568D01*
X003959Y047265D01*
X004337Y047953D01*
X004733Y048631D01*
X005145Y049300D01*
X005573Y049958D01*
X006017Y050606D01*
X006477Y051242D01*
X006953Y051867D01*
X007444Y052481D01*
X007949Y053082D01*
X008470Y053670D01*
X009004Y054245D01*
X009553Y054807D01*
X010115Y055356D01*
X010690Y055890D01*
X011278Y056411D01*
X011879Y056916D01*
X012493Y057407D01*
X013118Y057883D01*
X013754Y058343D01*
X014402Y058787D01*
X015060Y059215D01*
X015729Y059627D01*
X016407Y060023D01*
X017095Y060401D01*
X017792Y060763D01*
X018498Y061108D01*
X019212Y061435D01*
X019934Y061744D01*
X020663Y062036D01*
X021400Y062309D01*
X022142Y062565D01*
X022891Y062802D01*
X023645Y063021D01*
X024405Y063221D01*
X025169Y063402D01*
X025937Y063565D01*
X026709Y063709D01*
X027485Y063834D01*
X028263Y063939D01*
X029043Y064026D01*
X029826Y064093D01*
X030610Y064141D01*
X031395Y064170D01*
X032180Y064180D01*
X032965Y064170D01*
X033750Y064141D01*
X034534Y064093D01*
X035317Y064026D01*
X036097Y063939D01*
X036875Y063834D01*
X037651Y063709D01*
X038423Y063565D01*
X039191Y063402D01*
X039955Y063221D01*
X040715Y063021D01*
X041469Y062802D01*
X042218Y062565D01*
X042960Y062309D01*
X043697Y062036D01*
X044426Y061744D01*
X045148Y061435D01*
X045862Y061108D01*
X046568Y060763D01*
X047265Y060401D01*
X047953Y060023D01*
X048631Y059627D01*
X049300Y059215D01*
X049958Y058787D01*
X050606Y058343D01*
X051242Y057883D01*
X051867Y057407D01*
X052481Y056916D01*
X053082Y056411D01*
X053670Y055890D01*
X054245Y055356D01*
X054807Y054807D01*
X055356Y054245D01*
X055890Y053670D01*
X056411Y053082D01*
X056916Y052481D01*
X057407Y051867D01*
X057883Y051242D01*
X058343Y050606D01*
X058787Y049958D01*
X059215Y049300D01*
X059627Y048631D01*
X060023Y047953D01*
X060401Y047265D01*
X060763Y046568D01*
X061108Y045862D01*
X061435Y045148D01*
X061744Y044426D01*
X062036Y043697D01*
X062309Y042960D01*
X062565Y042218D01*
X062802Y041469D01*
X063021Y040715D01*
X063221Y039955D01*
X063402Y039191D01*
X063565Y038423D01*
X063709Y037651D01*
X063834Y036875D01*
X063939Y036097D01*
X064026Y035317D01*
X064093Y034534D01*
X064141Y033750D01*
X064170Y032965D01*
X064180Y032180D01*
X064170Y031395D01*
X064141Y030610D01*
X064093Y029826D01*
X064026Y029043D01*
X063939Y028263D01*
X063834Y027485D01*
X063709Y026709D01*
X063565Y025937D01*
X063402Y025169D01*
X063221Y024405D01*
X063021Y023645D01*
X062802Y022891D01*
X062565Y022142D01*
X062309Y021400D01*
X062036Y020663D01*
X061744Y019934D01*
X061435Y019212D01*
X061108Y018498D01*
X060763Y017792D01*
X060401Y017095D01*
X060023Y016407D01*
X059627Y015729D01*
X059215Y015060D01*
X058787Y014402D01*
X058343Y013754D01*
X057883Y013118D01*
X057407Y012493D01*
X056916Y011879D01*
X056411Y011278D01*
X055890Y010690D01*
X055356Y010115D01*
X054807Y009553D01*
X054245Y009004D01*
X053670Y008470D01*
X053082Y007949D01*
X052481Y007444D01*
X051867Y006953D01*
X051242Y006477D01*
X050606Y006017D01*
X049958Y005573D01*
X049300Y005145D01*
X048631Y004733D01*
X047953Y004337D01*
X047265Y003959D01*
X046568Y003597D01*
X045862Y003252D01*
X045148Y002925D01*
X044426Y002616D01*
X043697Y002324D01*
X042960Y002051D01*
X042218Y001795D01*
X041469Y001558D01*
X040715Y001339D01*
X039955Y001139D01*
X039191Y000958D01*
X038423Y000795D01*
X037651Y000651D01*
X036875Y000526D01*
X036097Y000421D01*
X035317Y000334D01*
X034534Y000267D01*
X033750Y000219D01*
X032965Y000190D01*
X032180Y000180D01*
X031395Y000190D01*
X030610Y000219D01*
X029826Y000267D01*
X029043Y000334D01*
X028263Y000421D01*
X027485Y000526D01*
X026709Y000651D01*
X025937Y000795D01*
X025169Y000958D01*
X024405Y001139D01*
X023645Y001339D01*
X022891Y001558D01*
X022142Y001795D01*
X021400Y002051D01*
X020663Y002324D01*
X019934Y002616D01*
X019212Y002925D01*
X018498Y003252D01*
X017792Y003597D01*
X017095Y003959D01*
X016407Y004337D01*
X015729Y004733D01*
X015060Y005145D01*
X014402Y005573D01*
X013754Y006017D01*
X013118Y006477D01*
X012493Y006953D01*
X011879Y007444D01*
X011278Y007949D01*
X010690Y008470D01*
X010115Y009004D01*
X009553Y009553D01*
X009004Y010115D01*
X008470Y010690D01*
X007949Y011278D01*
X007444Y011879D01*
X006953Y012493D01*
X006477Y013118D01*
X006017Y013754D01*
X005573Y014402D01*
X005145Y015060D01*
X004733Y015729D01*
X004337Y016407D01*
X003959Y017095D01*
X003597Y017792D01*
X003252Y018498D01*
X002925Y019212D01*
X002616Y019934D01*
X002324Y020663D01*
X002051Y021400D01*
X001795Y022142D01*
X001558Y022891D01*
X001339Y023645D01*
X001139Y024405D01*
X000958Y025169D01*
X000795Y025937D01*
X000651Y026709D01*
X000526Y027485D01*
X000421Y028263D01*
X000334Y029043D01*
X000267Y029826D01*
X000219Y030610D01*
X000190Y031395D01*
X000180Y032180D01*
D11*
X016261Y013180D02*
X016263Y013231D01*
X016269Y013282D01*
X016279Y013332D01*
X016292Y013382D01*
X016310Y013430D01*
X016330Y013477D01*
X016355Y013522D01*
X016383Y013565D01*
X016414Y013606D01*
X016448Y013644D01*
X016485Y013679D01*
X016524Y013712D01*
X016566Y013742D01*
X016610Y013768D01*
X016656Y013790D01*
X016704Y013810D01*
X016753Y013825D01*
X016803Y013837D01*
X016853Y013845D01*
X016904Y013849D01*
X016956Y013849D01*
X017007Y013845D01*
X017057Y013837D01*
X017107Y013825D01*
X017156Y013810D01*
X017204Y013790D01*
X017250Y013768D01*
X017294Y013742D01*
X017336Y013712D01*
X017375Y013679D01*
X017412Y013644D01*
X017446Y013606D01*
X017477Y013565D01*
X017505Y013522D01*
X017530Y013477D01*
X017550Y013430D01*
X017568Y013382D01*
X017581Y013332D01*
X017591Y013282D01*
X017597Y013231D01*
X017599Y013180D01*
X017597Y013129D01*
X017591Y013078D01*
X017581Y013028D01*
X017568Y012978D01*
X017550Y012930D01*
X017530Y012883D01*
X017505Y012838D01*
X017477Y012795D01*
X017446Y012754D01*
X017412Y012716D01*
X017375Y012681D01*
X017336Y012648D01*
X017294Y012618D01*
X017250Y012592D01*
X017204Y012570D01*
X017156Y012550D01*
X017107Y012535D01*
X017057Y012523D01*
X017007Y012515D01*
X016956Y012511D01*
X016904Y012511D01*
X016853Y012515D01*
X016803Y012523D01*
X016753Y012535D01*
X016704Y012550D01*
X016656Y012570D01*
X016610Y012592D01*
X016566Y012618D01*
X016524Y012648D01*
X016485Y012681D01*
X016448Y012716D01*
X016414Y012754D01*
X016383Y012795D01*
X016355Y012838D01*
X016330Y012883D01*
X016310Y012930D01*
X016292Y012978D01*
X016279Y013028D01*
X016269Y013078D01*
X016263Y013129D01*
X016261Y013180D01*
X046761Y013180D02*
X046763Y013231D01*
X046769Y013282D01*
X046779Y013332D01*
X046792Y013382D01*
X046810Y013430D01*
X046830Y013477D01*
X046855Y013522D01*
X046883Y013565D01*
X046914Y013606D01*
X046948Y013644D01*
X046985Y013679D01*
X047024Y013712D01*
X047066Y013742D01*
X047110Y013768D01*
X047156Y013790D01*
X047204Y013810D01*
X047253Y013825D01*
X047303Y013837D01*
X047353Y013845D01*
X047404Y013849D01*
X047456Y013849D01*
X047507Y013845D01*
X047557Y013837D01*
X047607Y013825D01*
X047656Y013810D01*
X047704Y013790D01*
X047750Y013768D01*
X047794Y013742D01*
X047836Y013712D01*
X047875Y013679D01*
X047912Y013644D01*
X047946Y013606D01*
X047977Y013565D01*
X048005Y013522D01*
X048030Y013477D01*
X048050Y013430D01*
X048068Y013382D01*
X048081Y013332D01*
X048091Y013282D01*
X048097Y013231D01*
X048099Y013180D01*
X048097Y013129D01*
X048091Y013078D01*
X048081Y013028D01*
X048068Y012978D01*
X048050Y012930D01*
X048030Y012883D01*
X048005Y012838D01*
X047977Y012795D01*
X047946Y012754D01*
X047912Y012716D01*
X047875Y012681D01*
X047836Y012648D01*
X047794Y012618D01*
X047750Y012592D01*
X047704Y012570D01*
X047656Y012550D01*
X047607Y012535D01*
X047557Y012523D01*
X047507Y012515D01*
X047456Y012511D01*
X047404Y012511D01*
X047353Y012515D01*
X047303Y012523D01*
X047253Y012535D01*
X047204Y012550D01*
X047156Y012570D01*
X047110Y012592D01*
X047066Y012618D01*
X047024Y012648D01*
X046985Y012681D01*
X046948Y012716D01*
X046914Y012754D01*
X046883Y012795D01*
X046855Y012838D01*
X046830Y012883D01*
X046810Y012930D01*
X046792Y012978D01*
X046779Y013028D01*
X046769Y013078D01*
X046763Y013129D01*
X046761Y013180D01*
X046761Y051430D02*
X046763Y051481D01*
X046769Y051532D01*
X046779Y051582D01*
X046792Y051632D01*
X046810Y051680D01*
X046830Y051727D01*
X046855Y051772D01*
X046883Y051815D01*
X046914Y051856D01*
X046948Y051894D01*
X046985Y051929D01*
X047024Y051962D01*
X047066Y051992D01*
X047110Y052018D01*
X047156Y052040D01*
X047204Y052060D01*
X047253Y052075D01*
X047303Y052087D01*
X047353Y052095D01*
X047404Y052099D01*
X047456Y052099D01*
X047507Y052095D01*
X047557Y052087D01*
X047607Y052075D01*
X047656Y052060D01*
X047704Y052040D01*
X047750Y052018D01*
X047794Y051992D01*
X047836Y051962D01*
X047875Y051929D01*
X047912Y051894D01*
X047946Y051856D01*
X047977Y051815D01*
X048005Y051772D01*
X048030Y051727D01*
X048050Y051680D01*
X048068Y051632D01*
X048081Y051582D01*
X048091Y051532D01*
X048097Y051481D01*
X048099Y051430D01*
X048097Y051379D01*
X048091Y051328D01*
X048081Y051278D01*
X048068Y051228D01*
X048050Y051180D01*
X048030Y051133D01*
X048005Y051088D01*
X047977Y051045D01*
X047946Y051004D01*
X047912Y050966D01*
X047875Y050931D01*
X047836Y050898D01*
X047794Y050868D01*
X047750Y050842D01*
X047704Y050820D01*
X047656Y050800D01*
X047607Y050785D01*
X047557Y050773D01*
X047507Y050765D01*
X047456Y050761D01*
X047404Y050761D01*
X047353Y050765D01*
X047303Y050773D01*
X047253Y050785D01*
X047204Y050800D01*
X047156Y050820D01*
X047110Y050842D01*
X047066Y050868D01*
X047024Y050898D01*
X046985Y050931D01*
X046948Y050966D01*
X046914Y051004D01*
X046883Y051045D01*
X046855Y051088D01*
X046830Y051133D01*
X046810Y051180D01*
X046792Y051228D01*
X046779Y051278D01*
X046769Y051328D01*
X046763Y051379D01*
X046761Y051430D01*
X016261Y051430D02*
X016263Y051481D01*
X016269Y051532D01*
X016279Y051582D01*
X016292Y051632D01*
X016310Y051680D01*
X016330Y051727D01*
X016355Y051772D01*
X016383Y051815D01*
X016414Y051856D01*
X016448Y051894D01*
X016485Y051929D01*
X016524Y051962D01*
X016566Y051992D01*
X016610Y052018D01*
X016656Y052040D01*
X016704Y052060D01*
X016753Y052075D01*
X016803Y052087D01*
X016853Y052095D01*
X016904Y052099D01*
X016956Y052099D01*
X017007Y052095D01*
X017057Y052087D01*
X017107Y052075D01*
X017156Y052060D01*
X017204Y052040D01*
X017250Y052018D01*
X017294Y051992D01*
X017336Y051962D01*
X017375Y051929D01*
X017412Y051894D01*
X017446Y051856D01*
X017477Y051815D01*
X017505Y051772D01*
X017530Y051727D01*
X017550Y051680D01*
X017568Y051632D01*
X017581Y051582D01*
X017591Y051532D01*
X017597Y051481D01*
X017599Y051430D01*
X017597Y051379D01*
X017591Y051328D01*
X017581Y051278D01*
X017568Y051228D01*
X017550Y051180D01*
X017530Y051133D01*
X017505Y051088D01*
X017477Y051045D01*
X017446Y051004D01*
X017412Y050966D01*
X017375Y050931D01*
X017336Y050898D01*
X017294Y050868D01*
X017250Y050842D01*
X017204Y050820D01*
X017156Y050800D01*
X017107Y050785D01*
X017057Y050773D01*
X017007Y050765D01*
X016956Y050761D01*
X016904Y050761D01*
X016853Y050765D01*
X016803Y050773D01*
X016753Y050785D01*
X016704Y050800D01*
X016656Y050820D01*
X016610Y050842D01*
X016566Y050868D01*
X016524Y050898D01*
X016485Y050931D01*
X016448Y050966D01*
X016414Y051004D01*
X016383Y051045D01*
X016355Y051088D01*
X016330Y051133D01*
X016310Y051180D01*
X016292Y051228D01*
X016279Y051278D01*
X016269Y051328D01*
X016263Y051379D01*
X016261Y051430D01*
M02*
