G75*
%MOIN*%
%OFA0B0*%
%FSLAX24Y24*%
%IPPOS*%
%LPD*%
%AMOC8*
5,1,8,0,0,1.08239X$1,22.5*
%
%ADD10C,0.0160*%
%ADD11C,0.0000*%
%ADD12C,0.0060*%
%ADD13R,1.0000X0.5000*%
%ADD14C,0.0080*%
%ADD15C,0.0059*%
%ADD16C,0.0050*%
D10*
X022180Y032180D02*
X022183Y032425D01*
X022192Y032671D01*
X022207Y032916D01*
X022228Y033160D01*
X022255Y033404D01*
X022288Y033647D01*
X022327Y033890D01*
X022372Y034131D01*
X022423Y034371D01*
X022480Y034610D01*
X022542Y034847D01*
X022611Y035083D01*
X022685Y035317D01*
X022765Y035549D01*
X022850Y035779D01*
X022941Y036007D01*
X023038Y036232D01*
X023140Y036456D01*
X023248Y036676D01*
X023361Y036894D01*
X023479Y037109D01*
X023603Y037321D01*
X023731Y037530D01*
X023865Y037736D01*
X024004Y037938D01*
X024148Y038137D01*
X024297Y038332D01*
X024450Y038524D01*
X024608Y038712D01*
X024770Y038896D01*
X024938Y039075D01*
X025109Y039251D01*
X025285Y039422D01*
X025464Y039590D01*
X025648Y039752D01*
X025836Y039910D01*
X026028Y040063D01*
X026223Y040212D01*
X026422Y040356D01*
X026624Y040495D01*
X026830Y040629D01*
X027039Y040757D01*
X027251Y040881D01*
X027466Y040999D01*
X027684Y041112D01*
X027904Y041220D01*
X028128Y041322D01*
X028353Y041419D01*
X028581Y041510D01*
X028811Y041595D01*
X029043Y041675D01*
X029277Y041749D01*
X029513Y041818D01*
X029750Y041880D01*
X029989Y041937D01*
X030229Y041988D01*
X030470Y042033D01*
X030713Y042072D01*
X030956Y042105D01*
X031200Y042132D01*
X031444Y042153D01*
X031689Y042168D01*
X031935Y042177D01*
X032180Y042180D01*
X032425Y042177D01*
X032671Y042168D01*
X032916Y042153D01*
X033160Y042132D01*
X033404Y042105D01*
X033647Y042072D01*
X033890Y042033D01*
X034131Y041988D01*
X034371Y041937D01*
X034610Y041880D01*
X034847Y041818D01*
X035083Y041749D01*
X035317Y041675D01*
X035549Y041595D01*
X035779Y041510D01*
X036007Y041419D01*
X036232Y041322D01*
X036456Y041220D01*
X036676Y041112D01*
X036894Y040999D01*
X037109Y040881D01*
X037321Y040757D01*
X037530Y040629D01*
X037736Y040495D01*
X037938Y040356D01*
X038137Y040212D01*
X038332Y040063D01*
X038524Y039910D01*
X038712Y039752D01*
X038896Y039590D01*
X039075Y039422D01*
X039251Y039251D01*
X039422Y039075D01*
X039590Y038896D01*
X039752Y038712D01*
X039910Y038524D01*
X040063Y038332D01*
X040212Y038137D01*
X040356Y037938D01*
X040495Y037736D01*
X040629Y037530D01*
X040757Y037321D01*
X040881Y037109D01*
X040999Y036894D01*
X041112Y036676D01*
X041220Y036456D01*
X041322Y036232D01*
X041419Y036007D01*
X041510Y035779D01*
X041595Y035549D01*
X041675Y035317D01*
X041749Y035083D01*
X041818Y034847D01*
X041880Y034610D01*
X041937Y034371D01*
X041988Y034131D01*
X042033Y033890D01*
X042072Y033647D01*
X042105Y033404D01*
X042132Y033160D01*
X042153Y032916D01*
X042168Y032671D01*
X042177Y032425D01*
X042180Y032180D01*
X042177Y031935D01*
X042168Y031689D01*
X042153Y031444D01*
X042132Y031200D01*
X042105Y030956D01*
X042072Y030713D01*
X042033Y030470D01*
X041988Y030229D01*
X041937Y029989D01*
X041880Y029750D01*
X041818Y029513D01*
X041749Y029277D01*
X041675Y029043D01*
X041595Y028811D01*
X041510Y028581D01*
X041419Y028353D01*
X041322Y028128D01*
X041220Y027904D01*
X041112Y027684D01*
X040999Y027466D01*
X040881Y027251D01*
X040757Y027039D01*
X040629Y026830D01*
X040495Y026624D01*
X040356Y026422D01*
X040212Y026223D01*
X040063Y026028D01*
X039910Y025836D01*
X039752Y025648D01*
X039590Y025464D01*
X039422Y025285D01*
X039251Y025109D01*
X039075Y024938D01*
X038896Y024770D01*
X038712Y024608D01*
X038524Y024450D01*
X038332Y024297D01*
X038137Y024148D01*
X037938Y024004D01*
X037736Y023865D01*
X037530Y023731D01*
X037321Y023603D01*
X037109Y023479D01*
X036894Y023361D01*
X036676Y023248D01*
X036456Y023140D01*
X036232Y023038D01*
X036007Y022941D01*
X035779Y022850D01*
X035549Y022765D01*
X035317Y022685D01*
X035083Y022611D01*
X034847Y022542D01*
X034610Y022480D01*
X034371Y022423D01*
X034131Y022372D01*
X033890Y022327D01*
X033647Y022288D01*
X033404Y022255D01*
X033160Y022228D01*
X032916Y022207D01*
X032671Y022192D01*
X032425Y022183D01*
X032180Y022180D01*
X031935Y022183D01*
X031689Y022192D01*
X031444Y022207D01*
X031200Y022228D01*
X030956Y022255D01*
X030713Y022288D01*
X030470Y022327D01*
X030229Y022372D01*
X029989Y022423D01*
X029750Y022480D01*
X029513Y022542D01*
X029277Y022611D01*
X029043Y022685D01*
X028811Y022765D01*
X028581Y022850D01*
X028353Y022941D01*
X028128Y023038D01*
X027904Y023140D01*
X027684Y023248D01*
X027466Y023361D01*
X027251Y023479D01*
X027039Y023603D01*
X026830Y023731D01*
X026624Y023865D01*
X026422Y024004D01*
X026223Y024148D01*
X026028Y024297D01*
X025836Y024450D01*
X025648Y024608D01*
X025464Y024770D01*
X025285Y024938D01*
X025109Y025109D01*
X024938Y025285D01*
X024770Y025464D01*
X024608Y025648D01*
X024450Y025836D01*
X024297Y026028D01*
X024148Y026223D01*
X024004Y026422D01*
X023865Y026624D01*
X023731Y026830D01*
X023603Y027039D01*
X023479Y027251D01*
X023361Y027466D01*
X023248Y027684D01*
X023140Y027904D01*
X023038Y028128D01*
X022941Y028353D01*
X022850Y028581D01*
X022765Y028811D01*
X022685Y029043D01*
X022611Y029277D01*
X022542Y029513D01*
X022480Y029750D01*
X022423Y029989D01*
X022372Y030229D01*
X022327Y030470D01*
X022288Y030713D01*
X022255Y030956D01*
X022228Y031200D01*
X022207Y031444D01*
X022192Y031689D01*
X022183Y031935D01*
X022180Y032180D01*
X000180Y032180D02*
X000190Y032965D01*
X000219Y033750D01*
X000267Y034534D01*
X000334Y035317D01*
X000421Y036097D01*
X000526Y036875D01*
X000651Y037651D01*
X000795Y038423D01*
X000958Y039191D01*
X001139Y039955D01*
X001339Y040715D01*
X001558Y041469D01*
X001795Y042218D01*
X002051Y042960D01*
X002324Y043697D01*
X002616Y044426D01*
X002925Y045148D01*
X003252Y045862D01*
X003597Y046568D01*
X003959Y047265D01*
X004337Y047953D01*
X004733Y048631D01*
X005145Y049300D01*
X005573Y049958D01*
X006017Y050606D01*
X006477Y051242D01*
X006953Y051867D01*
X007444Y052481D01*
X007949Y053082D01*
X008470Y053670D01*
X009004Y054245D01*
X009553Y054807D01*
X010115Y055356D01*
X010690Y055890D01*
X011278Y056411D01*
X011879Y056916D01*
X012493Y057407D01*
X013118Y057883D01*
X013754Y058343D01*
X014402Y058787D01*
X015060Y059215D01*
X015729Y059627D01*
X016407Y060023D01*
X017095Y060401D01*
X017792Y060763D01*
X018498Y061108D01*
X019212Y061435D01*
X019934Y061744D01*
X020663Y062036D01*
X021400Y062309D01*
X022142Y062565D01*
X022891Y062802D01*
X023645Y063021D01*
X024405Y063221D01*
X025169Y063402D01*
X025937Y063565D01*
X026709Y063709D01*
X027485Y063834D01*
X028263Y063939D01*
X029043Y064026D01*
X029826Y064093D01*
X030610Y064141D01*
X031395Y064170D01*
X032180Y064180D01*
X032965Y064170D01*
X033750Y064141D01*
X034534Y064093D01*
X035317Y064026D01*
X036097Y063939D01*
X036875Y063834D01*
X037651Y063709D01*
X038423Y063565D01*
X039191Y063402D01*
X039955Y063221D01*
X040715Y063021D01*
X041469Y062802D01*
X042218Y062565D01*
X042960Y062309D01*
X043697Y062036D01*
X044426Y061744D01*
X045148Y061435D01*
X045862Y061108D01*
X046568Y060763D01*
X047265Y060401D01*
X047953Y060023D01*
X048631Y059627D01*
X049300Y059215D01*
X049958Y058787D01*
X050606Y058343D01*
X051242Y057883D01*
X051867Y057407D01*
X052481Y056916D01*
X053082Y056411D01*
X053670Y055890D01*
X054245Y055356D01*
X054807Y054807D01*
X055356Y054245D01*
X055890Y053670D01*
X056411Y053082D01*
X056916Y052481D01*
X057407Y051867D01*
X057883Y051242D01*
X058343Y050606D01*
X058787Y049958D01*
X059215Y049300D01*
X059627Y048631D01*
X060023Y047953D01*
X060401Y047265D01*
X060763Y046568D01*
X061108Y045862D01*
X061435Y045148D01*
X061744Y044426D01*
X062036Y043697D01*
X062309Y042960D01*
X062565Y042218D01*
X062802Y041469D01*
X063021Y040715D01*
X063221Y039955D01*
X063402Y039191D01*
X063565Y038423D01*
X063709Y037651D01*
X063834Y036875D01*
X063939Y036097D01*
X064026Y035317D01*
X064093Y034534D01*
X064141Y033750D01*
X064170Y032965D01*
X064180Y032180D01*
X064170Y031395D01*
X064141Y030610D01*
X064093Y029826D01*
X064026Y029043D01*
X063939Y028263D01*
X063834Y027485D01*
X063709Y026709D01*
X063565Y025937D01*
X063402Y025169D01*
X063221Y024405D01*
X063021Y023645D01*
X062802Y022891D01*
X062565Y022142D01*
X062309Y021400D01*
X062036Y020663D01*
X061744Y019934D01*
X061435Y019212D01*
X061108Y018498D01*
X060763Y017792D01*
X060401Y017095D01*
X060023Y016407D01*
X059627Y015729D01*
X059215Y015060D01*
X058787Y014402D01*
X058343Y013754D01*
X057883Y013118D01*
X057407Y012493D01*
X056916Y011879D01*
X056411Y011278D01*
X055890Y010690D01*
X055356Y010115D01*
X054807Y009553D01*
X054245Y009004D01*
X053670Y008470D01*
X053082Y007949D01*
X052481Y007444D01*
X051867Y006953D01*
X051242Y006477D01*
X050606Y006017D01*
X049958Y005573D01*
X049300Y005145D01*
X048631Y004733D01*
X047953Y004337D01*
X047265Y003959D01*
X046568Y003597D01*
X045862Y003252D01*
X045148Y002925D01*
X044426Y002616D01*
X043697Y002324D01*
X042960Y002051D01*
X042218Y001795D01*
X041469Y001558D01*
X040715Y001339D01*
X039955Y001139D01*
X039191Y000958D01*
X038423Y000795D01*
X037651Y000651D01*
X036875Y000526D01*
X036097Y000421D01*
X035317Y000334D01*
X034534Y000267D01*
X033750Y000219D01*
X032965Y000190D01*
X032180Y000180D01*
X031395Y000190D01*
X030610Y000219D01*
X029826Y000267D01*
X029043Y000334D01*
X028263Y000421D01*
X027485Y000526D01*
X026709Y000651D01*
X025937Y000795D01*
X025169Y000958D01*
X024405Y001139D01*
X023645Y001339D01*
X022891Y001558D01*
X022142Y001795D01*
X021400Y002051D01*
X020663Y002324D01*
X019934Y002616D01*
X019212Y002925D01*
X018498Y003252D01*
X017792Y003597D01*
X017095Y003959D01*
X016407Y004337D01*
X015729Y004733D01*
X015060Y005145D01*
X014402Y005573D01*
X013754Y006017D01*
X013118Y006477D01*
X012493Y006953D01*
X011879Y007444D01*
X011278Y007949D01*
X010690Y008470D01*
X010115Y009004D01*
X009553Y009553D01*
X009004Y010115D01*
X008470Y010690D01*
X007949Y011278D01*
X007444Y011879D01*
X006953Y012493D01*
X006477Y013118D01*
X006017Y013754D01*
X005573Y014402D01*
X005145Y015060D01*
X004733Y015729D01*
X004337Y016407D01*
X003959Y017095D01*
X003597Y017792D01*
X003252Y018498D01*
X002925Y019212D01*
X002616Y019934D01*
X002324Y020663D01*
X002051Y021400D01*
X001795Y022142D01*
X001558Y022891D01*
X001339Y023645D01*
X001139Y024405D01*
X000958Y025169D01*
X000795Y025937D01*
X000651Y026709D01*
X000526Y027485D01*
X000421Y028263D01*
X000334Y029043D01*
X000267Y029826D01*
X000219Y030610D01*
X000190Y031395D01*
X000180Y032180D01*
D11*
X016261Y013180D02*
X016263Y013231D01*
X016269Y013282D01*
X016279Y013332D01*
X016292Y013382D01*
X016310Y013430D01*
X016330Y013477D01*
X016355Y013522D01*
X016383Y013565D01*
X016414Y013606D01*
X016448Y013644D01*
X016485Y013679D01*
X016524Y013712D01*
X016566Y013742D01*
X016610Y013768D01*
X016656Y013790D01*
X016704Y013810D01*
X016753Y013825D01*
X016803Y013837D01*
X016853Y013845D01*
X016904Y013849D01*
X016956Y013849D01*
X017007Y013845D01*
X017057Y013837D01*
X017107Y013825D01*
X017156Y013810D01*
X017204Y013790D01*
X017250Y013768D01*
X017294Y013742D01*
X017336Y013712D01*
X017375Y013679D01*
X017412Y013644D01*
X017446Y013606D01*
X017477Y013565D01*
X017505Y013522D01*
X017530Y013477D01*
X017550Y013430D01*
X017568Y013382D01*
X017581Y013332D01*
X017591Y013282D01*
X017597Y013231D01*
X017599Y013180D01*
X017597Y013129D01*
X017591Y013078D01*
X017581Y013028D01*
X017568Y012978D01*
X017550Y012930D01*
X017530Y012883D01*
X017505Y012838D01*
X017477Y012795D01*
X017446Y012754D01*
X017412Y012716D01*
X017375Y012681D01*
X017336Y012648D01*
X017294Y012618D01*
X017250Y012592D01*
X017204Y012570D01*
X017156Y012550D01*
X017107Y012535D01*
X017057Y012523D01*
X017007Y012515D01*
X016956Y012511D01*
X016904Y012511D01*
X016853Y012515D01*
X016803Y012523D01*
X016753Y012535D01*
X016704Y012550D01*
X016656Y012570D01*
X016610Y012592D01*
X016566Y012618D01*
X016524Y012648D01*
X016485Y012681D01*
X016448Y012716D01*
X016414Y012754D01*
X016383Y012795D01*
X016355Y012838D01*
X016330Y012883D01*
X016310Y012930D01*
X016292Y012978D01*
X016279Y013028D01*
X016269Y013078D01*
X016263Y013129D01*
X016261Y013180D01*
X046761Y013180D02*
X046763Y013231D01*
X046769Y013282D01*
X046779Y013332D01*
X046792Y013382D01*
X046810Y013430D01*
X046830Y013477D01*
X046855Y013522D01*
X046883Y013565D01*
X046914Y013606D01*
X046948Y013644D01*
X046985Y013679D01*
X047024Y013712D01*
X047066Y013742D01*
X047110Y013768D01*
X047156Y013790D01*
X047204Y013810D01*
X047253Y013825D01*
X047303Y013837D01*
X047353Y013845D01*
X047404Y013849D01*
X047456Y013849D01*
X047507Y013845D01*
X047557Y013837D01*
X047607Y013825D01*
X047656Y013810D01*
X047704Y013790D01*
X047750Y013768D01*
X047794Y013742D01*
X047836Y013712D01*
X047875Y013679D01*
X047912Y013644D01*
X047946Y013606D01*
X047977Y013565D01*
X048005Y013522D01*
X048030Y013477D01*
X048050Y013430D01*
X048068Y013382D01*
X048081Y013332D01*
X048091Y013282D01*
X048097Y013231D01*
X048099Y013180D01*
X048097Y013129D01*
X048091Y013078D01*
X048081Y013028D01*
X048068Y012978D01*
X048050Y012930D01*
X048030Y012883D01*
X048005Y012838D01*
X047977Y012795D01*
X047946Y012754D01*
X047912Y012716D01*
X047875Y012681D01*
X047836Y012648D01*
X047794Y012618D01*
X047750Y012592D01*
X047704Y012570D01*
X047656Y012550D01*
X047607Y012535D01*
X047557Y012523D01*
X047507Y012515D01*
X047456Y012511D01*
X047404Y012511D01*
X047353Y012515D01*
X047303Y012523D01*
X047253Y012535D01*
X047204Y012550D01*
X047156Y012570D01*
X047110Y012592D01*
X047066Y012618D01*
X047024Y012648D01*
X046985Y012681D01*
X046948Y012716D01*
X046914Y012754D01*
X046883Y012795D01*
X046855Y012838D01*
X046830Y012883D01*
X046810Y012930D01*
X046792Y012978D01*
X046779Y013028D01*
X046769Y013078D01*
X046763Y013129D01*
X046761Y013180D01*
X046761Y051430D02*
X046763Y051481D01*
X046769Y051532D01*
X046779Y051582D01*
X046792Y051632D01*
X046810Y051680D01*
X046830Y051727D01*
X046855Y051772D01*
X046883Y051815D01*
X046914Y051856D01*
X046948Y051894D01*
X046985Y051929D01*
X047024Y051962D01*
X047066Y051992D01*
X047110Y052018D01*
X047156Y052040D01*
X047204Y052060D01*
X047253Y052075D01*
X047303Y052087D01*
X047353Y052095D01*
X047404Y052099D01*
X047456Y052099D01*
X047507Y052095D01*
X047557Y052087D01*
X047607Y052075D01*
X047656Y052060D01*
X047704Y052040D01*
X047750Y052018D01*
X047794Y051992D01*
X047836Y051962D01*
X047875Y051929D01*
X047912Y051894D01*
X047946Y051856D01*
X047977Y051815D01*
X048005Y051772D01*
X048030Y051727D01*
X048050Y051680D01*
X048068Y051632D01*
X048081Y051582D01*
X048091Y051532D01*
X048097Y051481D01*
X048099Y051430D01*
X048097Y051379D01*
X048091Y051328D01*
X048081Y051278D01*
X048068Y051228D01*
X048050Y051180D01*
X048030Y051133D01*
X048005Y051088D01*
X047977Y051045D01*
X047946Y051004D01*
X047912Y050966D01*
X047875Y050931D01*
X047836Y050898D01*
X047794Y050868D01*
X047750Y050842D01*
X047704Y050820D01*
X047656Y050800D01*
X047607Y050785D01*
X047557Y050773D01*
X047507Y050765D01*
X047456Y050761D01*
X047404Y050761D01*
X047353Y050765D01*
X047303Y050773D01*
X047253Y050785D01*
X047204Y050800D01*
X047156Y050820D01*
X047110Y050842D01*
X047066Y050868D01*
X047024Y050898D01*
X046985Y050931D01*
X046948Y050966D01*
X046914Y051004D01*
X046883Y051045D01*
X046855Y051088D01*
X046830Y051133D01*
X046810Y051180D01*
X046792Y051228D01*
X046779Y051278D01*
X046769Y051328D01*
X046763Y051379D01*
X046761Y051430D01*
X016261Y051430D02*
X016263Y051481D01*
X016269Y051532D01*
X016279Y051582D01*
X016292Y051632D01*
X016310Y051680D01*
X016330Y051727D01*
X016355Y051772D01*
X016383Y051815D01*
X016414Y051856D01*
X016448Y051894D01*
X016485Y051929D01*
X016524Y051962D01*
X016566Y051992D01*
X016610Y052018D01*
X016656Y052040D01*
X016704Y052060D01*
X016753Y052075D01*
X016803Y052087D01*
X016853Y052095D01*
X016904Y052099D01*
X016956Y052099D01*
X017007Y052095D01*
X017057Y052087D01*
X017107Y052075D01*
X017156Y052060D01*
X017204Y052040D01*
X017250Y052018D01*
X017294Y051992D01*
X017336Y051962D01*
X017375Y051929D01*
X017412Y051894D01*
X017446Y051856D01*
X017477Y051815D01*
X017505Y051772D01*
X017530Y051727D01*
X017550Y051680D01*
X017568Y051632D01*
X017581Y051582D01*
X017591Y051532D01*
X017597Y051481D01*
X017599Y051430D01*
X017597Y051379D01*
X017591Y051328D01*
X017581Y051278D01*
X017568Y051228D01*
X017550Y051180D01*
X017530Y051133D01*
X017505Y051088D01*
X017477Y051045D01*
X017446Y051004D01*
X017412Y050966D01*
X017375Y050931D01*
X017336Y050898D01*
X017294Y050868D01*
X017250Y050842D01*
X017204Y050820D01*
X017156Y050800D01*
X017107Y050785D01*
X017057Y050773D01*
X017007Y050765D01*
X016956Y050761D01*
X016904Y050761D01*
X016853Y050765D01*
X016803Y050773D01*
X016753Y050785D01*
X016704Y050800D01*
X016656Y050820D01*
X016610Y050842D01*
X016566Y050868D01*
X016524Y050898D01*
X016485Y050931D01*
X016448Y050966D01*
X016414Y051004D01*
X016383Y051045D01*
X016355Y051088D01*
X016330Y051133D01*
X016310Y051180D01*
X016292Y051228D01*
X016279Y051278D01*
X016269Y051328D01*
X016263Y051379D01*
X016261Y051430D01*
D12*
X012430Y041867D02*
X012110Y041867D01*
X012430Y041867D02*
X012537Y041761D01*
X012537Y041440D01*
X012110Y041440D01*
X012217Y041223D02*
X012430Y041223D01*
X012537Y041116D01*
X012537Y040903D01*
X012430Y040796D01*
X012217Y040796D01*
X012110Y040903D01*
X012110Y041116D01*
X012217Y041223D01*
X012110Y040578D02*
X012110Y040258D01*
X012217Y040151D01*
X012430Y040151D01*
X012537Y040258D01*
X012537Y040578D01*
X012430Y039934D02*
X012110Y039934D01*
X012110Y039614D01*
X012217Y039507D01*
X012324Y039614D01*
X012324Y039934D01*
X012430Y039934D02*
X012537Y039827D01*
X012537Y039614D01*
X012430Y039289D02*
X012324Y039289D01*
X012324Y038862D01*
X012430Y038862D02*
X012537Y038969D01*
X012537Y039182D01*
X012430Y039289D01*
X012110Y039182D02*
X012110Y038969D01*
X012217Y038862D01*
X012430Y038862D01*
X012324Y038645D02*
X012217Y038645D01*
X012110Y038538D01*
X012110Y038218D01*
X012751Y038218D01*
X012751Y038538D01*
X012644Y038645D01*
X012537Y038645D01*
X012430Y038538D01*
X012430Y038218D01*
X012217Y038000D02*
X012110Y037893D01*
X012110Y037680D01*
X012217Y037573D01*
X012644Y037573D01*
X012751Y037680D01*
X012751Y037893D01*
X012644Y038000D01*
X012430Y038538D02*
X012324Y038645D01*
X012217Y037356D02*
X012751Y037356D01*
X012751Y036929D02*
X012217Y036929D01*
X012110Y037035D01*
X012110Y037249D01*
X012217Y037356D01*
X012751Y036711D02*
X012110Y036284D01*
X012110Y036066D02*
X012537Y035639D01*
X012537Y035422D02*
X012537Y035102D01*
X012430Y034995D01*
X012217Y034995D01*
X012110Y035102D01*
X012110Y035422D01*
X012110Y035639D02*
X012537Y036066D01*
X012217Y034779D02*
X012110Y034779D01*
X012110Y034673D01*
X012217Y034673D01*
X012217Y034779D01*
X012110Y034455D02*
X012430Y034455D01*
X012537Y034348D01*
X012537Y034028D01*
X012110Y034028D01*
X012324Y033811D02*
X012324Y033384D01*
X012430Y033384D02*
X012537Y033490D01*
X012537Y033704D01*
X012430Y033811D01*
X012324Y033811D01*
X012110Y033704D02*
X012110Y033490D01*
X012217Y033384D01*
X012430Y033384D01*
X012537Y033166D02*
X012537Y032846D01*
X012430Y032739D01*
X012324Y032846D01*
X012324Y033059D01*
X012217Y033166D01*
X012110Y033059D01*
X012110Y032739D01*
X012110Y032523D02*
X012110Y032417D01*
X012217Y032417D01*
X012217Y032523D01*
X012110Y032523D01*
X012110Y032199D02*
X012430Y032199D01*
X012537Y032092D01*
X012537Y031879D01*
X012430Y031772D01*
X012537Y031555D02*
X012537Y031234D01*
X012430Y031128D01*
X012217Y031128D01*
X012110Y031234D01*
X012110Y031555D01*
X012110Y031772D02*
X012751Y031772D01*
X012751Y030805D02*
X012857Y030805D01*
X012537Y030805D02*
X012110Y030805D01*
X012110Y030911D02*
X012110Y030698D01*
X012537Y030698D02*
X012537Y030805D01*
X012537Y030481D02*
X012537Y030374D01*
X012324Y030161D01*
X012537Y030161D02*
X012110Y030161D01*
X012110Y029945D02*
X012217Y029838D01*
X012644Y029838D01*
X012537Y029731D02*
X012537Y029945D01*
X012537Y029514D02*
X012537Y029193D01*
X012430Y029087D01*
X012324Y029193D01*
X012324Y029407D01*
X012217Y029514D01*
X012110Y029407D01*
X012110Y029087D01*
X012110Y028870D02*
X012324Y028549D01*
X012537Y028870D01*
X012751Y028549D02*
X012110Y028549D01*
X012110Y028332D02*
X012110Y028012D01*
X012217Y027905D01*
X012430Y027905D01*
X012537Y028012D01*
X012537Y028332D01*
X012430Y027687D02*
X012110Y027687D01*
X012110Y027367D01*
X012217Y027260D01*
X012324Y027367D01*
X012324Y027687D01*
X012430Y027687D02*
X012537Y027581D01*
X012537Y027367D01*
X012430Y027043D02*
X012110Y027043D01*
X012430Y027043D02*
X012537Y026936D01*
X012537Y026723D01*
X012430Y026616D01*
X012110Y026616D02*
X012751Y026616D01*
X012751Y026398D02*
X012110Y025971D01*
X012110Y025327D02*
X012751Y025754D01*
X012537Y025111D02*
X012430Y025111D01*
X012430Y025004D01*
X012537Y025004D01*
X012537Y025111D01*
X012217Y025111D02*
X012110Y025111D01*
X012110Y025004D01*
X012217Y025004D01*
X012217Y025111D01*
X012217Y024787D02*
X012110Y024680D01*
X012110Y024360D01*
X011896Y024360D02*
X012537Y024360D01*
X012537Y024680D01*
X012430Y024787D01*
X012217Y024787D01*
X012110Y024144D02*
X012217Y024037D01*
X012644Y024037D01*
X012537Y023930D02*
X012537Y024144D01*
X012537Y023714D02*
X012537Y023500D01*
X012644Y023607D02*
X012217Y023607D01*
X012110Y023714D01*
X012110Y023283D02*
X012430Y023283D01*
X012537Y023176D01*
X012537Y022963D01*
X012430Y022856D01*
X012110Y022856D02*
X012751Y022856D01*
D13*
X051805Y030930D03*
D14*
X051535Y033845D02*
X051228Y033845D01*
X051381Y033845D02*
X051381Y034459D01*
X051535Y034459D01*
X051842Y034459D02*
X051995Y034459D01*
X052302Y034152D01*
X052302Y033845D02*
X052302Y034459D01*
X052609Y034305D02*
X052609Y034152D01*
X053223Y034152D01*
X053223Y034305D02*
X053223Y033998D01*
X053069Y033845D01*
X052763Y033845D01*
X052609Y034305D02*
X052763Y034459D01*
X053069Y034459D01*
X053223Y034305D01*
X053530Y034152D02*
X053530Y033998D01*
X053683Y033845D01*
X053990Y033845D01*
X054144Y033998D01*
X053990Y034305D02*
X053683Y034305D01*
X053530Y034152D01*
X053530Y034612D02*
X053683Y034766D01*
X053990Y034766D01*
X054144Y034612D01*
X054144Y034459D01*
X053990Y034305D01*
X051381Y034766D02*
X051381Y034919D01*
X050767Y034459D02*
X050461Y034459D01*
X050307Y034305D01*
X050307Y033845D01*
X050767Y033845D01*
X050921Y033998D01*
X050767Y034152D01*
X050307Y034152D01*
X050000Y033845D02*
X049693Y033845D01*
X049847Y033845D02*
X049847Y034766D01*
X050000Y034766D01*
D15*
X024016Y050582D02*
X023778Y050344D01*
X023432Y050627D01*
X023364Y050588D01*
X023293Y050555D01*
X023095Y051032D01*
X023159Y051065D01*
X023217Y051109D01*
X023267Y051162D01*
X023307Y051222D01*
X023336Y051288D01*
X023355Y051358D01*
X023361Y051430D01*
X023353Y051510D01*
X023331Y051588D01*
X023294Y051660D01*
X023245Y051724D01*
X023184Y051778D01*
X023115Y051819D01*
X023039Y051847D01*
X022959Y051860D01*
X022879Y051858D01*
X022800Y051840D01*
X022725Y051809D01*
X022658Y051764D01*
X022601Y051707D01*
X022555Y051641D01*
X022522Y051567D01*
X022503Y051489D01*
X022500Y051408D01*
X022512Y051328D01*
X022538Y051252D01*
X022578Y051182D01*
X022631Y051120D01*
X022694Y051070D01*
X022765Y051032D01*
X022567Y050555D01*
X022496Y050588D01*
X022428Y050627D01*
X022082Y050344D01*
X021844Y050582D01*
X022127Y050928D01*
X022076Y051020D01*
X022036Y051116D01*
X022007Y051217D01*
X021562Y051262D01*
X021562Y051598D01*
X022007Y051643D01*
X022036Y051744D01*
X022076Y051840D01*
X022127Y051932D01*
X021844Y052278D01*
X022082Y052516D01*
X022428Y052233D01*
X022520Y052284D01*
X022616Y052324D01*
X022717Y052353D01*
X022762Y052798D01*
X023098Y052798D01*
X023143Y052353D01*
X023244Y052324D01*
X023340Y052284D01*
X023432Y052233D01*
X023778Y052516D01*
X024016Y052278D01*
X023733Y051932D01*
X023784Y051840D01*
X023824Y051744D01*
X023853Y051643D01*
X024298Y051598D01*
X024298Y051262D01*
X023853Y051217D01*
X023824Y051116D01*
X023784Y051020D01*
X023733Y050928D01*
X024016Y050582D01*
X023995Y050608D02*
X023455Y050608D01*
X023399Y050608D02*
X023271Y050608D01*
X023247Y050665D02*
X023948Y050665D01*
X023901Y050723D02*
X023223Y050723D01*
X023199Y050780D02*
X023854Y050780D01*
X023807Y050838D02*
X023175Y050838D01*
X023151Y050895D02*
X023760Y050895D01*
X023747Y050953D02*
X023128Y050953D01*
X023104Y051010D02*
X023779Y051010D01*
X023804Y051068D02*
X023163Y051068D01*
X023233Y051126D02*
X023827Y051126D01*
X023843Y051183D02*
X023281Y051183D01*
X023315Y051241D02*
X024087Y051241D01*
X024298Y051298D02*
X023339Y051298D01*
X023354Y051356D02*
X024298Y051356D01*
X024298Y051413D02*
X023359Y051413D01*
X023357Y051471D02*
X024298Y051471D01*
X024298Y051528D02*
X023348Y051528D01*
X023331Y051586D02*
X024298Y051586D01*
X023853Y051644D02*
X023302Y051644D01*
X023262Y051701D02*
X023836Y051701D01*
X023818Y051759D02*
X023206Y051759D01*
X023119Y051816D02*
X023794Y051816D01*
X023765Y051874D02*
X022095Y051874D01*
X022066Y051816D02*
X022743Y051816D01*
X022653Y051759D02*
X022042Y051759D01*
X022024Y051701D02*
X022596Y051701D01*
X022556Y051644D02*
X022007Y051644D01*
X022126Y051931D02*
X023734Y051931D01*
X023780Y051989D02*
X022080Y051989D01*
X022033Y052046D02*
X023827Y052046D01*
X023874Y052104D02*
X021986Y052104D01*
X021939Y052162D02*
X023921Y052162D01*
X023968Y052219D02*
X021892Y052219D01*
X021846Y052277D02*
X022375Y052277D01*
X022304Y052334D02*
X021900Y052334D01*
X021958Y052392D02*
X022234Y052392D01*
X022163Y052449D02*
X022015Y052449D01*
X022073Y052507D02*
X022093Y052507D01*
X022507Y052277D02*
X023353Y052277D01*
X023485Y052277D02*
X024014Y052277D01*
X023960Y052334D02*
X023556Y052334D01*
X023626Y052392D02*
X023902Y052392D01*
X023845Y052449D02*
X023697Y052449D01*
X023767Y052507D02*
X023787Y052507D01*
X023208Y052334D02*
X022652Y052334D01*
X022721Y052392D02*
X023139Y052392D01*
X023133Y052449D02*
X022727Y052449D01*
X022733Y052507D02*
X023127Y052507D01*
X023122Y052564D02*
X022738Y052564D01*
X022744Y052622D02*
X023116Y052622D01*
X023110Y052680D02*
X022750Y052680D01*
X022756Y052737D02*
X023104Y052737D01*
X023098Y052795D02*
X022762Y052795D01*
X022530Y051586D02*
X021562Y051586D01*
X021562Y051528D02*
X022513Y051528D01*
X022503Y051471D02*
X021562Y051471D01*
X021562Y051413D02*
X022500Y051413D01*
X022508Y051356D02*
X021562Y051356D01*
X021562Y051298D02*
X022522Y051298D01*
X022544Y051241D02*
X021773Y051241D01*
X022017Y051183D02*
X022577Y051183D01*
X022626Y051126D02*
X022033Y051126D01*
X022056Y051068D02*
X022697Y051068D01*
X022756Y051010D02*
X022081Y051010D01*
X022113Y050953D02*
X022732Y050953D01*
X022709Y050895D02*
X022100Y050895D01*
X022053Y050838D02*
X022685Y050838D01*
X022661Y050780D02*
X022006Y050780D01*
X021959Y050723D02*
X022637Y050723D01*
X022613Y050665D02*
X021912Y050665D01*
X021865Y050608D02*
X022405Y050608D01*
X022461Y050608D02*
X022589Y050608D01*
X022334Y050550D02*
X021876Y050550D01*
X021933Y050492D02*
X022264Y050492D01*
X022193Y050435D02*
X021991Y050435D01*
X022048Y050377D02*
X022122Y050377D01*
X023526Y050550D02*
X023984Y050550D01*
X023927Y050492D02*
X023596Y050492D01*
X023667Y050435D02*
X023869Y050435D01*
X023812Y050377D02*
X023738Y050377D01*
D16*
X025288Y003456D02*
X028230Y002911D01*
X027856Y000888D01*
X027952Y000748D01*
X027951Y000748D02*
X027956Y000738D01*
X027958Y000727D01*
X027956Y000715D01*
X027952Y000705D01*
X027944Y000696D01*
X027934Y000690D01*
X027923Y000687D01*
X027912Y000688D01*
X027912Y000687D02*
X027822Y000704D01*
X024880Y001249D01*
X024789Y001266D01*
X024789Y001267D02*
X024778Y001270D01*
X024769Y001277D01*
X024762Y001286D01*
X024758Y001297D01*
X024757Y001308D01*
X024760Y001319D01*
X024766Y001329D01*
X024774Y001337D01*
X024914Y001433D01*
X025288Y003456D01*
M02*
